G04 EAGLE Gerber X2 export*
%TF.Part,Single*%
%TF.FileFunction,Copper,L2,Bot,Mixed*%
%TF.FilePolarity,Positive*%
%TF.GenerationSoftware,Autodesk,EAGLE,9.1.3*%
%TF.CreationDate,2019-04-01T20:10:06Z*%
G75*
%MOMM*%
%FSLAX34Y34*%
%LPD*%
%AMOC8*
5,1,8,0,0,1.08239X$1,22.5*%
G01*
%ADD10R,1.100000X1.000000*%
%ADD11R,1.000000X1.100000*%
%ADD12C,1.879600*%
%ADD13R,1.000000X1.270000*%
%ADD14C,1.219200*%
%ADD15C,1.055600*%
%ADD16C,1.200000*%
%ADD17C,1.030000*%
%ADD18C,0.705600*%
%ADD19C,0.254000*%
%ADD20C,0.508000*%
%ADD21C,0.762000*%
%ADD22C,0.406400*%
%ADD23C,0.254000*%

G36*
X407921Y104920D02*
X407921Y104920D01*
X408161Y104933D01*
X408195Y104940D01*
X408231Y104943D01*
X408467Y104995D01*
X408702Y105042D01*
X408735Y105054D01*
X408769Y105062D01*
X408995Y105147D01*
X409221Y105228D01*
X409252Y105245D01*
X409285Y105257D01*
X409496Y105374D01*
X409708Y105487D01*
X409737Y105508D01*
X409767Y105525D01*
X409959Y105672D01*
X410153Y105814D01*
X410178Y105839D01*
X410206Y105860D01*
X410374Y106032D01*
X410545Y106201D01*
X410567Y106230D01*
X410591Y106255D01*
X410732Y106449D01*
X410878Y106642D01*
X410895Y106673D01*
X410916Y106701D01*
X411027Y106913D01*
X411144Y107125D01*
X411156Y107158D01*
X411172Y107189D01*
X411252Y107416D01*
X411336Y107642D01*
X411344Y107677D01*
X411356Y107710D01*
X411402Y107946D01*
X411453Y108181D01*
X411455Y108217D01*
X411462Y108251D01*
X411474Y108492D01*
X411490Y108732D01*
X411487Y108767D01*
X411489Y108802D01*
X411466Y109042D01*
X411447Y109282D01*
X411439Y109316D01*
X411436Y109351D01*
X411378Y109584D01*
X411325Y109820D01*
X411311Y109861D01*
X411304Y109887D01*
X411279Y109948D01*
X411200Y110170D01*
X410999Y110654D01*
X410999Y112866D01*
X411846Y114910D01*
X413622Y116686D01*
X413652Y116720D01*
X413685Y116751D01*
X413833Y116930D01*
X413983Y117104D01*
X414008Y117142D01*
X414036Y117177D01*
X414156Y117374D01*
X414280Y117569D01*
X414299Y117610D01*
X414322Y117649D01*
X414412Y117861D01*
X414506Y118072D01*
X414519Y118115D01*
X414536Y118157D01*
X414595Y118380D01*
X414658Y118602D01*
X414664Y118647D01*
X414675Y118691D01*
X414700Y118920D01*
X414731Y119149D01*
X414731Y119194D01*
X414736Y119239D01*
X414727Y119470D01*
X414725Y119701D01*
X414718Y119745D01*
X414716Y119791D01*
X414675Y120017D01*
X414638Y120246D01*
X414625Y120289D01*
X414617Y120333D01*
X414543Y120552D01*
X414475Y120772D01*
X414455Y120813D01*
X414441Y120856D01*
X414336Y121061D01*
X414236Y121270D01*
X414211Y121308D01*
X414191Y121348D01*
X414058Y121536D01*
X413929Y121728D01*
X413898Y121761D01*
X413872Y121798D01*
X413622Y122074D01*
X411846Y123850D01*
X410999Y125894D01*
X410999Y128106D01*
X411846Y130150D01*
X413410Y131714D01*
X415454Y132561D01*
X417666Y132561D01*
X419710Y131714D01*
X420006Y131418D01*
X420160Y131285D01*
X420312Y131144D01*
X420370Y131104D01*
X420423Y131058D01*
X420596Y130947D01*
X420765Y130830D01*
X420829Y130799D01*
X420888Y130761D01*
X421075Y130677D01*
X421260Y130585D01*
X421327Y130563D01*
X421391Y130534D01*
X421589Y130478D01*
X421784Y130414D01*
X421854Y130402D01*
X421922Y130383D01*
X422125Y130356D01*
X422328Y130321D01*
X422418Y130316D01*
X422468Y130310D01*
X422539Y130311D01*
X422699Y130303D01*
X444094Y130303D01*
X444299Y130318D01*
X444505Y130325D01*
X444574Y130338D01*
X444644Y130343D01*
X444845Y130387D01*
X445047Y130424D01*
X445114Y130446D01*
X445183Y130462D01*
X445375Y130535D01*
X445570Y130600D01*
X445633Y130632D01*
X445699Y130657D01*
X445878Y130757D01*
X446062Y130850D01*
X446119Y130891D01*
X446181Y130925D01*
X446344Y131050D01*
X446512Y131169D01*
X446579Y131229D01*
X446619Y131260D01*
X446669Y131311D01*
X446788Y131418D01*
X473109Y157740D01*
X474323Y158243D01*
X542334Y158243D01*
X542539Y158258D01*
X542745Y158265D01*
X542814Y158278D01*
X542884Y158283D01*
X543085Y158327D01*
X543287Y158364D01*
X543354Y158386D01*
X543423Y158402D01*
X543615Y158475D01*
X543810Y158540D01*
X543873Y158572D01*
X543939Y158597D01*
X544118Y158697D01*
X544302Y158790D01*
X544359Y158831D01*
X544421Y158865D01*
X544585Y158990D01*
X544752Y159109D01*
X544819Y159169D01*
X544859Y159200D01*
X544909Y159251D01*
X545028Y159358D01*
X614276Y228606D01*
X614381Y228728D01*
X614493Y228843D01*
X614561Y228936D01*
X614637Y229024D01*
X614723Y229160D01*
X614817Y229289D01*
X614871Y229391D01*
X614933Y229489D01*
X614999Y229635D01*
X615074Y229777D01*
X615112Y229886D01*
X615160Y229992D01*
X615204Y230146D01*
X615257Y230298D01*
X615279Y230411D01*
X615311Y230522D01*
X615333Y230682D01*
X615363Y230839D01*
X615369Y230954D01*
X615384Y231069D01*
X615383Y231230D01*
X615390Y231390D01*
X615379Y231505D01*
X615378Y231621D01*
X615353Y231780D01*
X615337Y231939D01*
X615310Y232051D01*
X615292Y232166D01*
X615244Y232319D01*
X615206Y232475D01*
X615162Y232582D01*
X615128Y232692D01*
X615058Y232837D01*
X614998Y232986D01*
X614939Y233086D01*
X614890Y233190D01*
X614800Y233323D01*
X614719Y233462D01*
X614646Y233552D01*
X614582Y233648D01*
X614474Y233767D01*
X614373Y233892D01*
X614289Y233971D01*
X614211Y234057D01*
X614087Y234159D01*
X613970Y234268D01*
X613875Y234334D01*
X613786Y234407D01*
X613648Y234491D01*
X613516Y234582D01*
X613412Y234633D01*
X613314Y234693D01*
X613166Y234755D01*
X613022Y234827D01*
X612912Y234863D01*
X612805Y234908D01*
X612650Y234948D01*
X612497Y234998D01*
X612383Y235017D01*
X612271Y235046D01*
X612112Y235064D01*
X611953Y235091D01*
X611793Y235099D01*
X611723Y235107D01*
X611672Y235105D01*
X611582Y235109D01*
X610090Y235109D01*
X609599Y235207D01*
X609136Y235398D01*
X608720Y235677D01*
X608367Y236030D01*
X608088Y236446D01*
X607897Y236909D01*
X607799Y237400D01*
X607799Y240191D01*
X615340Y240191D01*
X615385Y240194D01*
X615430Y240192D01*
X615659Y240214D01*
X615890Y240231D01*
X615934Y240240D01*
X615979Y240245D01*
X616202Y240300D01*
X616429Y240350D01*
X616471Y240366D01*
X616515Y240376D01*
X616729Y240463D01*
X616944Y240545D01*
X616984Y240567D01*
X617026Y240584D01*
X617225Y240701D01*
X617427Y240813D01*
X617463Y240841D01*
X617501Y240863D01*
X617682Y241008D01*
X617865Y241148D01*
X617896Y241180D01*
X617932Y241209D01*
X618090Y241378D01*
X618250Y241543D01*
X618277Y241579D01*
X618308Y241612D01*
X618440Y241803D01*
X618575Y241989D01*
X618596Y242029D01*
X618622Y242066D01*
X618724Y242274D01*
X618831Y242477D01*
X618846Y242520D01*
X618866Y242560D01*
X618938Y242780D01*
X619015Y242998D01*
X619023Y243042D01*
X619037Y243085D01*
X619077Y243313D01*
X619121Y243539D01*
X619123Y243584D01*
X619131Y243629D01*
X619149Y244000D01*
X619146Y244045D01*
X619148Y244090D01*
X619126Y244320D01*
X619109Y244550D01*
X619099Y244595D01*
X619095Y244639D01*
X619040Y244863D01*
X618990Y245089D01*
X618974Y245131D01*
X618963Y245175D01*
X618876Y245389D01*
X618794Y245605D01*
X618773Y245644D01*
X618755Y245686D01*
X618638Y245885D01*
X618526Y246087D01*
X618499Y246123D01*
X618476Y246162D01*
X618332Y246342D01*
X618192Y246525D01*
X618159Y246557D01*
X618131Y246592D01*
X617961Y246750D01*
X617797Y246911D01*
X617761Y246937D01*
X617727Y246968D01*
X617536Y247100D01*
X617351Y247235D01*
X617311Y247256D01*
X617274Y247282D01*
X617066Y247385D01*
X616862Y247492D01*
X616820Y247507D01*
X616779Y247527D01*
X616559Y247599D01*
X616342Y247675D01*
X616298Y247684D01*
X616255Y247698D01*
X616026Y247737D01*
X615801Y247781D01*
X615756Y247784D01*
X615711Y247791D01*
X615340Y247809D01*
X607799Y247809D01*
X607799Y250600D01*
X607897Y251091D01*
X608088Y251554D01*
X608367Y251970D01*
X608720Y252323D01*
X609136Y252602D01*
X609599Y252793D01*
X610090Y252891D01*
X613998Y252891D01*
X614043Y252894D01*
X614088Y252892D01*
X614318Y252914D01*
X614548Y252931D01*
X614592Y252940D01*
X614637Y252945D01*
X614861Y253000D01*
X615087Y253050D01*
X615129Y253066D01*
X615173Y253076D01*
X615387Y253163D01*
X615603Y253245D01*
X615642Y253267D01*
X615684Y253284D01*
X615883Y253401D01*
X616085Y253513D01*
X616121Y253541D01*
X616160Y253564D01*
X616340Y253708D01*
X616523Y253848D01*
X616555Y253880D01*
X616590Y253909D01*
X616748Y254079D01*
X616909Y254243D01*
X616935Y254279D01*
X616966Y254312D01*
X617098Y254503D01*
X617233Y254689D01*
X617254Y254729D01*
X617280Y254766D01*
X617383Y254974D01*
X617490Y255177D01*
X617505Y255220D01*
X617525Y255260D01*
X617596Y255480D01*
X617673Y255698D01*
X617682Y255742D01*
X617696Y255785D01*
X617735Y256013D01*
X617779Y256239D01*
X617781Y256284D01*
X617789Y256329D01*
X617807Y256700D01*
X617807Y271192D01*
X618998Y272383D01*
X630682Y272383D01*
X631873Y271192D01*
X631873Y271112D01*
X631876Y271067D01*
X631874Y271022D01*
X631896Y270792D01*
X631913Y270562D01*
X631922Y270518D01*
X631927Y270473D01*
X631982Y270249D01*
X632032Y270023D01*
X632048Y269981D01*
X632058Y269937D01*
X632145Y269723D01*
X632227Y269507D01*
X632249Y269468D01*
X632266Y269426D01*
X632383Y269227D01*
X632495Y269025D01*
X632523Y268989D01*
X632546Y268950D01*
X632690Y268770D01*
X632830Y268587D01*
X632862Y268555D01*
X632891Y268520D01*
X633061Y268362D01*
X633225Y268201D01*
X633261Y268175D01*
X633294Y268144D01*
X633485Y268012D01*
X633671Y267877D01*
X633711Y267856D01*
X633748Y267830D01*
X633956Y267727D01*
X634159Y267620D01*
X634202Y267605D01*
X634242Y267585D01*
X634462Y267514D01*
X634680Y267437D01*
X634724Y267428D01*
X634767Y267414D01*
X634995Y267375D01*
X635221Y267331D01*
X635266Y267329D01*
X635311Y267321D01*
X635682Y267303D01*
X731520Y267303D01*
X731565Y267306D01*
X731610Y267304D01*
X731840Y267326D01*
X732070Y267343D01*
X732114Y267352D01*
X732159Y267357D01*
X732383Y267412D01*
X732609Y267462D01*
X732651Y267478D01*
X732695Y267488D01*
X732909Y267575D01*
X733125Y267657D01*
X733164Y267679D01*
X733206Y267696D01*
X733405Y267813D01*
X733607Y267925D01*
X733643Y267953D01*
X733682Y267976D01*
X733862Y268120D01*
X734045Y268260D01*
X734077Y268292D01*
X734112Y268321D01*
X734270Y268491D01*
X734431Y268655D01*
X734457Y268691D01*
X734488Y268724D01*
X734620Y268915D01*
X734755Y269101D01*
X734776Y269141D01*
X734802Y269178D01*
X734905Y269386D01*
X735012Y269589D01*
X735027Y269632D01*
X735047Y269672D01*
X735118Y269892D01*
X735195Y270110D01*
X735204Y270154D01*
X735218Y270197D01*
X735257Y270425D01*
X735301Y270651D01*
X735303Y270696D01*
X735311Y270741D01*
X735329Y271112D01*
X735329Y278130D01*
X735328Y278154D01*
X735328Y278167D01*
X735326Y278185D01*
X735328Y278220D01*
X735306Y278450D01*
X735289Y278680D01*
X735280Y278724D01*
X735275Y278769D01*
X735220Y278993D01*
X735170Y279219D01*
X735154Y279261D01*
X735144Y279305D01*
X735057Y279519D01*
X734975Y279735D01*
X734953Y279774D01*
X734936Y279816D01*
X734819Y280015D01*
X734707Y280217D01*
X734679Y280253D01*
X734656Y280292D01*
X734512Y280472D01*
X734372Y280655D01*
X734340Y280687D01*
X734311Y280722D01*
X734141Y280880D01*
X733977Y281041D01*
X733941Y281067D01*
X733908Y281098D01*
X733717Y281230D01*
X733531Y281365D01*
X733491Y281386D01*
X733454Y281412D01*
X733246Y281515D01*
X733043Y281622D01*
X733000Y281637D01*
X732960Y281657D01*
X732740Y281728D01*
X732522Y281805D01*
X732478Y281814D01*
X732435Y281828D01*
X732207Y281867D01*
X731981Y281911D01*
X731936Y281913D01*
X731891Y281921D01*
X731520Y281939D01*
X480652Y281939D01*
X480491Y281928D01*
X480330Y281926D01*
X480217Y281908D01*
X480102Y281899D01*
X479944Y281865D01*
X479785Y281839D01*
X479675Y281805D01*
X479563Y281780D01*
X479412Y281723D01*
X479259Y281675D01*
X479155Y281626D01*
X479047Y281585D01*
X478906Y281507D01*
X478761Y281437D01*
X478666Y281373D01*
X478565Y281317D01*
X478437Y281219D01*
X478303Y281129D01*
X478218Y281052D01*
X478126Y280982D01*
X478014Y280867D01*
X477895Y280759D01*
X477821Y280670D01*
X477741Y280587D01*
X477646Y280457D01*
X477544Y280333D01*
X477484Y280234D01*
X477417Y280141D01*
X477342Y279999D01*
X477258Y279861D01*
X477214Y279754D01*
X477160Y279653D01*
X477107Y279501D01*
X477044Y279353D01*
X477015Y279241D01*
X476977Y279132D01*
X476946Y278974D01*
X476905Y278819D01*
X476893Y278704D01*
X476871Y278591D01*
X476863Y278430D01*
X476845Y278270D01*
X476849Y278155D01*
X476844Y278040D01*
X476859Y277880D01*
X476865Y277719D01*
X476885Y277605D01*
X476897Y277491D01*
X476935Y277335D01*
X476964Y277176D01*
X477001Y277067D01*
X477028Y276955D01*
X477089Y276806D01*
X477140Y276653D01*
X477193Y276551D01*
X477236Y276444D01*
X477318Y276305D01*
X477390Y276162D01*
X477457Y276068D01*
X477515Y275968D01*
X477535Y275944D01*
X477555Y275907D01*
X477583Y275871D01*
X477606Y275832D01*
X477750Y275652D01*
X477890Y275469D01*
X477922Y275437D01*
X477951Y275402D01*
X478121Y275244D01*
X478285Y275083D01*
X478321Y275057D01*
X478354Y275026D01*
X478545Y274894D01*
X478731Y274759D01*
X478771Y274738D01*
X478808Y274712D01*
X479016Y274609D01*
X479219Y274502D01*
X479262Y274487D01*
X479302Y274467D01*
X479522Y274396D01*
X479740Y274319D01*
X479784Y274310D01*
X479827Y274296D01*
X480055Y274257D01*
X480281Y274213D01*
X480326Y274211D01*
X480371Y274203D01*
X480742Y274185D01*
X505389Y274185D01*
X506883Y273566D01*
X511446Y269003D01*
X512065Y267509D01*
X512065Y247101D01*
X512080Y246896D01*
X512087Y246691D01*
X512100Y246622D01*
X512105Y246551D01*
X512149Y246350D01*
X512186Y246148D01*
X512208Y246082D01*
X512224Y246013D01*
X512297Y245820D01*
X512362Y245626D01*
X512394Y245563D01*
X512419Y245497D01*
X512519Y245317D01*
X512612Y245134D01*
X512653Y245076D01*
X512687Y245015D01*
X512812Y244851D01*
X512931Y244683D01*
X512991Y244616D01*
X513022Y244576D01*
X513073Y244527D01*
X513180Y244408D01*
X522312Y235276D01*
X522467Y235143D01*
X522618Y235002D01*
X522676Y234962D01*
X522729Y234916D01*
X522902Y234805D01*
X523072Y234688D01*
X523135Y234657D01*
X523194Y234619D01*
X523382Y234535D01*
X523566Y234443D01*
X523633Y234421D01*
X523697Y234392D01*
X523895Y234336D01*
X524027Y234293D01*
X526390Y233314D01*
X527954Y231750D01*
X528801Y229706D01*
X528801Y227494D01*
X527954Y225450D01*
X526390Y223886D01*
X524346Y223039D01*
X522134Y223039D01*
X520090Y223886D01*
X518526Y225450D01*
X517558Y227785D01*
X517558Y227788D01*
X517536Y227854D01*
X517520Y227923D01*
X517447Y228116D01*
X517382Y228310D01*
X517350Y228373D01*
X517325Y228439D01*
X517225Y228619D01*
X517132Y228802D01*
X517091Y228860D01*
X517057Y228921D01*
X516932Y229085D01*
X516813Y229253D01*
X516753Y229320D01*
X516722Y229360D01*
X516671Y229409D01*
X516564Y229528D01*
X506233Y239858D01*
X504554Y241537D01*
X503935Y243031D01*
X503935Y262246D01*
X503932Y262291D01*
X503934Y262336D01*
X503912Y262566D01*
X503895Y262796D01*
X503886Y262840D01*
X503881Y262885D01*
X503826Y263109D01*
X503776Y263335D01*
X503760Y263377D01*
X503750Y263421D01*
X503663Y263635D01*
X503581Y263851D01*
X503559Y263890D01*
X503542Y263932D01*
X503425Y264131D01*
X503313Y264333D01*
X503285Y264369D01*
X503262Y264408D01*
X503118Y264588D01*
X502978Y264771D01*
X502946Y264803D01*
X502917Y264838D01*
X502747Y264996D01*
X502583Y265157D01*
X502547Y265183D01*
X502514Y265214D01*
X502323Y265346D01*
X502137Y265481D01*
X502097Y265502D01*
X502060Y265528D01*
X501852Y265631D01*
X501649Y265738D01*
X501606Y265753D01*
X501566Y265773D01*
X501346Y265844D01*
X501128Y265921D01*
X501084Y265930D01*
X501041Y265944D01*
X500813Y265983D01*
X500587Y266027D01*
X500542Y266029D01*
X500497Y266037D01*
X500126Y266055D01*
X480742Y266055D01*
X480697Y266052D01*
X480652Y266054D01*
X480422Y266032D01*
X480192Y266015D01*
X480148Y266006D01*
X480103Y266001D01*
X479879Y265946D01*
X479653Y265896D01*
X479611Y265880D01*
X479567Y265870D01*
X479353Y265783D01*
X479137Y265701D01*
X479098Y265679D01*
X479056Y265662D01*
X478857Y265545D01*
X478655Y265433D01*
X478619Y265405D01*
X478580Y265382D01*
X478400Y265238D01*
X478217Y265098D01*
X478185Y265066D01*
X478150Y265037D01*
X477992Y264867D01*
X477831Y264703D01*
X477805Y264667D01*
X477774Y264634D01*
X477741Y264587D01*
X477691Y264536D01*
X477545Y264367D01*
X477394Y264202D01*
X477364Y264158D01*
X477330Y264118D01*
X477209Y263930D01*
X477084Y263746D01*
X477061Y263698D01*
X477033Y263653D01*
X476941Y263450D01*
X476844Y263249D01*
X476828Y263199D01*
X476806Y263150D01*
X476745Y262936D01*
X476678Y262723D01*
X476669Y262671D01*
X476655Y262620D01*
X476625Y262399D01*
X476590Y262178D01*
X476589Y262125D01*
X476582Y262073D01*
X476584Y261850D01*
X476581Y261627D01*
X476588Y261574D01*
X476588Y261521D01*
X476623Y261301D01*
X476652Y261080D01*
X476666Y261029D01*
X476674Y260977D01*
X476741Y260763D01*
X476801Y260549D01*
X476823Y260500D01*
X476838Y260450D01*
X476935Y260248D01*
X477026Y260045D01*
X477060Y259988D01*
X477077Y259952D01*
X477117Y259893D01*
X477137Y259859D01*
X477343Y259361D01*
X477441Y258870D01*
X477441Y256929D01*
X469900Y256929D01*
X462359Y256929D01*
X462359Y258870D01*
X462457Y259361D01*
X462675Y259887D01*
X462693Y259920D01*
X462809Y260111D01*
X462830Y260160D01*
X462856Y260206D01*
X462937Y260413D01*
X463023Y260619D01*
X463037Y260670D01*
X463056Y260720D01*
X463106Y260937D01*
X463162Y261153D01*
X463168Y261206D01*
X463180Y261257D01*
X463198Y261479D01*
X463223Y261701D01*
X463221Y261754D01*
X463225Y261807D01*
X463211Y262030D01*
X463203Y262253D01*
X463194Y262305D01*
X463190Y262357D01*
X463144Y262576D01*
X463104Y262795D01*
X463087Y262845D01*
X463076Y262897D01*
X462999Y263107D01*
X462928Y263318D01*
X462904Y263365D01*
X462885Y263415D01*
X462867Y263448D01*
X462867Y272288D01*
X462864Y272333D01*
X462866Y272378D01*
X462844Y272608D01*
X462827Y272838D01*
X462818Y272882D01*
X462813Y272927D01*
X462758Y273151D01*
X462708Y273377D01*
X462692Y273419D01*
X462682Y273463D01*
X462595Y273677D01*
X462513Y273893D01*
X462491Y273932D01*
X462474Y273974D01*
X462357Y274173D01*
X462245Y274375D01*
X462217Y274411D01*
X462194Y274450D01*
X462050Y274630D01*
X461910Y274813D01*
X461878Y274845D01*
X461849Y274880D01*
X461679Y275038D01*
X461515Y275199D01*
X461479Y275225D01*
X461446Y275256D01*
X461255Y275388D01*
X461069Y275523D01*
X461029Y275544D01*
X460992Y275570D01*
X460784Y275673D01*
X460581Y275780D01*
X460538Y275795D01*
X460498Y275815D01*
X460278Y275886D01*
X460060Y275963D01*
X460016Y275972D01*
X459973Y275986D01*
X459745Y276025D01*
X459519Y276069D01*
X459474Y276071D01*
X459429Y276079D01*
X459058Y276097D01*
X455919Y276097D01*
X455679Y276080D01*
X455439Y276067D01*
X455405Y276060D01*
X455369Y276057D01*
X455133Y276005D01*
X454898Y275958D01*
X454865Y275946D01*
X454831Y275938D01*
X454605Y275853D01*
X454379Y275772D01*
X454348Y275755D01*
X454315Y275743D01*
X454104Y275626D01*
X453892Y275513D01*
X453863Y275492D01*
X453833Y275475D01*
X453641Y275328D01*
X453447Y275186D01*
X453422Y275161D01*
X453394Y275140D01*
X453226Y274968D01*
X453055Y274799D01*
X453033Y274770D01*
X453009Y274745D01*
X452868Y274551D01*
X452722Y274358D01*
X452705Y274327D01*
X452684Y274299D01*
X452573Y274086D01*
X452456Y273875D01*
X452444Y273842D01*
X452428Y273811D01*
X452348Y273584D01*
X452264Y273358D01*
X452256Y273323D01*
X452244Y273290D01*
X452198Y273054D01*
X452147Y272819D01*
X452145Y272783D01*
X452138Y272749D01*
X452126Y272508D01*
X452110Y272268D01*
X452113Y272233D01*
X452111Y272198D01*
X452134Y271958D01*
X452153Y271718D01*
X452161Y271684D01*
X452164Y271649D01*
X452222Y271416D01*
X452275Y271180D01*
X452289Y271139D01*
X452296Y271113D01*
X452321Y271052D01*
X452400Y270830D01*
X452601Y270346D01*
X452601Y268134D01*
X451754Y266090D01*
X450190Y264526D01*
X448146Y263679D01*
X445934Y263679D01*
X443890Y264526D01*
X442326Y266090D01*
X442311Y266126D01*
X442255Y266238D01*
X442208Y266354D01*
X442131Y266484D01*
X442064Y266619D01*
X441992Y266722D01*
X441928Y266830D01*
X441834Y266947D01*
X441748Y267071D01*
X441662Y267162D01*
X441583Y267260D01*
X441473Y267363D01*
X441369Y267473D01*
X441271Y267550D01*
X441179Y267636D01*
X441055Y267722D01*
X440937Y267816D01*
X440829Y267878D01*
X440726Y267950D01*
X440590Y268017D01*
X440460Y268092D01*
X440344Y268139D01*
X440231Y268195D01*
X440088Y268241D01*
X439948Y268298D01*
X439826Y268327D01*
X439707Y268366D01*
X439558Y268391D01*
X439412Y268426D01*
X439287Y268438D01*
X439163Y268459D01*
X438928Y268471D01*
X438862Y268477D01*
X438835Y268475D01*
X438792Y268477D01*
X322072Y268477D01*
X322027Y268474D01*
X321982Y268476D01*
X321752Y268454D01*
X321522Y268437D01*
X321478Y268428D01*
X321433Y268423D01*
X321209Y268368D01*
X320983Y268318D01*
X320941Y268302D01*
X320897Y268292D01*
X320683Y268205D01*
X320467Y268123D01*
X320428Y268101D01*
X320386Y268084D01*
X320187Y267967D01*
X319985Y267855D01*
X319949Y267827D01*
X319910Y267804D01*
X319730Y267660D01*
X319547Y267520D01*
X319515Y267488D01*
X319480Y267459D01*
X319322Y267289D01*
X319161Y267125D01*
X319135Y267089D01*
X319104Y267056D01*
X318972Y266865D01*
X318837Y266679D01*
X318816Y266639D01*
X318790Y266602D01*
X318687Y266394D01*
X318580Y266191D01*
X318565Y266148D01*
X318545Y266108D01*
X318474Y265888D01*
X318397Y265670D01*
X318388Y265626D01*
X318374Y265583D01*
X318335Y265355D01*
X318291Y265129D01*
X318289Y265084D01*
X318281Y265039D01*
X318263Y264668D01*
X318263Y247439D01*
X318278Y247234D01*
X318285Y247029D01*
X318298Y246959D01*
X318303Y246889D01*
X318347Y246688D01*
X318384Y246486D01*
X318406Y246419D01*
X318422Y246350D01*
X318495Y246158D01*
X318560Y245963D01*
X318592Y245900D01*
X318617Y245834D01*
X318717Y245655D01*
X318810Y245471D01*
X318851Y245414D01*
X318885Y245352D01*
X319010Y245189D01*
X319129Y245021D01*
X319189Y244954D01*
X319220Y244914D01*
X319271Y244865D01*
X319378Y244746D01*
X319674Y244450D01*
X320521Y242406D01*
X320521Y240194D01*
X319674Y238150D01*
X317574Y236050D01*
X317554Y236026D01*
X317507Y235984D01*
X317489Y235962D01*
X317468Y235943D01*
X317314Y235750D01*
X317300Y235733D01*
X317213Y235633D01*
X317199Y235611D01*
X317156Y235558D01*
X317141Y235534D01*
X317124Y235512D01*
X316999Y235298D01*
X316975Y235259D01*
X316917Y235168D01*
X316908Y235148D01*
X316870Y235086D01*
X316859Y235060D01*
X316845Y235036D01*
X316752Y234806D01*
X316725Y234743D01*
X316690Y234665D01*
X316685Y234648D01*
X316656Y234578D01*
X316649Y234551D01*
X316638Y234525D01*
X316579Y234283D01*
X316557Y234198D01*
X316539Y234134D01*
X316537Y234121D01*
X316517Y234044D01*
X316514Y234016D01*
X316507Y233989D01*
X316484Y233742D01*
X316472Y233637D01*
X316465Y233587D01*
X316466Y233578D01*
X316457Y233496D01*
X316458Y233468D01*
X316455Y233440D01*
X316467Y233191D01*
X316472Y233074D01*
X316472Y233036D01*
X316473Y233028D01*
X316476Y232944D01*
X316481Y232917D01*
X316483Y232889D01*
X316531Y232645D01*
X316553Y232521D01*
X316558Y232491D01*
X316560Y232485D01*
X316575Y232401D01*
X316584Y232375D01*
X316589Y232348D01*
X316672Y232114D01*
X316714Y231989D01*
X316722Y231964D01*
X316724Y231960D01*
X316751Y231879D01*
X316764Y231854D01*
X316773Y231827D01*
X316889Y231608D01*
X316949Y231490D01*
X316960Y231467D01*
X316963Y231462D01*
X317001Y231387D01*
X317018Y231364D01*
X317031Y231339D01*
X317176Y231140D01*
X317251Y231034D01*
X317268Y231009D01*
X317272Y231004D01*
X317320Y230936D01*
X317343Y230911D01*
X317356Y230894D01*
X317398Y230851D01*
X317570Y230661D01*
X330734Y217496D01*
X330889Y217363D01*
X331040Y217222D01*
X331098Y217182D01*
X331152Y217136D01*
X331325Y217025D01*
X331494Y216908D01*
X331557Y216877D01*
X331617Y216839D01*
X331804Y216755D01*
X331988Y216663D01*
X332055Y216641D01*
X332120Y216612D01*
X332317Y216556D01*
X332513Y216492D01*
X332582Y216480D01*
X332650Y216461D01*
X332854Y216434D01*
X333057Y216399D01*
X333147Y216394D01*
X333197Y216388D01*
X333267Y216389D01*
X333428Y216381D01*
X333920Y216381D01*
X333926Y216379D01*
X334069Y216332D01*
X334192Y216310D01*
X334314Y216278D01*
X334463Y216262D01*
X334612Y216236D01*
X334737Y216232D01*
X334862Y216218D01*
X335013Y216223D01*
X335163Y216219D01*
X335288Y216233D01*
X335413Y216238D01*
X335562Y216265D01*
X335711Y216282D01*
X335833Y216314D01*
X335956Y216337D01*
X336099Y216385D01*
X336245Y216423D01*
X336360Y216473D01*
X336479Y216513D01*
X336613Y216581D01*
X336752Y216641D01*
X336858Y216706D01*
X336971Y216763D01*
X337094Y216850D01*
X337222Y216929D01*
X337318Y217009D01*
X337421Y217081D01*
X337595Y217239D01*
X337646Y217282D01*
X337664Y217302D01*
X337696Y217331D01*
X338218Y217853D01*
X351248Y217853D01*
X351431Y217764D01*
X351481Y217748D01*
X351530Y217726D01*
X351744Y217665D01*
X351957Y217598D01*
X352009Y217590D01*
X352060Y217575D01*
X352281Y217545D01*
X352502Y217510D01*
X352555Y217509D01*
X352607Y217502D01*
X352830Y217504D01*
X353053Y217501D01*
X353106Y217508D01*
X353159Y217508D01*
X353379Y217543D01*
X353600Y217572D01*
X353651Y217586D01*
X353703Y217594D01*
X353917Y217661D01*
X354131Y217721D01*
X354180Y217743D01*
X354230Y217758D01*
X354432Y217855D01*
X354635Y217946D01*
X354692Y217980D01*
X354728Y217997D01*
X354787Y218037D01*
X354821Y218057D01*
X355319Y218263D01*
X355810Y218361D01*
X357751Y218361D01*
X357751Y210820D01*
X357751Y190500D01*
X357751Y182959D01*
X355810Y182959D01*
X355319Y183057D01*
X354793Y183275D01*
X354761Y183293D01*
X354569Y183409D01*
X354520Y183430D01*
X354475Y183456D01*
X354267Y183537D01*
X354061Y183624D01*
X354010Y183637D01*
X353961Y183656D01*
X353743Y183706D01*
X353527Y183762D01*
X353474Y183768D01*
X353423Y183780D01*
X353201Y183798D01*
X352978Y183823D01*
X352926Y183821D01*
X352873Y183825D01*
X352651Y183811D01*
X352427Y183803D01*
X352375Y183794D01*
X352323Y183790D01*
X352105Y183744D01*
X351884Y183704D01*
X351834Y183687D01*
X351783Y183676D01*
X351574Y183599D01*
X351362Y183528D01*
X351315Y183504D01*
X351265Y183486D01*
X351232Y183467D01*
X338218Y183467D01*
X337696Y183989D01*
X337601Y184071D01*
X337513Y184160D01*
X337393Y184251D01*
X337279Y184350D01*
X337173Y184417D01*
X337073Y184493D01*
X336941Y184565D01*
X336814Y184646D01*
X336700Y184698D01*
X336590Y184758D01*
X336449Y184811D01*
X336311Y184873D01*
X336190Y184907D01*
X336073Y184951D01*
X335926Y184983D01*
X335781Y185024D01*
X335656Y185041D01*
X335533Y185067D01*
X335383Y185078D01*
X335234Y185098D01*
X335108Y185096D01*
X334983Y185105D01*
X334833Y185093D01*
X334682Y185091D01*
X334558Y185071D01*
X334433Y185062D01*
X334286Y185028D01*
X334137Y185005D01*
X334017Y184968D01*
X333895Y184940D01*
X333893Y184939D01*
X333428Y184939D01*
X333223Y184924D01*
X333017Y184917D01*
X332948Y184904D01*
X332878Y184899D01*
X332676Y184855D01*
X332475Y184818D01*
X332408Y184796D01*
X332339Y184780D01*
X332147Y184707D01*
X331952Y184642D01*
X331889Y184610D01*
X331823Y184585D01*
X331644Y184485D01*
X331460Y184392D01*
X331403Y184351D01*
X331341Y184317D01*
X331177Y184192D01*
X331010Y184073D01*
X330943Y184013D01*
X330903Y183982D01*
X330853Y183931D01*
X330734Y183824D01*
X318588Y171678D01*
X318454Y171523D01*
X318314Y171372D01*
X318274Y171314D01*
X318228Y171260D01*
X318117Y171087D01*
X318000Y170918D01*
X317969Y170855D01*
X317931Y170795D01*
X317847Y170608D01*
X317755Y170424D01*
X317733Y170357D01*
X317704Y170292D01*
X317648Y170095D01*
X317584Y169899D01*
X317572Y169830D01*
X317553Y169762D01*
X317526Y169558D01*
X317491Y169355D01*
X317486Y169265D01*
X317480Y169215D01*
X317481Y169145D01*
X317473Y168984D01*
X317473Y141732D01*
X317476Y141687D01*
X317474Y141642D01*
X317496Y141412D01*
X317513Y141182D01*
X317522Y141138D01*
X317527Y141093D01*
X317582Y140869D01*
X317632Y140643D01*
X317648Y140601D01*
X317658Y140557D01*
X317745Y140343D01*
X317827Y140127D01*
X317849Y140088D01*
X317866Y140046D01*
X317983Y139847D01*
X318095Y139645D01*
X318123Y139609D01*
X318146Y139570D01*
X318290Y139390D01*
X318430Y139207D01*
X318462Y139175D01*
X318491Y139140D01*
X318661Y138982D01*
X318825Y138821D01*
X318861Y138795D01*
X318894Y138764D01*
X319085Y138632D01*
X319271Y138497D01*
X319311Y138476D01*
X319348Y138450D01*
X319556Y138347D01*
X319759Y138240D01*
X319802Y138225D01*
X319842Y138205D01*
X320062Y138134D01*
X320280Y138057D01*
X320324Y138048D01*
X320367Y138034D01*
X320595Y137995D01*
X320821Y137951D01*
X320866Y137949D01*
X320911Y137941D01*
X321282Y137923D01*
X327437Y137923D01*
X328651Y137420D01*
X330115Y135955D01*
X330116Y135955D01*
X330922Y135148D01*
X331077Y135014D01*
X331228Y134874D01*
X331286Y134834D01*
X331340Y134788D01*
X331513Y134677D01*
X331682Y134560D01*
X331745Y134529D01*
X331805Y134491D01*
X331992Y134407D01*
X332176Y134315D01*
X332243Y134293D01*
X332308Y134264D01*
X332505Y134208D01*
X332701Y134144D01*
X332770Y134132D01*
X332838Y134113D01*
X333042Y134086D01*
X333245Y134051D01*
X333335Y134046D01*
X333385Y134040D01*
X333455Y134041D01*
X333616Y134033D01*
X341088Y134033D01*
X341271Y133944D01*
X341322Y133928D01*
X341369Y133906D01*
X341585Y133845D01*
X341797Y133778D01*
X341849Y133769D01*
X341900Y133755D01*
X342122Y133725D01*
X342342Y133690D01*
X342395Y133689D01*
X342447Y133682D01*
X342671Y133684D01*
X342894Y133681D01*
X342946Y133688D01*
X342998Y133688D01*
X343220Y133723D01*
X343441Y133752D01*
X343491Y133766D01*
X343543Y133774D01*
X343757Y133841D01*
X343972Y133901D01*
X344020Y133923D01*
X344070Y133938D01*
X344271Y134035D01*
X344476Y134126D01*
X344532Y134160D01*
X344568Y134177D01*
X344627Y134217D01*
X344661Y134237D01*
X345159Y134443D01*
X345650Y134541D01*
X347591Y134541D01*
X347591Y127000D01*
X347591Y111760D01*
X347594Y111715D01*
X347592Y111670D01*
X347614Y111441D01*
X347631Y111210D01*
X347640Y111166D01*
X347645Y111121D01*
X347700Y110898D01*
X347750Y110671D01*
X347766Y110629D01*
X347776Y110585D01*
X347863Y110371D01*
X347945Y110156D01*
X347967Y110116D01*
X347984Y110074D01*
X348101Y109875D01*
X348213Y109673D01*
X348241Y109637D01*
X348263Y109599D01*
X348408Y109418D01*
X348548Y109235D01*
X348580Y109204D01*
X348609Y109168D01*
X348778Y109010D01*
X348943Y108850D01*
X348979Y108823D01*
X349012Y108792D01*
X349203Y108660D01*
X349389Y108525D01*
X349429Y108504D01*
X349466Y108478D01*
X349674Y108376D01*
X349877Y108269D01*
X349920Y108254D01*
X349960Y108234D01*
X350180Y108162D01*
X350398Y108085D01*
X350442Y108077D01*
X350485Y108063D01*
X350713Y108023D01*
X350939Y107979D01*
X350984Y107977D01*
X351029Y107969D01*
X351400Y107951D01*
X351445Y107954D01*
X351490Y107952D01*
X351720Y107974D01*
X351950Y107991D01*
X351995Y108001D01*
X352039Y108005D01*
X352263Y108060D01*
X352489Y108110D01*
X352531Y108126D01*
X352575Y108137D01*
X352789Y108224D01*
X353005Y108306D01*
X353044Y108327D01*
X353086Y108345D01*
X353285Y108462D01*
X353487Y108574D01*
X353523Y108601D01*
X353562Y108624D01*
X353742Y108768D01*
X353925Y108908D01*
X353957Y108941D01*
X353992Y108969D01*
X354150Y109139D01*
X354311Y109303D01*
X354337Y109339D01*
X354368Y109373D01*
X354500Y109564D01*
X354635Y109749D01*
X354656Y109789D01*
X354682Y109826D01*
X354785Y110034D01*
X354892Y110238D01*
X354907Y110280D01*
X354927Y110321D01*
X354999Y110541D01*
X355075Y110758D01*
X355084Y110802D01*
X355098Y110845D01*
X355137Y111074D01*
X355181Y111299D01*
X355184Y111344D01*
X355191Y111389D01*
X355209Y111760D01*
X355209Y127000D01*
X355209Y134541D01*
X357150Y134541D01*
X357641Y134443D01*
X358104Y134252D01*
X358639Y133894D01*
X358762Y133787D01*
X358801Y133763D01*
X358836Y133734D01*
X359033Y133614D01*
X359227Y133490D01*
X359269Y133472D01*
X359308Y133448D01*
X359520Y133359D01*
X359730Y133264D01*
X359774Y133251D01*
X359816Y133233D01*
X360039Y133176D01*
X360261Y133112D01*
X360306Y133106D01*
X360350Y133095D01*
X360579Y133069D01*
X360808Y133039D01*
X360853Y133039D01*
X360898Y133034D01*
X361129Y133043D01*
X361359Y133045D01*
X361404Y133052D01*
X361450Y133054D01*
X361676Y133095D01*
X361904Y133131D01*
X361948Y133145D01*
X361992Y133153D01*
X362211Y133227D01*
X362431Y133295D01*
X362472Y133315D01*
X362515Y133329D01*
X362721Y133434D01*
X362929Y133533D01*
X362966Y133559D01*
X363007Y133579D01*
X363195Y133713D01*
X363387Y133841D01*
X363420Y133871D01*
X363457Y133898D01*
X363606Y134033D01*
X370744Y134033D01*
X370949Y134048D01*
X371155Y134055D01*
X371224Y134068D01*
X371294Y134073D01*
X371496Y134117D01*
X371697Y134154D01*
X371764Y134176D01*
X371833Y134192D01*
X372025Y134265D01*
X372220Y134330D01*
X372283Y134362D01*
X372349Y134387D01*
X372528Y134487D01*
X372712Y134580D01*
X372769Y134621D01*
X372831Y134655D01*
X372994Y134780D01*
X373162Y134899D01*
X373229Y134959D01*
X373269Y134990D01*
X373319Y135040D01*
X373438Y135148D01*
X397184Y158894D01*
X397318Y159049D01*
X397458Y159200D01*
X397498Y159258D01*
X397544Y159312D01*
X397655Y159485D01*
X397772Y159654D01*
X397803Y159717D01*
X397841Y159777D01*
X397925Y159964D01*
X398017Y160148D01*
X398039Y160215D01*
X398068Y160280D01*
X398124Y160477D01*
X398188Y160673D01*
X398200Y160742D01*
X398219Y160810D01*
X398243Y160991D01*
X399146Y163170D01*
X400710Y164734D01*
X402754Y165581D01*
X404966Y165581D01*
X407010Y164734D01*
X408574Y163170D01*
X409421Y161126D01*
X409421Y158914D01*
X408574Y156870D01*
X407010Y155306D01*
X404966Y154459D01*
X403668Y154459D01*
X403463Y154444D01*
X403257Y154437D01*
X403188Y154424D01*
X403118Y154419D01*
X402917Y154375D01*
X402715Y154338D01*
X402648Y154316D01*
X402579Y154300D01*
X402387Y154227D01*
X402192Y154162D01*
X402129Y154130D01*
X402063Y154105D01*
X401884Y154005D01*
X401700Y153912D01*
X401643Y153871D01*
X401581Y153837D01*
X401418Y153712D01*
X401250Y153593D01*
X401183Y153533D01*
X401143Y153502D01*
X401093Y153451D01*
X400974Y153344D01*
X388674Y141043D01*
X388570Y140922D01*
X388457Y140807D01*
X388389Y140713D01*
X388313Y140626D01*
X388227Y140491D01*
X388133Y140361D01*
X388079Y140259D01*
X388017Y140161D01*
X387951Y140015D01*
X387876Y139872D01*
X387838Y139764D01*
X387790Y139658D01*
X387746Y139504D01*
X387693Y139352D01*
X387671Y139239D01*
X387639Y139128D01*
X387617Y138968D01*
X387587Y138811D01*
X387581Y138695D01*
X387566Y138581D01*
X387567Y138420D01*
X387560Y138260D01*
X387571Y138145D01*
X387572Y138029D01*
X387597Y137871D01*
X387613Y137711D01*
X387640Y137598D01*
X387658Y137484D01*
X387706Y137331D01*
X387744Y137175D01*
X387788Y137068D01*
X387822Y136958D01*
X387892Y136813D01*
X387952Y136664D01*
X388011Y136564D01*
X388060Y136460D01*
X388150Y136327D01*
X388231Y136188D01*
X388304Y136098D01*
X388368Y136002D01*
X388476Y135883D01*
X388577Y135758D01*
X388661Y135679D01*
X388739Y135593D01*
X388863Y135491D01*
X388980Y135382D01*
X389075Y135316D01*
X389164Y135243D01*
X389302Y135159D01*
X389434Y135068D01*
X389538Y135017D01*
X389636Y134957D01*
X389784Y134895D01*
X389928Y134823D01*
X390038Y134787D01*
X390145Y134742D01*
X390300Y134702D01*
X390453Y134652D01*
X390567Y134633D01*
X390679Y134604D01*
X390838Y134586D01*
X390997Y134559D01*
X391157Y134551D01*
X391227Y134543D01*
X391278Y134545D01*
X391368Y134541D01*
X392710Y134541D01*
X393201Y134443D01*
X393664Y134252D01*
X394080Y133973D01*
X394433Y133620D01*
X394712Y133204D01*
X394903Y132741D01*
X395001Y132250D01*
X395001Y130809D01*
X386960Y130809D01*
X386915Y130806D01*
X386870Y130808D01*
X386641Y130786D01*
X386410Y130769D01*
X386366Y130760D01*
X386321Y130755D01*
X386098Y130700D01*
X385871Y130650D01*
X385829Y130634D01*
X385785Y130624D01*
X385571Y130537D01*
X385356Y130455D01*
X385316Y130433D01*
X385274Y130416D01*
X385075Y130299D01*
X384873Y130187D01*
X384837Y130159D01*
X384799Y130137D01*
X384618Y129992D01*
X384435Y129852D01*
X384434Y129852D01*
X384403Y129820D01*
X384368Y129791D01*
X384210Y129621D01*
X384049Y129457D01*
X384023Y129421D01*
X383992Y129387D01*
X383860Y129196D01*
X383725Y129011D01*
X383704Y128971D01*
X383678Y128934D01*
X383575Y128726D01*
X383468Y128522D01*
X383453Y128480D01*
X383433Y128439D01*
X383361Y128219D01*
X383285Y128002D01*
X383276Y127958D01*
X383262Y127915D01*
X383223Y127686D01*
X383179Y127461D01*
X383176Y127416D01*
X383169Y127371D01*
X383151Y127000D01*
X383151Y111760D01*
X383154Y111715D01*
X383152Y111670D01*
X383174Y111441D01*
X383191Y111210D01*
X383200Y111166D01*
X383205Y111121D01*
X383260Y110898D01*
X383310Y110671D01*
X383326Y110629D01*
X383336Y110585D01*
X383423Y110371D01*
X383505Y110156D01*
X383527Y110116D01*
X383544Y110074D01*
X383661Y109875D01*
X383773Y109673D01*
X383801Y109637D01*
X383823Y109599D01*
X383968Y109418D01*
X384108Y109235D01*
X384140Y109204D01*
X384169Y109168D01*
X384339Y109010D01*
X384503Y108849D01*
X384539Y108823D01*
X384573Y108792D01*
X384764Y108660D01*
X384949Y108525D01*
X384989Y108504D01*
X385026Y108478D01*
X385234Y108375D01*
X385438Y108268D01*
X385480Y108253D01*
X385521Y108233D01*
X385741Y108161D01*
X385958Y108085D01*
X386002Y108076D01*
X386045Y108062D01*
X386274Y108023D01*
X386499Y107979D01*
X386544Y107976D01*
X386589Y107969D01*
X386960Y107951D01*
X395085Y107951D01*
X395110Y107849D01*
X395160Y107623D01*
X395176Y107581D01*
X395186Y107537D01*
X395273Y107323D01*
X395355Y107107D01*
X395377Y107068D01*
X395394Y107026D01*
X395511Y106827D01*
X395623Y106625D01*
X395651Y106589D01*
X395674Y106550D01*
X395818Y106370D01*
X395958Y106187D01*
X395990Y106155D01*
X396019Y106120D01*
X396189Y105962D01*
X396353Y105801D01*
X396389Y105775D01*
X396422Y105744D01*
X396613Y105612D01*
X396799Y105477D01*
X396839Y105456D01*
X396876Y105430D01*
X397084Y105327D01*
X397287Y105220D01*
X397330Y105205D01*
X397370Y105185D01*
X397590Y105114D01*
X397808Y105037D01*
X397852Y105028D01*
X397895Y105014D01*
X398123Y104975D01*
X398349Y104931D01*
X398394Y104929D01*
X398439Y104921D01*
X398810Y104903D01*
X407681Y104903D01*
X407921Y104920D01*
G37*
G36*
X441283Y3822D02*
X441283Y3822D01*
X441444Y3824D01*
X441558Y3842D01*
X441673Y3851D01*
X441830Y3885D01*
X441988Y3910D01*
X442099Y3945D01*
X442212Y3970D01*
X442362Y4027D01*
X442515Y4074D01*
X442620Y4124D01*
X442727Y4165D01*
X442868Y4243D01*
X443013Y4313D01*
X443109Y4377D01*
X443210Y4433D01*
X443337Y4531D01*
X443471Y4620D01*
X443556Y4698D01*
X443648Y4768D01*
X443760Y4883D01*
X443879Y4991D01*
X443953Y5080D01*
X444034Y5163D01*
X444128Y5293D01*
X444230Y5417D01*
X444290Y5516D01*
X444358Y5609D01*
X444432Y5751D01*
X444516Y5889D01*
X444561Y5995D01*
X444614Y6097D01*
X444668Y6249D01*
X444730Y6397D01*
X444759Y6509D01*
X444798Y6618D01*
X444829Y6775D01*
X444869Y6931D01*
X444882Y7046D01*
X444904Y7159D01*
X444912Y7319D01*
X444929Y7479D01*
X444925Y7595D01*
X444931Y7710D01*
X444916Y7870D01*
X444910Y8031D01*
X444889Y8144D01*
X444878Y8259D01*
X444840Y8415D01*
X444811Y8573D01*
X444774Y8683D01*
X444746Y8795D01*
X444686Y8944D01*
X444634Y9096D01*
X444582Y9199D01*
X444539Y9306D01*
X444457Y9445D01*
X444384Y9588D01*
X444318Y9682D01*
X444259Y9782D01*
X444159Y9907D01*
X444066Y10038D01*
X443958Y10157D01*
X443914Y10212D01*
X443877Y10247D01*
X443816Y10314D01*
X442992Y11138D01*
X442193Y12237D01*
X441576Y13449D01*
X441156Y14742D01*
X440943Y16084D01*
X440943Y19051D01*
X449580Y19051D01*
X458217Y19051D01*
X458217Y16084D01*
X458004Y14742D01*
X457584Y13449D01*
X456967Y12237D01*
X456168Y11138D01*
X455344Y10314D01*
X455239Y10192D01*
X455126Y10077D01*
X455059Y9984D01*
X454983Y9896D01*
X454896Y9761D01*
X454802Y9631D01*
X454748Y9529D01*
X454686Y9431D01*
X454620Y9285D01*
X454546Y9143D01*
X454507Y9034D01*
X454460Y8928D01*
X454416Y8774D01*
X454362Y8622D01*
X454340Y8509D01*
X454308Y8398D01*
X454287Y8238D01*
X454256Y8081D01*
X454250Y7966D01*
X454235Y7851D01*
X454237Y7690D01*
X454229Y7530D01*
X454240Y7415D01*
X454242Y7299D01*
X454267Y7141D01*
X454282Y6981D01*
X454310Y6869D01*
X454328Y6754D01*
X454375Y6601D01*
X454414Y6445D01*
X454457Y6338D01*
X454492Y6228D01*
X454561Y6083D01*
X454621Y5934D01*
X454680Y5834D01*
X454730Y5730D01*
X454819Y5597D01*
X454901Y5458D01*
X454973Y5368D01*
X455038Y5272D01*
X455145Y5154D01*
X455246Y5028D01*
X455331Y4949D01*
X455408Y4864D01*
X455532Y4762D01*
X455650Y4652D01*
X455745Y4586D01*
X455834Y4513D01*
X455971Y4430D01*
X456103Y4338D01*
X456207Y4287D01*
X456306Y4227D01*
X456454Y4165D01*
X456598Y4093D01*
X456708Y4057D01*
X456814Y4012D01*
X456970Y3972D01*
X457122Y3922D01*
X457236Y3903D01*
X457348Y3874D01*
X457508Y3856D01*
X457666Y3829D01*
X457826Y3821D01*
X457896Y3813D01*
X457947Y3815D01*
X458037Y3811D01*
X671582Y3811D01*
X671812Y3827D01*
X672041Y3838D01*
X672086Y3847D01*
X672133Y3851D01*
X672357Y3900D01*
X672583Y3944D01*
X672626Y3960D01*
X672671Y3970D01*
X672886Y4051D01*
X673103Y4127D01*
X673144Y4149D01*
X673187Y4165D01*
X673388Y4277D01*
X673592Y4384D01*
X673629Y4411D01*
X673669Y4433D01*
X673852Y4573D01*
X674038Y4708D01*
X674071Y4740D01*
X674108Y4768D01*
X674268Y4932D01*
X674433Y5093D01*
X674461Y5130D01*
X674493Y5163D01*
X674628Y5348D01*
X674768Y5531D01*
X674790Y5572D01*
X674818Y5609D01*
X674924Y5812D01*
X675036Y6013D01*
X675053Y6057D01*
X675074Y6097D01*
X675151Y6314D01*
X675232Y6529D01*
X675242Y6574D01*
X675257Y6618D01*
X675302Y6843D01*
X675351Y7068D01*
X675355Y7114D01*
X675364Y7159D01*
X675375Y7388D01*
X675392Y7618D01*
X675388Y7664D01*
X675391Y7710D01*
X675369Y7939D01*
X675352Y8168D01*
X675342Y8213D01*
X675338Y8259D01*
X675283Y8481D01*
X675233Y8707D01*
X675217Y8750D01*
X675206Y8795D01*
X675120Y9008D01*
X675038Y9223D01*
X675016Y9263D01*
X674998Y9306D01*
X674882Y9505D01*
X674770Y9705D01*
X674742Y9742D01*
X674719Y9782D01*
X674575Y9961D01*
X674436Y10144D01*
X674403Y10176D01*
X674374Y10212D01*
X674205Y10369D01*
X674041Y10529D01*
X674004Y10557D01*
X673970Y10588D01*
X673781Y10719D01*
X673595Y10854D01*
X673554Y10876D01*
X673516Y10902D01*
X673310Y11004D01*
X673107Y11111D01*
X673053Y11131D01*
X673022Y11147D01*
X672954Y11169D01*
X672759Y11243D01*
X671057Y11796D01*
X669383Y12649D01*
X667862Y13754D01*
X666534Y15082D01*
X665828Y16053D01*
X665784Y16105D01*
X665746Y16162D01*
X665607Y16316D01*
X665473Y16475D01*
X665422Y16520D01*
X665376Y16571D01*
X665215Y16703D01*
X665060Y16841D01*
X665003Y16878D01*
X664950Y16921D01*
X664772Y17029D01*
X664598Y17143D01*
X664537Y17172D01*
X664478Y17207D01*
X664286Y17288D01*
X664098Y17376D01*
X664033Y17395D01*
X663970Y17422D01*
X663769Y17474D01*
X663570Y17533D01*
X663502Y17543D01*
X663436Y17560D01*
X663229Y17583D01*
X663024Y17613D01*
X662956Y17613D01*
X662888Y17621D01*
X662680Y17613D01*
X662472Y17613D01*
X662404Y17604D01*
X662336Y17601D01*
X662132Y17564D01*
X661926Y17534D01*
X661861Y17514D01*
X661793Y17502D01*
X661596Y17436D01*
X661397Y17376D01*
X661336Y17348D01*
X661271Y17326D01*
X661085Y17232D01*
X660897Y17144D01*
X660840Y17107D01*
X660779Y17076D01*
X660609Y16956D01*
X660435Y16842D01*
X660384Y16797D01*
X660328Y16757D01*
X660053Y16508D01*
X656715Y13170D01*
X652514Y11429D01*
X647966Y11429D01*
X643765Y13170D01*
X640550Y16385D01*
X638809Y20586D01*
X638809Y25134D01*
X640550Y29335D01*
X643765Y32550D01*
X647966Y34291D01*
X652514Y34291D01*
X656715Y32551D01*
X660053Y29212D01*
X660105Y29168D01*
X660151Y29118D01*
X660313Y28988D01*
X660470Y28852D01*
X660528Y28815D01*
X660581Y28772D01*
X660760Y28667D01*
X660935Y28555D01*
X660998Y28527D01*
X661057Y28492D01*
X661249Y28414D01*
X661439Y28328D01*
X661504Y28310D01*
X661567Y28284D01*
X661769Y28234D01*
X661969Y28177D01*
X662037Y28168D01*
X662103Y28151D01*
X662309Y28131D01*
X662516Y28104D01*
X662584Y28104D01*
X662652Y28098D01*
X662860Y28108D01*
X663067Y28110D01*
X663135Y28121D01*
X663203Y28124D01*
X663407Y28164D01*
X663612Y28196D01*
X663678Y28217D01*
X663745Y28230D01*
X663940Y28298D01*
X664139Y28360D01*
X664201Y28390D01*
X664265Y28412D01*
X664449Y28509D01*
X664637Y28599D01*
X664693Y28637D01*
X664754Y28668D01*
X664922Y28790D01*
X665095Y28906D01*
X665145Y28952D01*
X665200Y28992D01*
X665349Y29137D01*
X665503Y29277D01*
X665547Y29329D01*
X665596Y29377D01*
X665828Y29667D01*
X666534Y30638D01*
X667862Y31966D01*
X669383Y33071D01*
X671057Y33924D01*
X672844Y34505D01*
X674786Y34812D01*
X674920Y34844D01*
X675056Y34865D01*
X675188Y34906D01*
X675323Y34938D01*
X675451Y34988D01*
X675582Y35029D01*
X675707Y35089D01*
X675836Y35140D01*
X675956Y35208D01*
X676080Y35267D01*
X676195Y35345D01*
X676315Y35413D01*
X676424Y35498D01*
X676538Y35575D01*
X676641Y35668D01*
X676750Y35754D01*
X676844Y35853D01*
X676946Y35946D01*
X677035Y36053D01*
X677130Y36153D01*
X677210Y36265D01*
X677297Y36371D01*
X677369Y36490D01*
X677449Y36603D01*
X677512Y36726D01*
X677583Y36843D01*
X677637Y36971D01*
X677700Y37095D01*
X677744Y37225D01*
X677797Y37351D01*
X677832Y37485D01*
X677877Y37617D01*
X677902Y37753D01*
X677936Y37885D01*
X677951Y38023D01*
X677977Y38160D01*
X677982Y38297D01*
X677997Y38434D01*
X677992Y38572D01*
X677997Y38711D01*
X677982Y38848D01*
X677977Y38985D01*
X677952Y39122D01*
X677937Y39259D01*
X677903Y39392D01*
X677878Y39528D01*
X677834Y39659D01*
X677799Y39793D01*
X677746Y39920D01*
X677702Y40051D01*
X677639Y40174D01*
X677585Y40302D01*
X677514Y40420D01*
X677452Y40542D01*
X677371Y40656D01*
X677300Y40774D01*
X677213Y40880D01*
X677133Y40993D01*
X676995Y41146D01*
X676950Y41200D01*
X676923Y41224D01*
X676883Y41268D01*
X610528Y107624D01*
X610373Y107758D01*
X610222Y107898D01*
X610164Y107938D01*
X610111Y107984D01*
X609938Y108095D01*
X609768Y108212D01*
X609705Y108243D01*
X609646Y108281D01*
X609458Y108365D01*
X609274Y108457D01*
X609207Y108479D01*
X609143Y108508D01*
X608945Y108564D01*
X608814Y108607D01*
X606450Y109586D01*
X604886Y111150D01*
X604039Y113194D01*
X604039Y115406D01*
X604886Y117450D01*
X606450Y119014D01*
X608494Y119861D01*
X610706Y119861D01*
X612750Y119014D01*
X614314Y117450D01*
X615282Y115115D01*
X615282Y115112D01*
X615304Y115046D01*
X615320Y114977D01*
X615393Y114784D01*
X615458Y114590D01*
X615490Y114527D01*
X615515Y114461D01*
X615615Y114281D01*
X615708Y114098D01*
X615749Y114040D01*
X615783Y113979D01*
X615908Y113815D01*
X616027Y113647D01*
X616087Y113580D01*
X616118Y113540D01*
X616169Y113491D01*
X616276Y113372D01*
X694556Y35092D01*
X694651Y35010D01*
X694739Y34921D01*
X694860Y34830D01*
X694974Y34731D01*
X695079Y34664D01*
X695179Y34588D01*
X695312Y34516D01*
X695439Y34435D01*
X695553Y34383D01*
X695663Y34323D01*
X695804Y34270D01*
X695942Y34208D01*
X696062Y34174D01*
X696180Y34130D01*
X696327Y34098D01*
X696472Y34057D01*
X696597Y34040D01*
X696719Y34014D01*
X696869Y34003D01*
X697019Y33983D01*
X697145Y33985D01*
X697270Y33976D01*
X697420Y33988D01*
X697571Y33990D01*
X697694Y34010D01*
X697820Y34019D01*
X697967Y34053D01*
X698115Y34076D01*
X698235Y34113D01*
X698358Y34141D01*
X698578Y34220D01*
X698642Y34240D01*
X698667Y34252D01*
X698708Y34266D01*
X698766Y34291D01*
X703314Y34291D01*
X707515Y32550D01*
X710730Y29335D01*
X712471Y25134D01*
X712471Y20586D01*
X710730Y16385D01*
X707515Y13170D01*
X703314Y11429D01*
X698766Y11429D01*
X694565Y13170D01*
X691227Y16508D01*
X691175Y16552D01*
X691129Y16602D01*
X690967Y16732D01*
X690810Y16868D01*
X690752Y16905D01*
X690699Y16948D01*
X690520Y17053D01*
X690345Y17165D01*
X690282Y17193D01*
X690223Y17228D01*
X690031Y17306D01*
X689841Y17392D01*
X689776Y17410D01*
X689713Y17436D01*
X689511Y17486D01*
X689311Y17543D01*
X689243Y17552D01*
X689177Y17569D01*
X688970Y17589D01*
X688764Y17616D01*
X688696Y17616D01*
X688628Y17622D01*
X688421Y17612D01*
X688213Y17610D01*
X688145Y17599D01*
X688077Y17596D01*
X687873Y17556D01*
X687668Y17524D01*
X687602Y17503D01*
X687535Y17490D01*
X687340Y17422D01*
X687141Y17360D01*
X687079Y17330D01*
X687015Y17308D01*
X686831Y17211D01*
X686643Y17121D01*
X686587Y17083D01*
X686526Y17052D01*
X686358Y16930D01*
X686185Y16814D01*
X686135Y16768D01*
X686080Y16728D01*
X685931Y16583D01*
X685777Y16443D01*
X685733Y16390D01*
X685684Y16343D01*
X685452Y16053D01*
X684746Y15082D01*
X683418Y13754D01*
X681897Y12649D01*
X680223Y11796D01*
X678521Y11243D01*
X678307Y11156D01*
X678093Y11075D01*
X678053Y11052D01*
X678010Y11035D01*
X677812Y10918D01*
X677611Y10807D01*
X677574Y10779D01*
X677534Y10755D01*
X677355Y10612D01*
X677172Y10472D01*
X677140Y10439D01*
X677104Y10410D01*
X676947Y10241D01*
X676787Y10077D01*
X676760Y10040D01*
X676728Y10006D01*
X676597Y9817D01*
X676462Y9631D01*
X676441Y9590D01*
X676415Y9552D01*
X676312Y9345D01*
X676206Y9143D01*
X676190Y9099D01*
X676170Y9058D01*
X676099Y8839D01*
X676023Y8622D01*
X676014Y8577D01*
X675999Y8533D01*
X675961Y8306D01*
X675916Y8081D01*
X675914Y8035D01*
X675906Y7989D01*
X675901Y7760D01*
X675889Y7530D01*
X675894Y7484D01*
X675893Y7438D01*
X675920Y7210D01*
X675942Y6981D01*
X675953Y6936D01*
X675959Y6890D01*
X676019Y6668D01*
X676074Y6445D01*
X676091Y6402D01*
X676104Y6358D01*
X676195Y6147D01*
X676282Y5934D01*
X676305Y5894D01*
X676324Y5852D01*
X676445Y5657D01*
X676561Y5458D01*
X676590Y5422D01*
X676614Y5383D01*
X676762Y5208D01*
X676906Y5028D01*
X676940Y4996D01*
X676970Y4961D01*
X677141Y4809D01*
X677310Y4652D01*
X677348Y4625D01*
X677383Y4595D01*
X677574Y4469D01*
X677764Y4338D01*
X677805Y4318D01*
X677844Y4292D01*
X678052Y4196D01*
X678258Y4093D01*
X678302Y4079D01*
X678344Y4059D01*
X678564Y3994D01*
X678783Y3922D01*
X678828Y3914D01*
X678872Y3901D01*
X679100Y3868D01*
X679326Y3829D01*
X679384Y3826D01*
X679418Y3821D01*
X679489Y3821D01*
X679698Y3811D01*
X731520Y3811D01*
X731565Y3814D01*
X731610Y3812D01*
X731840Y3834D01*
X732070Y3851D01*
X732114Y3860D01*
X732159Y3865D01*
X732383Y3920D01*
X732609Y3970D01*
X732651Y3986D01*
X732695Y3997D01*
X732909Y4083D01*
X733125Y4165D01*
X733164Y4187D01*
X733206Y4204D01*
X733405Y4321D01*
X733607Y4433D01*
X733643Y4461D01*
X733682Y4484D01*
X733862Y4628D01*
X734045Y4768D01*
X734077Y4800D01*
X734112Y4829D01*
X734270Y4999D01*
X734431Y5163D01*
X734457Y5199D01*
X734488Y5232D01*
X734620Y5423D01*
X734755Y5609D01*
X734776Y5649D01*
X734802Y5686D01*
X734905Y5894D01*
X735012Y6097D01*
X735027Y6140D01*
X735047Y6180D01*
X735118Y6400D01*
X735195Y6618D01*
X735204Y6662D01*
X735218Y6705D01*
X735257Y6933D01*
X735301Y7159D01*
X735303Y7204D01*
X735311Y7249D01*
X735329Y7620D01*
X735329Y151388D01*
X735318Y151548D01*
X735316Y151709D01*
X735298Y151823D01*
X735289Y151938D01*
X735255Y152095D01*
X735230Y152254D01*
X735195Y152364D01*
X735170Y152477D01*
X735113Y152627D01*
X735066Y152781D01*
X735016Y152885D01*
X734975Y152993D01*
X734897Y153133D01*
X734827Y153278D01*
X734763Y153374D01*
X734707Y153475D01*
X734609Y153603D01*
X734520Y153736D01*
X734442Y153822D01*
X734372Y153914D01*
X734257Y154026D01*
X734149Y154145D01*
X734060Y154218D01*
X733977Y154299D01*
X733848Y154393D01*
X733723Y154496D01*
X733624Y154556D01*
X733531Y154623D01*
X733389Y154698D01*
X733251Y154781D01*
X733145Y154826D01*
X733043Y154880D01*
X732891Y154933D01*
X732743Y154996D01*
X732631Y155025D01*
X732522Y155063D01*
X732365Y155094D01*
X732209Y155135D01*
X732094Y155147D01*
X731981Y155169D01*
X731821Y155177D01*
X731661Y155195D01*
X731545Y155191D01*
X731430Y155196D01*
X731270Y155181D01*
X731110Y155175D01*
X730996Y155155D01*
X730881Y155143D01*
X730725Y155105D01*
X730567Y155076D01*
X730457Y155039D01*
X730345Y155012D01*
X730196Y154951D01*
X730044Y154900D01*
X729941Y154848D01*
X729834Y154804D01*
X729695Y154723D01*
X729552Y154650D01*
X729458Y154583D01*
X729358Y154525D01*
X729233Y154424D01*
X729102Y154331D01*
X728983Y154224D01*
X728928Y154180D01*
X728893Y154142D01*
X728826Y154082D01*
X726164Y151419D01*
X726126Y151404D01*
X725927Y151287D01*
X725725Y151175D01*
X725689Y151147D01*
X725650Y151124D01*
X725470Y150980D01*
X725287Y150840D01*
X725255Y150808D01*
X725220Y150779D01*
X725062Y150609D01*
X724901Y150445D01*
X724875Y150409D01*
X724844Y150376D01*
X724712Y150185D01*
X724577Y149999D01*
X724556Y149959D01*
X724530Y149922D01*
X724427Y149714D01*
X724320Y149511D01*
X724305Y149468D01*
X724285Y149428D01*
X724214Y149208D01*
X724137Y148990D01*
X724128Y148946D01*
X724114Y148903D01*
X724088Y148748D01*
X723500Y147329D01*
X722956Y146786D01*
X722823Y146631D01*
X722682Y146480D01*
X722642Y146422D01*
X722596Y146368D01*
X722485Y146195D01*
X722368Y146026D01*
X722337Y145963D01*
X722299Y145903D01*
X722215Y145716D01*
X722123Y145532D01*
X722101Y145465D01*
X722072Y145400D01*
X722016Y145203D01*
X721952Y145007D01*
X721940Y144938D01*
X721921Y144870D01*
X721894Y144666D01*
X721859Y144463D01*
X721854Y144373D01*
X721848Y144323D01*
X721849Y144253D01*
X721841Y144092D01*
X721841Y143674D01*
X720994Y141630D01*
X719430Y140066D01*
X717386Y139219D01*
X715174Y139219D01*
X713130Y140066D01*
X711566Y141630D01*
X710719Y143674D01*
X710719Y145886D01*
X710776Y146022D01*
X710852Y146252D01*
X710931Y146478D01*
X710938Y146512D01*
X710949Y146546D01*
X710991Y146783D01*
X711038Y147019D01*
X711039Y147054D01*
X711046Y147089D01*
X711053Y147330D01*
X711065Y147570D01*
X711061Y147605D01*
X711062Y147640D01*
X711035Y147879D01*
X711012Y148119D01*
X711003Y148153D01*
X710999Y148189D01*
X710937Y148422D01*
X710880Y148655D01*
X710867Y148688D01*
X710858Y148722D01*
X710763Y148943D01*
X710672Y149166D01*
X710654Y149197D01*
X710640Y149229D01*
X710515Y149434D01*
X710393Y149642D01*
X710371Y149669D01*
X710352Y149699D01*
X710199Y149884D01*
X710048Y150072D01*
X710022Y150096D01*
X709999Y150123D01*
X709821Y150284D01*
X709644Y150448D01*
X709615Y150468D01*
X709589Y150492D01*
X709389Y150625D01*
X709190Y150762D01*
X709159Y150778D01*
X709129Y150797D01*
X708912Y150900D01*
X708696Y151007D01*
X708662Y151018D01*
X708631Y151033D01*
X708400Y151103D01*
X708171Y151178D01*
X708137Y151184D01*
X708103Y151194D01*
X707866Y151230D01*
X707628Y151271D01*
X707584Y151273D01*
X707558Y151277D01*
X707492Y151278D01*
X707256Y151289D01*
X705509Y151289D01*
X705509Y160180D01*
X705506Y160225D01*
X705508Y160270D01*
X705486Y160499D01*
X705469Y160730D01*
X705460Y160774D01*
X705455Y160819D01*
X705400Y161042D01*
X705350Y161269D01*
X705334Y161311D01*
X705324Y161355D01*
X705237Y161569D01*
X705155Y161784D01*
X705133Y161824D01*
X705116Y161866D01*
X704999Y162065D01*
X704887Y162267D01*
X704859Y162303D01*
X704837Y162341D01*
X704692Y162522D01*
X704552Y162705D01*
X704520Y162736D01*
X704491Y162772D01*
X704321Y162930D01*
X704157Y163091D01*
X704121Y163117D01*
X704087Y163148D01*
X703896Y163280D01*
X703711Y163415D01*
X703671Y163436D01*
X703634Y163462D01*
X703426Y163565D01*
X703222Y163672D01*
X703180Y163687D01*
X703139Y163707D01*
X702919Y163779D01*
X702702Y163855D01*
X702658Y163864D01*
X702615Y163878D01*
X702386Y163917D01*
X702161Y163961D01*
X702116Y163964D01*
X702071Y163971D01*
X701700Y163989D01*
X694159Y163989D01*
X694159Y166780D01*
X694257Y167271D01*
X694448Y167734D01*
X694727Y168150D01*
X695080Y168503D01*
X695496Y168782D01*
X695959Y168973D01*
X696450Y169071D01*
X700358Y169071D01*
X700403Y169074D01*
X700448Y169072D01*
X700678Y169094D01*
X700908Y169111D01*
X700952Y169120D01*
X700997Y169125D01*
X701221Y169180D01*
X701447Y169230D01*
X701489Y169246D01*
X701533Y169256D01*
X701747Y169343D01*
X701963Y169425D01*
X702002Y169447D01*
X702044Y169464D01*
X702243Y169581D01*
X702445Y169693D01*
X702481Y169721D01*
X702520Y169744D01*
X702700Y169888D01*
X702883Y170028D01*
X702915Y170060D01*
X702950Y170089D01*
X703108Y170259D01*
X703269Y170423D01*
X703295Y170459D01*
X703326Y170492D01*
X703458Y170683D01*
X703593Y170869D01*
X703614Y170909D01*
X703640Y170946D01*
X703743Y171154D01*
X703850Y171357D01*
X703865Y171400D01*
X703885Y171440D01*
X703956Y171660D01*
X704033Y171878D01*
X704042Y171922D01*
X704056Y171965D01*
X704095Y172193D01*
X704139Y172419D01*
X704141Y172464D01*
X704149Y172509D01*
X704167Y172880D01*
X704167Y178646D01*
X704156Y178806D01*
X704154Y178967D01*
X704136Y179081D01*
X704127Y179196D01*
X704093Y179353D01*
X704068Y179512D01*
X704033Y179622D01*
X704008Y179735D01*
X703951Y179885D01*
X703904Y180039D01*
X703854Y180143D01*
X703813Y180251D01*
X703735Y180391D01*
X703665Y180536D01*
X703601Y180632D01*
X703545Y180733D01*
X703447Y180861D01*
X703358Y180994D01*
X703280Y181080D01*
X703210Y181172D01*
X703095Y181284D01*
X702987Y181403D01*
X702898Y181476D01*
X702815Y181557D01*
X702685Y181651D01*
X702561Y181754D01*
X702462Y181814D01*
X702369Y181881D01*
X702227Y181956D01*
X702089Y182039D01*
X701983Y182084D01*
X701881Y182138D01*
X701729Y182191D01*
X701581Y182254D01*
X701469Y182283D01*
X701360Y182321D01*
X701203Y182352D01*
X701047Y182393D01*
X700932Y182405D01*
X700819Y182427D01*
X700659Y182435D01*
X700499Y182453D01*
X700383Y182449D01*
X700268Y182454D01*
X700108Y182439D01*
X699948Y182433D01*
X699834Y182413D01*
X699719Y182401D01*
X699563Y182363D01*
X699405Y182334D01*
X699295Y182297D01*
X699183Y182270D01*
X699034Y182209D01*
X698882Y182158D01*
X698779Y182106D01*
X698672Y182062D01*
X698533Y181981D01*
X698390Y181908D01*
X698296Y181841D01*
X698196Y181783D01*
X698071Y181682D01*
X697940Y181589D01*
X697821Y181482D01*
X697766Y181438D01*
X697731Y181400D01*
X697664Y181340D01*
X696062Y179737D01*
X688086Y179737D01*
X687881Y179722D01*
X687675Y179715D01*
X687606Y179702D01*
X687536Y179697D01*
X687335Y179653D01*
X687133Y179616D01*
X687066Y179594D01*
X686997Y179578D01*
X686805Y179505D01*
X686610Y179440D01*
X686547Y179408D01*
X686481Y179383D01*
X686302Y179283D01*
X686118Y179190D01*
X686061Y179149D01*
X685999Y179115D01*
X685836Y178990D01*
X685668Y178871D01*
X685601Y178811D01*
X685561Y178780D01*
X685511Y178729D01*
X685392Y178622D01*
X636051Y129280D01*
X634837Y128777D01*
X483006Y128777D01*
X482801Y128762D01*
X482595Y128755D01*
X482526Y128742D01*
X482456Y128737D01*
X482255Y128693D01*
X482053Y128656D01*
X481986Y128634D01*
X481917Y128618D01*
X481725Y128545D01*
X481530Y128480D01*
X481467Y128448D01*
X481401Y128423D01*
X481222Y128323D01*
X481038Y128230D01*
X480981Y128189D01*
X480919Y128155D01*
X480756Y128030D01*
X480588Y127911D01*
X480521Y127851D01*
X480481Y127820D01*
X480431Y127769D01*
X480312Y127662D01*
X461611Y108960D01*
X460397Y108457D01*
X433155Y108457D01*
X432914Y108440D01*
X432674Y108427D01*
X432640Y108420D01*
X432605Y108417D01*
X432368Y108365D01*
X432133Y108318D01*
X432101Y108306D01*
X432066Y108298D01*
X431840Y108213D01*
X431614Y108132D01*
X431583Y108115D01*
X431550Y108103D01*
X431339Y107985D01*
X431127Y107873D01*
X431099Y107852D01*
X431068Y107835D01*
X430876Y107688D01*
X430683Y107546D01*
X430657Y107521D01*
X430629Y107500D01*
X430461Y107328D01*
X430290Y107159D01*
X430269Y107130D01*
X430244Y107105D01*
X430103Y106911D01*
X429957Y106718D01*
X429940Y106687D01*
X429920Y106659D01*
X429808Y106446D01*
X429692Y106235D01*
X429679Y106202D01*
X429663Y106171D01*
X429583Y105943D01*
X429499Y105718D01*
X429491Y105684D01*
X429480Y105650D01*
X429433Y105414D01*
X429383Y105179D01*
X429380Y105143D01*
X429373Y105109D01*
X429362Y104868D01*
X429346Y104628D01*
X429348Y104593D01*
X429347Y104558D01*
X429370Y104318D01*
X429388Y104078D01*
X429396Y104044D01*
X429400Y104009D01*
X429457Y103775D01*
X429510Y103540D01*
X429525Y103499D01*
X429531Y103473D01*
X429556Y103412D01*
X429635Y103190D01*
X429741Y102936D01*
X429741Y100724D01*
X428894Y98680D01*
X427330Y97116D01*
X425286Y96269D01*
X423074Y96269D01*
X421030Y97116D01*
X420964Y97182D01*
X420810Y97315D01*
X420658Y97456D01*
X420600Y97496D01*
X420547Y97542D01*
X420374Y97653D01*
X420205Y97770D01*
X420141Y97801D01*
X420082Y97839D01*
X419895Y97923D01*
X419710Y98015D01*
X419643Y98037D01*
X419579Y98066D01*
X419381Y98122D01*
X419186Y98186D01*
X419116Y98198D01*
X419048Y98217D01*
X418845Y98244D01*
X418642Y98279D01*
X418552Y98284D01*
X418502Y98290D01*
X418431Y98289D01*
X418271Y98297D01*
X402606Y98297D01*
X402401Y98282D01*
X402195Y98275D01*
X402126Y98262D01*
X402056Y98257D01*
X401855Y98213D01*
X401653Y98176D01*
X401586Y98154D01*
X401517Y98138D01*
X401324Y98065D01*
X401130Y98000D01*
X401067Y97968D01*
X401001Y97943D01*
X400821Y97843D01*
X400638Y97750D01*
X400581Y97709D01*
X400519Y97675D01*
X400355Y97550D01*
X400188Y97431D01*
X400121Y97371D01*
X400081Y97340D01*
X400031Y97289D01*
X399912Y97182D01*
X395608Y92878D01*
X395474Y92723D01*
X395334Y92572D01*
X395294Y92514D01*
X395248Y92460D01*
X395137Y92287D01*
X395020Y92118D01*
X394989Y92055D01*
X394951Y91995D01*
X394867Y91808D01*
X394775Y91624D01*
X394753Y91556D01*
X394724Y91492D01*
X394668Y91295D01*
X394604Y91099D01*
X394592Y91030D01*
X394573Y90962D01*
X394546Y90758D01*
X394511Y90555D01*
X394506Y90465D01*
X394500Y90415D01*
X394501Y90345D01*
X394493Y90184D01*
X394493Y82497D01*
X394436Y82280D01*
X394373Y82058D01*
X394367Y82013D01*
X394355Y81969D01*
X394330Y81740D01*
X394300Y81511D01*
X394300Y81466D01*
X394295Y81421D01*
X394303Y81190D01*
X394306Y80960D01*
X394313Y80915D01*
X394315Y80870D01*
X394356Y80643D01*
X394392Y80415D01*
X394406Y80371D01*
X394414Y80327D01*
X394488Y80107D01*
X394556Y79888D01*
X394576Y79847D01*
X394590Y79804D01*
X394652Y79683D01*
X394668Y79641D01*
X394678Y79597D01*
X394765Y79383D01*
X394847Y79167D01*
X394869Y79128D01*
X394886Y79086D01*
X395003Y78887D01*
X395115Y78685D01*
X395143Y78649D01*
X395166Y78610D01*
X395310Y78430D01*
X395450Y78247D01*
X395482Y78215D01*
X395511Y78180D01*
X395681Y78022D01*
X395845Y77861D01*
X395881Y77835D01*
X395914Y77804D01*
X396105Y77672D01*
X396291Y77537D01*
X396331Y77516D01*
X396368Y77490D01*
X396576Y77387D01*
X396779Y77280D01*
X396822Y77265D01*
X396862Y77245D01*
X397082Y77174D01*
X397300Y77097D01*
X397344Y77088D01*
X397387Y77074D01*
X397615Y77035D01*
X397841Y76991D01*
X397886Y76989D01*
X397931Y76981D01*
X398302Y76963D01*
X414677Y76963D01*
X414927Y76881D01*
X415181Y76797D01*
X415191Y76795D01*
X415200Y76792D01*
X415464Y76747D01*
X415725Y76701D01*
X415734Y76701D01*
X415744Y76699D01*
X416115Y76681D01*
X417666Y76681D01*
X419710Y75834D01*
X421274Y74270D01*
X422121Y72226D01*
X422121Y70014D01*
X421274Y67970D01*
X419667Y66363D01*
X419646Y66352D01*
X419471Y66264D01*
X419406Y66218D01*
X419335Y66179D01*
X419179Y66060D01*
X419019Y65948D01*
X418961Y65893D01*
X418897Y65844D01*
X418760Y65704D01*
X418618Y65570D01*
X418567Y65507D01*
X418511Y65449D01*
X418397Y65291D01*
X418275Y65138D01*
X418234Y65068D01*
X418187Y65003D01*
X418096Y64830D01*
X417998Y64660D01*
X417968Y64586D01*
X417930Y64515D01*
X417865Y64330D01*
X417793Y64148D01*
X417774Y64070D01*
X417747Y63994D01*
X417709Y63802D01*
X417664Y63612D01*
X417656Y63532D01*
X417641Y63453D01*
X417631Y63258D01*
X417614Y63063D01*
X417618Y62982D01*
X417614Y62902D01*
X417633Y62707D01*
X417643Y62512D01*
X417659Y62433D01*
X417667Y62353D01*
X417714Y62163D01*
X417752Y61971D01*
X417779Y61895D01*
X417799Y61817D01*
X417872Y61636D01*
X417938Y61451D01*
X417976Y61381D01*
X418006Y61306D01*
X418106Y61137D01*
X418197Y60964D01*
X418245Y60900D01*
X418286Y60830D01*
X418408Y60677D01*
X418524Y60520D01*
X418580Y60463D01*
X418631Y60400D01*
X418774Y60266D01*
X418911Y60127D01*
X418976Y60079D01*
X419035Y60024D01*
X419196Y59912D01*
X419352Y59795D01*
X419422Y59756D01*
X419488Y59710D01*
X419664Y59623D01*
X419835Y59529D01*
X419910Y59501D01*
X419983Y59465D01*
X420169Y59405D01*
X420352Y59336D01*
X420431Y59319D01*
X420507Y59294D01*
X420700Y59261D01*
X420891Y59220D01*
X420972Y59214D01*
X421051Y59201D01*
X421422Y59183D01*
X479990Y59183D01*
X480035Y59186D01*
X480080Y59184D01*
X480310Y59206D01*
X480540Y59223D01*
X480584Y59232D01*
X480629Y59237D01*
X480853Y59292D01*
X481079Y59342D01*
X481121Y59358D01*
X481165Y59368D01*
X481379Y59455D01*
X481595Y59537D01*
X481634Y59559D01*
X481676Y59576D01*
X481875Y59693D01*
X482077Y59805D01*
X482113Y59833D01*
X482152Y59856D01*
X482332Y60000D01*
X482515Y60140D01*
X482547Y60172D01*
X482582Y60201D01*
X482740Y60371D01*
X482901Y60535D01*
X482927Y60571D01*
X482958Y60604D01*
X483090Y60795D01*
X483225Y60981D01*
X483246Y61021D01*
X483272Y61058D01*
X483375Y61266D01*
X483482Y61469D01*
X483497Y61512D01*
X483517Y61552D01*
X483588Y61772D01*
X483665Y61990D01*
X483674Y62034D01*
X483688Y62077D01*
X483727Y62305D01*
X483771Y62531D01*
X483773Y62576D01*
X483781Y62621D01*
X483799Y62992D01*
X483799Y65929D01*
X484893Y68569D01*
X486913Y70589D01*
X489553Y71683D01*
X492411Y71683D01*
X495051Y70589D01*
X497071Y68569D01*
X498165Y65929D01*
X498165Y62992D01*
X498168Y62947D01*
X498166Y62902D01*
X498188Y62672D01*
X498205Y62442D01*
X498214Y62398D01*
X498219Y62353D01*
X498274Y62129D01*
X498324Y61903D01*
X498340Y61861D01*
X498350Y61817D01*
X498437Y61603D01*
X498519Y61387D01*
X498541Y61348D01*
X498558Y61306D01*
X498675Y61106D01*
X498787Y60905D01*
X498815Y60869D01*
X498838Y60830D01*
X498982Y60650D01*
X499122Y60467D01*
X499154Y60435D01*
X499183Y60400D01*
X499353Y60242D01*
X499517Y60081D01*
X499553Y60055D01*
X499586Y60024D01*
X499777Y59892D01*
X499963Y59757D01*
X500003Y59736D01*
X500040Y59710D01*
X500248Y59607D01*
X500451Y59500D01*
X500494Y59485D01*
X500534Y59465D01*
X500754Y59394D01*
X500972Y59317D01*
X501016Y59308D01*
X501059Y59294D01*
X501287Y59255D01*
X501513Y59211D01*
X501558Y59209D01*
X501603Y59201D01*
X501974Y59183D01*
X570122Y59183D01*
X572270Y58293D01*
X590076Y40486D01*
X590231Y40353D01*
X590382Y40212D01*
X590441Y40172D01*
X590494Y40126D01*
X590667Y40015D01*
X590836Y39898D01*
X590899Y39867D01*
X590959Y39829D01*
X591146Y39745D01*
X591330Y39653D01*
X591398Y39631D01*
X591462Y39602D01*
X591660Y39546D01*
X591855Y39482D01*
X591924Y39470D01*
X591992Y39451D01*
X592196Y39424D01*
X592399Y39389D01*
X592489Y39384D01*
X592539Y39378D01*
X592610Y39379D01*
X592770Y39371D01*
X596634Y39371D01*
X600835Y37630D01*
X604050Y34415D01*
X605791Y30214D01*
X605791Y25666D01*
X604050Y21465D01*
X600835Y18250D01*
X596634Y16509D01*
X592086Y16509D01*
X587885Y18249D01*
X584547Y21588D01*
X584495Y21632D01*
X584449Y21682D01*
X584287Y21812D01*
X584130Y21948D01*
X584072Y21985D01*
X584019Y22028D01*
X583840Y22133D01*
X583665Y22245D01*
X583602Y22273D01*
X583543Y22308D01*
X583351Y22386D01*
X583161Y22472D01*
X583096Y22490D01*
X583033Y22516D01*
X582831Y22566D01*
X582631Y22623D01*
X582563Y22632D01*
X582497Y22649D01*
X582291Y22669D01*
X582084Y22696D01*
X582016Y22696D01*
X581948Y22702D01*
X581740Y22692D01*
X581533Y22690D01*
X581465Y22679D01*
X581397Y22676D01*
X581193Y22636D01*
X580988Y22604D01*
X580922Y22583D01*
X580855Y22570D01*
X580660Y22502D01*
X580461Y22440D01*
X580399Y22410D01*
X580335Y22388D01*
X580151Y22291D01*
X579963Y22201D01*
X579907Y22163D01*
X579846Y22132D01*
X579678Y22010D01*
X579505Y21894D01*
X579455Y21848D01*
X579400Y21808D01*
X579251Y21663D01*
X579097Y21523D01*
X579053Y21471D01*
X579004Y21423D01*
X578772Y21133D01*
X578066Y20162D01*
X576738Y18834D01*
X575217Y17729D01*
X573543Y16876D01*
X572769Y16625D01*
X572769Y27940D01*
X572766Y27985D01*
X572768Y28030D01*
X572746Y28259D01*
X572729Y28490D01*
X572720Y28534D01*
X572715Y28579D01*
X572660Y28802D01*
X572610Y29029D01*
X572594Y29071D01*
X572584Y29115D01*
X572497Y29329D01*
X572415Y29544D01*
X572393Y29584D01*
X572376Y29626D01*
X572259Y29825D01*
X572147Y30027D01*
X572119Y30063D01*
X572097Y30101D01*
X571952Y30282D01*
X571812Y30465D01*
X571780Y30496D01*
X571751Y30532D01*
X571582Y30690D01*
X571417Y30850D01*
X571381Y30877D01*
X571348Y30908D01*
X571157Y31040D01*
X570971Y31175D01*
X570931Y31196D01*
X570894Y31222D01*
X570686Y31324D01*
X570483Y31431D01*
X570440Y31446D01*
X570400Y31466D01*
X570180Y31538D01*
X569962Y31615D01*
X569918Y31623D01*
X569875Y31637D01*
X569647Y31677D01*
X569421Y31721D01*
X569376Y31723D01*
X569331Y31731D01*
X568960Y31749D01*
X568915Y31746D01*
X568870Y31748D01*
X568640Y31726D01*
X568410Y31709D01*
X568365Y31699D01*
X568321Y31695D01*
X568097Y31640D01*
X567871Y31590D01*
X567829Y31574D01*
X567785Y31563D01*
X567571Y31476D01*
X567355Y31394D01*
X567316Y31373D01*
X567274Y31355D01*
X567075Y31238D01*
X566873Y31126D01*
X566837Y31099D01*
X566798Y31076D01*
X566618Y30932D01*
X566434Y30792D01*
X566403Y30759D01*
X566368Y30731D01*
X566210Y30561D01*
X566049Y30397D01*
X566023Y30361D01*
X565992Y30327D01*
X565860Y30136D01*
X565725Y29951D01*
X565704Y29911D01*
X565678Y29874D01*
X565575Y29666D01*
X565468Y29462D01*
X565453Y29420D01*
X565433Y29379D01*
X565361Y29159D01*
X565285Y28942D01*
X565276Y28898D01*
X565262Y28855D01*
X565223Y28626D01*
X565179Y28401D01*
X565176Y28356D01*
X565169Y28311D01*
X565151Y27940D01*
X565151Y16625D01*
X564377Y16876D01*
X562703Y17729D01*
X561182Y18834D01*
X559854Y20162D01*
X559148Y21133D01*
X559104Y21185D01*
X559066Y21242D01*
X558926Y21396D01*
X558793Y21555D01*
X558742Y21600D01*
X558696Y21651D01*
X558535Y21783D01*
X558380Y21921D01*
X558323Y21958D01*
X558270Y22001D01*
X558092Y22109D01*
X557918Y22223D01*
X557856Y22252D01*
X557798Y22287D01*
X557607Y22368D01*
X557418Y22456D01*
X557353Y22475D01*
X557290Y22502D01*
X557089Y22554D01*
X556890Y22613D01*
X556822Y22623D01*
X556756Y22640D01*
X556549Y22663D01*
X556344Y22693D01*
X556276Y22693D01*
X556208Y22701D01*
X556000Y22693D01*
X555792Y22693D01*
X555724Y22684D01*
X555656Y22681D01*
X555452Y22644D01*
X555246Y22614D01*
X555181Y22594D01*
X555113Y22582D01*
X554917Y22516D01*
X554717Y22456D01*
X554655Y22428D01*
X554591Y22406D01*
X554406Y22312D01*
X554217Y22224D01*
X554160Y22187D01*
X554099Y22156D01*
X553930Y22036D01*
X553755Y21922D01*
X553704Y21877D01*
X553648Y21837D01*
X553373Y21588D01*
X550035Y18249D01*
X545834Y16509D01*
X541286Y16509D01*
X537085Y18250D01*
X533870Y21465D01*
X532129Y25666D01*
X532129Y30214D01*
X533950Y34610D01*
X534026Y34839D01*
X534106Y35066D01*
X534113Y35100D01*
X534124Y35134D01*
X534166Y35371D01*
X534212Y35607D01*
X534214Y35642D01*
X534220Y35677D01*
X534228Y35918D01*
X534239Y36158D01*
X534236Y36193D01*
X534237Y36229D01*
X534209Y36468D01*
X534186Y36707D01*
X534178Y36741D01*
X534174Y36777D01*
X534112Y37010D01*
X534055Y37243D01*
X534041Y37276D01*
X534032Y37310D01*
X533938Y37530D01*
X533847Y37754D01*
X533829Y37785D01*
X533815Y37817D01*
X533690Y38022D01*
X533568Y38230D01*
X533545Y38257D01*
X533527Y38287D01*
X533373Y38472D01*
X533222Y38660D01*
X533197Y38684D01*
X533174Y38711D01*
X532995Y38872D01*
X532819Y39036D01*
X532790Y39056D01*
X532763Y39080D01*
X532563Y39213D01*
X532365Y39350D01*
X532333Y39366D01*
X532304Y39385D01*
X532087Y39488D01*
X531871Y39595D01*
X531837Y39606D01*
X531805Y39621D01*
X531575Y39691D01*
X531346Y39766D01*
X531311Y39772D01*
X531278Y39782D01*
X531040Y39818D01*
X530802Y39859D01*
X530759Y39861D01*
X530732Y39865D01*
X530667Y39866D01*
X530431Y39877D01*
X459797Y39877D01*
X459660Y39867D01*
X459522Y39867D01*
X459385Y39847D01*
X459247Y39837D01*
X459112Y39808D01*
X458976Y39788D01*
X458843Y39748D01*
X458708Y39718D01*
X458579Y39670D01*
X458447Y39630D01*
X458322Y39572D01*
X458192Y39523D01*
X458072Y39456D01*
X457947Y39398D01*
X457831Y39322D01*
X457710Y39255D01*
X457601Y39171D01*
X457485Y39096D01*
X457382Y39004D01*
X457272Y38920D01*
X457176Y38822D01*
X457072Y38730D01*
X456983Y38624D01*
X456886Y38525D01*
X456805Y38414D01*
X456716Y38309D01*
X456643Y38191D01*
X456562Y38079D01*
X456498Y37957D01*
X456425Y37840D01*
X456370Y37713D01*
X456305Y37591D01*
X456260Y37461D01*
X456204Y37335D01*
X456168Y37201D01*
X456122Y37070D01*
X456095Y36935D01*
X456059Y36802D01*
X456042Y36665D01*
X456016Y36529D01*
X456009Y36392D01*
X455992Y36255D01*
X455995Y36116D01*
X455989Y35978D01*
X456002Y35841D01*
X456005Y35703D01*
X456028Y35567D01*
X456042Y35429D01*
X456075Y35295D01*
X456098Y35159D01*
X456140Y35028D01*
X456173Y34893D01*
X456225Y34766D01*
X456268Y34635D01*
X456329Y34511D01*
X456381Y34382D01*
X456451Y34263D01*
X456512Y34140D01*
X456624Y33968D01*
X456660Y33906D01*
X456683Y33878D01*
X456715Y33829D01*
X456967Y33483D01*
X457584Y32271D01*
X458004Y30978D01*
X458217Y29636D01*
X458217Y26669D01*
X449580Y26669D01*
X440943Y26669D01*
X440943Y29636D01*
X441156Y30978D01*
X441576Y32271D01*
X442193Y33483D01*
X442445Y33829D01*
X442517Y33946D01*
X442598Y34057D01*
X442663Y34180D01*
X442736Y34297D01*
X442791Y34424D01*
X442855Y34545D01*
X442901Y34676D01*
X442956Y34803D01*
X442992Y34936D01*
X443038Y35066D01*
X443065Y35202D01*
X443101Y35336D01*
X443118Y35472D01*
X443144Y35607D01*
X443151Y35746D01*
X443168Y35883D01*
X443165Y36021D01*
X443171Y36158D01*
X443158Y36296D01*
X443155Y36435D01*
X443132Y36570D01*
X443118Y36707D01*
X443085Y36842D01*
X443062Y36978D01*
X443019Y37109D01*
X442987Y37243D01*
X442934Y37371D01*
X442892Y37503D01*
X442831Y37626D01*
X442779Y37754D01*
X442709Y37874D01*
X442647Y37998D01*
X442569Y38111D01*
X442500Y38230D01*
X442413Y38338D01*
X442334Y38452D01*
X442241Y38553D01*
X442154Y38660D01*
X442053Y38755D01*
X441959Y38856D01*
X441852Y38942D01*
X441751Y39036D01*
X441637Y39115D01*
X441529Y39202D01*
X441410Y39272D01*
X441297Y39350D01*
X441173Y39412D01*
X441053Y39482D01*
X440926Y39534D01*
X440803Y39595D01*
X440671Y39638D01*
X440543Y39690D01*
X440409Y39723D01*
X440278Y39766D01*
X440141Y39789D01*
X440007Y39822D01*
X439870Y39836D01*
X439734Y39859D01*
X439528Y39869D01*
X439458Y39876D01*
X439422Y39874D01*
X439363Y39877D01*
X433951Y39877D01*
X433791Y39866D01*
X433630Y39864D01*
X433516Y39846D01*
X433401Y39837D01*
X433243Y39803D01*
X433085Y39778D01*
X432975Y39743D01*
X432862Y39718D01*
X432712Y39661D01*
X432558Y39614D01*
X432454Y39564D01*
X432346Y39523D01*
X432206Y39445D01*
X432061Y39375D01*
X431965Y39311D01*
X431864Y39255D01*
X431736Y39157D01*
X431603Y39068D01*
X431517Y38990D01*
X431425Y38920D01*
X431313Y38805D01*
X431194Y38697D01*
X431121Y38608D01*
X431040Y38525D01*
X430946Y38395D01*
X430843Y38271D01*
X430783Y38172D01*
X430716Y38079D01*
X430641Y37937D01*
X430558Y37799D01*
X430513Y37693D01*
X430459Y37591D01*
X430406Y37439D01*
X430343Y37291D01*
X430314Y37179D01*
X430276Y37070D01*
X430245Y36912D01*
X430204Y36757D01*
X430192Y36642D01*
X430170Y36529D01*
X430162Y36369D01*
X430144Y36209D01*
X430148Y36093D01*
X430143Y35978D01*
X430158Y35818D01*
X430164Y35657D01*
X430185Y35544D01*
X430196Y35429D01*
X430234Y35273D01*
X430263Y35115D01*
X430300Y35005D01*
X430327Y34893D01*
X430388Y34744D01*
X430439Y34592D01*
X430491Y34489D01*
X430535Y34382D01*
X430617Y34243D01*
X430689Y34100D01*
X430756Y34006D01*
X430814Y33906D01*
X430915Y33781D01*
X431008Y33650D01*
X431057Y33596D01*
X432309Y30573D01*
X432309Y15147D01*
X431071Y12159D01*
X429225Y10314D01*
X429120Y10192D01*
X429008Y10077D01*
X428940Y9984D01*
X428865Y9896D01*
X428778Y9761D01*
X428684Y9631D01*
X428630Y9529D01*
X428568Y9431D01*
X428502Y9284D01*
X428427Y9143D01*
X428389Y9034D01*
X428341Y8928D01*
X428297Y8774D01*
X428244Y8622D01*
X428222Y8509D01*
X428190Y8398D01*
X428168Y8238D01*
X428138Y8081D01*
X428132Y7966D01*
X428117Y7851D01*
X428119Y7690D01*
X428111Y7530D01*
X428122Y7415D01*
X428123Y7299D01*
X428148Y7141D01*
X428164Y6981D01*
X428191Y6869D01*
X428209Y6754D01*
X428257Y6601D01*
X428295Y6445D01*
X428339Y6338D01*
X428373Y6228D01*
X428443Y6083D01*
X428503Y5934D01*
X428562Y5834D01*
X428612Y5730D01*
X428701Y5597D01*
X428782Y5458D01*
X428855Y5368D01*
X428919Y5272D01*
X429027Y5153D01*
X429128Y5028D01*
X429212Y4949D01*
X429290Y4864D01*
X429413Y4762D01*
X429531Y4652D01*
X429627Y4586D01*
X429716Y4513D01*
X429853Y4430D01*
X429985Y4338D01*
X430089Y4287D01*
X430187Y4227D01*
X430335Y4165D01*
X430479Y4093D01*
X430589Y4057D01*
X430696Y4012D01*
X430851Y3972D01*
X431004Y3922D01*
X431118Y3903D01*
X431230Y3874D01*
X431389Y3856D01*
X431548Y3829D01*
X431708Y3821D01*
X431778Y3813D01*
X431829Y3815D01*
X431919Y3811D01*
X441123Y3811D01*
X441283Y3822D01*
G37*
G36*
X337192Y8400D02*
X337192Y8400D01*
X337433Y8413D01*
X337467Y8420D01*
X337502Y8423D01*
X337738Y8475D01*
X337973Y8522D01*
X338007Y8534D01*
X338041Y8542D01*
X338266Y8627D01*
X338493Y8708D01*
X338524Y8725D01*
X338557Y8737D01*
X338767Y8854D01*
X338980Y8967D01*
X339008Y8988D01*
X339039Y9005D01*
X339230Y9151D01*
X339424Y9294D01*
X339450Y9319D01*
X339478Y9340D01*
X339645Y9512D01*
X339817Y9681D01*
X339838Y9710D01*
X339863Y9735D01*
X340004Y9928D01*
X340150Y10122D01*
X340167Y10153D01*
X340187Y10181D01*
X340299Y10393D01*
X340415Y10605D01*
X340428Y10638D01*
X340444Y10669D01*
X340524Y10896D01*
X340608Y11122D01*
X340616Y11156D01*
X340627Y11190D01*
X340674Y11426D01*
X340724Y11661D01*
X340727Y11697D01*
X340733Y11731D01*
X340745Y11972D01*
X340761Y12212D01*
X340759Y12247D01*
X340760Y12282D01*
X340737Y12522D01*
X340719Y12762D01*
X340711Y12796D01*
X340707Y12831D01*
X340650Y13064D01*
X340597Y13300D01*
X340582Y13341D01*
X340576Y13367D01*
X340551Y13428D01*
X340471Y13650D01*
X339851Y15147D01*
X339851Y30573D01*
X340763Y32775D01*
X340778Y32818D01*
X340797Y32859D01*
X340864Y33080D01*
X340937Y33299D01*
X340945Y33343D01*
X340958Y33386D01*
X340993Y33615D01*
X341033Y33842D01*
X341035Y33887D01*
X341041Y33932D01*
X341043Y34163D01*
X341050Y34393D01*
X341045Y34438D01*
X341045Y34483D01*
X341013Y34712D01*
X340987Y34941D01*
X340975Y34985D01*
X340969Y35030D01*
X340905Y35251D01*
X340845Y35474D01*
X340827Y35516D01*
X340815Y35559D01*
X340719Y35769D01*
X340628Y35982D01*
X340604Y36020D01*
X340586Y36061D01*
X340461Y36255D01*
X340340Y36452D01*
X340311Y36487D01*
X340287Y36525D01*
X340135Y36699D01*
X339987Y36876D01*
X339953Y36906D01*
X339924Y36940D01*
X339748Y37090D01*
X339576Y37244D01*
X339539Y37269D01*
X339504Y37299D01*
X339309Y37422D01*
X339117Y37550D01*
X339076Y37569D01*
X339038Y37593D01*
X338702Y37752D01*
X338489Y37840D01*
X329940Y46389D01*
X329437Y47603D01*
X329437Y62441D01*
X329422Y62646D01*
X329415Y62851D01*
X329402Y62921D01*
X329397Y62991D01*
X329353Y63192D01*
X329316Y63394D01*
X329294Y63461D01*
X329278Y63530D01*
X329205Y63722D01*
X329140Y63917D01*
X329108Y63980D01*
X329083Y64046D01*
X328983Y64225D01*
X328890Y64409D01*
X328849Y64466D01*
X328815Y64528D01*
X328690Y64691D01*
X328571Y64859D01*
X328511Y64926D01*
X328480Y64966D01*
X328429Y65015D01*
X328322Y65134D01*
X328026Y65430D01*
X327179Y67474D01*
X327179Y70432D01*
X327164Y70637D01*
X327157Y70843D01*
X327144Y70912D01*
X327139Y70982D01*
X327095Y71183D01*
X327058Y71385D01*
X327036Y71452D01*
X327020Y71521D01*
X326947Y71713D01*
X326882Y71908D01*
X326850Y71971D01*
X326825Y72037D01*
X326725Y72216D01*
X326632Y72400D01*
X326591Y72457D01*
X326557Y72519D01*
X326432Y72682D01*
X326313Y72850D01*
X326253Y72917D01*
X326222Y72957D01*
X326171Y73007D01*
X326064Y73126D01*
X250540Y148649D01*
X250037Y149863D01*
X250037Y163228D01*
X250034Y163273D01*
X250036Y163318D01*
X250014Y163548D01*
X249997Y163778D01*
X249988Y163822D01*
X249983Y163867D01*
X249928Y164091D01*
X249878Y164317D01*
X249862Y164359D01*
X249852Y164403D01*
X249765Y164617D01*
X249683Y164833D01*
X249661Y164872D01*
X249644Y164914D01*
X249527Y165113D01*
X249415Y165315D01*
X249387Y165351D01*
X249364Y165390D01*
X249220Y165570D01*
X249080Y165753D01*
X249048Y165785D01*
X249019Y165820D01*
X248849Y165978D01*
X248685Y166139D01*
X248649Y166165D01*
X248616Y166196D01*
X248425Y166328D01*
X248239Y166463D01*
X248199Y166484D01*
X248162Y166510D01*
X247954Y166613D01*
X247887Y166648D01*
X246893Y167643D01*
X246859Y167672D01*
X246828Y167706D01*
X246650Y167852D01*
X246475Y168003D01*
X246437Y168028D01*
X246402Y168056D01*
X246205Y168176D01*
X246010Y168300D01*
X245969Y168319D01*
X245931Y168342D01*
X245718Y168432D01*
X245507Y168527D01*
X245464Y168539D01*
X245422Y168557D01*
X245199Y168615D01*
X244977Y168678D01*
X244932Y168684D01*
X244888Y168695D01*
X244659Y168721D01*
X244430Y168751D01*
X244385Y168751D01*
X244340Y168756D01*
X244109Y168747D01*
X243878Y168745D01*
X243834Y168738D01*
X243789Y168736D01*
X243562Y168695D01*
X243334Y168659D01*
X243290Y168645D01*
X243246Y168637D01*
X243028Y168563D01*
X242807Y168495D01*
X242766Y168475D01*
X242723Y168461D01*
X242518Y168356D01*
X242309Y168256D01*
X242272Y168231D01*
X242231Y168211D01*
X242043Y168078D01*
X241851Y167949D01*
X241818Y167918D01*
X241781Y167892D01*
X241506Y167642D01*
X240960Y167096D01*
X240544Y166818D01*
X240081Y166627D01*
X239590Y166529D01*
X238149Y166529D01*
X238149Y175420D01*
X238146Y175465D01*
X238148Y175510D01*
X238126Y175739D01*
X238109Y175970D01*
X238100Y176014D01*
X238095Y176059D01*
X238040Y176282D01*
X237990Y176509D01*
X237974Y176551D01*
X237964Y176595D01*
X237877Y176809D01*
X237795Y177024D01*
X237773Y177064D01*
X237756Y177106D01*
X237639Y177305D01*
X237527Y177507D01*
X237499Y177543D01*
X237477Y177581D01*
X237332Y177762D01*
X237192Y177945D01*
X237160Y177976D01*
X237131Y178012D01*
X236961Y178170D01*
X236797Y178331D01*
X236761Y178357D01*
X236727Y178388D01*
X236536Y178520D01*
X236351Y178655D01*
X236311Y178676D01*
X236274Y178702D01*
X236066Y178805D01*
X235862Y178912D01*
X235820Y178927D01*
X235779Y178947D01*
X235559Y179019D01*
X235342Y179095D01*
X235298Y179104D01*
X235255Y179118D01*
X235026Y179157D01*
X234801Y179201D01*
X234756Y179204D01*
X234711Y179211D01*
X234340Y179229D01*
X226799Y179229D01*
X226799Y182020D01*
X226897Y182511D01*
X227088Y182974D01*
X227367Y183390D01*
X227720Y183743D01*
X228136Y184022D01*
X228599Y184213D01*
X229090Y184311D01*
X232998Y184311D01*
X233043Y184314D01*
X233088Y184312D01*
X233318Y184334D01*
X233548Y184351D01*
X233592Y184360D01*
X233637Y184365D01*
X233861Y184420D01*
X234087Y184470D01*
X234129Y184486D01*
X234173Y184496D01*
X234387Y184583D01*
X234603Y184665D01*
X234642Y184687D01*
X234684Y184704D01*
X234883Y184821D01*
X235085Y184933D01*
X235121Y184961D01*
X235160Y184984D01*
X235340Y185128D01*
X235523Y185268D01*
X235555Y185300D01*
X235590Y185329D01*
X235748Y185499D01*
X235909Y185663D01*
X235935Y185699D01*
X235966Y185732D01*
X236098Y185923D01*
X236233Y186109D01*
X236254Y186149D01*
X236280Y186186D01*
X236383Y186394D01*
X236490Y186597D01*
X236505Y186640D01*
X236525Y186680D01*
X236596Y186900D01*
X236673Y187118D01*
X236682Y187162D01*
X236696Y187205D01*
X236735Y187433D01*
X236779Y187659D01*
X236781Y187704D01*
X236789Y187749D01*
X236807Y188120D01*
X236807Y191008D01*
X236804Y191053D01*
X236806Y191098D01*
X236784Y191328D01*
X236767Y191558D01*
X236758Y191602D01*
X236753Y191647D01*
X236698Y191871D01*
X236648Y192097D01*
X236632Y192139D01*
X236622Y192183D01*
X236535Y192397D01*
X236453Y192613D01*
X236431Y192652D01*
X236414Y192694D01*
X236297Y192893D01*
X236185Y193095D01*
X236157Y193131D01*
X236134Y193170D01*
X235990Y193350D01*
X235850Y193533D01*
X235818Y193565D01*
X235789Y193600D01*
X235619Y193758D01*
X235455Y193919D01*
X235419Y193945D01*
X235386Y193976D01*
X235195Y194108D01*
X235009Y194243D01*
X234969Y194264D01*
X234932Y194290D01*
X234724Y194393D01*
X234521Y194500D01*
X234478Y194515D01*
X234438Y194535D01*
X234218Y194606D01*
X234000Y194683D01*
X233956Y194692D01*
X233913Y194706D01*
X233685Y194745D01*
X233459Y194789D01*
X233414Y194791D01*
X233369Y194799D01*
X232998Y194817D01*
X206146Y194817D01*
X205941Y194802D01*
X205735Y194795D01*
X205666Y194782D01*
X205596Y194777D01*
X205395Y194733D01*
X205193Y194696D01*
X205126Y194674D01*
X205057Y194658D01*
X204865Y194585D01*
X204670Y194520D01*
X204607Y194488D01*
X204541Y194463D01*
X204361Y194363D01*
X204178Y194270D01*
X204121Y194229D01*
X204059Y194195D01*
X203895Y194070D01*
X203728Y193951D01*
X203661Y193891D01*
X203621Y193860D01*
X203571Y193809D01*
X203452Y193702D01*
X199877Y190126D01*
X199794Y190031D01*
X199705Y189943D01*
X199614Y189822D01*
X199516Y189708D01*
X199448Y189603D01*
X199373Y189503D01*
X199300Y189370D01*
X199219Y189243D01*
X199167Y189129D01*
X199107Y189019D01*
X199054Y188878D01*
X198992Y188740D01*
X198958Y188620D01*
X198914Y188502D01*
X198882Y188355D01*
X198841Y188210D01*
X198824Y188085D01*
X198798Y187963D01*
X198788Y187813D01*
X198768Y187663D01*
X198769Y187537D01*
X198761Y187412D01*
X198773Y187262D01*
X198774Y187111D01*
X198794Y186988D01*
X198804Y186862D01*
X198837Y186715D01*
X198860Y186567D01*
X198898Y186447D01*
X198925Y186324D01*
X199005Y186103D01*
X199024Y186040D01*
X199036Y186015D01*
X199051Y185974D01*
X199391Y185154D01*
X199391Y180606D01*
X197650Y176405D01*
X194435Y173190D01*
X190234Y171449D01*
X185686Y171449D01*
X181485Y173189D01*
X177954Y176721D01*
X177919Y176750D01*
X177889Y176784D01*
X177710Y176931D01*
X177536Y177082D01*
X177498Y177106D01*
X177463Y177135D01*
X177266Y177254D01*
X177071Y177379D01*
X177030Y177397D01*
X176991Y177420D01*
X176779Y177510D01*
X176568Y177605D01*
X176525Y177617D01*
X176483Y177635D01*
X176260Y177693D01*
X176038Y177756D01*
X175993Y177762D01*
X175949Y177774D01*
X175720Y177799D01*
X175491Y177830D01*
X175446Y177829D01*
X175401Y177834D01*
X175170Y177826D01*
X174939Y177823D01*
X174895Y177816D01*
X174850Y177814D01*
X174623Y177773D01*
X174394Y177737D01*
X174351Y177724D01*
X174307Y177715D01*
X174088Y177642D01*
X173868Y177573D01*
X173827Y177554D01*
X173784Y177539D01*
X173578Y177434D01*
X173370Y177335D01*
X173333Y177310D01*
X173292Y177289D01*
X173103Y177155D01*
X172912Y177027D01*
X172879Y176997D01*
X172842Y176971D01*
X172566Y176721D01*
X169035Y173190D01*
X164834Y171449D01*
X160970Y171449D01*
X160765Y171434D01*
X160560Y171427D01*
X160490Y171414D01*
X160420Y171409D01*
X160219Y171365D01*
X160017Y171328D01*
X159950Y171306D01*
X159881Y171290D01*
X159689Y171217D01*
X159494Y171152D01*
X159431Y171120D01*
X159365Y171095D01*
X159186Y170995D01*
X159002Y170902D01*
X158945Y170861D01*
X158883Y170827D01*
X158720Y170702D01*
X158552Y170583D01*
X158485Y170523D01*
X158445Y170492D01*
X158416Y170463D01*
X158413Y170460D01*
X158389Y170436D01*
X158276Y170334D01*
X154278Y166336D01*
X154145Y166181D01*
X154004Y166030D01*
X153964Y165971D01*
X153918Y165918D01*
X153807Y165745D01*
X153690Y165576D01*
X153659Y165513D01*
X153621Y165453D01*
X153537Y165266D01*
X153445Y165082D01*
X153423Y165014D01*
X153394Y164950D01*
X153338Y164752D01*
X153274Y164557D01*
X153262Y164488D01*
X153243Y164420D01*
X153216Y164216D01*
X153181Y164013D01*
X153176Y163923D01*
X153170Y163873D01*
X153171Y163802D01*
X153163Y163642D01*
X153163Y133458D01*
X152273Y131310D01*
X150630Y129667D01*
X148482Y128777D01*
X146158Y128777D01*
X144010Y129667D01*
X142367Y131310D01*
X141477Y133458D01*
X141477Y168802D01*
X142367Y170950D01*
X150014Y178596D01*
X150147Y178751D01*
X150288Y178902D01*
X150328Y178961D01*
X150374Y179014D01*
X150485Y179187D01*
X150602Y179356D01*
X150633Y179419D01*
X150671Y179479D01*
X150755Y179666D01*
X150847Y179850D01*
X150869Y179918D01*
X150898Y179982D01*
X150954Y180180D01*
X151018Y180375D01*
X151030Y180444D01*
X151049Y180512D01*
X151076Y180716D01*
X151111Y180919D01*
X151116Y181009D01*
X151122Y181059D01*
X151121Y181130D01*
X151129Y181290D01*
X151129Y185154D01*
X152870Y189355D01*
X155602Y192087D01*
X155735Y192242D01*
X155876Y192393D01*
X155916Y192451D01*
X155962Y192504D01*
X156073Y192677D01*
X156190Y192847D01*
X156221Y192910D01*
X156259Y192969D01*
X156343Y193157D01*
X156435Y193341D01*
X156457Y193408D01*
X156486Y193472D01*
X156542Y193670D01*
X156606Y193866D01*
X156618Y193935D01*
X156637Y194003D01*
X156664Y194206D01*
X156699Y194409D01*
X156704Y194500D01*
X156710Y194550D01*
X156709Y194620D01*
X156717Y194781D01*
X156717Y198919D01*
X156702Y199125D01*
X156695Y199330D01*
X156682Y199399D01*
X156677Y199470D01*
X156633Y199671D01*
X156596Y199873D01*
X156574Y199939D01*
X156558Y200008D01*
X156485Y200200D01*
X156420Y200395D01*
X156388Y200458D01*
X156363Y200524D01*
X156263Y200704D01*
X156170Y200887D01*
X156129Y200945D01*
X156095Y201006D01*
X155970Y201170D01*
X155851Y201338D01*
X155791Y201405D01*
X155760Y201445D01*
X155709Y201494D01*
X155602Y201613D01*
X152870Y204345D01*
X151129Y208546D01*
X151129Y213094D01*
X152870Y217295D01*
X155602Y220027D01*
X155735Y220182D01*
X155876Y220333D01*
X155916Y220391D01*
X155962Y220444D01*
X156073Y220617D01*
X156190Y220787D01*
X156221Y220850D01*
X156259Y220909D01*
X156343Y221097D01*
X156435Y221281D01*
X156457Y221348D01*
X156486Y221412D01*
X156542Y221610D01*
X156606Y221806D01*
X156618Y221875D01*
X156637Y221943D01*
X156664Y222146D01*
X156699Y222349D01*
X156704Y222440D01*
X156710Y222490D01*
X156709Y222560D01*
X156717Y222721D01*
X156717Y226859D01*
X156702Y227064D01*
X156695Y227270D01*
X156682Y227339D01*
X156677Y227410D01*
X156633Y227611D01*
X156596Y227813D01*
X156574Y227879D01*
X156558Y227948D01*
X156485Y228140D01*
X156420Y228335D01*
X156388Y228398D01*
X156363Y228464D01*
X156263Y228644D01*
X156170Y228827D01*
X156129Y228885D01*
X156095Y228946D01*
X155970Y229110D01*
X155851Y229278D01*
X155791Y229345D01*
X155760Y229385D01*
X155709Y229434D01*
X155602Y229553D01*
X152870Y232285D01*
X151129Y236486D01*
X151129Y241034D01*
X152870Y245235D01*
X155602Y247967D01*
X155735Y248122D01*
X155876Y248273D01*
X155916Y248331D01*
X155962Y248384D01*
X156073Y248557D01*
X156190Y248727D01*
X156221Y248790D01*
X156259Y248849D01*
X156343Y249037D01*
X156435Y249221D01*
X156457Y249288D01*
X156486Y249352D01*
X156542Y249550D01*
X156606Y249746D01*
X156618Y249815D01*
X156637Y249883D01*
X156664Y250086D01*
X156699Y250289D01*
X156704Y250380D01*
X156710Y250430D01*
X156709Y250500D01*
X156717Y250661D01*
X156717Y254799D01*
X156702Y255005D01*
X156695Y255210D01*
X156682Y255279D01*
X156677Y255350D01*
X156633Y255551D01*
X156596Y255753D01*
X156574Y255819D01*
X156558Y255888D01*
X156485Y256080D01*
X156420Y256275D01*
X156388Y256338D01*
X156363Y256404D01*
X156263Y256584D01*
X156170Y256767D01*
X156129Y256825D01*
X156095Y256886D01*
X155970Y257050D01*
X155851Y257218D01*
X155791Y257285D01*
X155760Y257325D01*
X155709Y257374D01*
X155602Y257493D01*
X152870Y260225D01*
X151129Y264426D01*
X151129Y268974D01*
X152870Y273175D01*
X156085Y276390D01*
X160286Y278131D01*
X162917Y278131D01*
X163123Y278146D01*
X163328Y278153D01*
X163397Y278166D01*
X163468Y278171D01*
X163669Y278215D01*
X163871Y278252D01*
X163937Y278274D01*
X164006Y278290D01*
X164198Y278363D01*
X164393Y278428D01*
X164456Y278460D01*
X164522Y278485D01*
X164702Y278585D01*
X164885Y278678D01*
X164943Y278719D01*
X165004Y278753D01*
X165168Y278878D01*
X165336Y278997D01*
X165403Y279057D01*
X165403Y279058D01*
X165443Y279088D01*
X165492Y279139D01*
X165611Y279246D01*
X165716Y279368D01*
X165828Y279483D01*
X165896Y279576D01*
X165972Y279664D01*
X166058Y279799D01*
X166153Y279929D01*
X166206Y280031D01*
X166269Y280129D01*
X166335Y280275D01*
X166409Y280417D01*
X166448Y280526D01*
X166495Y280632D01*
X166539Y280786D01*
X166592Y280938D01*
X166615Y281051D01*
X166646Y281162D01*
X166668Y281322D01*
X166699Y281479D01*
X166704Y281594D01*
X166720Y281709D01*
X166718Y281870D01*
X166726Y282030D01*
X166715Y282145D01*
X166713Y282261D01*
X166688Y282420D01*
X166673Y282579D01*
X166645Y282691D01*
X166627Y282806D01*
X166579Y282959D01*
X166541Y283115D01*
X166497Y283222D01*
X166463Y283332D01*
X166394Y283477D01*
X166333Y283626D01*
X166275Y283726D01*
X166225Y283830D01*
X166135Y283963D01*
X166054Y284102D01*
X165982Y284192D01*
X165917Y284288D01*
X165809Y284407D01*
X165709Y284532D01*
X165624Y284611D01*
X165546Y284697D01*
X165423Y284799D01*
X165305Y284908D01*
X165210Y284974D01*
X165121Y285047D01*
X164983Y285131D01*
X164851Y285222D01*
X164748Y285273D01*
X164649Y285333D01*
X164501Y285395D01*
X164357Y285467D01*
X164247Y285503D01*
X164141Y285548D01*
X163985Y285588D01*
X163832Y285638D01*
X163718Y285657D01*
X163607Y285686D01*
X163447Y285704D01*
X163289Y285731D01*
X163128Y285739D01*
X163058Y285747D01*
X163008Y285745D01*
X162917Y285749D01*
X119380Y285749D01*
X119335Y285746D01*
X119290Y285748D01*
X119060Y285726D01*
X118830Y285709D01*
X118786Y285700D01*
X118741Y285695D01*
X118518Y285640D01*
X118291Y285590D01*
X118249Y285574D01*
X118205Y285564D01*
X117991Y285477D01*
X117775Y285395D01*
X117736Y285373D01*
X117694Y285356D01*
X117495Y285239D01*
X117293Y285127D01*
X117257Y285099D01*
X117218Y285076D01*
X117038Y284932D01*
X116855Y284792D01*
X116823Y284760D01*
X116788Y284731D01*
X116630Y284561D01*
X116469Y284397D01*
X116443Y284361D01*
X116412Y284328D01*
X116280Y284137D01*
X116145Y283951D01*
X116124Y283911D01*
X116098Y283874D01*
X115995Y283666D01*
X115888Y283463D01*
X115873Y283420D01*
X115853Y283380D01*
X115782Y283160D01*
X115705Y282942D01*
X115696Y282898D01*
X115682Y282855D01*
X115643Y282627D01*
X115599Y282401D01*
X115597Y282356D01*
X115589Y282311D01*
X115571Y281940D01*
X115571Y45720D01*
X115574Y45675D01*
X115572Y45630D01*
X115594Y45400D01*
X115611Y45170D01*
X115620Y45126D01*
X115625Y45081D01*
X115680Y44858D01*
X115730Y44631D01*
X115746Y44589D01*
X115757Y44545D01*
X115843Y44331D01*
X115925Y44115D01*
X115947Y44076D01*
X115964Y44034D01*
X116081Y43835D01*
X116193Y43633D01*
X116221Y43597D01*
X116244Y43558D01*
X116388Y43378D01*
X116528Y43195D01*
X116560Y43163D01*
X116589Y43128D01*
X116759Y42970D01*
X116923Y42809D01*
X116959Y42783D01*
X116992Y42752D01*
X117183Y42620D01*
X117369Y42485D01*
X117409Y42464D01*
X117446Y42438D01*
X117654Y42335D01*
X117857Y42228D01*
X117900Y42213D01*
X117940Y42193D01*
X118160Y42122D01*
X118378Y42045D01*
X118422Y42036D01*
X118465Y42022D01*
X118693Y41983D01*
X118919Y41939D01*
X118964Y41937D01*
X119009Y41929D01*
X119380Y41911D01*
X295710Y41911D01*
X295951Y41928D01*
X296191Y41941D01*
X296225Y41948D01*
X296260Y41951D01*
X296496Y42003D01*
X296731Y42050D01*
X296764Y42062D01*
X296799Y42070D01*
X297024Y42155D01*
X297251Y42236D01*
X297282Y42253D01*
X297315Y42265D01*
X297525Y42382D01*
X297738Y42495D01*
X297766Y42516D01*
X297797Y42533D01*
X297989Y42680D01*
X298182Y42822D01*
X298207Y42847D01*
X298235Y42868D01*
X298403Y43040D01*
X298575Y43210D01*
X298596Y43238D01*
X298621Y43263D01*
X298762Y43457D01*
X298908Y43650D01*
X298925Y43681D01*
X298945Y43709D01*
X299057Y43922D01*
X299173Y44133D01*
X299186Y44166D01*
X299202Y44197D01*
X299282Y44424D01*
X299366Y44650D01*
X299373Y44685D01*
X299385Y44718D01*
X299431Y44953D01*
X299482Y45189D01*
X299485Y45225D01*
X299491Y45259D01*
X299503Y45499D01*
X299519Y45740D01*
X299517Y45775D01*
X299518Y45810D01*
X299495Y46049D01*
X299477Y46290D01*
X299469Y46324D01*
X299465Y46359D01*
X299408Y46592D01*
X299355Y46828D01*
X299340Y46869D01*
X299334Y46895D01*
X299309Y46956D01*
X299239Y47150D01*
X299239Y49366D01*
X300086Y51410D01*
X301650Y52974D01*
X303694Y53821D01*
X305906Y53821D01*
X307950Y52974D01*
X309514Y51410D01*
X310361Y49366D01*
X310361Y47154D01*
X309514Y45110D01*
X309218Y44814D01*
X309085Y44660D01*
X308944Y44508D01*
X308904Y44450D01*
X308858Y44397D01*
X308747Y44224D01*
X308630Y44055D01*
X308599Y43991D01*
X308561Y43932D01*
X308477Y43745D01*
X308385Y43560D01*
X308363Y43493D01*
X308334Y43429D01*
X308278Y43231D01*
X308214Y43036D01*
X308202Y42966D01*
X308183Y42898D01*
X308156Y42695D01*
X308121Y42492D01*
X308116Y42402D01*
X308110Y42352D01*
X308111Y42281D01*
X308103Y42121D01*
X308103Y25806D01*
X308118Y25601D01*
X308125Y25395D01*
X308138Y25326D01*
X308143Y25256D01*
X308187Y25055D01*
X308224Y24853D01*
X308246Y24786D01*
X308262Y24717D01*
X308335Y24525D01*
X308400Y24330D01*
X308432Y24267D01*
X308457Y24201D01*
X308557Y24022D01*
X308650Y23838D01*
X308691Y23781D01*
X308725Y23719D01*
X308850Y23556D01*
X308969Y23388D01*
X309029Y23321D01*
X309060Y23281D01*
X309111Y23231D01*
X309218Y23112D01*
X322832Y9498D01*
X322987Y9365D01*
X323138Y9224D01*
X323196Y9184D01*
X323250Y9138D01*
X323423Y9027D01*
X323592Y8910D01*
X323655Y8879D01*
X323715Y8841D01*
X323902Y8757D01*
X324086Y8665D01*
X324153Y8643D01*
X324218Y8614D01*
X324415Y8558D01*
X324611Y8494D01*
X324680Y8482D01*
X324748Y8463D01*
X324952Y8436D01*
X325155Y8401D01*
X325245Y8396D01*
X325295Y8390D01*
X325365Y8391D01*
X325526Y8383D01*
X336952Y8383D01*
X337192Y8400D01*
G37*
G36*
X289678Y3826D02*
X289678Y3826D01*
X289797Y3833D01*
X289835Y3846D01*
X289876Y3851D01*
X289986Y3894D01*
X290099Y3931D01*
X290134Y3953D01*
X290171Y3968D01*
X290267Y4037D01*
X290368Y4101D01*
X290396Y4131D01*
X290429Y4154D01*
X290505Y4246D01*
X290586Y4333D01*
X290606Y4368D01*
X290631Y4399D01*
X290682Y4507D01*
X290740Y4611D01*
X290750Y4651D01*
X290767Y4687D01*
X290789Y4804D01*
X290819Y4919D01*
X290823Y4979D01*
X290827Y4999D01*
X290825Y5020D01*
X290829Y5080D01*
X290829Y35560D01*
X290814Y35678D01*
X290807Y35797D01*
X290794Y35835D01*
X290789Y35876D01*
X290746Y35986D01*
X290709Y36099D01*
X290687Y36134D01*
X290672Y36171D01*
X290603Y36267D01*
X290539Y36368D01*
X290509Y36396D01*
X290486Y36429D01*
X290394Y36505D01*
X290307Y36586D01*
X290272Y36606D01*
X290241Y36631D01*
X290133Y36682D01*
X290029Y36740D01*
X289989Y36750D01*
X289953Y36767D01*
X289836Y36789D01*
X289721Y36819D01*
X289661Y36823D01*
X289641Y36827D01*
X289620Y36825D01*
X289560Y36829D01*
X107949Y36829D01*
X107949Y205740D01*
X107934Y205858D01*
X107927Y205977D01*
X107914Y206015D01*
X107909Y206056D01*
X107866Y206166D01*
X107829Y206279D01*
X107807Y206314D01*
X107792Y206351D01*
X107723Y206447D01*
X107659Y206548D01*
X107629Y206576D01*
X107606Y206609D01*
X107514Y206685D01*
X107427Y206766D01*
X107392Y206786D01*
X107361Y206811D01*
X107253Y206862D01*
X107149Y206920D01*
X107109Y206930D01*
X107073Y206947D01*
X106956Y206969D01*
X106841Y206999D01*
X106781Y207003D01*
X106761Y207007D01*
X106740Y207005D01*
X106680Y207009D01*
X68580Y207009D01*
X68462Y206994D01*
X68343Y206987D01*
X68305Y206974D01*
X68264Y206969D01*
X68154Y206926D01*
X68041Y206889D01*
X68006Y206867D01*
X67969Y206852D01*
X67873Y206783D01*
X67772Y206719D01*
X67744Y206689D01*
X67711Y206666D01*
X67636Y206574D01*
X67554Y206487D01*
X67534Y206452D01*
X67509Y206421D01*
X67458Y206313D01*
X67400Y206209D01*
X67390Y206169D01*
X67373Y206133D01*
X67351Y206016D01*
X67321Y205901D01*
X67317Y205841D01*
X67313Y205821D01*
X67315Y205800D01*
X67311Y205740D01*
X67311Y5080D01*
X67326Y4962D01*
X67333Y4843D01*
X67346Y4805D01*
X67351Y4764D01*
X67394Y4654D01*
X67431Y4541D01*
X67453Y4506D01*
X67468Y4469D01*
X67538Y4373D01*
X67601Y4272D01*
X67631Y4244D01*
X67654Y4211D01*
X67746Y4135D01*
X67833Y4054D01*
X67868Y4034D01*
X67899Y4009D01*
X68007Y3958D01*
X68111Y3900D01*
X68151Y3890D01*
X68187Y3873D01*
X68304Y3851D01*
X68419Y3821D01*
X68480Y3817D01*
X68500Y3813D01*
X68520Y3815D01*
X68580Y3811D01*
X289560Y3811D01*
X289678Y3826D01*
G37*
G36*
X585719Y145558D02*
X585719Y145558D01*
X585925Y145565D01*
X585994Y145578D01*
X586064Y145583D01*
X586265Y145627D01*
X586467Y145664D01*
X586534Y145686D01*
X586603Y145702D01*
X586795Y145775D01*
X586990Y145840D01*
X587053Y145872D01*
X587119Y145897D01*
X587298Y145997D01*
X587482Y146090D01*
X587539Y146131D01*
X587601Y146165D01*
X587765Y146290D01*
X587932Y146409D01*
X587999Y146469D01*
X588039Y146500D01*
X588089Y146551D01*
X588208Y146658D01*
X642216Y200666D01*
X642321Y200788D01*
X642433Y200903D01*
X642501Y200996D01*
X642577Y201084D01*
X642663Y201220D01*
X642757Y201349D01*
X642811Y201451D01*
X642873Y201549D01*
X642939Y201695D01*
X643014Y201837D01*
X643052Y201946D01*
X643100Y202052D01*
X643144Y202206D01*
X643197Y202358D01*
X643219Y202471D01*
X643251Y202582D01*
X643273Y202742D01*
X643303Y202899D01*
X643309Y203014D01*
X643324Y203129D01*
X643323Y203290D01*
X643330Y203450D01*
X643319Y203565D01*
X643318Y203681D01*
X643293Y203840D01*
X643277Y203999D01*
X643250Y204111D01*
X643232Y204226D01*
X643184Y204379D01*
X643146Y204535D01*
X643102Y204642D01*
X643068Y204752D01*
X642998Y204897D01*
X642938Y205046D01*
X642879Y205146D01*
X642830Y205250D01*
X642740Y205383D01*
X642659Y205522D01*
X642586Y205612D01*
X642522Y205708D01*
X642414Y205827D01*
X642313Y205952D01*
X642229Y206031D01*
X642151Y206117D01*
X642027Y206219D01*
X641910Y206328D01*
X641815Y206394D01*
X641726Y206467D01*
X641588Y206551D01*
X641456Y206642D01*
X641352Y206693D01*
X641254Y206753D01*
X641106Y206815D01*
X640962Y206887D01*
X640852Y206923D01*
X640745Y206968D01*
X640590Y207008D01*
X640437Y207058D01*
X640323Y207077D01*
X640211Y207106D01*
X640052Y207124D01*
X639893Y207151D01*
X639733Y207159D01*
X639663Y207167D01*
X639612Y207165D01*
X639522Y207169D01*
X638030Y207169D01*
X637539Y207267D01*
X637076Y207458D01*
X636660Y207737D01*
X636307Y208090D01*
X636028Y208506D01*
X635837Y208969D01*
X635739Y209460D01*
X635739Y212251D01*
X643280Y212251D01*
X643325Y212254D01*
X643370Y212252D01*
X643599Y212274D01*
X643830Y212291D01*
X643874Y212300D01*
X643919Y212305D01*
X644142Y212360D01*
X644369Y212410D01*
X644411Y212426D01*
X644455Y212436D01*
X644669Y212523D01*
X644884Y212605D01*
X644924Y212627D01*
X644966Y212644D01*
X645165Y212761D01*
X645367Y212873D01*
X645403Y212901D01*
X645441Y212923D01*
X645622Y213068D01*
X645805Y213208D01*
X645836Y213240D01*
X645872Y213269D01*
X646030Y213438D01*
X646190Y213603D01*
X646217Y213639D01*
X646248Y213672D01*
X646380Y213863D01*
X646515Y214049D01*
X646536Y214089D01*
X646562Y214126D01*
X646664Y214334D01*
X646771Y214537D01*
X646786Y214580D01*
X646806Y214620D01*
X646878Y214840D01*
X646955Y215058D01*
X646963Y215102D01*
X646977Y215145D01*
X647017Y215373D01*
X647061Y215599D01*
X647063Y215644D01*
X647071Y215689D01*
X647089Y216060D01*
X647086Y216105D01*
X647088Y216150D01*
X647066Y216380D01*
X647049Y216610D01*
X647039Y216655D01*
X647035Y216699D01*
X646980Y216923D01*
X646930Y217149D01*
X646914Y217191D01*
X646903Y217235D01*
X646816Y217449D01*
X646734Y217665D01*
X646713Y217704D01*
X646695Y217746D01*
X646578Y217945D01*
X646466Y218147D01*
X646439Y218183D01*
X646416Y218222D01*
X646272Y218402D01*
X646132Y218585D01*
X646099Y218617D01*
X646071Y218652D01*
X645901Y218810D01*
X645737Y218971D01*
X645701Y218997D01*
X645667Y219028D01*
X645476Y219160D01*
X645291Y219295D01*
X645251Y219316D01*
X645214Y219342D01*
X645006Y219445D01*
X644802Y219552D01*
X644760Y219567D01*
X644719Y219587D01*
X644499Y219659D01*
X644282Y219735D01*
X644238Y219744D01*
X644195Y219758D01*
X643966Y219797D01*
X643741Y219841D01*
X643696Y219844D01*
X643651Y219851D01*
X643280Y219869D01*
X635739Y219869D01*
X635739Y222660D01*
X635837Y223151D01*
X636028Y223614D01*
X636307Y224030D01*
X636660Y224383D01*
X637076Y224662D01*
X637539Y224853D01*
X638030Y224951D01*
X641938Y224951D01*
X641983Y224954D01*
X642028Y224952D01*
X642258Y224974D01*
X642488Y224991D01*
X642532Y225000D01*
X642577Y225005D01*
X642800Y225060D01*
X643027Y225110D01*
X643069Y225126D01*
X643113Y225136D01*
X643327Y225223D01*
X643543Y225305D01*
X643582Y225327D01*
X643624Y225344D01*
X643823Y225461D01*
X644025Y225573D01*
X644061Y225601D01*
X644100Y225624D01*
X644280Y225768D01*
X644463Y225908D01*
X644495Y225940D01*
X644530Y225969D01*
X644688Y226138D01*
X644849Y226303D01*
X644875Y226339D01*
X644906Y226372D01*
X645038Y226563D01*
X645173Y226749D01*
X645194Y226789D01*
X645220Y226826D01*
X645323Y227034D01*
X645430Y227237D01*
X645445Y227280D01*
X645465Y227320D01*
X645536Y227540D01*
X645613Y227758D01*
X645622Y227802D01*
X645636Y227845D01*
X645675Y228073D01*
X645719Y228299D01*
X645721Y228344D01*
X645729Y228389D01*
X645747Y228760D01*
X645747Y231986D01*
X645736Y232147D01*
X645734Y232307D01*
X645716Y232421D01*
X645707Y232536D01*
X645673Y232694D01*
X645648Y232852D01*
X645613Y232962D01*
X645588Y233075D01*
X645531Y233225D01*
X645484Y233379D01*
X645434Y233483D01*
X645393Y233591D01*
X645315Y233731D01*
X645245Y233876D01*
X645181Y233972D01*
X645125Y234073D01*
X645027Y234201D01*
X644937Y234334D01*
X644860Y234420D01*
X644790Y234512D01*
X644675Y234624D01*
X644567Y234743D01*
X644478Y234816D01*
X644395Y234897D01*
X644265Y234991D01*
X644141Y235094D01*
X644042Y235154D01*
X643949Y235221D01*
X643807Y235296D01*
X643669Y235379D01*
X643563Y235424D01*
X643461Y235478D01*
X643309Y235531D01*
X643161Y235594D01*
X643049Y235623D01*
X642940Y235661D01*
X642783Y235692D01*
X642627Y235733D01*
X642512Y235745D01*
X642399Y235767D01*
X642238Y235775D01*
X642079Y235793D01*
X641963Y235789D01*
X641848Y235794D01*
X641688Y235779D01*
X641527Y235773D01*
X641414Y235753D01*
X641299Y235741D01*
X641143Y235703D01*
X640985Y235674D01*
X640875Y235637D01*
X640794Y235617D01*
X632206Y235617D01*
X632001Y235602D01*
X631795Y235595D01*
X631726Y235582D01*
X631656Y235577D01*
X631455Y235533D01*
X631253Y235496D01*
X631186Y235474D01*
X631117Y235458D01*
X630925Y235385D01*
X630730Y235320D01*
X630667Y235288D01*
X630601Y235263D01*
X630422Y235163D01*
X630238Y235070D01*
X630181Y235029D01*
X630119Y234995D01*
X629956Y234870D01*
X629788Y234751D01*
X629721Y234691D01*
X629681Y234660D01*
X629631Y234609D01*
X629512Y234502D01*
X548616Y153605D01*
X547056Y152046D01*
X546951Y151924D01*
X546839Y151809D01*
X546771Y151716D01*
X546695Y151628D01*
X546609Y151493D01*
X546515Y151363D01*
X546461Y151261D01*
X546399Y151163D01*
X546333Y151017D01*
X546258Y150875D01*
X546220Y150766D01*
X546172Y150660D01*
X546128Y150505D01*
X546075Y150354D01*
X546053Y150241D01*
X546021Y150130D01*
X545999Y149970D01*
X545969Y149813D01*
X545963Y149698D01*
X545948Y149583D01*
X545949Y149422D01*
X545942Y149262D01*
X545953Y149147D01*
X545954Y149031D01*
X545979Y148873D01*
X545995Y148713D01*
X546022Y148601D01*
X546040Y148486D01*
X546088Y148333D01*
X546126Y148177D01*
X546170Y148070D01*
X546204Y147960D01*
X546274Y147815D01*
X546334Y147666D01*
X546393Y147566D01*
X546442Y147462D01*
X546532Y147329D01*
X546613Y147190D01*
X546686Y147100D01*
X546750Y147004D01*
X546858Y146885D01*
X546959Y146760D01*
X547043Y146681D01*
X547121Y146595D01*
X547245Y146493D01*
X547362Y146384D01*
X547457Y146318D01*
X547546Y146245D01*
X547684Y146162D01*
X547816Y146070D01*
X547920Y146019D01*
X548018Y145959D01*
X548166Y145897D01*
X548310Y145825D01*
X548420Y145789D01*
X548527Y145744D01*
X548682Y145704D01*
X548835Y145654D01*
X548949Y145635D01*
X549061Y145606D01*
X549220Y145588D01*
X549379Y145561D01*
X549539Y145553D01*
X549609Y145545D01*
X549660Y145547D01*
X549750Y145543D01*
X585514Y145543D01*
X585719Y145558D01*
G37*
G36*
X631439Y135398D02*
X631439Y135398D01*
X631645Y135405D01*
X631714Y135418D01*
X631784Y135423D01*
X631985Y135467D01*
X632187Y135504D01*
X632254Y135526D01*
X632323Y135542D01*
X632515Y135615D01*
X632710Y135680D01*
X632773Y135712D01*
X632839Y135737D01*
X633018Y135837D01*
X633202Y135930D01*
X633259Y135971D01*
X633321Y136005D01*
X633485Y136130D01*
X633652Y136249D01*
X633719Y136309D01*
X633759Y136340D01*
X633809Y136391D01*
X633928Y136498D01*
X670156Y172726D01*
X670261Y172848D01*
X670373Y172963D01*
X670441Y173056D01*
X670517Y173144D01*
X670603Y173280D01*
X670697Y173409D01*
X670751Y173511D01*
X670813Y173609D01*
X670879Y173755D01*
X670954Y173897D01*
X670992Y174006D01*
X671040Y174112D01*
X671084Y174266D01*
X671137Y174418D01*
X671159Y174531D01*
X671191Y174642D01*
X671213Y174802D01*
X671243Y174959D01*
X671249Y175074D01*
X671264Y175189D01*
X671263Y175350D01*
X671270Y175510D01*
X671259Y175625D01*
X671258Y175741D01*
X671233Y175900D01*
X671217Y176059D01*
X671190Y176171D01*
X671172Y176286D01*
X671124Y176439D01*
X671086Y176595D01*
X671042Y176702D01*
X671008Y176812D01*
X670938Y176957D01*
X670878Y177106D01*
X670819Y177206D01*
X670770Y177310D01*
X670680Y177443D01*
X670599Y177582D01*
X670526Y177672D01*
X670462Y177768D01*
X670354Y177887D01*
X670253Y178012D01*
X670169Y178091D01*
X670091Y178177D01*
X669967Y178279D01*
X669850Y178388D01*
X669755Y178454D01*
X669666Y178527D01*
X669528Y178611D01*
X669396Y178702D01*
X669292Y178753D01*
X669194Y178813D01*
X669046Y178875D01*
X668902Y178947D01*
X668792Y178983D01*
X668685Y179028D01*
X668530Y179068D01*
X668377Y179118D01*
X668263Y179137D01*
X668151Y179166D01*
X667992Y179184D01*
X667833Y179211D01*
X667673Y179219D01*
X667603Y179227D01*
X667552Y179225D01*
X667462Y179229D01*
X665970Y179229D01*
X665479Y179327D01*
X665016Y179518D01*
X664600Y179797D01*
X664247Y180150D01*
X663968Y180566D01*
X663777Y181029D01*
X663679Y181520D01*
X663679Y184311D01*
X671220Y184311D01*
X671265Y184314D01*
X671310Y184312D01*
X671539Y184334D01*
X671770Y184351D01*
X671814Y184360D01*
X671859Y184365D01*
X672082Y184420D01*
X672309Y184470D01*
X672351Y184486D01*
X672395Y184496D01*
X672609Y184583D01*
X672824Y184665D01*
X672864Y184687D01*
X672906Y184704D01*
X673105Y184821D01*
X673307Y184933D01*
X673343Y184961D01*
X673381Y184983D01*
X673562Y185128D01*
X673745Y185268D01*
X673776Y185300D01*
X673812Y185329D01*
X673970Y185498D01*
X674130Y185663D01*
X674157Y185699D01*
X674188Y185732D01*
X674320Y185923D01*
X674455Y186109D01*
X674476Y186149D01*
X674502Y186186D01*
X674604Y186394D01*
X674711Y186597D01*
X674726Y186640D01*
X674746Y186680D01*
X674818Y186900D01*
X674895Y187118D01*
X674903Y187162D01*
X674917Y187205D01*
X674957Y187433D01*
X675001Y187659D01*
X675003Y187704D01*
X675011Y187749D01*
X675029Y188120D01*
X675026Y188165D01*
X675028Y188210D01*
X675006Y188440D01*
X674989Y188670D01*
X674979Y188715D01*
X674975Y188759D01*
X674920Y188983D01*
X674870Y189209D01*
X674854Y189251D01*
X674843Y189295D01*
X674756Y189509D01*
X674674Y189725D01*
X674653Y189764D01*
X674635Y189806D01*
X674518Y190005D01*
X674406Y190207D01*
X674379Y190243D01*
X674356Y190282D01*
X674212Y190462D01*
X674072Y190645D01*
X674039Y190677D01*
X674011Y190712D01*
X673841Y190870D01*
X673677Y191031D01*
X673641Y191057D01*
X673607Y191088D01*
X673416Y191220D01*
X673231Y191355D01*
X673191Y191376D01*
X673154Y191402D01*
X672946Y191505D01*
X672742Y191612D01*
X672700Y191627D01*
X672659Y191647D01*
X672439Y191719D01*
X672222Y191795D01*
X672178Y191804D01*
X672135Y191818D01*
X671906Y191857D01*
X671681Y191901D01*
X671636Y191904D01*
X671591Y191911D01*
X671220Y191929D01*
X663679Y191929D01*
X663679Y194720D01*
X663777Y195211D01*
X663968Y195674D01*
X664247Y196090D01*
X664600Y196443D01*
X665016Y196722D01*
X665479Y196913D01*
X665970Y197011D01*
X669878Y197011D01*
X669923Y197014D01*
X669968Y197012D01*
X670198Y197034D01*
X670428Y197051D01*
X670472Y197060D01*
X670517Y197065D01*
X670741Y197120D01*
X670967Y197170D01*
X671009Y197186D01*
X671053Y197196D01*
X671267Y197283D01*
X671483Y197365D01*
X671522Y197387D01*
X671564Y197404D01*
X671763Y197521D01*
X671965Y197633D01*
X672001Y197661D01*
X672040Y197684D01*
X672220Y197828D01*
X672403Y197968D01*
X672435Y198000D01*
X672470Y198029D01*
X672628Y198199D01*
X672789Y198363D01*
X672815Y198399D01*
X672846Y198432D01*
X672978Y198623D01*
X673113Y198809D01*
X673134Y198849D01*
X673160Y198886D01*
X673263Y199094D01*
X673370Y199297D01*
X673385Y199340D01*
X673405Y199380D01*
X673476Y199600D01*
X673553Y199818D01*
X673562Y199862D01*
X673576Y199905D01*
X673615Y200133D01*
X673659Y200359D01*
X673661Y200404D01*
X673669Y200449D01*
X673687Y200820D01*
X673687Y204046D01*
X673676Y204207D01*
X673674Y204367D01*
X673656Y204481D01*
X673647Y204596D01*
X673613Y204754D01*
X673588Y204912D01*
X673553Y205022D01*
X673528Y205135D01*
X673471Y205285D01*
X673424Y205439D01*
X673374Y205543D01*
X673333Y205651D01*
X673255Y205791D01*
X673185Y205936D01*
X673121Y206032D01*
X673065Y206133D01*
X672967Y206261D01*
X672877Y206394D01*
X672800Y206480D01*
X672730Y206572D01*
X672615Y206684D01*
X672507Y206803D01*
X672418Y206876D01*
X672335Y206957D01*
X672205Y207051D01*
X672081Y207154D01*
X671982Y207214D01*
X671889Y207281D01*
X671747Y207356D01*
X671609Y207439D01*
X671503Y207484D01*
X671401Y207538D01*
X671249Y207591D01*
X671101Y207654D01*
X670989Y207683D01*
X670880Y207721D01*
X670723Y207752D01*
X670567Y207793D01*
X670452Y207805D01*
X670339Y207827D01*
X670178Y207835D01*
X670019Y207853D01*
X669903Y207849D01*
X669788Y207854D01*
X669628Y207839D01*
X669467Y207833D01*
X669354Y207813D01*
X669239Y207801D01*
X669083Y207763D01*
X668925Y207734D01*
X668815Y207697D01*
X668734Y207677D01*
X660146Y207677D01*
X659941Y207662D01*
X659735Y207655D01*
X659666Y207642D01*
X659596Y207637D01*
X659394Y207593D01*
X659193Y207556D01*
X659126Y207534D01*
X659057Y207518D01*
X658865Y207445D01*
X658670Y207380D01*
X658607Y207348D01*
X658541Y207323D01*
X658362Y207223D01*
X658178Y207130D01*
X658121Y207089D01*
X658059Y207055D01*
X657896Y206930D01*
X657728Y206811D01*
X657661Y206751D01*
X657621Y206720D01*
X657571Y206669D01*
X657452Y206562D01*
X592776Y141886D01*
X592671Y141764D01*
X592559Y141649D01*
X592491Y141556D01*
X592415Y141468D01*
X592329Y141333D01*
X592235Y141203D01*
X592181Y141101D01*
X592119Y141003D01*
X592053Y140857D01*
X591978Y140715D01*
X591940Y140606D01*
X591892Y140500D01*
X591848Y140346D01*
X591795Y140194D01*
X591773Y140081D01*
X591741Y139970D01*
X591719Y139810D01*
X591689Y139653D01*
X591683Y139538D01*
X591668Y139423D01*
X591669Y139262D01*
X591662Y139102D01*
X591673Y138987D01*
X591674Y138871D01*
X591699Y138712D01*
X591715Y138553D01*
X591742Y138441D01*
X591760Y138326D01*
X591808Y138173D01*
X591846Y138017D01*
X591890Y137910D01*
X591924Y137800D01*
X591994Y137655D01*
X592054Y137506D01*
X592113Y137406D01*
X592162Y137302D01*
X592252Y137169D01*
X592333Y137030D01*
X592406Y136940D01*
X592470Y136844D01*
X592578Y136725D01*
X592679Y136600D01*
X592763Y136521D01*
X592841Y136435D01*
X592965Y136333D01*
X593082Y136224D01*
X593177Y136158D01*
X593266Y136085D01*
X593404Y136001D01*
X593536Y135910D01*
X593640Y135859D01*
X593738Y135799D01*
X593886Y135737D01*
X594030Y135665D01*
X594140Y135629D01*
X594247Y135584D01*
X594402Y135544D01*
X594555Y135494D01*
X594669Y135475D01*
X594781Y135446D01*
X594940Y135428D01*
X595099Y135401D01*
X595259Y135393D01*
X595329Y135385D01*
X595380Y135387D01*
X595470Y135383D01*
X631234Y135383D01*
X631439Y135398D01*
G37*
%LPC*%
G36*
X382434Y190019D02*
X382434Y190019D01*
X380390Y190866D01*
X378826Y192430D01*
X377979Y194474D01*
X377979Y196686D01*
X378946Y199019D01*
X378968Y199061D01*
X379030Y199158D01*
X379096Y199305D01*
X379171Y199447D01*
X379209Y199556D01*
X379256Y199661D01*
X379300Y199816D01*
X379354Y199968D01*
X379376Y200081D01*
X379408Y200192D01*
X379429Y200351D01*
X379460Y200509D01*
X379466Y200624D01*
X379481Y200738D01*
X379479Y200900D01*
X379487Y201060D01*
X379476Y201175D01*
X379475Y201290D01*
X379450Y201449D01*
X379434Y201609D01*
X379407Y201721D01*
X379389Y201835D01*
X379341Y201989D01*
X379302Y202145D01*
X379259Y202252D01*
X379225Y202362D01*
X379155Y202507D01*
X379095Y202656D01*
X379036Y202755D01*
X378987Y202859D01*
X378897Y202993D01*
X378815Y203132D01*
X378743Y203222D01*
X378679Y203317D01*
X378571Y203436D01*
X378470Y203562D01*
X378386Y203641D01*
X378308Y203726D01*
X378184Y203828D01*
X378067Y203938D01*
X377972Y204004D01*
X377883Y204077D01*
X377745Y204160D01*
X377613Y204252D01*
X377509Y204303D01*
X377411Y204363D01*
X377263Y204425D01*
X377118Y204497D01*
X377009Y204532D01*
X376903Y204577D01*
X376747Y204618D01*
X376594Y204668D01*
X376480Y204687D01*
X376369Y204716D01*
X376209Y204734D01*
X376050Y204761D01*
X375890Y204769D01*
X375820Y204777D01*
X375770Y204775D01*
X375679Y204779D01*
X374814Y204779D01*
X373478Y205333D01*
X373266Y205403D01*
X373056Y205479D01*
X373004Y205490D01*
X372954Y205506D01*
X372735Y205545D01*
X372516Y205590D01*
X372463Y205593D01*
X372411Y205603D01*
X372188Y205609D01*
X371965Y205622D01*
X371913Y205618D01*
X371859Y205619D01*
X371637Y205594D01*
X371415Y205574D01*
X371364Y205562D01*
X371311Y205556D01*
X371095Y205499D01*
X370879Y205448D01*
X370829Y205428D01*
X370778Y205415D01*
X370573Y205327D01*
X370366Y205245D01*
X370320Y205218D01*
X370271Y205198D01*
X370081Y205081D01*
X369887Y204970D01*
X369846Y204937D01*
X369801Y204909D01*
X369629Y204767D01*
X369454Y204629D01*
X369417Y204590D01*
X369377Y204556D01*
X369265Y204431D01*
X368680Y203847D01*
X368651Y203827D01*
X368461Y203679D01*
X368268Y203535D01*
X368243Y203510D01*
X368216Y203488D01*
X368048Y203314D01*
X367879Y203144D01*
X367858Y203116D01*
X367834Y203090D01*
X367693Y202893D01*
X367551Y202701D01*
X367534Y202670D01*
X367514Y202641D01*
X367403Y202426D01*
X367290Y202215D01*
X367278Y202182D01*
X367262Y202150D01*
X367184Y201922D01*
X367101Y201696D01*
X367094Y201661D01*
X367083Y201628D01*
X367039Y201391D01*
X366990Y201156D01*
X366988Y201121D01*
X366982Y201086D01*
X366972Y200845D01*
X366958Y200605D01*
X366961Y200570D01*
X366960Y200535D01*
X366985Y200295D01*
X367006Y200055D01*
X367014Y200021D01*
X367018Y199986D01*
X367078Y199753D01*
X367133Y199518D01*
X367146Y199486D01*
X367155Y199452D01*
X367247Y199229D01*
X367336Y199005D01*
X367354Y198975D01*
X367367Y198942D01*
X367491Y198735D01*
X367611Y198527D01*
X367633Y198500D01*
X367651Y198469D01*
X367803Y198283D01*
X367952Y198094D01*
X367978Y198069D01*
X368000Y198042D01*
X368177Y197880D01*
X368352Y197714D01*
X368387Y197688D01*
X368407Y197670D01*
X368461Y197633D01*
X368651Y197493D01*
X368680Y197473D01*
X369033Y197120D01*
X369312Y196704D01*
X369503Y196241D01*
X369601Y195750D01*
X369601Y194309D01*
X365369Y194309D01*
X365369Y210820D01*
X365369Y218361D01*
X367310Y218361D01*
X367801Y218263D01*
X368264Y218072D01*
X368680Y217793D01*
X369033Y217440D01*
X369355Y216958D01*
X369492Y216782D01*
X369624Y216602D01*
X369661Y216565D01*
X369694Y216523D01*
X369855Y216369D01*
X370012Y216210D01*
X370054Y216178D01*
X370092Y216141D01*
X370274Y216012D01*
X370452Y215877D01*
X370498Y215852D01*
X370541Y215821D01*
X370740Y215719D01*
X370936Y215612D01*
X370985Y215593D01*
X371032Y215569D01*
X371243Y215497D01*
X371452Y215419D01*
X371504Y215408D01*
X371554Y215390D01*
X371774Y215349D01*
X371992Y215303D01*
X372044Y215299D01*
X372096Y215289D01*
X372320Y215280D01*
X372542Y215265D01*
X372595Y215270D01*
X372648Y215267D01*
X372870Y215291D01*
X373092Y215308D01*
X373144Y215320D01*
X373196Y215325D01*
X373413Y215381D01*
X373630Y215430D01*
X373692Y215452D01*
X373731Y215462D01*
X373797Y215490D01*
X373980Y215555D01*
X374814Y215901D01*
X377345Y215901D01*
X377514Y215871D01*
X377559Y215869D01*
X377604Y215863D01*
X377835Y215861D01*
X378065Y215854D01*
X378110Y215859D01*
X378155Y215859D01*
X378384Y215891D01*
X378613Y215917D01*
X378657Y215929D01*
X378702Y215935D01*
X378923Y216000D01*
X379146Y216059D01*
X379188Y216076D01*
X379231Y216089D01*
X379442Y216185D01*
X379653Y216276D01*
X379692Y216299D01*
X379733Y216318D01*
X379927Y216443D01*
X380124Y216564D01*
X380159Y216593D01*
X380197Y216617D01*
X380370Y216769D01*
X380548Y216917D01*
X380578Y216951D01*
X380612Y216980D01*
X380762Y217156D01*
X380916Y217327D01*
X380941Y217365D01*
X380971Y217400D01*
X381094Y217594D01*
X381222Y217787D01*
X381241Y217828D01*
X381265Y217866D01*
X381350Y218046D01*
X382930Y219626D01*
X384974Y220473D01*
X385392Y220473D01*
X385597Y220488D01*
X385803Y220495D01*
X385872Y220508D01*
X385942Y220513D01*
X386143Y220557D01*
X386345Y220594D01*
X386412Y220616D01*
X386481Y220632D01*
X386673Y220705D01*
X386868Y220770D01*
X386931Y220802D01*
X386997Y220827D01*
X387176Y220927D01*
X387360Y221020D01*
X387417Y221061D01*
X387479Y221095D01*
X387642Y221220D01*
X387810Y221339D01*
X387877Y221399D01*
X387917Y221430D01*
X387967Y221481D01*
X388086Y221588D01*
X413137Y246640D01*
X414351Y247143D01*
X458550Y247143D01*
X458595Y247146D01*
X458640Y247144D01*
X458870Y247166D01*
X459100Y247183D01*
X459144Y247192D01*
X459189Y247197D01*
X459413Y247252D01*
X459639Y247302D01*
X459681Y247318D01*
X459725Y247328D01*
X459939Y247415D01*
X460155Y247497D01*
X460194Y247519D01*
X460236Y247536D01*
X460435Y247653D01*
X460637Y247765D01*
X460673Y247793D01*
X460712Y247816D01*
X460892Y247960D01*
X461075Y248100D01*
X461107Y248132D01*
X461142Y248161D01*
X461300Y248331D01*
X461461Y248495D01*
X461487Y248531D01*
X461518Y248564D01*
X461650Y248755D01*
X461785Y248941D01*
X461806Y248981D01*
X461832Y249018D01*
X461935Y249226D01*
X461979Y249311D01*
X469900Y249311D01*
X477441Y249311D01*
X477441Y247370D01*
X477343Y246879D01*
X477152Y246416D01*
X476873Y246000D01*
X476520Y245647D01*
X476414Y245576D01*
X476239Y245439D01*
X476058Y245307D01*
X476021Y245270D01*
X475979Y245237D01*
X475825Y245076D01*
X475666Y244919D01*
X475634Y244877D01*
X475597Y244839D01*
X475468Y244657D01*
X475333Y244479D01*
X475308Y244433D01*
X475277Y244390D01*
X475175Y244191D01*
X475068Y243996D01*
X475049Y243946D01*
X475025Y243899D01*
X474953Y243688D01*
X474875Y243479D01*
X474864Y243427D01*
X474846Y243377D01*
X474806Y243158D01*
X474759Y242940D01*
X474755Y242887D01*
X474745Y242835D01*
X474736Y242611D01*
X474721Y242389D01*
X474726Y242336D01*
X474723Y242284D01*
X474747Y242062D01*
X474764Y241839D01*
X474776Y241787D01*
X474781Y241735D01*
X474837Y241519D01*
X474886Y241301D01*
X474908Y241239D01*
X474918Y241200D01*
X474946Y241134D01*
X475011Y240951D01*
X475461Y239866D01*
X475461Y237654D01*
X474614Y235610D01*
X473050Y234046D01*
X471006Y233199D01*
X468794Y233199D01*
X466750Y234046D01*
X465186Y235610D01*
X464119Y238186D01*
X464063Y238298D01*
X464015Y238414D01*
X463939Y238544D01*
X463871Y238679D01*
X463800Y238781D01*
X463736Y238890D01*
X463642Y239008D01*
X463555Y239131D01*
X463470Y239222D01*
X463391Y239320D01*
X463280Y239423D01*
X463177Y239533D01*
X463079Y239610D01*
X462987Y239696D01*
X462863Y239782D01*
X462745Y239876D01*
X462637Y239939D01*
X462534Y240010D01*
X462398Y240077D01*
X462268Y240152D01*
X462152Y240199D01*
X462039Y240255D01*
X461896Y240302D01*
X461756Y240358D01*
X461634Y240387D01*
X461515Y240426D01*
X461366Y240451D01*
X461219Y240487D01*
X461095Y240498D01*
X460971Y240519D01*
X460736Y240531D01*
X460670Y240537D01*
X460643Y240535D01*
X460600Y240537D01*
X458459Y240537D01*
X458219Y240520D01*
X457979Y240507D01*
X457945Y240500D01*
X457909Y240497D01*
X457673Y240445D01*
X457438Y240398D01*
X457405Y240386D01*
X457371Y240378D01*
X457145Y240293D01*
X456919Y240212D01*
X456888Y240195D01*
X456855Y240183D01*
X456644Y240066D01*
X456432Y239953D01*
X456403Y239932D01*
X456373Y239915D01*
X456181Y239768D01*
X455987Y239626D01*
X455962Y239601D01*
X455934Y239580D01*
X455766Y239408D01*
X455595Y239239D01*
X455573Y239210D01*
X455549Y239185D01*
X455408Y238991D01*
X455262Y238798D01*
X455245Y238767D01*
X455224Y238739D01*
X455113Y238526D01*
X454996Y238315D01*
X454984Y238282D01*
X454968Y238251D01*
X454888Y238024D01*
X454804Y237798D01*
X454796Y237763D01*
X454784Y237730D01*
X454738Y237494D01*
X454687Y237259D01*
X454685Y237223D01*
X454678Y237189D01*
X454666Y236948D01*
X454650Y236708D01*
X454653Y236673D01*
X454651Y236638D01*
X454674Y236398D01*
X454693Y236158D01*
X454701Y236124D01*
X454704Y236089D01*
X454762Y235856D01*
X454815Y235620D01*
X454829Y235579D01*
X454836Y235553D01*
X454861Y235492D01*
X454940Y235270D01*
X455141Y234786D01*
X455141Y232574D01*
X454294Y230530D01*
X452730Y228966D01*
X450686Y228119D01*
X448474Y228119D01*
X446430Y228966D01*
X446134Y229262D01*
X445980Y229395D01*
X445828Y229536D01*
X445770Y229576D01*
X445717Y229622D01*
X445544Y229733D01*
X445375Y229850D01*
X445311Y229881D01*
X445252Y229919D01*
X445065Y230003D01*
X444880Y230095D01*
X444813Y230117D01*
X444749Y230146D01*
X444551Y230202D01*
X444356Y230266D01*
X444286Y230278D01*
X444218Y230297D01*
X444015Y230324D01*
X443812Y230359D01*
X443722Y230364D01*
X443672Y230370D01*
X443601Y230369D01*
X443441Y230377D01*
X425930Y230377D01*
X425885Y230374D01*
X425840Y230376D01*
X425610Y230354D01*
X425380Y230337D01*
X425336Y230328D01*
X425291Y230323D01*
X425067Y230268D01*
X424841Y230218D01*
X424799Y230202D01*
X424755Y230192D01*
X424541Y230105D01*
X424325Y230023D01*
X424286Y230001D01*
X424244Y229984D01*
X424045Y229867D01*
X423843Y229755D01*
X423807Y229727D01*
X423768Y229704D01*
X423588Y229560D01*
X423405Y229420D01*
X423373Y229388D01*
X423338Y229359D01*
X423180Y229189D01*
X423019Y229025D01*
X422993Y228989D01*
X422962Y228956D01*
X422830Y228765D01*
X422695Y228579D01*
X422674Y228539D01*
X422648Y228502D01*
X422545Y228294D01*
X422438Y228091D01*
X422423Y228048D01*
X422403Y228008D01*
X422332Y227788D01*
X422255Y227570D01*
X422246Y227526D01*
X422232Y227483D01*
X422193Y227255D01*
X422149Y227029D01*
X422147Y226984D01*
X422139Y226939D01*
X422121Y226568D01*
X422121Y224954D01*
X421274Y222910D01*
X419710Y221346D01*
X417666Y220499D01*
X417248Y220499D01*
X417043Y220484D01*
X416837Y220477D01*
X416768Y220464D01*
X416698Y220459D01*
X416497Y220415D01*
X416295Y220378D01*
X416228Y220356D01*
X416159Y220340D01*
X415967Y220267D01*
X415772Y220202D01*
X415709Y220170D01*
X415643Y220145D01*
X415463Y220045D01*
X415280Y219952D01*
X415223Y219911D01*
X415161Y219877D01*
X414997Y219752D01*
X414830Y219633D01*
X414763Y219573D01*
X414723Y219542D01*
X414673Y219491D01*
X414554Y219384D01*
X404245Y209075D01*
X404193Y209014D01*
X404134Y208959D01*
X404013Y208805D01*
X403884Y208657D01*
X403841Y208589D01*
X403791Y208526D01*
X403693Y208357D01*
X403588Y208192D01*
X403555Y208119D01*
X403514Y208049D01*
X403442Y207868D01*
X403361Y207689D01*
X403339Y207612D01*
X403309Y207537D01*
X403263Y207347D01*
X403210Y207159D01*
X403199Y207079D01*
X403180Y207001D01*
X403163Y206806D01*
X403137Y206612D01*
X403137Y206531D01*
X403130Y206451D01*
X403141Y206256D01*
X403143Y206060D01*
X403156Y205981D01*
X403160Y205900D01*
X403199Y205709D01*
X403229Y205515D01*
X403253Y205439D01*
X403269Y205360D01*
X403335Y205175D01*
X403393Y204989D01*
X403428Y204916D01*
X403455Y204840D01*
X403547Y204668D01*
X403631Y204491D01*
X403676Y204424D01*
X403714Y204353D01*
X403830Y204195D01*
X403939Y204033D01*
X403993Y203974D01*
X404041Y203909D01*
X404178Y203769D01*
X404310Y203624D01*
X404372Y203573D01*
X404428Y203516D01*
X404584Y203398D01*
X404735Y203274D01*
X404804Y203232D01*
X404868Y203183D01*
X405040Y203089D01*
X405207Y202988D01*
X405281Y202957D01*
X405352Y202918D01*
X405535Y202849D01*
X405716Y202773D01*
X405793Y202753D01*
X405869Y202725D01*
X406060Y202684D01*
X406250Y202635D01*
X406330Y202626D01*
X406408Y202609D01*
X406603Y202596D01*
X406798Y202574D01*
X406878Y202577D01*
X406959Y202572D01*
X407154Y202587D01*
X407349Y202594D01*
X407428Y202608D01*
X407509Y202615D01*
X407700Y202658D01*
X407892Y202693D01*
X407968Y202719D01*
X408047Y202736D01*
X408397Y202862D01*
X410374Y203681D01*
X412586Y203681D01*
X414630Y202834D01*
X416194Y201270D01*
X417041Y199226D01*
X417041Y197014D01*
X416194Y194970D01*
X414630Y193406D01*
X412586Y192559D01*
X410374Y192559D01*
X408330Y193406D01*
X408034Y193702D01*
X407880Y193835D01*
X407728Y193976D01*
X407670Y194016D01*
X407617Y194062D01*
X407444Y194173D01*
X407275Y194290D01*
X407211Y194321D01*
X407152Y194359D01*
X406965Y194443D01*
X406780Y194535D01*
X406713Y194557D01*
X406649Y194586D01*
X406451Y194642D01*
X406256Y194706D01*
X406186Y194718D01*
X406118Y194737D01*
X405915Y194764D01*
X405712Y194799D01*
X405622Y194804D01*
X405572Y194810D01*
X405501Y194809D01*
X405341Y194817D01*
X404418Y194817D01*
X404213Y194802D01*
X404008Y194795D01*
X403939Y194782D01*
X403868Y194777D01*
X403667Y194733D01*
X403465Y194696D01*
X403398Y194674D01*
X403329Y194658D01*
X403137Y194585D01*
X402942Y194520D01*
X402879Y194488D01*
X402814Y194463D01*
X402634Y194363D01*
X402451Y194270D01*
X402393Y194229D01*
X402331Y194195D01*
X402168Y194070D01*
X402000Y193951D01*
X401933Y193891D01*
X401893Y193860D01*
X401844Y193809D01*
X401725Y193702D01*
X400180Y192157D01*
X398136Y191310D01*
X395924Y191310D01*
X393880Y192157D01*
X393624Y192413D01*
X393590Y192442D01*
X393559Y192476D01*
X393381Y192623D01*
X393207Y192774D01*
X393168Y192798D01*
X393134Y192827D01*
X392936Y192946D01*
X392742Y193070D01*
X392700Y193089D01*
X392662Y193112D01*
X392448Y193202D01*
X392238Y193297D01*
X392195Y193309D01*
X392153Y193327D01*
X391930Y193385D01*
X391708Y193448D01*
X391663Y193454D01*
X391620Y193466D01*
X391390Y193491D01*
X391161Y193521D01*
X391116Y193521D01*
X391071Y193526D01*
X390840Y193518D01*
X390610Y193515D01*
X390565Y193508D01*
X390520Y193506D01*
X390293Y193465D01*
X390065Y193429D01*
X390022Y193415D01*
X389977Y193407D01*
X389759Y193334D01*
X389538Y193265D01*
X389497Y193245D01*
X389454Y193231D01*
X389249Y193127D01*
X389040Y193027D01*
X389003Y193001D01*
X388963Y192981D01*
X388775Y192848D01*
X388582Y192719D01*
X388549Y192688D01*
X388512Y192662D01*
X388237Y192413D01*
X386690Y190866D01*
X384646Y190019D01*
X382434Y190019D01*
G37*
%LPD*%
G36*
X354732Y42878D02*
X354732Y42878D01*
X354778Y42877D01*
X355006Y42909D01*
X355236Y42935D01*
X355279Y42947D01*
X355324Y42953D01*
X355546Y43018D01*
X355769Y43077D01*
X355810Y43095D01*
X355854Y43107D01*
X356064Y43204D01*
X356276Y43294D01*
X356314Y43318D01*
X356356Y43336D01*
X356550Y43462D01*
X356746Y43582D01*
X356781Y43611D01*
X356819Y43636D01*
X356993Y43788D01*
X357170Y43935D01*
X357200Y43969D01*
X357234Y43999D01*
X357385Y44174D01*
X357539Y44346D01*
X357564Y44383D01*
X357593Y44418D01*
X357716Y44613D01*
X357844Y44805D01*
X357863Y44846D01*
X357887Y44884D01*
X358046Y45220D01*
X358506Y46330D01*
X360070Y47894D01*
X362114Y48741D01*
X364326Y48741D01*
X366370Y47894D01*
X366666Y47598D01*
X366821Y47464D01*
X366972Y47324D01*
X367030Y47284D01*
X367083Y47238D01*
X367256Y47127D01*
X367425Y47010D01*
X367488Y46979D01*
X367548Y46941D01*
X367735Y46857D01*
X367920Y46765D01*
X367987Y46743D01*
X368051Y46714D01*
X368249Y46658D01*
X368444Y46594D01*
X368514Y46582D01*
X368581Y46563D01*
X368785Y46536D01*
X368988Y46501D01*
X369078Y46496D01*
X369128Y46490D01*
X369199Y46491D01*
X369359Y46483D01*
X389410Y46483D01*
X389455Y46486D01*
X389500Y46484D01*
X389730Y46506D01*
X389960Y46523D01*
X390004Y46532D01*
X390049Y46537D01*
X390273Y46592D01*
X390499Y46642D01*
X390541Y46658D01*
X390585Y46668D01*
X390799Y46755D01*
X391015Y46837D01*
X391054Y46859D01*
X391096Y46876D01*
X391295Y46993D01*
X391497Y47105D01*
X391533Y47133D01*
X391572Y47156D01*
X391752Y47300D01*
X391935Y47440D01*
X391967Y47472D01*
X392002Y47501D01*
X392160Y47671D01*
X392321Y47835D01*
X392347Y47871D01*
X392378Y47904D01*
X392510Y48095D01*
X392645Y48281D01*
X392666Y48321D01*
X392692Y48358D01*
X392795Y48566D01*
X392902Y48769D01*
X392917Y48812D01*
X392937Y48852D01*
X393008Y49072D01*
X393085Y49290D01*
X393094Y49334D01*
X393108Y49377D01*
X393147Y49605D01*
X393191Y49831D01*
X393193Y49876D01*
X393201Y49921D01*
X393219Y50292D01*
X393219Y51906D01*
X394356Y54650D01*
X394361Y54665D01*
X394425Y54808D01*
X394439Y54854D01*
X394457Y54897D01*
X394514Y55118D01*
X394578Y55338D01*
X394584Y55386D01*
X394596Y55431D01*
X394621Y55658D01*
X394651Y55885D01*
X394651Y55933D01*
X394656Y55980D01*
X394648Y56209D01*
X394646Y56437D01*
X394638Y56484D01*
X394637Y56531D01*
X394595Y56756D01*
X394560Y56982D01*
X394546Y57027D01*
X394538Y57074D01*
X394464Y57291D01*
X394397Y57509D01*
X394376Y57551D01*
X394361Y57596D01*
X394258Y57800D01*
X394159Y58007D01*
X394133Y58046D01*
X394111Y58088D01*
X393979Y58275D01*
X393852Y58465D01*
X393820Y58500D01*
X393793Y58539D01*
X393543Y58814D01*
X386846Y65512D01*
X386691Y65645D01*
X386540Y65786D01*
X386481Y65826D01*
X386428Y65872D01*
X386255Y65983D01*
X386086Y66100D01*
X386023Y66131D01*
X385963Y66169D01*
X385776Y66253D01*
X385592Y66345D01*
X385524Y66367D01*
X385460Y66396D01*
X385262Y66452D01*
X385067Y66516D01*
X384998Y66528D01*
X384930Y66547D01*
X384726Y66574D01*
X384523Y66609D01*
X384433Y66614D01*
X384383Y66620D01*
X384312Y66619D01*
X384152Y66627D01*
X380272Y66627D01*
X380089Y66716D01*
X380038Y66732D01*
X379991Y66754D01*
X379775Y66815D01*
X379563Y66882D01*
X379511Y66891D01*
X379460Y66905D01*
X379238Y66935D01*
X379018Y66970D01*
X378965Y66971D01*
X378913Y66978D01*
X378689Y66976D01*
X378466Y66979D01*
X378414Y66972D01*
X378362Y66972D01*
X378140Y66937D01*
X377919Y66908D01*
X377869Y66894D01*
X377817Y66886D01*
X377603Y66819D01*
X377388Y66759D01*
X377340Y66737D01*
X377290Y66722D01*
X377089Y66625D01*
X376884Y66534D01*
X376828Y66500D01*
X376792Y66483D01*
X376733Y66443D01*
X376699Y66423D01*
X376201Y66217D01*
X375710Y66119D01*
X373769Y66119D01*
X373769Y73660D01*
X373769Y88900D01*
X373766Y88945D01*
X373768Y88990D01*
X373746Y89219D01*
X373729Y89450D01*
X373720Y89494D01*
X373715Y89539D01*
X373660Y89762D01*
X373610Y89989D01*
X373594Y90031D01*
X373584Y90075D01*
X373497Y90289D01*
X373415Y90504D01*
X373393Y90544D01*
X373376Y90586D01*
X373259Y90785D01*
X373147Y90987D01*
X373119Y91023D01*
X373097Y91061D01*
X372952Y91242D01*
X372812Y91425D01*
X372780Y91456D01*
X372751Y91492D01*
X372581Y91650D01*
X372417Y91811D01*
X372381Y91837D01*
X372347Y91868D01*
X372156Y92000D01*
X371971Y92135D01*
X371931Y92156D01*
X371894Y92182D01*
X371686Y92285D01*
X371482Y92392D01*
X371440Y92407D01*
X371399Y92427D01*
X371179Y92499D01*
X370962Y92575D01*
X370918Y92584D01*
X370875Y92598D01*
X370646Y92637D01*
X370421Y92681D01*
X370376Y92684D01*
X370331Y92691D01*
X369960Y92709D01*
X359610Y92709D01*
X359393Y92694D01*
X359176Y92685D01*
X359118Y92674D01*
X359060Y92669D01*
X358847Y92622D01*
X358633Y92582D01*
X358578Y92563D01*
X358521Y92550D01*
X358318Y92473D01*
X358112Y92402D01*
X358060Y92376D01*
X358005Y92355D01*
X357815Y92249D01*
X357622Y92149D01*
X357574Y92115D01*
X357523Y92087D01*
X357350Y91954D01*
X357173Y91828D01*
X357131Y91788D01*
X357084Y91752D01*
X356932Y91596D01*
X356776Y91445D01*
X356740Y91399D01*
X356699Y91357D01*
X356571Y91182D01*
X356438Y91009D01*
X356409Y90958D01*
X356375Y90911D01*
X356274Y90719D01*
X356166Y90529D01*
X356145Y90474D01*
X356118Y90423D01*
X356046Y90218D01*
X355967Y90015D01*
X355954Y89958D01*
X355935Y89902D01*
X355893Y89689D01*
X355844Y89477D01*
X355840Y89418D01*
X355829Y89361D01*
X355818Y89144D01*
X355801Y88927D01*
X355805Y88869D01*
X355802Y88810D01*
X355823Y88593D01*
X355837Y88376D01*
X355849Y88319D01*
X355855Y88261D01*
X355907Y88050D01*
X355952Y87837D01*
X355976Y87767D01*
X355986Y87725D01*
X356013Y87659D01*
X356073Y87485D01*
X356138Y87351D01*
X356194Y87214D01*
X356259Y87104D01*
X356315Y86989D01*
X356398Y86866D01*
X356474Y86738D01*
X356553Y86639D01*
X356625Y86533D01*
X356726Y86424D01*
X356819Y86308D01*
X356912Y86221D01*
X356998Y86127D01*
X357113Y86033D01*
X357222Y85932D01*
X357327Y85859D01*
X357426Y85779D01*
X357554Y85703D01*
X357676Y85618D01*
X357791Y85561D01*
X357900Y85496D01*
X358037Y85439D01*
X358170Y85373D01*
X358292Y85334D01*
X358410Y85285D01*
X358554Y85248D01*
X358695Y85202D01*
X358821Y85181D01*
X358944Y85149D01*
X359092Y85134D01*
X359239Y85109D01*
X359421Y85100D01*
X359493Y85092D01*
X359536Y85094D01*
X359610Y85091D01*
X366151Y85091D01*
X366151Y73660D01*
X366151Y66119D01*
X364210Y66119D01*
X363719Y66217D01*
X363256Y66408D01*
X362840Y66687D01*
X362487Y67040D01*
X362208Y67456D01*
X361873Y68265D01*
X361841Y68329D01*
X361765Y68516D01*
X361739Y68560D01*
X361719Y68607D01*
X361632Y68747D01*
X361626Y68759D01*
X361613Y68777D01*
X361600Y68798D01*
X361486Y68992D01*
X361454Y69032D01*
X361427Y69075D01*
X361282Y69246D01*
X361141Y69422D01*
X361103Y69457D01*
X361070Y69496D01*
X360902Y69644D01*
X360737Y69798D01*
X360695Y69827D01*
X360657Y69861D01*
X360468Y69984D01*
X360283Y70112D01*
X360238Y70135D01*
X360195Y70163D01*
X359990Y70257D01*
X359789Y70357D01*
X359740Y70373D01*
X359694Y70394D01*
X359478Y70458D01*
X359265Y70528D01*
X359214Y70536D01*
X359165Y70551D01*
X358943Y70583D01*
X358721Y70621D01*
X358657Y70624D01*
X358619Y70630D01*
X358547Y70630D01*
X358350Y70639D01*
X357034Y70639D01*
X354990Y71486D01*
X354694Y71782D01*
X354540Y71915D01*
X354388Y72056D01*
X354330Y72096D01*
X354277Y72142D01*
X354104Y72253D01*
X353935Y72370D01*
X353871Y72401D01*
X353812Y72439D01*
X353625Y72523D01*
X353440Y72615D01*
X353373Y72637D01*
X353309Y72666D01*
X353111Y72722D01*
X352916Y72786D01*
X352846Y72798D01*
X352778Y72817D01*
X352575Y72844D01*
X352372Y72879D01*
X352282Y72884D01*
X352232Y72890D01*
X352161Y72889D01*
X352001Y72897D01*
X342110Y72897D01*
X342065Y72894D01*
X342020Y72896D01*
X341790Y72874D01*
X341560Y72857D01*
X341516Y72848D01*
X341471Y72843D01*
X341247Y72788D01*
X341021Y72738D01*
X340979Y72722D01*
X340935Y72712D01*
X340721Y72625D01*
X340505Y72543D01*
X340466Y72521D01*
X340424Y72504D01*
X340225Y72387D01*
X340023Y72275D01*
X339987Y72247D01*
X339948Y72224D01*
X339768Y72080D01*
X339585Y71940D01*
X339553Y71908D01*
X339518Y71879D01*
X339360Y71709D01*
X339199Y71545D01*
X339173Y71509D01*
X339142Y71476D01*
X339010Y71285D01*
X338875Y71099D01*
X338854Y71059D01*
X338828Y71022D01*
X338725Y70814D01*
X338618Y70611D01*
X338603Y70568D01*
X338583Y70528D01*
X338512Y70308D01*
X338435Y70090D01*
X338426Y70046D01*
X338412Y70003D01*
X338373Y69775D01*
X338329Y69549D01*
X338327Y69504D01*
X338319Y69459D01*
X338301Y69088D01*
X338301Y67474D01*
X337454Y65430D01*
X337158Y65134D01*
X337025Y64980D01*
X336884Y64828D01*
X336844Y64770D01*
X336798Y64717D01*
X336687Y64544D01*
X336570Y64375D01*
X336539Y64311D01*
X336501Y64252D01*
X336417Y64065D01*
X336325Y63880D01*
X336303Y63813D01*
X336274Y63749D01*
X336218Y63551D01*
X336154Y63356D01*
X336142Y63286D01*
X336123Y63218D01*
X336096Y63015D01*
X336061Y62812D01*
X336056Y62722D01*
X336050Y62672D01*
X336051Y62601D01*
X336043Y62441D01*
X336043Y51206D01*
X336058Y51001D01*
X336065Y50795D01*
X336078Y50726D01*
X336083Y50656D01*
X336127Y50455D01*
X336164Y50253D01*
X336186Y50186D01*
X336202Y50117D01*
X336275Y49925D01*
X336340Y49730D01*
X336372Y49667D01*
X336397Y49601D01*
X336497Y49422D01*
X336590Y49238D01*
X336631Y49181D01*
X336665Y49119D01*
X336790Y48956D01*
X336909Y48788D01*
X336969Y48721D01*
X337000Y48681D01*
X337051Y48631D01*
X337158Y48512D01*
X340612Y45058D01*
X340767Y44925D01*
X340918Y44784D01*
X340976Y44744D01*
X341030Y44698D01*
X341203Y44587D01*
X341372Y44470D01*
X341435Y44439D01*
X341495Y44401D01*
X341682Y44317D01*
X341866Y44225D01*
X341933Y44203D01*
X341998Y44174D01*
X342195Y44118D01*
X342391Y44054D01*
X342460Y44042D01*
X342528Y44023D01*
X342732Y43996D01*
X342935Y43961D01*
X343025Y43956D01*
X343075Y43950D01*
X343145Y43951D01*
X343306Y43943D01*
X351177Y43943D01*
X353069Y43159D01*
X353112Y43145D01*
X353153Y43125D01*
X353374Y43058D01*
X353593Y42985D01*
X353637Y42977D01*
X353681Y42964D01*
X353909Y42929D01*
X354136Y42889D01*
X354181Y42888D01*
X354226Y42881D01*
X354457Y42879D01*
X354688Y42872D01*
X354732Y42878D01*
G37*
G36*
X248435Y211586D02*
X248435Y211586D01*
X248480Y211584D01*
X248710Y211606D01*
X248940Y211623D01*
X248984Y211632D01*
X249029Y211637D01*
X249253Y211692D01*
X249479Y211742D01*
X249521Y211758D01*
X249565Y211768D01*
X249779Y211855D01*
X249995Y211937D01*
X250034Y211959D01*
X250076Y211976D01*
X250275Y212093D01*
X250477Y212205D01*
X250513Y212233D01*
X250552Y212256D01*
X250732Y212400D01*
X250915Y212540D01*
X250947Y212572D01*
X250982Y212601D01*
X251140Y212770D01*
X251301Y212935D01*
X251327Y212971D01*
X251358Y213004D01*
X251490Y213195D01*
X251625Y213381D01*
X251646Y213421D01*
X251672Y213458D01*
X251774Y213665D01*
X251882Y213869D01*
X251897Y213912D01*
X251917Y213952D01*
X251988Y214172D01*
X252065Y214390D01*
X252074Y214434D01*
X252088Y214477D01*
X252127Y214705D01*
X252144Y214791D01*
X259740Y214791D01*
X259785Y214794D01*
X259830Y214792D01*
X260059Y214814D01*
X260290Y214831D01*
X260334Y214840D01*
X260379Y214845D01*
X260602Y214900D01*
X260829Y214950D01*
X260871Y214966D01*
X260915Y214976D01*
X261129Y215063D01*
X261344Y215145D01*
X261384Y215167D01*
X261426Y215184D01*
X261625Y215301D01*
X261827Y215413D01*
X261863Y215441D01*
X261901Y215463D01*
X262082Y215608D01*
X262265Y215748D01*
X262296Y215780D01*
X262332Y215809D01*
X262490Y215978D01*
X262650Y216143D01*
X262677Y216179D01*
X262708Y216212D01*
X262840Y216403D01*
X262975Y216589D01*
X262996Y216629D01*
X263022Y216666D01*
X263124Y216874D01*
X263231Y217077D01*
X263246Y217120D01*
X263266Y217160D01*
X263338Y217380D01*
X263415Y217598D01*
X263423Y217642D01*
X263437Y217685D01*
X263477Y217913D01*
X263521Y218139D01*
X263523Y218184D01*
X263531Y218229D01*
X263549Y218600D01*
X263546Y218645D01*
X263548Y218686D01*
X263548Y218690D01*
X263526Y218920D01*
X263509Y219150D01*
X263499Y219195D01*
X263495Y219239D01*
X263440Y219463D01*
X263390Y219689D01*
X263374Y219731D01*
X263363Y219775D01*
X263276Y219989D01*
X263194Y220205D01*
X263173Y220244D01*
X263155Y220286D01*
X263038Y220485D01*
X262926Y220687D01*
X262899Y220723D01*
X262876Y220762D01*
X262732Y220942D01*
X262592Y221125D01*
X262559Y221157D01*
X262531Y221192D01*
X262361Y221350D01*
X262197Y221511D01*
X262161Y221537D01*
X262127Y221568D01*
X261936Y221700D01*
X261751Y221835D01*
X261711Y221856D01*
X261674Y221882D01*
X261466Y221985D01*
X261262Y222092D01*
X261220Y222107D01*
X261179Y222127D01*
X260959Y222199D01*
X260742Y222275D01*
X260698Y222284D01*
X260655Y222298D01*
X260426Y222337D01*
X260201Y222381D01*
X260156Y222384D01*
X260111Y222391D01*
X259740Y222409D01*
X252199Y222409D01*
X252199Y225200D01*
X252297Y225691D01*
X252488Y226154D01*
X252767Y226570D01*
X253120Y226923D01*
X253536Y227202D01*
X253999Y227393D01*
X254490Y227491D01*
X258398Y227491D01*
X258443Y227494D01*
X258488Y227492D01*
X258718Y227514D01*
X258948Y227531D01*
X258992Y227540D01*
X259037Y227545D01*
X259261Y227600D01*
X259487Y227650D01*
X259529Y227666D01*
X259573Y227676D01*
X259787Y227763D01*
X260003Y227845D01*
X260042Y227867D01*
X260084Y227884D01*
X260283Y228001D01*
X260485Y228113D01*
X260521Y228141D01*
X260560Y228164D01*
X260740Y228308D01*
X260923Y228448D01*
X260955Y228480D01*
X260990Y228509D01*
X261148Y228679D01*
X261309Y228843D01*
X261335Y228879D01*
X261366Y228912D01*
X261498Y229103D01*
X261633Y229289D01*
X261654Y229329D01*
X261680Y229366D01*
X261783Y229574D01*
X261890Y229777D01*
X261905Y229820D01*
X261925Y229860D01*
X261996Y230080D01*
X262073Y230298D01*
X262082Y230342D01*
X262096Y230385D01*
X262135Y230613D01*
X262179Y230839D01*
X262181Y230884D01*
X262189Y230929D01*
X262207Y231300D01*
X262207Y231488D01*
X262204Y231533D01*
X262206Y231578D01*
X262184Y231808D01*
X262167Y232038D01*
X262158Y232082D01*
X262153Y232127D01*
X262098Y232351D01*
X262048Y232577D01*
X262032Y232619D01*
X262022Y232663D01*
X261935Y232877D01*
X261853Y233093D01*
X261831Y233132D01*
X261814Y233174D01*
X261697Y233373D01*
X261585Y233575D01*
X261557Y233611D01*
X261534Y233650D01*
X261390Y233830D01*
X261250Y234013D01*
X261218Y234045D01*
X261189Y234080D01*
X261019Y234238D01*
X260855Y234399D01*
X260819Y234425D01*
X260786Y234456D01*
X260595Y234588D01*
X260409Y234723D01*
X260369Y234744D01*
X260332Y234770D01*
X260124Y234873D01*
X259921Y234980D01*
X259878Y234995D01*
X259838Y235015D01*
X259618Y235086D01*
X259400Y235163D01*
X259356Y235172D01*
X259313Y235186D01*
X259085Y235225D01*
X258859Y235269D01*
X258814Y235271D01*
X258769Y235279D01*
X258398Y235297D01*
X201443Y235297D01*
X201318Y235288D01*
X201193Y235289D01*
X201044Y235268D01*
X200893Y235257D01*
X200771Y235230D01*
X200647Y235213D01*
X200502Y235171D01*
X200355Y235138D01*
X200237Y235094D01*
X200117Y235059D01*
X199980Y234996D01*
X199839Y234943D01*
X199729Y234882D01*
X199615Y234830D01*
X199488Y234748D01*
X199357Y234675D01*
X199257Y234599D01*
X199151Y234531D01*
X199038Y234431D01*
X198918Y234340D01*
X198831Y234250D01*
X198736Y234168D01*
X198638Y234053D01*
X198533Y233945D01*
X198459Y233844D01*
X198377Y233748D01*
X198297Y233621D01*
X198208Y233499D01*
X198150Y233388D01*
X198083Y233282D01*
X197982Y233069D01*
X197952Y233011D01*
X197943Y232985D01*
X197924Y232946D01*
X197650Y232285D01*
X194435Y229070D01*
X192600Y228309D01*
X192456Y228237D01*
X192308Y228174D01*
X192210Y228114D01*
X192107Y228062D01*
X191975Y227970D01*
X191838Y227886D01*
X191749Y227812D01*
X191654Y227746D01*
X191538Y227636D01*
X191414Y227533D01*
X191337Y227447D01*
X191253Y227368D01*
X191153Y227242D01*
X191046Y227122D01*
X190982Y227026D01*
X190910Y226935D01*
X190829Y226797D01*
X190740Y226663D01*
X190691Y226558D01*
X190633Y226458D01*
X190573Y226309D01*
X190505Y226164D01*
X190471Y226053D01*
X190428Y225946D01*
X190390Y225790D01*
X190343Y225636D01*
X190326Y225522D01*
X190299Y225410D01*
X190284Y225250D01*
X190260Y225091D01*
X190259Y224975D01*
X190249Y224860D01*
X190257Y224700D01*
X190256Y224539D01*
X190272Y224425D01*
X190279Y224310D01*
X190310Y224152D01*
X190332Y223993D01*
X190365Y223882D01*
X190388Y223769D01*
X190442Y223618D01*
X190487Y223463D01*
X190535Y223358D01*
X190574Y223249D01*
X190649Y223107D01*
X190716Y222961D01*
X190778Y222864D01*
X190833Y222762D01*
X190928Y222633D01*
X191015Y222498D01*
X191091Y222411D01*
X191159Y222318D01*
X191272Y222203D01*
X191378Y222083D01*
X191466Y222007D01*
X191547Y221925D01*
X191675Y221828D01*
X191797Y221724D01*
X191895Y221662D01*
X191987Y221593D01*
X192128Y221515D01*
X192264Y221430D01*
X192409Y221361D01*
X192471Y221327D01*
X192518Y221309D01*
X192600Y221271D01*
X194435Y220510D01*
X197650Y217295D01*
X199043Y213934D01*
X199099Y213822D01*
X199146Y213706D01*
X199223Y213576D01*
X199290Y213441D01*
X199362Y213339D01*
X199425Y213230D01*
X199520Y213112D01*
X199606Y212989D01*
X199692Y212898D01*
X199771Y212800D01*
X199881Y212697D01*
X199984Y212587D01*
X200082Y212510D01*
X200174Y212424D01*
X200299Y212338D01*
X200416Y212244D01*
X200525Y212182D01*
X200628Y212110D01*
X200763Y212043D01*
X200894Y211968D01*
X201010Y211921D01*
X201122Y211865D01*
X201266Y211818D01*
X201406Y211762D01*
X201528Y211733D01*
X201647Y211694D01*
X201796Y211669D01*
X201942Y211634D01*
X202067Y211622D01*
X202191Y211601D01*
X202426Y211589D01*
X202491Y211583D01*
X202518Y211585D01*
X202562Y211583D01*
X248390Y211583D01*
X248435Y211586D01*
G37*
G36*
X287953Y122373D02*
X287953Y122373D01*
X288069Y122374D01*
X288228Y122399D01*
X288387Y122415D01*
X288499Y122442D01*
X288614Y122460D01*
X288767Y122508D01*
X288923Y122546D01*
X289030Y122590D01*
X289140Y122624D01*
X289285Y122694D01*
X289434Y122754D01*
X289534Y122813D01*
X289638Y122862D01*
X289771Y122952D01*
X289910Y123033D01*
X290000Y123106D01*
X290096Y123170D01*
X290215Y123278D01*
X290340Y123379D01*
X290419Y123463D01*
X290505Y123541D01*
X290607Y123665D01*
X290716Y123782D01*
X290782Y123877D01*
X290855Y123966D01*
X290939Y124104D01*
X291030Y124236D01*
X291081Y124340D01*
X291141Y124438D01*
X291203Y124586D01*
X291275Y124730D01*
X291311Y124840D01*
X291356Y124947D01*
X291396Y125102D01*
X291446Y125255D01*
X291465Y125369D01*
X291494Y125481D01*
X291512Y125640D01*
X291539Y125799D01*
X291547Y125959D01*
X291555Y126029D01*
X291553Y126080D01*
X291557Y126170D01*
X291557Y167014D01*
X291542Y167219D01*
X291535Y167425D01*
X291522Y167494D01*
X291517Y167564D01*
X291473Y167766D01*
X291436Y167967D01*
X291414Y168034D01*
X291398Y168103D01*
X291325Y168295D01*
X291260Y168490D01*
X291228Y168553D01*
X291203Y168619D01*
X291103Y168798D01*
X291010Y168982D01*
X290969Y169039D01*
X290935Y169101D01*
X290810Y169264D01*
X290691Y169432D01*
X290631Y169499D01*
X290600Y169539D01*
X290549Y169589D01*
X290442Y169708D01*
X290039Y170110D01*
X289977Y170163D01*
X289973Y170169D01*
X289944Y170192D01*
X289852Y170272D01*
X289666Y170438D01*
X289643Y170453D01*
X289622Y170471D01*
X289551Y170516D01*
X289547Y170520D01*
X289522Y170535D01*
X289412Y170605D01*
X289205Y170741D01*
X289180Y170753D01*
X289157Y170768D01*
X289079Y170803D01*
X289075Y170805D01*
X289052Y170815D01*
X288930Y170870D01*
X288706Y170975D01*
X288679Y170983D01*
X288653Y170994D01*
X288571Y171018D01*
X288567Y171020D01*
X288541Y171026D01*
X288414Y171063D01*
X288178Y171134D01*
X288150Y171138D01*
X288123Y171146D01*
X288039Y171157D01*
X288033Y171159D01*
X288001Y171162D01*
X287877Y171179D01*
X287632Y171215D01*
X287604Y171215D01*
X287576Y171219D01*
X287492Y171218D01*
X287484Y171219D01*
X287442Y171217D01*
X287328Y171216D01*
X287080Y171217D01*
X287053Y171213D01*
X287025Y171213D01*
X286944Y171200D01*
X286933Y171199D01*
X286879Y171190D01*
X286779Y171174D01*
X286534Y171139D01*
X286507Y171131D01*
X286480Y171126D01*
X286404Y171103D01*
X286390Y171100D01*
X286322Y171077D01*
X286242Y171053D01*
X286005Y170982D01*
X285980Y170971D01*
X285953Y170962D01*
X285885Y170930D01*
X285868Y170924D01*
X285785Y170882D01*
X285728Y170855D01*
X285504Y170751D01*
X285481Y170736D01*
X285455Y170724D01*
X285396Y170684D01*
X285376Y170674D01*
X285281Y170607D01*
X285248Y170585D01*
X285042Y170451D01*
X285021Y170432D01*
X284997Y170416D01*
X284948Y170372D01*
X284925Y170356D01*
X284650Y170106D01*
X284648Y170104D01*
X284628Y170086D01*
X284614Y170070D01*
X284602Y170057D01*
X284589Y170046D01*
X284583Y170039D01*
X282550Y168006D01*
X280506Y167159D01*
X277542Y167159D01*
X277497Y167156D01*
X277452Y167158D01*
X277222Y167136D01*
X276992Y167119D01*
X276948Y167110D01*
X276903Y167105D01*
X276679Y167050D01*
X276453Y167000D01*
X276411Y166984D01*
X276367Y166974D01*
X276153Y166887D01*
X275937Y166805D01*
X275898Y166783D01*
X275856Y166766D01*
X275657Y166649D01*
X275455Y166537D01*
X275419Y166509D01*
X275380Y166486D01*
X275200Y166342D01*
X275017Y166202D01*
X274985Y166170D01*
X274950Y166141D01*
X274792Y165971D01*
X274631Y165807D01*
X274605Y165771D01*
X274574Y165738D01*
X274442Y165547D01*
X274307Y165361D01*
X274286Y165321D01*
X274260Y165284D01*
X274179Y165121D01*
X274164Y165098D01*
X274130Y165059D01*
X274010Y164870D01*
X273884Y164685D01*
X273861Y164638D01*
X273833Y164594D01*
X273742Y164390D01*
X273644Y164189D01*
X273628Y164138D01*
X273606Y164091D01*
X273545Y163875D01*
X273478Y163663D01*
X273469Y163611D01*
X273455Y163560D01*
X273425Y163338D01*
X273390Y163118D01*
X273389Y163065D01*
X273382Y163013D01*
X273384Y162789D01*
X273381Y162566D01*
X273388Y162514D01*
X273388Y162462D01*
X273423Y162240D01*
X273452Y162019D01*
X273466Y161969D01*
X273474Y161917D01*
X273541Y161703D01*
X273601Y161488D01*
X273623Y161440D01*
X273638Y161390D01*
X273735Y161188D01*
X273826Y160984D01*
X273860Y160928D01*
X273877Y160892D01*
X273917Y160833D01*
X273937Y160799D01*
X274143Y160301D01*
X274241Y159810D01*
X274241Y157869D01*
X266700Y157869D01*
X266655Y157866D01*
X266610Y157868D01*
X266381Y157846D01*
X266150Y157829D01*
X266106Y157820D01*
X266061Y157815D01*
X265838Y157760D01*
X265611Y157710D01*
X265569Y157694D01*
X265525Y157684D01*
X265311Y157597D01*
X265096Y157515D01*
X265056Y157493D01*
X265014Y157476D01*
X264815Y157359D01*
X264613Y157247D01*
X264577Y157219D01*
X264539Y157197D01*
X264358Y157052D01*
X264175Y156912D01*
X264144Y156880D01*
X264108Y156851D01*
X263950Y156682D01*
X263790Y156517D01*
X263763Y156481D01*
X263732Y156448D01*
X263600Y156257D01*
X263465Y156071D01*
X263444Y156031D01*
X263418Y155994D01*
X263316Y155786D01*
X263209Y155583D01*
X263194Y155540D01*
X263174Y155500D01*
X263102Y155280D01*
X263025Y155062D01*
X263017Y155018D01*
X263003Y154975D01*
X262963Y154747D01*
X262919Y154521D01*
X262917Y154476D01*
X262909Y154431D01*
X262891Y154060D01*
X262894Y154015D01*
X262892Y153970D01*
X262914Y153740D01*
X262931Y153510D01*
X262941Y153465D01*
X262945Y153421D01*
X263000Y153197D01*
X263050Y152971D01*
X263066Y152929D01*
X263077Y152885D01*
X263164Y152671D01*
X263246Y152455D01*
X263267Y152416D01*
X263285Y152374D01*
X263402Y152175D01*
X263514Y151973D01*
X263541Y151937D01*
X263564Y151898D01*
X263709Y151718D01*
X263848Y151534D01*
X263881Y151503D01*
X263909Y151468D01*
X264079Y151310D01*
X264243Y151149D01*
X264279Y151123D01*
X264313Y151092D01*
X264504Y150960D01*
X264689Y150825D01*
X264729Y150804D01*
X264766Y150778D01*
X264974Y150675D01*
X265178Y150568D01*
X265220Y150553D01*
X265261Y150533D01*
X265481Y150461D01*
X265698Y150385D01*
X265742Y150376D01*
X265785Y150362D01*
X266014Y150323D01*
X266239Y150279D01*
X266284Y150276D01*
X266329Y150269D01*
X266700Y150251D01*
X274241Y150251D01*
X274241Y148310D01*
X274143Y147819D01*
X273952Y147356D01*
X273673Y146940D01*
X273320Y146587D01*
X272904Y146308D01*
X272441Y146117D01*
X271950Y146019D01*
X271708Y146019D01*
X271548Y146008D01*
X271387Y146006D01*
X271273Y145988D01*
X271158Y145979D01*
X271001Y145945D01*
X270842Y145920D01*
X270732Y145885D01*
X270619Y145860D01*
X270469Y145803D01*
X270315Y145756D01*
X270211Y145706D01*
X270103Y145665D01*
X269963Y145587D01*
X269818Y145517D01*
X269722Y145453D01*
X269621Y145397D01*
X269493Y145299D01*
X269360Y145210D01*
X269274Y145132D01*
X269182Y145062D01*
X269070Y144947D01*
X268951Y144839D01*
X268878Y144750D01*
X268797Y144667D01*
X268703Y144538D01*
X268600Y144413D01*
X268540Y144314D01*
X268473Y144221D01*
X268398Y144079D01*
X268315Y143941D01*
X268270Y143835D01*
X268216Y143733D01*
X268163Y143581D01*
X268100Y143433D01*
X268071Y143321D01*
X268033Y143212D01*
X268002Y143055D01*
X267961Y142899D01*
X267949Y142784D01*
X267927Y142671D01*
X267919Y142511D01*
X267901Y142351D01*
X267905Y142235D01*
X267900Y142120D01*
X267915Y141960D01*
X267921Y141800D01*
X267942Y141686D01*
X267953Y141571D01*
X267991Y141415D01*
X268020Y141257D01*
X268057Y141147D01*
X268084Y141035D01*
X268145Y140886D01*
X268196Y140734D01*
X268249Y140631D01*
X268292Y140524D01*
X268373Y140385D01*
X268446Y140242D01*
X268513Y140148D01*
X268571Y140048D01*
X268672Y139923D01*
X268765Y139792D01*
X268872Y139673D01*
X268917Y139618D01*
X268954Y139583D01*
X269014Y139516D01*
X285054Y123476D01*
X285176Y123371D01*
X285291Y123259D01*
X285384Y123191D01*
X285472Y123115D01*
X285607Y123029D01*
X285737Y122935D01*
X285839Y122881D01*
X285937Y122819D01*
X286083Y122753D01*
X286225Y122678D01*
X286334Y122640D01*
X286440Y122592D01*
X286594Y122548D01*
X286746Y122495D01*
X286859Y122473D01*
X286970Y122441D01*
X287130Y122419D01*
X287287Y122389D01*
X287402Y122383D01*
X287517Y122368D01*
X287678Y122369D01*
X287838Y122362D01*
X287953Y122373D01*
G37*
G36*
X215415Y241906D02*
X215415Y241906D01*
X215460Y241904D01*
X215690Y241926D01*
X215920Y241943D01*
X215964Y241952D01*
X216009Y241957D01*
X216233Y242012D01*
X216459Y242062D01*
X216501Y242078D01*
X216545Y242088D01*
X216759Y242175D01*
X216975Y242257D01*
X217014Y242279D01*
X217056Y242296D01*
X217255Y242413D01*
X217457Y242525D01*
X217493Y242553D01*
X217532Y242576D01*
X217712Y242720D01*
X217895Y242860D01*
X217927Y242892D01*
X217962Y242921D01*
X218120Y243090D01*
X218281Y243255D01*
X218307Y243291D01*
X218338Y243324D01*
X218470Y243515D01*
X218605Y243701D01*
X218626Y243741D01*
X218652Y243778D01*
X218755Y243986D01*
X218862Y244189D01*
X218877Y244232D01*
X218897Y244272D01*
X218968Y244492D01*
X219045Y244710D01*
X219054Y244754D01*
X219068Y244797D01*
X219107Y245025D01*
X219151Y245251D01*
X219153Y245296D01*
X219161Y245341D01*
X219179Y245712D01*
X219179Y247811D01*
X226720Y247811D01*
X226765Y247814D01*
X226810Y247812D01*
X227039Y247834D01*
X227270Y247851D01*
X227314Y247860D01*
X227359Y247865D01*
X227582Y247920D01*
X227809Y247970D01*
X227851Y247986D01*
X227895Y247996D01*
X228109Y248083D01*
X228324Y248165D01*
X228364Y248187D01*
X228406Y248204D01*
X228605Y248321D01*
X228807Y248433D01*
X228843Y248461D01*
X228881Y248483D01*
X229062Y248628D01*
X229245Y248768D01*
X229276Y248800D01*
X229312Y248829D01*
X229470Y248998D01*
X229630Y249163D01*
X229657Y249199D01*
X229688Y249232D01*
X229820Y249423D01*
X229955Y249609D01*
X229976Y249649D01*
X230002Y249686D01*
X230104Y249894D01*
X230211Y250097D01*
X230226Y250140D01*
X230246Y250180D01*
X230318Y250400D01*
X230395Y250618D01*
X230403Y250662D01*
X230417Y250705D01*
X230457Y250933D01*
X230501Y251159D01*
X230503Y251204D01*
X230511Y251249D01*
X230529Y251620D01*
X230526Y251665D01*
X230528Y251704D01*
X230528Y251710D01*
X230506Y251939D01*
X230489Y252170D01*
X230479Y252215D01*
X230475Y252259D01*
X230420Y252483D01*
X230370Y252709D01*
X230354Y252751D01*
X230343Y252795D01*
X230256Y253008D01*
X230174Y253225D01*
X230153Y253264D01*
X230135Y253306D01*
X230019Y253505D01*
X229906Y253707D01*
X229879Y253743D01*
X229856Y253782D01*
X229712Y253962D01*
X229572Y254145D01*
X229539Y254177D01*
X229511Y254212D01*
X229341Y254370D01*
X229177Y254531D01*
X229141Y254557D01*
X229107Y254588D01*
X228916Y254720D01*
X228731Y254855D01*
X228691Y254876D01*
X228654Y254902D01*
X228446Y255005D01*
X228242Y255112D01*
X228200Y255127D01*
X228159Y255147D01*
X227939Y255219D01*
X227722Y255295D01*
X227678Y255304D01*
X227635Y255318D01*
X227406Y255357D01*
X227181Y255401D01*
X227136Y255404D01*
X227091Y255411D01*
X226720Y255429D01*
X219179Y255429D01*
X219179Y258220D01*
X219277Y258711D01*
X219468Y259174D01*
X219747Y259590D01*
X220100Y259943D01*
X220516Y260222D01*
X220979Y260413D01*
X221470Y260511D01*
X225378Y260511D01*
X225423Y260514D01*
X225468Y260512D01*
X225698Y260534D01*
X225928Y260551D01*
X225972Y260560D01*
X226017Y260565D01*
X226241Y260620D01*
X226467Y260670D01*
X226509Y260686D01*
X226553Y260696D01*
X226767Y260783D01*
X226983Y260865D01*
X227022Y260887D01*
X227064Y260904D01*
X227263Y261021D01*
X227465Y261133D01*
X227501Y261161D01*
X227540Y261184D01*
X227720Y261328D01*
X227903Y261468D01*
X227935Y261500D01*
X227970Y261529D01*
X228128Y261698D01*
X228289Y261863D01*
X228315Y261899D01*
X228346Y261932D01*
X228478Y262123D01*
X228613Y262309D01*
X228634Y262349D01*
X228660Y262386D01*
X228763Y262594D01*
X228870Y262797D01*
X228885Y262840D01*
X228905Y262880D01*
X228976Y263100D01*
X229053Y263318D01*
X229062Y263362D01*
X229076Y263405D01*
X229115Y263633D01*
X229159Y263859D01*
X229161Y263904D01*
X229169Y263949D01*
X229187Y264320D01*
X229187Y264508D01*
X229184Y264553D01*
X229186Y264598D01*
X229164Y264828D01*
X229147Y265058D01*
X229138Y265102D01*
X229133Y265147D01*
X229078Y265371D01*
X229028Y265597D01*
X229012Y265639D01*
X229002Y265683D01*
X228915Y265897D01*
X228833Y266113D01*
X228811Y266152D01*
X228794Y266194D01*
X228677Y266393D01*
X228565Y266595D01*
X228537Y266631D01*
X228514Y266670D01*
X228370Y266850D01*
X228230Y267033D01*
X228198Y267065D01*
X228169Y267100D01*
X227999Y267258D01*
X227835Y267419D01*
X227799Y267445D01*
X227766Y267476D01*
X227575Y267608D01*
X227389Y267743D01*
X227349Y267764D01*
X227312Y267790D01*
X227104Y267893D01*
X226901Y268000D01*
X226858Y268015D01*
X226818Y268035D01*
X226598Y268106D01*
X226380Y268183D01*
X226336Y268192D01*
X226293Y268206D01*
X226065Y268245D01*
X225839Y268289D01*
X225794Y268291D01*
X225749Y268299D01*
X225378Y268317D01*
X203200Y268317D01*
X203155Y268314D01*
X203110Y268316D01*
X202880Y268294D01*
X202650Y268277D01*
X202606Y268268D01*
X202561Y268263D01*
X202337Y268208D01*
X202111Y268158D01*
X202069Y268142D01*
X202025Y268132D01*
X201811Y268045D01*
X201595Y267963D01*
X201556Y267941D01*
X201514Y267924D01*
X201315Y267807D01*
X201113Y267695D01*
X201077Y267667D01*
X201038Y267644D01*
X200858Y267500D01*
X200675Y267360D01*
X200643Y267328D01*
X200608Y267299D01*
X200450Y267129D01*
X200289Y266965D01*
X200263Y266929D01*
X200232Y266896D01*
X200100Y266705D01*
X199965Y266519D01*
X199944Y266479D01*
X199918Y266442D01*
X199815Y266234D01*
X199708Y266031D01*
X199693Y265988D01*
X199673Y265948D01*
X199602Y265728D01*
X199525Y265510D01*
X199516Y265466D01*
X199502Y265423D01*
X199463Y265195D01*
X199419Y264969D01*
X199417Y264924D01*
X199409Y264879D01*
X199391Y264508D01*
X199391Y264426D01*
X197650Y260225D01*
X194435Y257010D01*
X192600Y256249D01*
X192456Y256177D01*
X192308Y256114D01*
X192210Y256054D01*
X192107Y256002D01*
X191975Y255910D01*
X191838Y255826D01*
X191749Y255752D01*
X191654Y255686D01*
X191537Y255575D01*
X191414Y255473D01*
X191337Y255387D01*
X191253Y255308D01*
X191153Y255182D01*
X191046Y255062D01*
X190982Y254966D01*
X190910Y254875D01*
X190829Y254736D01*
X190740Y254603D01*
X190691Y254498D01*
X190633Y254398D01*
X190573Y254249D01*
X190505Y254104D01*
X190471Y253993D01*
X190428Y253886D01*
X190390Y253730D01*
X190343Y253576D01*
X190326Y253462D01*
X190299Y253350D01*
X190284Y253190D01*
X190260Y253031D01*
X190259Y252915D01*
X190249Y252800D01*
X190257Y252640D01*
X190256Y252479D01*
X190272Y252365D01*
X190279Y252250D01*
X190310Y252092D01*
X190332Y251933D01*
X190365Y251822D01*
X190388Y251709D01*
X190442Y251557D01*
X190487Y251403D01*
X190535Y251298D01*
X190574Y251189D01*
X190649Y251047D01*
X190716Y250901D01*
X190778Y250805D01*
X190833Y250702D01*
X190928Y250573D01*
X191015Y250438D01*
X191091Y250351D01*
X191159Y250258D01*
X191272Y250143D01*
X191378Y250023D01*
X191466Y249948D01*
X191547Y249865D01*
X191675Y249768D01*
X191797Y249664D01*
X191895Y249602D01*
X191987Y249533D01*
X192128Y249455D01*
X192264Y249370D01*
X192409Y249301D01*
X192471Y249267D01*
X192518Y249249D01*
X192600Y249211D01*
X194435Y248450D01*
X197650Y245235D01*
X198057Y244254D01*
X198113Y244142D01*
X198160Y244026D01*
X198237Y243896D01*
X198304Y243761D01*
X198376Y243658D01*
X198440Y243550D01*
X198534Y243433D01*
X198620Y243309D01*
X198706Y243218D01*
X198785Y243120D01*
X198895Y243017D01*
X198998Y242907D01*
X199096Y242829D01*
X199188Y242744D01*
X199312Y242658D01*
X199430Y242564D01*
X199539Y242501D01*
X199642Y242430D01*
X199777Y242363D01*
X199908Y242288D01*
X200024Y242241D01*
X200136Y242185D01*
X200280Y242139D01*
X200420Y242082D01*
X200542Y242053D01*
X200661Y242014D01*
X200810Y241989D01*
X200956Y241954D01*
X201081Y241942D01*
X201205Y241921D01*
X201440Y241909D01*
X201506Y241903D01*
X201533Y241905D01*
X201576Y241903D01*
X215370Y241903D01*
X215415Y241906D01*
G37*
G36*
X322852Y186627D02*
X322852Y186627D01*
X323012Y186633D01*
X323126Y186654D01*
X323241Y186665D01*
X323397Y186703D01*
X323555Y186732D01*
X323665Y186769D01*
X323777Y186796D01*
X323926Y186857D01*
X324078Y186908D01*
X324181Y186961D01*
X324288Y187004D01*
X324427Y187085D01*
X324570Y187158D01*
X324664Y187225D01*
X324764Y187283D01*
X324889Y187384D01*
X325020Y187477D01*
X325139Y187584D01*
X325194Y187629D01*
X325229Y187666D01*
X325296Y187726D01*
X326064Y188494D01*
X326197Y188649D01*
X326338Y188800D01*
X326378Y188858D01*
X326424Y188912D01*
X326535Y189085D01*
X326652Y189254D01*
X326683Y189317D01*
X326721Y189377D01*
X326805Y189564D01*
X326897Y189748D01*
X326919Y189815D01*
X326948Y189880D01*
X327004Y190077D01*
X327068Y190273D01*
X327080Y190342D01*
X327099Y190410D01*
X327126Y190614D01*
X327161Y190817D01*
X327166Y190907D01*
X327172Y190957D01*
X327171Y191027D01*
X327179Y191188D01*
X327179Y191606D01*
X328026Y193650D01*
X329590Y195214D01*
X331634Y196061D01*
X333920Y196061D01*
X333926Y196059D01*
X334069Y196012D01*
X334192Y195990D01*
X334314Y195958D01*
X334464Y195942D01*
X334612Y195916D01*
X334737Y195912D01*
X334862Y195898D01*
X335013Y195903D01*
X335163Y195899D01*
X335288Y195913D01*
X335413Y195918D01*
X335562Y195945D01*
X335711Y195962D01*
X335833Y195994D01*
X335956Y196017D01*
X336099Y196065D01*
X336245Y196103D01*
X336360Y196153D01*
X336479Y196193D01*
X336613Y196261D01*
X336752Y196321D01*
X336859Y196386D01*
X336971Y196443D01*
X337094Y196530D01*
X337222Y196609D01*
X337318Y196689D01*
X337421Y196761D01*
X337595Y196919D01*
X337646Y196962D01*
X337664Y196982D01*
X337696Y197011D01*
X338652Y197966D01*
X338681Y198000D01*
X338715Y198031D01*
X338862Y198209D01*
X339013Y198384D01*
X339037Y198422D01*
X339066Y198457D01*
X339185Y198653D01*
X339309Y198849D01*
X339328Y198890D01*
X339351Y198929D01*
X339441Y199141D01*
X339536Y199352D01*
X339548Y199395D01*
X339566Y199437D01*
X339624Y199661D01*
X339687Y199882D01*
X339693Y199927D01*
X339705Y199971D01*
X339730Y200199D01*
X339760Y200429D01*
X339760Y200474D01*
X339765Y200519D01*
X339757Y200750D01*
X339754Y200981D01*
X339747Y201025D01*
X339745Y201070D01*
X339704Y201297D01*
X339668Y201526D01*
X339654Y201569D01*
X339646Y201613D01*
X339573Y201832D01*
X339504Y202052D01*
X339484Y202093D01*
X339470Y202136D01*
X339366Y202341D01*
X339266Y202550D01*
X339240Y202588D01*
X339220Y202628D01*
X339087Y202816D01*
X338958Y203008D01*
X338928Y203041D01*
X338902Y203078D01*
X338652Y203353D01*
X337696Y204309D01*
X337601Y204391D01*
X337513Y204480D01*
X337393Y204571D01*
X337279Y204670D01*
X337173Y204737D01*
X337073Y204813D01*
X336941Y204885D01*
X336814Y204966D01*
X336700Y205018D01*
X336590Y205078D01*
X336448Y205131D01*
X336311Y205193D01*
X336190Y205227D01*
X336073Y205271D01*
X335925Y205303D01*
X335781Y205344D01*
X335656Y205361D01*
X335533Y205387D01*
X335383Y205398D01*
X335234Y205418D01*
X335108Y205416D01*
X334983Y205425D01*
X334833Y205413D01*
X334682Y205411D01*
X334558Y205391D01*
X334433Y205382D01*
X334286Y205348D01*
X334137Y205325D01*
X334018Y205288D01*
X333895Y205260D01*
X333893Y205259D01*
X331634Y205259D01*
X329590Y206106D01*
X328026Y207670D01*
X327179Y209714D01*
X327179Y210132D01*
X327164Y210337D01*
X327157Y210543D01*
X327144Y210612D01*
X327139Y210682D01*
X327095Y210884D01*
X327058Y211085D01*
X327036Y211152D01*
X327020Y211221D01*
X326947Y211413D01*
X326882Y211608D01*
X326850Y211671D01*
X326825Y211737D01*
X326725Y211916D01*
X326632Y212100D01*
X326591Y212157D01*
X326557Y212219D01*
X326432Y212382D01*
X326313Y212550D01*
X326253Y212617D01*
X326222Y212657D01*
X326171Y212707D01*
X326064Y212826D01*
X320368Y218522D01*
X320246Y218627D01*
X320131Y218739D01*
X320038Y218807D01*
X319950Y218883D01*
X319815Y218969D01*
X319685Y219063D01*
X319583Y219117D01*
X319485Y219179D01*
X319339Y219245D01*
X319197Y219320D01*
X319088Y219358D01*
X318982Y219406D01*
X318828Y219450D01*
X318676Y219503D01*
X318563Y219525D01*
X318452Y219557D01*
X318292Y219579D01*
X318135Y219609D01*
X318020Y219615D01*
X317905Y219630D01*
X317744Y219629D01*
X317584Y219636D01*
X317469Y219625D01*
X317353Y219624D01*
X317194Y219599D01*
X317035Y219583D01*
X316923Y219556D01*
X316808Y219538D01*
X316655Y219490D01*
X316499Y219452D01*
X316392Y219408D01*
X316282Y219374D01*
X316137Y219304D01*
X315988Y219244D01*
X315888Y219185D01*
X315784Y219136D01*
X315651Y219046D01*
X315512Y218965D01*
X315422Y218892D01*
X315326Y218828D01*
X315207Y218720D01*
X315082Y218619D01*
X315003Y218535D01*
X314917Y218457D01*
X314815Y218333D01*
X314706Y218216D01*
X314640Y218121D01*
X314567Y218032D01*
X314483Y217894D01*
X314392Y217762D01*
X314341Y217658D01*
X314281Y217560D01*
X314219Y217412D01*
X314147Y217268D01*
X314111Y217158D01*
X314066Y217051D01*
X314026Y216896D01*
X313976Y216743D01*
X313957Y216629D01*
X313928Y216517D01*
X313910Y216358D01*
X313883Y216199D01*
X313875Y216039D01*
X313867Y215969D01*
X313869Y215918D01*
X313865Y215828D01*
X313865Y207932D01*
X313868Y207887D01*
X313866Y207842D01*
X313888Y207612D01*
X313905Y207382D01*
X313914Y207338D01*
X313919Y207293D01*
X313974Y207069D01*
X314024Y206843D01*
X314040Y206801D01*
X314050Y206757D01*
X314137Y206543D01*
X314219Y206327D01*
X314241Y206288D01*
X314258Y206246D01*
X314375Y206047D01*
X314487Y205845D01*
X314515Y205809D01*
X314538Y205770D01*
X314682Y205590D01*
X314822Y205407D01*
X314854Y205375D01*
X314883Y205340D01*
X315053Y205182D01*
X315217Y205021D01*
X315253Y204995D01*
X315286Y204964D01*
X315477Y204832D01*
X315663Y204697D01*
X315703Y204676D01*
X315740Y204650D01*
X315948Y204547D01*
X316151Y204440D01*
X316194Y204425D01*
X316234Y204405D01*
X316454Y204334D01*
X316672Y204257D01*
X316716Y204248D01*
X316759Y204234D01*
X316987Y204195D01*
X317213Y204151D01*
X317258Y204149D01*
X317303Y204141D01*
X317598Y204126D01*
X318793Y202932D01*
X318793Y190420D01*
X318795Y190393D01*
X318794Y190374D01*
X318803Y190279D01*
X318804Y190260D01*
X318806Y190099D01*
X318824Y189985D01*
X318833Y189870D01*
X318867Y189713D01*
X318892Y189554D01*
X318927Y189444D01*
X318952Y189331D01*
X319009Y189181D01*
X319056Y189027D01*
X319106Y188923D01*
X319147Y188815D01*
X319225Y188675D01*
X319295Y188530D01*
X319359Y188434D01*
X319415Y188333D01*
X319513Y188205D01*
X319602Y188072D01*
X319680Y187986D01*
X319750Y187894D01*
X319865Y187782D01*
X319973Y187663D01*
X320062Y187590D01*
X320145Y187509D01*
X320274Y187415D01*
X320399Y187312D01*
X320498Y187252D01*
X320591Y187185D01*
X320733Y187110D01*
X320871Y187027D01*
X320977Y186982D01*
X321079Y186928D01*
X321231Y186875D01*
X321379Y186812D01*
X321491Y186783D01*
X321600Y186745D01*
X321757Y186714D01*
X321913Y186673D01*
X322028Y186661D01*
X322141Y186639D01*
X322301Y186631D01*
X322461Y186613D01*
X322577Y186617D01*
X322692Y186612D01*
X322852Y186627D01*
G37*
G36*
X262040Y182542D02*
X262040Y182542D01*
X262281Y182540D01*
X262316Y182545D01*
X262351Y182545D01*
X262589Y182583D01*
X262828Y182616D01*
X262862Y182626D01*
X262896Y182632D01*
X263126Y182703D01*
X263357Y182770D01*
X263389Y182785D01*
X263423Y182796D01*
X263639Y182899D01*
X263859Y182999D01*
X263889Y183019D01*
X263921Y183034D01*
X264120Y183168D01*
X264323Y183299D01*
X264349Y183322D01*
X264378Y183341D01*
X264556Y183503D01*
X264738Y183662D01*
X264761Y183688D01*
X264787Y183712D01*
X264940Y183898D01*
X265097Y184081D01*
X265115Y184111D01*
X265138Y184138D01*
X265263Y184344D01*
X265391Y184547D01*
X265410Y184587D01*
X265424Y184610D01*
X265449Y184670D01*
X265550Y184883D01*
X266476Y187120D01*
X267059Y187703D01*
X267089Y187737D01*
X267122Y187767D01*
X267269Y187946D01*
X267420Y188120D01*
X267444Y188158D01*
X267473Y188193D01*
X267593Y188391D01*
X267717Y188585D01*
X267735Y188626D01*
X267759Y188665D01*
X267848Y188878D01*
X267943Y189088D01*
X267956Y189132D01*
X267973Y189173D01*
X268031Y189397D01*
X268095Y189619D01*
X268101Y189664D01*
X268112Y189707D01*
X268137Y189937D01*
X268168Y190166D01*
X268167Y190211D01*
X268172Y190256D01*
X268164Y190487D01*
X268161Y190717D01*
X268154Y190762D01*
X268153Y190807D01*
X268111Y191034D01*
X268075Y191262D01*
X268062Y191305D01*
X268054Y191350D01*
X267980Y191569D01*
X267911Y191789D01*
X267892Y191830D01*
X267877Y191872D01*
X267772Y192079D01*
X267673Y192286D01*
X267648Y192324D01*
X267627Y192364D01*
X267494Y192553D01*
X267365Y192744D01*
X267335Y192778D01*
X267309Y192815D01*
X267059Y193090D01*
X265365Y194784D01*
X263785Y196364D01*
X263682Y196510D01*
X263530Y196727D01*
X263523Y196735D01*
X263517Y196743D01*
X263268Y197018D01*
X261986Y198300D01*
X261139Y200344D01*
X261139Y201168D01*
X261136Y201213D01*
X261138Y201258D01*
X261116Y201488D01*
X261099Y201718D01*
X261090Y201762D01*
X261085Y201807D01*
X261030Y202031D01*
X260980Y202257D01*
X260964Y202299D01*
X260954Y202343D01*
X260867Y202557D01*
X260785Y202773D01*
X260763Y202812D01*
X260746Y202854D01*
X260629Y203053D01*
X260517Y203255D01*
X260489Y203291D01*
X260466Y203330D01*
X260322Y203510D01*
X260182Y203693D01*
X260150Y203725D01*
X260121Y203760D01*
X259951Y203918D01*
X259787Y204079D01*
X259751Y204105D01*
X259718Y204136D01*
X259527Y204268D01*
X259341Y204403D01*
X259301Y204424D01*
X259264Y204450D01*
X259056Y204553D01*
X258853Y204660D01*
X258810Y204675D01*
X258770Y204695D01*
X258550Y204766D01*
X258332Y204843D01*
X258288Y204852D01*
X258245Y204866D01*
X258017Y204905D01*
X257791Y204949D01*
X257746Y204951D01*
X257701Y204959D01*
X257330Y204977D01*
X254682Y204977D01*
X254637Y204974D01*
X254592Y204976D01*
X254362Y204954D01*
X254132Y204937D01*
X254088Y204928D01*
X254043Y204923D01*
X253819Y204868D01*
X253593Y204818D01*
X253551Y204802D01*
X253507Y204792D01*
X253293Y204705D01*
X253077Y204623D01*
X253038Y204601D01*
X252996Y204584D01*
X252797Y204467D01*
X252595Y204355D01*
X252559Y204327D01*
X252520Y204304D01*
X252340Y204160D01*
X252157Y204020D01*
X252125Y203988D01*
X252090Y203959D01*
X251932Y203789D01*
X251771Y203625D01*
X251745Y203589D01*
X251714Y203556D01*
X251582Y203365D01*
X251447Y203179D01*
X251426Y203139D01*
X251400Y203102D01*
X251297Y202894D01*
X251190Y202691D01*
X251175Y202648D01*
X251155Y202608D01*
X251084Y202388D01*
X251007Y202170D01*
X250998Y202126D01*
X250984Y202083D01*
X250945Y201855D01*
X250901Y201629D01*
X250899Y201584D01*
X250891Y201539D01*
X250873Y201168D01*
X250873Y187612D01*
X250876Y187567D01*
X250874Y187522D01*
X250896Y187292D01*
X250913Y187062D01*
X250922Y187018D01*
X250927Y186973D01*
X250982Y186749D01*
X251032Y186523D01*
X251048Y186481D01*
X251058Y186437D01*
X251145Y186223D01*
X251227Y186007D01*
X251249Y185968D01*
X251266Y185926D01*
X251383Y185727D01*
X251495Y185525D01*
X251523Y185489D01*
X251546Y185450D01*
X251690Y185270D01*
X251830Y185087D01*
X251862Y185055D01*
X251891Y185020D01*
X252061Y184862D01*
X252225Y184701D01*
X252261Y184675D01*
X252294Y184644D01*
X252485Y184512D01*
X252671Y184377D01*
X252711Y184356D01*
X252748Y184330D01*
X252956Y184227D01*
X253159Y184120D01*
X253202Y184105D01*
X253242Y184085D01*
X253462Y184014D01*
X253680Y183937D01*
X253724Y183928D01*
X253767Y183914D01*
X253995Y183875D01*
X254221Y183831D01*
X254266Y183829D01*
X254311Y183821D01*
X254682Y183803D01*
X259182Y183803D01*
X259337Y183648D01*
X259519Y183490D01*
X259698Y183329D01*
X259728Y183310D01*
X259754Y183287D01*
X259957Y183157D01*
X260158Y183024D01*
X260190Y183009D01*
X260219Y182990D01*
X260439Y182891D01*
X260657Y182788D01*
X260690Y182778D01*
X260722Y182764D01*
X260955Y182697D01*
X261184Y182627D01*
X261219Y182622D01*
X261253Y182612D01*
X261492Y182580D01*
X261729Y182544D01*
X261765Y182544D01*
X261800Y182539D01*
X262040Y182542D01*
G37*
G36*
X281615Y189671D02*
X281615Y189671D01*
X281731Y189672D01*
X281889Y189697D01*
X282049Y189713D01*
X282161Y189740D01*
X282276Y189758D01*
X282429Y189806D01*
X282585Y189844D01*
X282692Y189888D01*
X282802Y189922D01*
X282947Y189992D01*
X283096Y190052D01*
X283196Y190111D01*
X283300Y190160D01*
X283433Y190250D01*
X283572Y190331D01*
X283662Y190404D01*
X283758Y190468D01*
X283877Y190576D01*
X284002Y190677D01*
X284081Y190761D01*
X284167Y190839D01*
X284269Y190963D01*
X284378Y191080D01*
X284444Y191175D01*
X284517Y191264D01*
X284601Y191402D01*
X284692Y191534D01*
X284743Y191638D01*
X284803Y191736D01*
X284865Y191884D01*
X284888Y191931D01*
X292760Y191931D01*
X292805Y191934D01*
X292850Y191932D01*
X293079Y191954D01*
X293310Y191971D01*
X293354Y191980D01*
X293399Y191985D01*
X293622Y192040D01*
X293849Y192090D01*
X293891Y192106D01*
X293935Y192116D01*
X294149Y192203D01*
X294364Y192285D01*
X294404Y192307D01*
X294446Y192324D01*
X294645Y192441D01*
X294847Y192553D01*
X294883Y192581D01*
X294921Y192603D01*
X295102Y192748D01*
X295285Y192888D01*
X295316Y192920D01*
X295352Y192949D01*
X295510Y193118D01*
X295670Y193283D01*
X295697Y193319D01*
X295728Y193352D01*
X295860Y193543D01*
X295995Y193729D01*
X296016Y193769D01*
X296042Y193806D01*
X296144Y194014D01*
X296251Y194217D01*
X296266Y194260D01*
X296286Y194300D01*
X296358Y194520D01*
X296435Y194738D01*
X296443Y194782D01*
X296457Y194825D01*
X296497Y195053D01*
X296541Y195279D01*
X296543Y195324D01*
X296551Y195369D01*
X296569Y195740D01*
X296566Y195785D01*
X296568Y195824D01*
X296568Y195830D01*
X296546Y196060D01*
X296529Y196290D01*
X296519Y196335D01*
X296515Y196379D01*
X296460Y196603D01*
X296410Y196829D01*
X296394Y196871D01*
X296383Y196915D01*
X296296Y197128D01*
X296214Y197345D01*
X296193Y197384D01*
X296175Y197426D01*
X296059Y197625D01*
X295946Y197827D01*
X295919Y197863D01*
X295896Y197902D01*
X295752Y198082D01*
X295612Y198265D01*
X295579Y198297D01*
X295551Y198332D01*
X295381Y198490D01*
X295217Y198651D01*
X295181Y198677D01*
X295147Y198708D01*
X294956Y198840D01*
X294771Y198975D01*
X294731Y198996D01*
X294694Y199022D01*
X294486Y199125D01*
X294282Y199232D01*
X294240Y199247D01*
X294199Y199267D01*
X293979Y199339D01*
X293762Y199415D01*
X293718Y199424D01*
X293675Y199438D01*
X293446Y199477D01*
X293221Y199521D01*
X293176Y199524D01*
X293131Y199531D01*
X292760Y199549D01*
X285219Y199549D01*
X285219Y201168D01*
X285216Y201213D01*
X285218Y201258D01*
X285196Y201488D01*
X285179Y201718D01*
X285170Y201762D01*
X285165Y201807D01*
X285110Y202031D01*
X285060Y202257D01*
X285044Y202299D01*
X285034Y202343D01*
X284947Y202557D01*
X284865Y202773D01*
X284843Y202812D01*
X284826Y202854D01*
X284709Y203053D01*
X284597Y203255D01*
X284569Y203291D01*
X284546Y203330D01*
X284402Y203510D01*
X284262Y203693D01*
X284230Y203725D01*
X284201Y203760D01*
X284032Y203918D01*
X283867Y204079D01*
X283831Y204105D01*
X283798Y204136D01*
X283607Y204268D01*
X283421Y204403D01*
X283381Y204424D01*
X283344Y204450D01*
X283137Y204552D01*
X282933Y204660D01*
X282890Y204675D01*
X282850Y204695D01*
X282630Y204766D01*
X282412Y204843D01*
X282368Y204852D01*
X282325Y204866D01*
X282097Y204905D01*
X281871Y204949D01*
X281826Y204951D01*
X281781Y204959D01*
X281410Y204977D01*
X276070Y204977D01*
X276025Y204974D01*
X275980Y204976D01*
X275750Y204954D01*
X275520Y204937D01*
X275476Y204928D01*
X275431Y204923D01*
X275207Y204868D01*
X274981Y204818D01*
X274939Y204802D01*
X274895Y204792D01*
X274681Y204705D01*
X274465Y204623D01*
X274426Y204601D01*
X274384Y204584D01*
X274185Y204467D01*
X273983Y204355D01*
X273947Y204327D01*
X273908Y204304D01*
X273728Y204160D01*
X273545Y204020D01*
X273513Y203988D01*
X273478Y203959D01*
X273320Y203789D01*
X273159Y203625D01*
X273133Y203589D01*
X273102Y203556D01*
X272970Y203365D01*
X272835Y203179D01*
X272814Y203139D01*
X272788Y203102D01*
X272685Y202894D01*
X272578Y202691D01*
X272563Y202648D01*
X272543Y202608D01*
X272472Y202388D01*
X272395Y202170D01*
X272386Y202126D01*
X272372Y202083D01*
X272333Y201855D01*
X272289Y201629D01*
X272287Y201584D01*
X272279Y201539D01*
X272261Y201168D01*
X272261Y200321D01*
X272234Y200259D01*
X272197Y200113D01*
X272149Y199970D01*
X272127Y199846D01*
X272096Y199725D01*
X272079Y199575D01*
X272053Y199427D01*
X272049Y199302D01*
X272035Y199177D01*
X272041Y199026D01*
X272036Y198875D01*
X272051Y198751D01*
X272055Y198625D01*
X272082Y198477D01*
X272099Y198327D01*
X272131Y198206D01*
X272154Y198083D01*
X272202Y197940D01*
X272241Y197794D01*
X272290Y197679D01*
X272330Y197560D01*
X272399Y197425D01*
X272458Y197287D01*
X272523Y197180D01*
X272580Y197068D01*
X272667Y196945D01*
X272746Y196817D01*
X272826Y196720D01*
X272899Y196618D01*
X273057Y196444D01*
X273099Y196393D01*
X273120Y196374D01*
X273148Y196342D01*
X278716Y190774D01*
X278838Y190669D01*
X278953Y190557D01*
X279046Y190489D01*
X279134Y190413D01*
X279269Y190327D01*
X279399Y190233D01*
X279501Y190179D01*
X279599Y190117D01*
X279745Y190051D01*
X279888Y189976D01*
X279996Y189938D01*
X280102Y189890D01*
X280256Y189846D01*
X280408Y189793D01*
X280521Y189770D01*
X280632Y189739D01*
X280791Y189717D01*
X280949Y189687D01*
X281065Y189681D01*
X281179Y189666D01*
X281340Y189667D01*
X281500Y189660D01*
X281615Y189671D01*
G37*
%LPC*%
G36*
X489553Y106117D02*
X489553Y106117D01*
X486913Y107211D01*
X484893Y109231D01*
X483799Y111871D01*
X483799Y114729D01*
X484893Y117369D01*
X486913Y119389D01*
X489553Y120483D01*
X492411Y120483D01*
X495051Y119389D01*
X497071Y117369D01*
X498165Y114729D01*
X498165Y111871D01*
X497071Y109231D01*
X495051Y107211D01*
X492411Y106117D01*
X489553Y106117D01*
G37*
%LPD*%
%LPC*%
G36*
X390769Y115569D02*
X390769Y115569D01*
X390769Y123191D01*
X395001Y123191D01*
X395001Y121750D01*
X394903Y121259D01*
X394729Y120838D01*
X394664Y120643D01*
X394592Y120450D01*
X394577Y120381D01*
X394555Y120314D01*
X394519Y120111D01*
X394476Y119911D01*
X394471Y119840D01*
X394459Y119771D01*
X394453Y119565D01*
X394439Y119360D01*
X394444Y119290D01*
X394442Y119220D01*
X394466Y119015D01*
X394482Y118810D01*
X394497Y118742D01*
X394505Y118672D01*
X394558Y118473D01*
X394603Y118272D01*
X394634Y118187D01*
X394647Y118138D01*
X394674Y118074D01*
X394729Y117922D01*
X394903Y117501D01*
X395001Y117010D01*
X395001Y115569D01*
X390769Y115569D01*
G37*
%LPD*%
%LPC*%
G36*
X696450Y151289D02*
X696450Y151289D01*
X695959Y151387D01*
X695496Y151578D01*
X695080Y151857D01*
X694727Y152210D01*
X694448Y152626D01*
X694257Y153089D01*
X694159Y153580D01*
X694159Y156371D01*
X697891Y156371D01*
X697891Y151289D01*
X696450Y151289D01*
G37*
%LPD*%
%LPC*%
G36*
X229090Y166529D02*
X229090Y166529D01*
X228599Y166627D01*
X228136Y166818D01*
X227720Y167097D01*
X227367Y167450D01*
X227088Y167866D01*
X226897Y168329D01*
X226799Y168820D01*
X226799Y171611D01*
X230531Y171611D01*
X230531Y166529D01*
X229090Y166529D01*
G37*
%LPD*%
%LPC*%
G36*
X365369Y182959D02*
X365369Y182959D01*
X365369Y186691D01*
X369601Y186691D01*
X369601Y185250D01*
X369503Y184759D01*
X369312Y184296D01*
X369033Y183880D01*
X368680Y183527D01*
X368264Y183248D01*
X367801Y183057D01*
X367310Y182959D01*
X365369Y182959D01*
G37*
%LPD*%
D10*
X386960Y73660D03*
X369960Y73660D03*
D11*
X266700Y171060D03*
X266700Y154060D03*
D10*
X344560Y190500D03*
X361560Y190500D03*
X344560Y210820D03*
X361560Y210820D03*
D11*
X469900Y270120D03*
X469900Y253120D03*
D10*
X369960Y127000D03*
X386960Y127000D03*
X386960Y88900D03*
X369960Y88900D03*
X369960Y111760D03*
X386960Y111760D03*
X334400Y127000D03*
X351400Y127000D03*
X334400Y111760D03*
X351400Y111760D03*
D12*
X187960Y182880D03*
X162560Y182880D03*
X187960Y210820D03*
X162560Y210820D03*
X187960Y238760D03*
X162560Y238760D03*
X187960Y266700D03*
X162560Y266700D03*
X746760Y180340D03*
X772160Y180340D03*
X746760Y208280D03*
X772160Y208280D03*
X746760Y236220D03*
X772160Y236220D03*
X746760Y264160D03*
X772160Y264160D03*
D13*
X269240Y238600D03*
X259740Y218600D03*
X278740Y218600D03*
X302260Y215740D03*
X292760Y195740D03*
X311760Y195740D03*
X243840Y195420D03*
X234340Y175420D03*
X253340Y175420D03*
X236220Y271620D03*
X226720Y251620D03*
X245720Y251620D03*
X711200Y180180D03*
X701700Y160180D03*
X720700Y160180D03*
X680720Y208120D03*
X671220Y188120D03*
X690220Y188120D03*
X652780Y236060D03*
X643280Y216060D03*
X662280Y216060D03*
X624840Y264000D03*
X615340Y244000D03*
X634340Y244000D03*
D14*
X449580Y28956D02*
X449580Y16764D01*
X424180Y16764D02*
X424180Y28956D01*
X398780Y28956D02*
X398780Y16764D01*
X373380Y16764D02*
X373380Y28956D01*
X347980Y28956D02*
X347980Y16764D01*
D12*
X543560Y27940D03*
X568960Y27940D03*
X594360Y27940D03*
X650240Y22860D03*
X675640Y22860D03*
X701040Y22860D03*
D15*
X32960Y65420D03*
D16*
X32960Y139420D03*
X32960Y159420D03*
X32960Y179420D03*
X32960Y199420D03*
X32960Y229420D03*
D17*
X490982Y64500D03*
X490982Y113300D03*
D18*
X147320Y88900D03*
X160020Y88900D03*
X162560Y55880D03*
X205740Y53340D03*
X127000Y274320D03*
X139700Y274320D03*
X139700Y261620D03*
X127000Y261620D03*
X139700Y248920D03*
X129540Y248920D03*
X566420Y220980D03*
X594360Y231140D03*
X622300Y215900D03*
X599440Y177800D03*
X627380Y152400D03*
X652780Y182880D03*
X678180Y152400D03*
X635000Y119380D03*
X706120Y116840D03*
X698500Y68580D03*
X647700Y48260D03*
X594360Y71120D03*
X530860Y99060D03*
X520700Y33020D03*
X299720Y81280D03*
X165100Y154940D03*
X281940Y137160D03*
X266700Y121920D03*
X325120Y154940D03*
X243840Y220980D03*
D19*
X226720Y251620D02*
X218600Y251620D01*
X213360Y246380D01*
D18*
X213360Y246380D03*
X208280Y228600D03*
D19*
X358140Y200660D02*
X361560Y204080D01*
X361560Y210820D01*
X292760Y195740D02*
X281780Y195740D01*
X276860Y200660D01*
D18*
X276860Y200660D03*
X324589Y202124D03*
D19*
X326053Y200660D01*
X358140Y200660D01*
D18*
X393700Y233680D03*
X535940Y172720D03*
X477520Y190500D03*
X416560Y177800D03*
D20*
X386960Y111760D02*
X388947Y109774D01*
X388976Y101702D01*
D18*
X388976Y101702D03*
X359283Y88900D03*
D20*
X369960Y88900D01*
D18*
X523240Y276860D03*
X447040Y256540D03*
X263244Y188876D03*
D19*
X250208Y185768D02*
X244688Y185768D01*
X234340Y175420D01*
X253316Y188876D02*
X263244Y188876D01*
X253316Y188876D02*
X250208Y185768D01*
D21*
X369960Y88900D02*
X369960Y73660D01*
D19*
X350520Y40640D02*
X368300Y22860D01*
X350520Y40640D02*
X340360Y40640D01*
X332740Y48260D01*
D18*
X332740Y68580D03*
D19*
X332740Y48260D01*
X368300Y22860D02*
X373380Y22860D01*
D18*
X304800Y48260D03*
D19*
X304800Y22860D01*
X322580Y5080D01*
X381000Y5080D01*
X398780Y22860D01*
D18*
X332740Y190500D03*
D19*
X344560Y190500D01*
D21*
X568960Y53340D02*
X594360Y27940D01*
X407280Y53340D02*
X404300Y56320D01*
X386960Y73660D01*
X407280Y53340D02*
X568960Y53340D01*
X386960Y73660D02*
X386960Y88900D01*
X369960Y105900D02*
X369960Y111760D01*
X381302Y94558D02*
X386960Y88900D01*
X381302Y94558D02*
X381302Y96320D01*
X377880Y99742D01*
X376118Y99742D01*
X369960Y105900D01*
X369960Y111760D02*
X369960Y127000D01*
X369960Y105900D02*
X364302Y105900D01*
X359320Y100918D01*
X343480Y100918D02*
X334400Y109998D01*
X343480Y100918D02*
X359320Y100918D01*
X334400Y109998D02*
X334400Y111760D01*
X334400Y127000D01*
D18*
X416560Y71120D03*
D19*
X414020Y73660D01*
X386960Y73660D01*
X386960Y88900D02*
X399660Y101600D01*
X423950Y101600D02*
X424180Y101830D01*
D18*
X424180Y101830D03*
D19*
X423950Y101600D02*
X399660Y101600D01*
X334400Y127000D02*
X326780Y134620D01*
D18*
X314170Y134620D03*
D19*
X326780Y134620D01*
X314170Y134620D02*
X314170Y171930D01*
X332740Y190500D01*
D18*
X398780Y50800D03*
D19*
X404300Y56320D01*
D18*
X271191Y183970D03*
D19*
X266700Y179480D01*
X266700Y171060D01*
X277740Y171060D01*
X279400Y172720D01*
D18*
X279400Y172720D03*
D19*
X369960Y127000D02*
X402980Y160020D01*
X403860Y160020D01*
D18*
X403860Y160020D03*
X332740Y210820D03*
D19*
X344560Y210820D01*
X448028Y279400D02*
X465700Y279400D01*
X448028Y279400D02*
X447040Y278412D01*
D18*
X447040Y278412D03*
D19*
X465700Y279400D02*
X469900Y275200D01*
X469900Y271780D02*
X469900Y270120D01*
X469900Y271780D02*
X469900Y275200D01*
D22*
X609600Y114300D02*
X701040Y22860D01*
D18*
X609600Y114300D03*
X523240Y228600D03*
D22*
X504580Y270120D02*
X469900Y270120D01*
X508000Y266700D02*
X508000Y243840D01*
X508000Y266700D02*
X504580Y270120D01*
X508000Y243840D02*
X523240Y228600D01*
D19*
X447040Y278412D02*
X345468Y278412D01*
X314960Y278412D01*
X307340Y270792D01*
X307340Y236220D01*
X332740Y210820D01*
D18*
X281940Y20320D03*
X281940Y10160D03*
X205740Y20320D03*
X193040Y20320D03*
X193040Y10160D03*
X205740Y10160D03*
X78740Y198120D03*
X93980Y198120D03*
X93980Y185420D03*
X78740Y185420D03*
X147320Y134620D03*
D21*
X162560Y238760D02*
X162560Y266700D01*
X162560Y238760D02*
X162560Y210820D01*
X162560Y182880D01*
X772160Y180340D02*
X772160Y208280D01*
X772160Y236220D01*
X772160Y264160D01*
X768313Y264160D01*
X182409Y287782D02*
X162560Y267933D01*
X744691Y287782D02*
X768313Y264160D01*
X744691Y287782D02*
X182409Y287782D01*
X162560Y267933D02*
X162560Y266700D01*
X162560Y182880D02*
X147320Y167640D01*
X147320Y134620D01*
D19*
X187960Y182880D02*
X203200Y198120D01*
X241140Y198120D01*
X243840Y195420D01*
X294480Y215740D02*
X302260Y215740D01*
X294480Y215740D02*
X287020Y208280D01*
X190500Y208280D01*
X187960Y210820D01*
X188120Y238600D02*
X269240Y238600D01*
X188120Y238600D02*
X187960Y238760D01*
X192880Y271620D02*
X236220Y271620D01*
X192880Y271620D02*
X187960Y266700D01*
X680720Y208120D02*
X746600Y208120D01*
X746760Y208280D01*
X746600Y236060D02*
X652780Y236060D01*
X746600Y236060D02*
X746760Y236220D01*
X746600Y180180D02*
X711200Y180180D01*
X746600Y180180D02*
X746760Y180340D01*
X746600Y264000D02*
X624840Y264000D01*
X746600Y264000D02*
X746760Y264160D01*
D18*
X350520Y86360D03*
D19*
X343074Y93806D01*
X337184Y93806D01*
X304800Y126190D01*
X304800Y177800D01*
X311760Y184760D01*
X311760Y195740D01*
X253340Y175420D02*
X253340Y150520D01*
X327660Y76200D02*
X358140Y76200D01*
D18*
X358140Y76200D03*
D19*
X327660Y76200D02*
X253340Y150520D01*
D18*
X416560Y127000D03*
D19*
X447040Y127000D01*
X545280Y154940D02*
X634340Y244000D01*
X474980Y154940D02*
X447040Y127000D01*
X474980Y154940D02*
X545280Y154940D01*
D18*
X330420Y83820D03*
D19*
X294860Y119380D02*
X294860Y169960D01*
X266700Y198120D02*
X266700Y201450D01*
D18*
X266700Y201450D03*
X284480Y241300D03*
D19*
X274160Y251620D01*
X245720Y251620D01*
X266700Y198120D02*
X294860Y169960D01*
X294860Y119380D02*
X330420Y83820D01*
D18*
X424180Y119380D03*
D19*
X454660Y119380D01*
X477520Y142240D01*
X588460Y142240D02*
X662280Y216060D01*
X588460Y142240D02*
X477520Y142240D01*
D18*
X363220Y43180D03*
X553720Y43180D03*
X716280Y144780D03*
D19*
X720700Y149200D01*
X720700Y160180D01*
X553720Y43180D02*
X363220Y43180D01*
D18*
X340360Y86360D03*
D19*
X337486Y89234D01*
X335290Y89234D01*
X300064Y124460D01*
D23*
X300064Y124460D03*
D19*
X299720Y124804D01*
X278740Y218600D02*
X286200Y226060D01*
X308628Y225392D02*
X310562Y223458D01*
X310562Y208022D01*
X308628Y206088D01*
X301062Y188022D02*
X299720Y186680D01*
X303585Y206088D02*
X308628Y206088D01*
X303585Y206088D02*
X301062Y203565D01*
X301062Y188022D01*
X286868Y225392D02*
X286200Y226060D01*
X286868Y225392D02*
X308628Y225392D01*
X299720Y186680D02*
X299720Y124804D01*
D18*
X416560Y111760D03*
D19*
X459740Y111760D01*
X480060Y132080D01*
X634180Y132080D01*
X690220Y188120D01*
D18*
X314960Y241300D03*
D19*
X317500Y271780D02*
X444500Y271780D01*
D18*
X447040Y269240D03*
D19*
X444500Y271780D01*
X317500Y271780D02*
X314960Y269240D01*
X314960Y241300D01*
D18*
X416560Y226060D03*
D19*
X384810Y194310D01*
X383540Y195580D01*
D18*
X383540Y195580D03*
X375920Y210340D03*
D19*
X380993Y210340D01*
X383251Y208082D01*
X388909Y208082D02*
X392910Y212083D01*
X392910Y212570D01*
X414020Y233680D01*
X388909Y208082D02*
X383251Y208082D01*
D18*
X449580Y233680D03*
D19*
X414020Y233680D01*
D18*
X469900Y238760D03*
X386080Y214912D03*
D19*
X415008Y243840D01*
X464820Y243840D01*
X469900Y238760D01*
D18*
X411480Y198120D03*
D19*
X398780Y198120D01*
X397531Y196871D01*
X397030Y196871D01*
D18*
X397030Y196871D03*
M02*
