G04 EAGLE Gerber X2 export*
%TF.Part,Single*%
%TF.FileFunction,Copper,L1,Top,Mixed*%
%TF.FilePolarity,Positive*%
%TF.GenerationSoftware,Autodesk,EAGLE,9.1.3*%
%TF.CreationDate,2019-04-01T20:10:06Z*%
G75*
%MOMM*%
%FSLAX34Y34*%
%LPD*%
%AMOC8*
5,1,8,0,0,1.08239X$1,22.5*%
G01*
%ADD10R,1.100000X1.000000*%
%ADD11R,1.000000X1.100000*%
%ADD12C,0.300000*%
%ADD13R,3.250000X2.500000*%
%ADD14C,1.879600*%
%ADD15R,1.800000X3.200000*%
%ADD16C,1.219200*%
%ADD17R,1.500000X0.450000*%
%ADD18R,0.589100X1.319200*%
%ADD19R,1.200000X0.500000*%
%ADD20R,0.500000X1.200000*%
%ADD21C,1.055600*%
%ADD22C,1.200000*%
%ADD23R,0.789100X0.977200*%
%ADD24R,1.700000X0.750000*%
%ADD25R,0.355600X1.676400*%
%ADD26C,1.030000*%
%ADD27R,1.400000X3.000000*%
%ADD28C,0.705600*%
%ADD29C,0.762000*%
%ADD30C,0.254000*%
%ADD31C,0.508000*%
%ADD32C,0.406400*%

G36*
X786165Y5084D02*
X786165Y5084D01*
X786199Y5082D01*
X786388Y5104D01*
X786579Y5121D01*
X786612Y5130D01*
X786646Y5134D01*
X786829Y5189D01*
X787013Y5239D01*
X787044Y5254D01*
X787077Y5264D01*
X787248Y5351D01*
X787420Y5433D01*
X787448Y5453D01*
X787479Y5468D01*
X787631Y5584D01*
X787786Y5695D01*
X787810Y5720D01*
X787837Y5740D01*
X787966Y5880D01*
X788100Y6017D01*
X788119Y6046D01*
X788143Y6072D01*
X788245Y6233D01*
X788352Y6390D01*
X788366Y6422D01*
X788384Y6451D01*
X788457Y6628D01*
X788534Y6802D01*
X788542Y6836D01*
X788555Y6868D01*
X788595Y7055D01*
X788641Y7240D01*
X788643Y7274D01*
X788650Y7308D01*
X788669Y7620D01*
X788669Y50880D01*
X788666Y50915D01*
X788668Y50949D01*
X788646Y51138D01*
X788629Y51329D01*
X788620Y51362D01*
X788616Y51396D01*
X788561Y51579D01*
X788511Y51763D01*
X788496Y51794D01*
X788486Y51827D01*
X788399Y51998D01*
X788317Y52170D01*
X788297Y52198D01*
X788282Y52229D01*
X788166Y52381D01*
X788055Y52536D01*
X788030Y52560D01*
X788010Y52587D01*
X787870Y52716D01*
X787733Y52850D01*
X787704Y52869D01*
X787678Y52893D01*
X787517Y52995D01*
X787360Y53102D01*
X787328Y53116D01*
X787299Y53134D01*
X787122Y53207D01*
X786948Y53284D01*
X786914Y53292D01*
X786882Y53305D01*
X786695Y53345D01*
X786510Y53391D01*
X786476Y53393D01*
X786442Y53400D01*
X786130Y53419D01*
X786009Y53419D01*
X786009Y60960D01*
X786009Y68501D01*
X786130Y68501D01*
X786165Y68504D01*
X786199Y68502D01*
X786388Y68524D01*
X786579Y68541D01*
X786612Y68550D01*
X786646Y68554D01*
X786829Y68609D01*
X787013Y68659D01*
X787044Y68674D01*
X787077Y68684D01*
X787248Y68771D01*
X787420Y68853D01*
X787448Y68873D01*
X787479Y68888D01*
X787631Y69004D01*
X787786Y69115D01*
X787810Y69140D01*
X787837Y69160D01*
X787966Y69300D01*
X788100Y69437D01*
X788119Y69466D01*
X788143Y69492D01*
X788245Y69653D01*
X788352Y69810D01*
X788366Y69842D01*
X788384Y69871D01*
X788457Y70048D01*
X788534Y70222D01*
X788542Y70256D01*
X788555Y70288D01*
X788595Y70475D01*
X788641Y70660D01*
X788643Y70694D01*
X788650Y70728D01*
X788669Y71040D01*
X788669Y83900D01*
X788666Y83935D01*
X788668Y83969D01*
X788646Y84158D01*
X788629Y84349D01*
X788620Y84382D01*
X788616Y84416D01*
X788561Y84599D01*
X788511Y84783D01*
X788496Y84814D01*
X788486Y84847D01*
X788399Y85018D01*
X788317Y85190D01*
X788297Y85218D01*
X788282Y85249D01*
X788167Y85400D01*
X788055Y85556D01*
X788030Y85580D01*
X788010Y85607D01*
X787870Y85736D01*
X787733Y85870D01*
X787704Y85889D01*
X787678Y85913D01*
X787517Y86015D01*
X787360Y86122D01*
X787328Y86136D01*
X787299Y86154D01*
X787122Y86227D01*
X786948Y86304D01*
X786914Y86312D01*
X786882Y86325D01*
X786695Y86365D01*
X786510Y86411D01*
X786476Y86413D01*
X786442Y86420D01*
X786130Y86439D01*
X786009Y86439D01*
X786009Y93980D01*
X786009Y101521D01*
X786130Y101521D01*
X786165Y101524D01*
X786199Y101522D01*
X786388Y101544D01*
X786579Y101561D01*
X786612Y101570D01*
X786646Y101574D01*
X786829Y101629D01*
X787013Y101679D01*
X787044Y101694D01*
X787077Y101704D01*
X787248Y101791D01*
X787420Y101873D01*
X787448Y101893D01*
X787479Y101908D01*
X787631Y102024D01*
X787786Y102135D01*
X787810Y102160D01*
X787837Y102180D01*
X787966Y102320D01*
X788100Y102457D01*
X788119Y102486D01*
X788143Y102512D01*
X788245Y102673D01*
X788352Y102830D01*
X788366Y102862D01*
X788384Y102891D01*
X788457Y103068D01*
X788534Y103242D01*
X788542Y103276D01*
X788555Y103308D01*
X788595Y103495D01*
X788641Y103680D01*
X788643Y103714D01*
X788650Y103748D01*
X788669Y104060D01*
X788669Y122058D01*
X788668Y122070D01*
X788669Y122082D01*
X788648Y122294D01*
X788629Y122507D01*
X788626Y122518D01*
X788625Y122530D01*
X788567Y122735D01*
X788511Y122941D01*
X788506Y122952D01*
X788503Y122963D01*
X788409Y123156D01*
X788317Y123348D01*
X788311Y123357D01*
X788306Y123368D01*
X788180Y123540D01*
X788055Y123714D01*
X788047Y123722D01*
X788040Y123731D01*
X787886Y123879D01*
X787733Y124028D01*
X787723Y124035D01*
X787715Y124043D01*
X787537Y124161D01*
X787360Y124280D01*
X787349Y124285D01*
X787339Y124291D01*
X787144Y124376D01*
X786948Y124462D01*
X786937Y124465D01*
X786926Y124470D01*
X786718Y124518D01*
X786510Y124569D01*
X786499Y124570D01*
X786488Y124572D01*
X786274Y124584D01*
X786061Y124597D01*
X786050Y124595D01*
X786038Y124596D01*
X785827Y124570D01*
X785614Y124545D01*
X785602Y124541D01*
X785591Y124540D01*
X785390Y124477D01*
X785183Y124414D01*
X785172Y124409D01*
X785161Y124406D01*
X784972Y124307D01*
X784781Y124210D01*
X784772Y124203D01*
X784762Y124198D01*
X784592Y124066D01*
X784423Y123938D01*
X784415Y123930D01*
X784406Y123922D01*
X784261Y123763D01*
X784118Y123607D01*
X784111Y123597D01*
X784104Y123589D01*
X783931Y123328D01*
X781166Y118538D01*
X774509Y112953D01*
X766344Y109981D01*
X757656Y109981D01*
X749491Y112953D01*
X742835Y118538D01*
X738490Y126063D01*
X736981Y134620D01*
X738490Y143177D01*
X742834Y150702D01*
X749491Y156287D01*
X757656Y159259D01*
X766344Y159259D01*
X774509Y156287D01*
X781165Y150702D01*
X783931Y145912D01*
X783938Y145902D01*
X783943Y145892D01*
X784066Y145720D01*
X784190Y145543D01*
X784198Y145535D01*
X784205Y145526D01*
X784359Y145376D01*
X784510Y145227D01*
X784519Y145220D01*
X784527Y145212D01*
X784706Y145091D01*
X784880Y144971D01*
X784891Y144966D01*
X784900Y144960D01*
X785097Y144873D01*
X785290Y144785D01*
X785302Y144782D01*
X785312Y144778D01*
X785519Y144727D01*
X785727Y144674D01*
X785739Y144674D01*
X785750Y144671D01*
X785961Y144658D01*
X786176Y144643D01*
X786188Y144644D01*
X786199Y144643D01*
X786412Y144668D01*
X786624Y144691D01*
X786635Y144694D01*
X786646Y144695D01*
X786853Y144758D01*
X787056Y144817D01*
X787066Y144822D01*
X787077Y144826D01*
X787268Y144923D01*
X787459Y145018D01*
X787468Y145025D01*
X787479Y145030D01*
X787648Y145158D01*
X787820Y145287D01*
X787828Y145295D01*
X787837Y145302D01*
X787982Y145458D01*
X788128Y145615D01*
X788135Y145625D01*
X788143Y145633D01*
X788258Y145814D01*
X788374Y145992D01*
X788378Y146003D01*
X788384Y146013D01*
X788466Y146212D01*
X788548Y146407D01*
X788551Y146419D01*
X788555Y146429D01*
X788600Y146639D01*
X788647Y146847D01*
X788648Y146858D01*
X788650Y146870D01*
X788669Y147182D01*
X788669Y170243D01*
X788658Y170373D01*
X788656Y170503D01*
X788638Y170596D01*
X788629Y170691D01*
X788595Y170817D01*
X788570Y170945D01*
X788536Y171034D01*
X788511Y171126D01*
X788455Y171243D01*
X788408Y171365D01*
X788358Y171446D01*
X788317Y171532D01*
X788242Y171638D01*
X788174Y171749D01*
X788111Y171821D01*
X788055Y171899D01*
X787962Y171989D01*
X787876Y172087D01*
X787801Y172146D01*
X787733Y172213D01*
X787625Y172286D01*
X787523Y172366D01*
X787439Y172411D01*
X787360Y172465D01*
X787241Y172517D01*
X787126Y172579D01*
X787035Y172608D01*
X786948Y172647D01*
X786821Y172678D01*
X786698Y172718D01*
X786603Y172731D01*
X786510Y172754D01*
X786381Y172762D01*
X786252Y172779D01*
X786156Y172775D01*
X786061Y172781D01*
X785932Y172766D01*
X785802Y172761D01*
X785709Y172740D01*
X785614Y172729D01*
X785489Y172692D01*
X785362Y172663D01*
X785274Y172627D01*
X785183Y172599D01*
X785067Y172540D01*
X784947Y172490D01*
X784867Y172438D01*
X784781Y172395D01*
X784678Y172316D01*
X784569Y172245D01*
X784471Y172159D01*
X784423Y172123D01*
X784392Y172090D01*
X784334Y172038D01*
X780362Y168066D01*
X775040Y165861D01*
X769280Y165861D01*
X763958Y168066D01*
X761256Y170768D01*
X761229Y170791D01*
X761206Y170817D01*
X761057Y170935D01*
X760910Y171057D01*
X760880Y171075D01*
X760853Y171096D01*
X760685Y171186D01*
X760519Y171281D01*
X760487Y171292D01*
X760456Y171309D01*
X760275Y171368D01*
X760095Y171432D01*
X760061Y171437D01*
X760028Y171448D01*
X759839Y171474D01*
X759651Y171505D01*
X759616Y171505D01*
X759582Y171509D01*
X759391Y171502D01*
X759200Y171499D01*
X759166Y171492D01*
X759132Y171491D01*
X758946Y171450D01*
X758758Y171413D01*
X758726Y171401D01*
X758692Y171393D01*
X758517Y171320D01*
X758338Y171251D01*
X758309Y171233D01*
X758277Y171220D01*
X758117Y171116D01*
X757954Y171017D01*
X757928Y170994D01*
X757899Y170975D01*
X757664Y170768D01*
X754962Y168066D01*
X749640Y165861D01*
X743880Y165861D01*
X738558Y168066D01*
X734486Y172138D01*
X732281Y177460D01*
X732281Y183220D01*
X732399Y183503D01*
X732462Y183706D01*
X732528Y183907D01*
X732529Y183920D01*
X732533Y183933D01*
X732560Y184142D01*
X732589Y184353D01*
X732588Y184367D01*
X732590Y184379D01*
X732579Y184590D01*
X732571Y184803D01*
X732568Y184816D01*
X732567Y184829D01*
X732519Y185035D01*
X732473Y185243D01*
X732468Y185255D01*
X732465Y185268D01*
X732382Y185461D01*
X732299Y185658D01*
X732292Y185669D01*
X732287Y185681D01*
X732171Y185857D01*
X732055Y186036D01*
X732045Y186048D01*
X732039Y186057D01*
X732012Y186086D01*
X731848Y186271D01*
X678423Y239696D01*
X678297Y239801D01*
X678176Y239913D01*
X678125Y239945D01*
X678078Y239984D01*
X677935Y240066D01*
X677796Y240154D01*
X677740Y240178D01*
X677687Y240208D01*
X677532Y240263D01*
X677380Y240325D01*
X677320Y240338D01*
X677263Y240359D01*
X677100Y240385D01*
X676940Y240420D01*
X676863Y240425D01*
X676818Y240432D01*
X676757Y240431D01*
X676628Y240439D01*
X529706Y240439D01*
X529576Y240428D01*
X529446Y240426D01*
X529352Y240408D01*
X529257Y240399D01*
X529132Y240365D01*
X529004Y240340D01*
X528915Y240306D01*
X528823Y240281D01*
X528706Y240225D01*
X528584Y240178D01*
X528502Y240128D01*
X528416Y240087D01*
X528310Y240012D01*
X528199Y239944D01*
X528128Y239881D01*
X528050Y239825D01*
X527959Y239732D01*
X527862Y239646D01*
X527803Y239571D01*
X527736Y239503D01*
X527663Y239395D01*
X527582Y239293D01*
X527537Y239209D01*
X527484Y239130D01*
X527431Y239011D01*
X527370Y238896D01*
X527340Y238805D01*
X527302Y238718D01*
X527271Y238591D01*
X527231Y238468D01*
X527218Y238373D01*
X527195Y238280D01*
X527187Y238151D01*
X527169Y238022D01*
X527173Y237926D01*
X527167Y237831D01*
X527182Y237702D01*
X527188Y237572D01*
X527208Y237479D01*
X527219Y237384D01*
X527257Y237259D01*
X527285Y237132D01*
X527322Y237044D01*
X527350Y236953D01*
X527409Y236837D01*
X527459Y236717D01*
X527511Y236637D01*
X527554Y236551D01*
X527633Y236448D01*
X527703Y236339D01*
X527789Y236241D01*
X527826Y236193D01*
X527859Y236162D01*
X527910Y236104D01*
X530538Y233476D01*
X531841Y230331D01*
X531895Y230228D01*
X531940Y230120D01*
X531999Y230029D01*
X532049Y229932D01*
X532121Y229840D01*
X532184Y229742D01*
X532287Y229626D01*
X532325Y229576D01*
X532352Y229552D01*
X532391Y229508D01*
X613272Y148627D01*
X615630Y146269D01*
X616713Y143655D01*
X616713Y120129D01*
X616723Y120013D01*
X616723Y119896D01*
X616743Y119789D01*
X616753Y119681D01*
X616783Y119568D01*
X616804Y119453D01*
X616855Y119307D01*
X616871Y119246D01*
X616887Y119214D01*
X616906Y119157D01*
X618209Y116012D01*
X618209Y112588D01*
X616898Y109424D01*
X614476Y107002D01*
X611312Y105691D01*
X607888Y105691D01*
X604724Y107002D01*
X602302Y109424D01*
X600991Y112588D01*
X600991Y116012D01*
X602294Y119157D01*
X602329Y119269D01*
X602373Y119377D01*
X602396Y119483D01*
X602429Y119587D01*
X602443Y119703D01*
X602468Y119817D01*
X602478Y119971D01*
X602485Y120034D01*
X602484Y120070D01*
X602487Y120129D01*
X602487Y138242D01*
X602473Y138406D01*
X602466Y138570D01*
X602453Y138630D01*
X602447Y138691D01*
X602404Y138849D01*
X602368Y139010D01*
X602345Y139066D01*
X602329Y139125D01*
X602258Y139273D01*
X602195Y139425D01*
X602162Y139477D01*
X602135Y139532D01*
X602040Y139665D01*
X601950Y139803D01*
X601899Y139861D01*
X601873Y139898D01*
X601830Y139940D01*
X601744Y140038D01*
X522332Y219449D01*
X522243Y219524D01*
X522160Y219606D01*
X522071Y219668D01*
X521987Y219738D01*
X521886Y219796D01*
X521789Y219862D01*
X521651Y219930D01*
X521596Y219961D01*
X521562Y219973D01*
X521509Y219999D01*
X518364Y221302D01*
X515942Y223724D01*
X514631Y226888D01*
X514631Y230312D01*
X515942Y233476D01*
X518570Y236104D01*
X518653Y236204D01*
X518744Y236297D01*
X518798Y236377D01*
X518859Y236450D01*
X518923Y236563D01*
X518996Y236670D01*
X519035Y236758D01*
X519082Y236841D01*
X519126Y236963D01*
X519178Y237082D01*
X519201Y237175D01*
X519233Y237265D01*
X519254Y237393D01*
X519285Y237520D01*
X519291Y237615D01*
X519306Y237709D01*
X519305Y237839D01*
X519313Y237969D01*
X519302Y238064D01*
X519300Y238160D01*
X519276Y238287D01*
X519261Y238416D01*
X519233Y238508D01*
X519215Y238602D01*
X519168Y238723D01*
X519130Y238847D01*
X519087Y238933D01*
X519053Y239022D01*
X518985Y239133D01*
X518926Y239249D01*
X518868Y239325D01*
X518819Y239406D01*
X518732Y239504D01*
X518654Y239607D01*
X518584Y239672D01*
X518520Y239744D01*
X518418Y239824D01*
X518323Y239913D01*
X518242Y239964D01*
X518167Y240023D01*
X518053Y240084D01*
X517943Y240154D01*
X517855Y240191D01*
X517770Y240236D01*
X517647Y240276D01*
X517527Y240325D01*
X517433Y240345D01*
X517342Y240375D01*
X517214Y240393D01*
X517086Y240420D01*
X516957Y240428D01*
X516896Y240436D01*
X516851Y240435D01*
X516774Y240439D01*
X503860Y240439D01*
X503825Y240436D01*
X503791Y240438D01*
X503602Y240416D01*
X503411Y240399D01*
X503378Y240390D01*
X503344Y240386D01*
X503161Y240331D01*
X502977Y240281D01*
X502946Y240266D01*
X502913Y240256D01*
X502742Y240169D01*
X502570Y240087D01*
X502542Y240067D01*
X502511Y240052D01*
X502359Y239936D01*
X502204Y239825D01*
X502180Y239800D01*
X502153Y239780D01*
X502024Y239640D01*
X501890Y239503D01*
X501871Y239474D01*
X501847Y239448D01*
X501745Y239287D01*
X501638Y239130D01*
X501624Y239098D01*
X501606Y239069D01*
X501533Y238892D01*
X501456Y238718D01*
X501448Y238684D01*
X501435Y238652D01*
X501395Y238465D01*
X501349Y238280D01*
X501347Y238246D01*
X501340Y238212D01*
X501321Y237900D01*
X501321Y230529D01*
X500547Y228662D01*
X499118Y227233D01*
X497251Y226459D01*
X491442Y226459D01*
X491279Y226445D01*
X491114Y226438D01*
X491055Y226425D01*
X490994Y226419D01*
X490835Y226376D01*
X490675Y226340D01*
X490618Y226317D01*
X490559Y226301D01*
X490411Y226230D01*
X490259Y226167D01*
X490208Y226134D01*
X490153Y226107D01*
X490019Y226012D01*
X489881Y225922D01*
X489823Y225871D01*
X489787Y225845D01*
X489744Y225802D01*
X489647Y225716D01*
X486751Y222820D01*
X484607Y220676D01*
X482273Y219709D01*
X438488Y219709D01*
X438453Y219706D01*
X438419Y219708D01*
X438230Y219686D01*
X438039Y219669D01*
X438006Y219660D01*
X437972Y219656D01*
X437789Y219601D01*
X437605Y219551D01*
X437574Y219536D01*
X437541Y219526D01*
X437370Y219439D01*
X437198Y219357D01*
X437170Y219337D01*
X437139Y219322D01*
X436987Y219206D01*
X436832Y219095D01*
X436808Y219070D01*
X436781Y219050D01*
X436652Y218910D01*
X436518Y218773D01*
X436499Y218744D01*
X436475Y218718D01*
X436373Y218557D01*
X436266Y218400D01*
X436252Y218368D01*
X436234Y218339D01*
X436161Y218162D01*
X436084Y217988D01*
X436076Y217954D01*
X436063Y217922D01*
X436023Y217735D01*
X435977Y217550D01*
X435975Y217516D01*
X435968Y217482D01*
X435949Y217170D01*
X435949Y214975D01*
X434982Y212641D01*
X434662Y212321D01*
X434548Y212184D01*
X434429Y212052D01*
X434404Y212012D01*
X434373Y211975D01*
X434285Y211821D01*
X434191Y211670D01*
X434173Y211626D01*
X434150Y211584D01*
X434090Y211417D01*
X434024Y211252D01*
X434015Y211205D01*
X433999Y211160D01*
X433970Y210985D01*
X433934Y210811D01*
X433933Y210763D01*
X433925Y210716D01*
X433927Y210558D01*
X433805Y210548D01*
X433627Y210541D01*
X433580Y210530D01*
X433533Y210527D01*
X433361Y210482D01*
X433187Y210443D01*
X433143Y210425D01*
X433097Y210413D01*
X432936Y210338D01*
X432772Y210269D01*
X432732Y210243D01*
X432688Y210223D01*
X432543Y210122D01*
X432394Y210025D01*
X432349Y209986D01*
X432320Y209965D01*
X432275Y209921D01*
X432159Y209818D01*
X420832Y198491D01*
X420727Y198365D01*
X420615Y198244D01*
X420583Y198193D01*
X420544Y198146D01*
X420462Y198003D01*
X420374Y197864D01*
X420350Y197808D01*
X420320Y197755D01*
X420265Y197600D01*
X420203Y197448D01*
X420190Y197388D01*
X420169Y197331D01*
X420143Y197168D01*
X420108Y197008D01*
X420103Y196931D01*
X420096Y196886D01*
X420097Y196825D01*
X420089Y196696D01*
X420089Y196408D01*
X418778Y193244D01*
X416356Y190822D01*
X413192Y189511D01*
X411617Y189511D01*
X411405Y189492D01*
X411194Y189476D01*
X411182Y189473D01*
X411168Y189471D01*
X410963Y189415D01*
X410759Y189362D01*
X410747Y189356D01*
X410734Y189353D01*
X410544Y189263D01*
X410350Y189173D01*
X410339Y189165D01*
X410327Y189159D01*
X410156Y189037D01*
X409981Y188914D01*
X409972Y188905D01*
X409961Y188897D01*
X409813Y188745D01*
X409664Y188595D01*
X409656Y188584D01*
X409647Y188575D01*
X409528Y188398D01*
X409408Y188225D01*
X409401Y188210D01*
X409395Y188202D01*
X409379Y188165D01*
X409271Y187944D01*
X409244Y187879D01*
X407100Y185735D01*
X392559Y171194D01*
X392536Y171167D01*
X392511Y171144D01*
X392393Y170995D01*
X392270Y170848D01*
X392253Y170818D01*
X392231Y170791D01*
X392141Y170623D01*
X392047Y170457D01*
X392035Y170425D01*
X392019Y170394D01*
X391960Y170213D01*
X391896Y170033D01*
X391890Y169999D01*
X391879Y169966D01*
X391853Y169777D01*
X391822Y169589D01*
X391823Y169554D01*
X391818Y169520D01*
X391826Y169329D01*
X391828Y169139D01*
X391835Y169104D01*
X391836Y169070D01*
X391878Y168884D01*
X391914Y168696D01*
X391926Y168664D01*
X391934Y168630D01*
X392007Y168454D01*
X392076Y168276D01*
X392094Y168247D01*
X392108Y168215D01*
X392211Y168055D01*
X392310Y167892D01*
X392333Y167866D01*
X392352Y167837D01*
X392559Y167602D01*
X394118Y166043D01*
X394144Y166021D01*
X394167Y165995D01*
X394317Y165877D01*
X394463Y165755D01*
X394493Y165737D01*
X394520Y165716D01*
X394689Y165626D01*
X394854Y165531D01*
X394887Y165520D01*
X394917Y165503D01*
X395099Y165444D01*
X395278Y165380D01*
X395313Y165375D01*
X395346Y165364D01*
X395535Y165338D01*
X395723Y165307D01*
X395757Y165307D01*
X395792Y165303D01*
X395982Y165310D01*
X396173Y165313D01*
X396207Y165320D01*
X396242Y165321D01*
X396428Y165362D01*
X396615Y165399D01*
X396647Y165411D01*
X396681Y165419D01*
X396857Y165492D01*
X397035Y165561D01*
X397065Y165579D01*
X397097Y165592D01*
X397257Y165696D01*
X397420Y165795D01*
X397446Y165818D01*
X397475Y165836D01*
X397709Y166043D01*
X398984Y167318D01*
X402148Y168629D01*
X405572Y168629D01*
X408323Y167489D01*
X408480Y167440D01*
X408635Y167383D01*
X408695Y167373D01*
X408753Y167354D01*
X408916Y167334D01*
X409078Y167305D01*
X409139Y167305D01*
X409200Y167298D01*
X409364Y167306D01*
X409528Y167307D01*
X409588Y167318D01*
X409649Y167321D01*
X409809Y167358D01*
X409971Y167388D01*
X410044Y167413D01*
X410088Y167423D01*
X410144Y167447D01*
X410267Y167489D01*
X410439Y167561D01*
X423461Y167561D01*
X424088Y167301D01*
X424167Y167276D01*
X424242Y167243D01*
X424381Y167209D01*
X424518Y167166D01*
X424600Y167156D01*
X424680Y167136D01*
X424822Y167127D01*
X424965Y167109D01*
X425047Y167113D01*
X425129Y167108D01*
X425271Y167125D01*
X425414Y167132D01*
X425494Y167151D01*
X425576Y167160D01*
X425714Y167202D01*
X425853Y167234D01*
X425928Y167267D01*
X426007Y167291D01*
X426135Y167356D01*
X426266Y167412D01*
X426335Y167458D01*
X426409Y167495D01*
X426522Y167581D01*
X426642Y167661D01*
X426702Y167717D01*
X426767Y167767D01*
X426864Y167872D01*
X426968Y167971D01*
X427017Y168038D01*
X427073Y168098D01*
X427149Y168219D01*
X427234Y168335D01*
X427270Y168409D01*
X427314Y168478D01*
X427369Y168610D01*
X427432Y168739D01*
X427454Y168819D01*
X427485Y168895D01*
X427515Y169035D01*
X427555Y169172D01*
X427563Y169254D01*
X427580Y169335D01*
X427595Y169581D01*
X427599Y169620D01*
X427598Y169631D01*
X427599Y169647D01*
X427599Y184143D01*
X428566Y186477D01*
X430710Y188621D01*
X433289Y191200D01*
X434696Y192607D01*
X434801Y192733D01*
X434913Y192854D01*
X434945Y192905D01*
X434984Y192952D01*
X435066Y193095D01*
X435154Y193234D01*
X435178Y193290D01*
X435208Y193343D01*
X435263Y193498D01*
X435325Y193650D01*
X435338Y193710D01*
X435359Y193767D01*
X435385Y193930D01*
X435420Y194090D01*
X435425Y194167D01*
X435432Y194212D01*
X435431Y194273D01*
X435439Y194402D01*
X435439Y204971D01*
X436301Y207051D01*
X436354Y207221D01*
X436414Y207388D01*
X436421Y207435D01*
X436436Y207481D01*
X436458Y207657D01*
X436487Y207832D01*
X436486Y207880D01*
X436492Y207927D01*
X436489Y207995D01*
X436513Y207996D01*
X436691Y207996D01*
X436738Y208005D01*
X436785Y208007D01*
X436959Y208045D01*
X437134Y208077D01*
X437190Y208097D01*
X437225Y208105D01*
X437283Y208129D01*
X437429Y208179D01*
X439509Y209041D01*
X459531Y209041D01*
X461398Y208267D01*
X462827Y206838D01*
X463601Y204971D01*
X463601Y170949D01*
X462714Y168810D01*
X462629Y168660D01*
X462617Y168627D01*
X462601Y168596D01*
X462542Y168416D01*
X462540Y168411D01*
X462539Y168406D01*
X462478Y168236D01*
X462472Y168201D01*
X462461Y168168D01*
X462437Y167988D01*
X462433Y167973D01*
X462432Y167960D01*
X462404Y167792D01*
X462405Y167757D01*
X462400Y167722D01*
X462407Y167551D01*
X462405Y167524D01*
X462408Y167499D01*
X462410Y167341D01*
X462417Y167307D01*
X462418Y167272D01*
X462453Y167118D01*
X462457Y167076D01*
X462469Y167039D01*
X462496Y166899D01*
X462508Y166866D01*
X462516Y166832D01*
X462571Y166700D01*
X462588Y166645D01*
X462612Y166597D01*
X462658Y166479D01*
X462676Y166449D01*
X462690Y166417D01*
X462758Y166310D01*
X462792Y166244D01*
X462835Y166187D01*
X462892Y166094D01*
X462915Y166068D01*
X462934Y166039D01*
X463032Y165927D01*
X463064Y165885D01*
X463090Y165861D01*
X463097Y165853D01*
X463105Y165845D01*
X463141Y165804D01*
X463181Y165764D01*
X463189Y165757D01*
X463190Y165757D01*
X463192Y165755D01*
X463307Y165659D01*
X463428Y165547D01*
X463479Y165515D01*
X463526Y165476D01*
X463669Y165394D01*
X463808Y165306D01*
X463864Y165282D01*
X463917Y165252D01*
X464072Y165197D01*
X464224Y165135D01*
X464284Y165122D01*
X464341Y165101D01*
X464504Y165075D01*
X464664Y165040D01*
X464741Y165035D01*
X464786Y165028D01*
X464847Y165029D01*
X464976Y165021D01*
X468241Y165021D01*
X468241Y157480D01*
X468241Y149939D01*
X464976Y149939D01*
X464813Y149925D01*
X464648Y149918D01*
X464589Y149905D01*
X464528Y149899D01*
X464369Y149856D01*
X464209Y149820D01*
X464152Y149797D01*
X464093Y149781D01*
X463945Y149710D01*
X463793Y149647D01*
X463742Y149614D01*
X463687Y149587D01*
X463553Y149492D01*
X463415Y149402D01*
X463357Y149351D01*
X463321Y149325D01*
X463278Y149282D01*
X463181Y149196D01*
X462158Y148173D01*
X461698Y147982D01*
X461510Y147884D01*
X461321Y147788D01*
X461311Y147780D01*
X461299Y147774D01*
X461131Y147644D01*
X460963Y147516D01*
X460954Y147506D01*
X460943Y147498D01*
X460801Y147341D01*
X460657Y147185D01*
X460650Y147174D01*
X460642Y147164D01*
X460530Y146984D01*
X460416Y146805D01*
X460411Y146793D01*
X460404Y146782D01*
X460326Y146585D01*
X460245Y146388D01*
X460242Y146375D01*
X460237Y146363D01*
X460195Y146156D01*
X460150Y145948D01*
X460149Y145932D01*
X460147Y145922D01*
X460146Y145883D01*
X460131Y145636D01*
X460131Y129937D01*
X459855Y129272D01*
X459831Y129193D01*
X459797Y129118D01*
X459763Y128978D01*
X459721Y128842D01*
X459710Y128760D01*
X459691Y128680D01*
X459682Y128538D01*
X459664Y128395D01*
X459668Y128313D01*
X459663Y128231D01*
X459679Y128089D01*
X459687Y127946D01*
X459705Y127865D01*
X459715Y127784D01*
X459756Y127647D01*
X459789Y127507D01*
X459821Y127432D01*
X459845Y127353D01*
X459910Y127225D01*
X459967Y127094D01*
X460012Y127025D01*
X460050Y126951D01*
X460136Y126838D01*
X460215Y126718D01*
X460272Y126658D01*
X460322Y126593D01*
X460427Y126496D01*
X460526Y126392D01*
X460592Y126343D01*
X460653Y126287D01*
X460774Y126211D01*
X460889Y126126D01*
X460963Y126090D01*
X461033Y126046D01*
X461165Y125991D01*
X461294Y125928D01*
X461373Y125906D01*
X461449Y125875D01*
X461589Y125845D01*
X461727Y125805D01*
X461809Y125797D01*
X461889Y125780D01*
X462135Y125765D01*
X462175Y125761D01*
X462186Y125762D01*
X462201Y125761D01*
X463211Y125761D01*
X465078Y124987D01*
X466507Y123558D01*
X466698Y123098D01*
X466796Y122910D01*
X466892Y122721D01*
X466900Y122711D01*
X466906Y122699D01*
X467036Y122531D01*
X467164Y122363D01*
X467174Y122354D01*
X467182Y122343D01*
X467339Y122201D01*
X467495Y122057D01*
X467506Y122050D01*
X467516Y122042D01*
X467696Y121930D01*
X467875Y121816D01*
X467887Y121811D01*
X467898Y121804D01*
X468095Y121726D01*
X468292Y121645D01*
X468305Y121642D01*
X468317Y121637D01*
X468524Y121595D01*
X468732Y121550D01*
X468748Y121549D01*
X468758Y121547D01*
X468797Y121546D01*
X469044Y121531D01*
X482092Y121531D01*
X482127Y121534D01*
X482161Y121532D01*
X482350Y121554D01*
X482541Y121571D01*
X482574Y121580D01*
X482608Y121584D01*
X482791Y121639D01*
X482975Y121689D01*
X483006Y121704D01*
X483039Y121714D01*
X483210Y121801D01*
X483382Y121883D01*
X483410Y121903D01*
X483441Y121918D01*
X483593Y122034D01*
X483748Y122145D01*
X483772Y122170D01*
X483799Y122190D01*
X483928Y122330D01*
X484062Y122467D01*
X484081Y122496D01*
X484105Y122522D01*
X484207Y122683D01*
X484314Y122840D01*
X484328Y122872D01*
X484346Y122901D01*
X484419Y123078D01*
X484496Y123252D01*
X484504Y123286D01*
X484517Y123318D01*
X484557Y123505D01*
X484603Y123690D01*
X484605Y123724D01*
X484612Y123758D01*
X484631Y124070D01*
X484631Y144956D01*
X484612Y145168D01*
X484596Y145379D01*
X484593Y145391D01*
X484591Y145405D01*
X484536Y145607D01*
X484482Y145814D01*
X484476Y145826D01*
X484473Y145839D01*
X484383Y146029D01*
X484293Y146223D01*
X484285Y146234D01*
X484279Y146246D01*
X484157Y146417D01*
X484034Y146592D01*
X484025Y146601D01*
X484017Y146612D01*
X483865Y146760D01*
X483715Y146909D01*
X483704Y146917D01*
X483695Y146926D01*
X483519Y147045D01*
X483345Y147165D01*
X483330Y147172D01*
X483322Y147178D01*
X483285Y147194D01*
X483064Y147302D01*
X480962Y148173D01*
X479687Y149448D01*
X479651Y149478D01*
X479620Y149512D01*
X479479Y149622D01*
X479341Y149737D01*
X479301Y149760D01*
X479265Y149788D01*
X479106Y149872D01*
X478950Y149960D01*
X478907Y149976D01*
X478866Y149997D01*
X478695Y150051D01*
X478526Y150111D01*
X478480Y150119D01*
X478436Y150133D01*
X478259Y150155D01*
X478082Y150185D01*
X478036Y150184D01*
X477990Y150190D01*
X477811Y150181D01*
X477632Y150179D01*
X477586Y150170D01*
X477540Y150167D01*
X477234Y150105D01*
X476614Y149939D01*
X473319Y149939D01*
X473319Y157480D01*
X473319Y165021D01*
X476614Y165021D01*
X477234Y164855D01*
X477279Y164847D01*
X477323Y164832D01*
X477501Y164808D01*
X477677Y164777D01*
X477724Y164777D01*
X477769Y164771D01*
X477949Y164778D01*
X478128Y164779D01*
X478173Y164788D01*
X478219Y164789D01*
X478394Y164828D01*
X478571Y164861D01*
X478614Y164877D01*
X478659Y164887D01*
X478824Y164956D01*
X478992Y165019D01*
X479032Y165043D01*
X479074Y165061D01*
X479225Y165158D01*
X479379Y165250D01*
X479414Y165280D01*
X479453Y165305D01*
X479687Y165512D01*
X480962Y166787D01*
X482829Y167561D01*
X491759Y167561D01*
X491900Y167573D01*
X492042Y167576D01*
X492124Y167593D01*
X492208Y167601D01*
X492344Y167638D01*
X492483Y167666D01*
X492561Y167697D01*
X492642Y167719D01*
X492770Y167780D01*
X492901Y167832D01*
X492973Y167876D01*
X493049Y167913D01*
X493164Y167995D01*
X493284Y168070D01*
X493347Y168126D01*
X493415Y168175D01*
X493513Y168276D01*
X493619Y168371D01*
X493670Y168437D01*
X493729Y168497D01*
X493808Y168615D01*
X493895Y168726D01*
X493934Y168801D01*
X493981Y168870D01*
X494038Y169000D01*
X494104Y169125D01*
X494129Y169205D01*
X494163Y169282D01*
X494197Y169420D01*
X494239Y169555D01*
X494250Y169638D01*
X494270Y169720D01*
X494278Y169861D01*
X494297Y170001D01*
X494292Y170085D01*
X494298Y170169D01*
X494281Y170310D01*
X494274Y170451D01*
X494252Y170560D01*
X494245Y170616D01*
X494238Y170642D01*
X494237Y170648D01*
X494228Y170677D01*
X494212Y170757D01*
X493979Y171625D01*
X493979Y183461D01*
X501021Y183461D01*
X501021Y167560D01*
X501023Y167539D01*
X501022Y167524D01*
X501023Y167512D01*
X501022Y167491D01*
X501044Y167302D01*
X501061Y167111D01*
X501070Y167078D01*
X501074Y167044D01*
X501129Y166861D01*
X501179Y166677D01*
X501194Y166646D01*
X501204Y166613D01*
X501291Y166442D01*
X501373Y166270D01*
X501393Y166242D01*
X501408Y166211D01*
X501524Y166059D01*
X501635Y165904D01*
X501660Y165880D01*
X501680Y165853D01*
X501820Y165724D01*
X501957Y165590D01*
X501986Y165571D01*
X502012Y165547D01*
X502173Y165445D01*
X502330Y165338D01*
X502362Y165324D01*
X502391Y165306D01*
X502568Y165233D01*
X502742Y165156D01*
X502776Y165148D01*
X502808Y165135D01*
X502994Y165095D01*
X503180Y165049D01*
X503214Y165047D01*
X503248Y165040D01*
X503560Y165021D01*
X503801Y165021D01*
X503801Y157480D01*
X503801Y149939D01*
X500536Y149939D01*
X500373Y149925D01*
X500208Y149918D01*
X500149Y149905D01*
X500088Y149899D01*
X499929Y149856D01*
X499769Y149820D01*
X499712Y149797D01*
X499653Y149781D01*
X499505Y149710D01*
X499353Y149647D01*
X499302Y149614D01*
X499247Y149587D01*
X499113Y149492D01*
X498975Y149402D01*
X498917Y149351D01*
X498881Y149325D01*
X498838Y149282D01*
X498741Y149196D01*
X498076Y148531D01*
X497971Y148405D01*
X497859Y148284D01*
X497827Y148233D01*
X497788Y148186D01*
X497706Y148043D01*
X497618Y147904D01*
X497594Y147848D01*
X497564Y147795D01*
X497509Y147640D01*
X497447Y147488D01*
X497434Y147428D01*
X497413Y147371D01*
X497387Y147208D01*
X497352Y147048D01*
X497347Y146971D01*
X497340Y146926D01*
X497341Y146865D01*
X497333Y146736D01*
X497333Y122469D01*
X497347Y122306D01*
X497354Y122141D01*
X497367Y122082D01*
X497373Y122021D01*
X497416Y121862D01*
X497452Y121702D01*
X497475Y121645D01*
X497491Y121587D01*
X497562Y121438D01*
X497625Y121286D01*
X497658Y121235D01*
X497685Y121180D01*
X497780Y121047D01*
X497870Y120908D01*
X497921Y120850D01*
X497947Y120814D01*
X497990Y120771D01*
X498076Y120674D01*
X499655Y119095D01*
X501213Y115335D01*
X501213Y111265D01*
X499655Y107505D01*
X496777Y104627D01*
X493017Y103069D01*
X488947Y103069D01*
X485187Y104627D01*
X482257Y107557D01*
X482215Y107639D01*
X482207Y107649D01*
X482201Y107661D01*
X482071Y107829D01*
X481943Y107997D01*
X481933Y108006D01*
X481925Y108017D01*
X481768Y108159D01*
X481612Y108303D01*
X481601Y108310D01*
X481591Y108318D01*
X481411Y108431D01*
X481232Y108544D01*
X481220Y108549D01*
X481209Y108556D01*
X481012Y108635D01*
X480816Y108715D01*
X480803Y108718D01*
X480790Y108723D01*
X480584Y108765D01*
X480375Y108810D01*
X480360Y108811D01*
X480349Y108813D01*
X480310Y108814D01*
X480064Y108829D01*
X469367Y108829D01*
X469285Y108822D01*
X469202Y108824D01*
X469061Y108802D01*
X468918Y108789D01*
X468839Y108768D01*
X468757Y108755D01*
X468622Y108709D01*
X468484Y108671D01*
X468410Y108636D01*
X468331Y108609D01*
X468206Y108539D01*
X468077Y108477D01*
X468010Y108430D01*
X467938Y108389D01*
X467828Y108299D01*
X467711Y108215D01*
X467654Y108156D01*
X467590Y108104D01*
X467497Y107995D01*
X467397Y107893D01*
X467351Y107824D01*
X467297Y107762D01*
X467225Y107638D01*
X467145Y107520D01*
X467112Y107444D01*
X467070Y107373D01*
X467021Y107239D01*
X466963Y107108D01*
X466943Y107028D01*
X466915Y106950D01*
X466890Y106809D01*
X466856Y106670D01*
X466851Y106588D01*
X466837Y106507D01*
X466837Y106364D01*
X466828Y106221D01*
X466838Y106139D01*
X466838Y106057D01*
X466864Y105916D01*
X466880Y105774D01*
X466904Y105695D01*
X466919Y105614D01*
X466999Y105381D01*
X467011Y105343D01*
X467016Y105333D01*
X467021Y105318D01*
X467281Y104691D01*
X467281Y91669D01*
X467062Y91142D01*
X467013Y90985D01*
X466956Y90830D01*
X466946Y90770D01*
X466927Y90712D01*
X466907Y90549D01*
X466878Y90387D01*
X466878Y90326D01*
X466871Y90265D01*
X466879Y90101D01*
X466880Y89937D01*
X466891Y89877D01*
X466894Y89816D01*
X466931Y89656D01*
X466961Y89494D01*
X466986Y89421D01*
X466996Y89377D01*
X467020Y89321D01*
X467062Y89198D01*
X467281Y88671D01*
X467281Y75649D01*
X466859Y74632D01*
X466810Y74475D01*
X466753Y74320D01*
X466743Y74260D01*
X466724Y74202D01*
X466704Y74039D01*
X466675Y73877D01*
X466675Y73816D01*
X466668Y73755D01*
X466676Y73591D01*
X466675Y73571D01*
X466676Y73560D01*
X466677Y73427D01*
X466688Y73367D01*
X466691Y73306D01*
X466721Y73176D01*
X466727Y73124D01*
X466739Y73083D01*
X466758Y72984D01*
X466783Y72911D01*
X466793Y72867D01*
X466817Y72811D01*
X466856Y72698D01*
X466857Y72693D01*
X466858Y72692D01*
X466859Y72688D01*
X466971Y72418D01*
X467069Y72231D01*
X467165Y72041D01*
X467173Y72031D01*
X467180Y72019D01*
X467309Y71852D01*
X467437Y71683D01*
X467447Y71674D01*
X467455Y71663D01*
X467613Y71521D01*
X467769Y71377D01*
X467780Y71370D01*
X467790Y71361D01*
X467970Y71249D01*
X468148Y71136D01*
X468161Y71131D01*
X468172Y71124D01*
X468369Y71045D01*
X468565Y70965D01*
X468578Y70962D01*
X468590Y70957D01*
X468797Y70915D01*
X469005Y70870D01*
X469021Y70869D01*
X469031Y70867D01*
X469071Y70866D01*
X469317Y70851D01*
X481813Y70851D01*
X481976Y70865D01*
X482141Y70872D01*
X482200Y70885D01*
X482261Y70891D01*
X482420Y70934D01*
X482580Y70970D01*
X482637Y70993D01*
X482695Y71009D01*
X482844Y71080D01*
X482996Y71143D01*
X483047Y71176D01*
X483102Y71203D01*
X483235Y71298D01*
X483374Y71388D01*
X483432Y71439D01*
X483468Y71465D01*
X483511Y71508D01*
X483608Y71594D01*
X485187Y73173D01*
X488947Y74731D01*
X493017Y74731D01*
X496777Y73173D01*
X499655Y70295D01*
X501213Y66535D01*
X501213Y62465D01*
X499655Y58705D01*
X498076Y57126D01*
X497971Y57000D01*
X497859Y56879D01*
X497827Y56827D01*
X497788Y56781D01*
X497706Y56638D01*
X497618Y56499D01*
X497594Y56443D01*
X497564Y56390D01*
X497509Y56235D01*
X497447Y56083D01*
X497434Y56023D01*
X497413Y55966D01*
X497387Y55803D01*
X497352Y55642D01*
X497347Y55565D01*
X497340Y55521D01*
X497341Y55461D01*
X497333Y55331D01*
X497333Y31064D01*
X497347Y30901D01*
X497354Y30736D01*
X497367Y30677D01*
X497373Y30616D01*
X497416Y30457D01*
X497452Y30297D01*
X497475Y30240D01*
X497491Y30181D01*
X497562Y30033D01*
X497625Y29881D01*
X497658Y29830D01*
X497685Y29775D01*
X497780Y29641D01*
X497870Y29503D01*
X497921Y29445D01*
X497947Y29409D01*
X497990Y29366D01*
X498076Y29269D01*
X498741Y28604D01*
X498867Y28499D01*
X498988Y28387D01*
X499039Y28355D01*
X499086Y28316D01*
X499229Y28234D01*
X499368Y28146D01*
X499424Y28122D01*
X499477Y28092D01*
X499632Y28037D01*
X499784Y27975D01*
X499844Y27962D01*
X499901Y27941D01*
X500064Y27915D01*
X500224Y27880D01*
X500301Y27875D01*
X500346Y27868D01*
X500407Y27869D01*
X500536Y27861D01*
X503801Y27861D01*
X503801Y20320D01*
X503804Y20286D01*
X503802Y20251D01*
X503824Y20062D01*
X503840Y19872D01*
X503850Y19838D01*
X503854Y19804D01*
X503909Y19621D01*
X503959Y19437D01*
X503974Y19406D01*
X503984Y19373D01*
X504071Y19202D01*
X504152Y19031D01*
X504173Y19003D01*
X504188Y18972D01*
X504303Y18820D01*
X504415Y18665D01*
X504415Y18664D01*
X504439Y18640D01*
X504460Y18613D01*
X504461Y18613D01*
X504461Y18612D01*
X504601Y18483D01*
X504738Y18350D01*
X504766Y18331D01*
X504792Y18307D01*
X504953Y18205D01*
X505111Y18098D01*
X505142Y18084D01*
X505172Y18065D01*
X505348Y17993D01*
X505523Y17916D01*
X505556Y17908D01*
X505588Y17895D01*
X505775Y17854D01*
X505960Y17809D01*
X505994Y17807D01*
X506028Y17800D01*
X506340Y17781D01*
X514381Y17781D01*
X514381Y16256D01*
X514384Y16221D01*
X514382Y16187D01*
X514404Y15997D01*
X514421Y15807D01*
X514430Y15774D01*
X514434Y15740D01*
X514489Y15556D01*
X514539Y15373D01*
X514554Y15342D01*
X514564Y15309D01*
X514651Y15139D01*
X514733Y14966D01*
X514753Y14938D01*
X514768Y14907D01*
X514884Y14756D01*
X514995Y14600D01*
X515020Y14576D01*
X515040Y14549D01*
X515181Y14419D01*
X515317Y14286D01*
X515346Y14267D01*
X515372Y14243D01*
X515533Y14141D01*
X515690Y14034D01*
X515722Y14020D01*
X515751Y14002D01*
X515928Y13929D01*
X516102Y13852D01*
X516136Y13844D01*
X516168Y13831D01*
X516355Y13790D01*
X516540Y13745D01*
X516574Y13743D01*
X516608Y13736D01*
X516920Y13717D01*
X518226Y13717D01*
X518390Y13731D01*
X518554Y13738D01*
X518614Y13751D01*
X518675Y13757D01*
X518833Y13800D01*
X518994Y13836D01*
X519050Y13859D01*
X519109Y13875D01*
X519257Y13946D01*
X519409Y14009D01*
X519461Y14042D01*
X519516Y14069D01*
X519649Y14164D01*
X519787Y14254D01*
X519845Y14305D01*
X519882Y14331D01*
X519924Y14374D01*
X520022Y14460D01*
X528338Y22776D01*
X528443Y22903D01*
X528555Y23024D01*
X528587Y23075D01*
X528626Y23122D01*
X528708Y23265D01*
X528796Y23403D01*
X528820Y23460D01*
X528850Y23513D01*
X528905Y23668D01*
X528967Y23820D01*
X528980Y23880D01*
X529001Y23937D01*
X529027Y24099D01*
X529062Y24260D01*
X529067Y24337D01*
X529074Y24381D01*
X529073Y24442D01*
X529081Y24572D01*
X529081Y30820D01*
X531286Y36142D01*
X535358Y40214D01*
X540680Y42419D01*
X542572Y42419D01*
X542607Y42422D01*
X542641Y42420D01*
X542830Y42442D01*
X543021Y42459D01*
X543054Y42468D01*
X543088Y42472D01*
X543271Y42527D01*
X543455Y42577D01*
X543486Y42592D01*
X543519Y42602D01*
X543690Y42689D01*
X543862Y42771D01*
X543890Y42791D01*
X543921Y42806D01*
X544073Y42922D01*
X544228Y43033D01*
X544252Y43058D01*
X544279Y43078D01*
X544408Y43218D01*
X544542Y43355D01*
X544561Y43384D01*
X544585Y43410D01*
X544687Y43571D01*
X544794Y43728D01*
X544808Y43760D01*
X544826Y43789D01*
X544899Y43966D01*
X544976Y44140D01*
X544984Y44174D01*
X544997Y44206D01*
X545037Y44393D01*
X545083Y44578D01*
X545085Y44612D01*
X545092Y44646D01*
X545107Y44881D01*
X546422Y48056D01*
X548844Y50478D01*
X552008Y51789D01*
X555432Y51789D01*
X558596Y50478D01*
X558800Y50274D01*
X558926Y50169D01*
X559047Y50057D01*
X559099Y50025D01*
X559145Y49986D01*
X559288Y49904D01*
X559427Y49816D01*
X559484Y49792D01*
X559536Y49762D01*
X559691Y49707D01*
X559844Y49645D01*
X559903Y49632D01*
X559961Y49611D01*
X560123Y49585D01*
X560284Y49550D01*
X560361Y49545D01*
X560405Y49538D01*
X560466Y49539D01*
X560596Y49531D01*
X590678Y49531D01*
X590841Y49545D01*
X591006Y49552D01*
X591065Y49565D01*
X591126Y49571D01*
X591285Y49614D01*
X591445Y49650D01*
X591502Y49673D01*
X591561Y49689D01*
X591709Y49760D01*
X591861Y49823D01*
X591912Y49856D01*
X591967Y49883D01*
X592101Y49978D01*
X592239Y50068D01*
X592297Y50119D01*
X592333Y50145D01*
X592376Y50188D01*
X592473Y50274D01*
X689823Y147624D01*
X692157Y148591D01*
X706864Y148591D01*
X707028Y148605D01*
X707192Y148612D01*
X707252Y148625D01*
X707313Y148631D01*
X707472Y148674D01*
X707632Y148710D01*
X707688Y148733D01*
X707747Y148749D01*
X707895Y148820D01*
X708048Y148883D01*
X708099Y148916D01*
X708154Y148943D01*
X708287Y149038D01*
X708426Y149128D01*
X708484Y149179D01*
X708520Y149205D01*
X708562Y149248D01*
X708660Y149334D01*
X711404Y152078D01*
X714568Y153389D01*
X717992Y153389D01*
X721156Y152078D01*
X723578Y149656D01*
X724889Y146492D01*
X724889Y143068D01*
X723578Y139904D01*
X721156Y137482D01*
X717992Y136171D01*
X716189Y136171D01*
X716073Y136161D01*
X715956Y136161D01*
X715849Y136141D01*
X715741Y136131D01*
X715628Y136101D01*
X715513Y136080D01*
X715367Y136029D01*
X715306Y136013D01*
X715274Y135997D01*
X715217Y135978D01*
X715003Y135889D01*
X697102Y135889D01*
X696939Y135875D01*
X696774Y135868D01*
X696715Y135855D01*
X696654Y135849D01*
X696495Y135806D01*
X696335Y135770D01*
X696278Y135747D01*
X696219Y135731D01*
X696071Y135660D01*
X695919Y135597D01*
X695868Y135564D01*
X695813Y135537D01*
X695679Y135442D01*
X695541Y135352D01*
X695483Y135301D01*
X695447Y135275D01*
X695404Y135232D01*
X695307Y135146D01*
X649587Y89426D01*
X649503Y89326D01*
X649413Y89233D01*
X649359Y89153D01*
X649298Y89080D01*
X649233Y88967D01*
X649161Y88860D01*
X649122Y88772D01*
X649075Y88689D01*
X649031Y88567D01*
X648978Y88448D01*
X648956Y88355D01*
X648924Y88265D01*
X648902Y88136D01*
X648872Y88010D01*
X648866Y87915D01*
X648850Y87821D01*
X648852Y87690D01*
X648844Y87561D01*
X648855Y87466D01*
X648856Y87370D01*
X648881Y87243D01*
X648896Y87114D01*
X648924Y87022D01*
X648942Y86928D01*
X648989Y86807D01*
X649026Y86683D01*
X649070Y86598D01*
X649104Y86508D01*
X649172Y86397D01*
X649231Y86281D01*
X649288Y86205D01*
X649338Y86124D01*
X649424Y86026D01*
X649503Y85923D01*
X649573Y85858D01*
X649636Y85786D01*
X649738Y85706D01*
X649834Y85617D01*
X649915Y85566D01*
X649989Y85507D01*
X650104Y85446D01*
X650214Y85376D01*
X650302Y85339D01*
X650386Y85294D01*
X650510Y85254D01*
X650630Y85205D01*
X650724Y85185D01*
X650814Y85155D01*
X650943Y85137D01*
X651070Y85110D01*
X651200Y85102D01*
X651261Y85094D01*
X651305Y85095D01*
X651382Y85091D01*
X728663Y85091D01*
X728875Y85110D01*
X729086Y85126D01*
X729099Y85129D01*
X729112Y85131D01*
X729316Y85186D01*
X729522Y85240D01*
X729534Y85246D01*
X729546Y85249D01*
X729736Y85339D01*
X729930Y85429D01*
X729941Y85437D01*
X729953Y85443D01*
X730125Y85566D01*
X730299Y85688D01*
X730308Y85697D01*
X730319Y85705D01*
X730468Y85857D01*
X730616Y86007D01*
X730624Y86018D01*
X730633Y86027D01*
X730752Y86203D01*
X730872Y86377D01*
X730879Y86392D01*
X730885Y86400D01*
X730901Y86436D01*
X730987Y86612D01*
X732422Y88047D01*
X734289Y88821D01*
X747311Y88821D01*
X748328Y88399D01*
X748485Y88350D01*
X748640Y88293D01*
X748700Y88283D01*
X748758Y88264D01*
X748921Y88244D01*
X749083Y88215D01*
X749144Y88215D01*
X749205Y88208D01*
X749369Y88216D01*
X749533Y88217D01*
X749593Y88228D01*
X749654Y88231D01*
X749814Y88268D01*
X749976Y88298D01*
X750049Y88323D01*
X750093Y88333D01*
X750149Y88357D01*
X750272Y88399D01*
X751289Y88821D01*
X753310Y88821D01*
X753345Y88824D01*
X753379Y88822D01*
X753568Y88844D01*
X753759Y88861D01*
X753792Y88870D01*
X753826Y88874D01*
X754009Y88929D01*
X754193Y88979D01*
X754224Y88994D01*
X754257Y89004D01*
X754428Y89091D01*
X754600Y89173D01*
X754628Y89193D01*
X754659Y89208D01*
X754811Y89324D01*
X754966Y89435D01*
X754990Y89460D01*
X755017Y89480D01*
X755146Y89620D01*
X755280Y89757D01*
X755299Y89786D01*
X755323Y89812D01*
X755425Y89973D01*
X755532Y90130D01*
X755546Y90162D01*
X755564Y90191D01*
X755636Y90367D01*
X755714Y90542D01*
X755722Y90576D01*
X755735Y90608D01*
X755775Y90795D01*
X755821Y90980D01*
X755823Y91014D01*
X755830Y91048D01*
X755849Y91360D01*
X755849Y98789D01*
X756851Y101208D01*
X758702Y103059D01*
X761121Y104061D01*
X770739Y104061D01*
X773158Y103059D01*
X774844Y101373D01*
X774852Y101366D01*
X774859Y101358D01*
X775023Y101223D01*
X775189Y101084D01*
X775199Y101078D01*
X775207Y101072D01*
X775394Y100967D01*
X775580Y100860D01*
X775590Y100857D01*
X775600Y100852D01*
X775804Y100781D01*
X776004Y100710D01*
X776015Y100708D01*
X776025Y100704D01*
X776236Y100671D01*
X776449Y100636D01*
X776460Y100636D01*
X776470Y100635D01*
X776683Y100639D01*
X776899Y100642D01*
X776909Y100644D01*
X776920Y100645D01*
X777131Y100687D01*
X777341Y100728D01*
X777351Y100732D01*
X777362Y100734D01*
X777560Y100813D01*
X777761Y100890D01*
X777770Y100896D01*
X777780Y100900D01*
X778050Y101057D01*
X778056Y101061D01*
X778791Y101365D01*
X779572Y101521D01*
X780931Y101521D01*
X780931Y93980D01*
X780931Y86439D01*
X779572Y86439D01*
X778791Y86595D01*
X778056Y86899D01*
X778050Y86903D01*
X778041Y86908D01*
X778032Y86915D01*
X777843Y87016D01*
X777655Y87119D01*
X777645Y87122D01*
X777635Y87128D01*
X777431Y87194D01*
X777228Y87262D01*
X777217Y87263D01*
X777207Y87267D01*
X776995Y87296D01*
X776783Y87327D01*
X776772Y87327D01*
X776761Y87328D01*
X776545Y87319D01*
X776333Y87312D01*
X776322Y87310D01*
X776311Y87310D01*
X776101Y87263D01*
X775892Y87219D01*
X775882Y87214D01*
X775872Y87212D01*
X775674Y87129D01*
X775475Y87048D01*
X775466Y87043D01*
X775456Y87039D01*
X775276Y86922D01*
X775095Y86807D01*
X775087Y86800D01*
X775078Y86794D01*
X774844Y86587D01*
X773158Y84901D01*
X772718Y84719D01*
X772572Y84643D01*
X772423Y84574D01*
X772373Y84539D01*
X772319Y84510D01*
X772189Y84410D01*
X772054Y84315D01*
X772011Y84272D01*
X771963Y84235D01*
X771853Y84113D01*
X771737Y83996D01*
X771702Y83946D01*
X771661Y83901D01*
X771574Y83761D01*
X771481Y83626D01*
X771447Y83556D01*
X771423Y83518D01*
X771401Y83462D01*
X771344Y83345D01*
X771314Y83273D01*
X769124Y81083D01*
X769019Y80957D01*
X768907Y80836D01*
X768875Y80785D01*
X768836Y80738D01*
X768754Y80595D01*
X768666Y80456D01*
X768642Y80400D01*
X768612Y80347D01*
X768557Y80192D01*
X768495Y80040D01*
X768482Y79980D01*
X768461Y79923D01*
X768435Y79760D01*
X768400Y79600D01*
X768395Y79523D01*
X768388Y79478D01*
X768389Y79417D01*
X768381Y79288D01*
X768381Y73580D01*
X768384Y73545D01*
X768382Y73511D01*
X768404Y73321D01*
X768421Y73131D01*
X768430Y73098D01*
X768434Y73064D01*
X768489Y72881D01*
X768539Y72697D01*
X768554Y72666D01*
X768564Y72633D01*
X768651Y72462D01*
X768733Y72290D01*
X768753Y72262D01*
X768768Y72231D01*
X768884Y72079D01*
X768995Y71924D01*
X769020Y71900D01*
X769040Y71873D01*
X769180Y71744D01*
X769317Y71610D01*
X769346Y71591D01*
X769372Y71567D01*
X769533Y71465D01*
X769690Y71358D01*
X769722Y71344D01*
X769751Y71326D01*
X769928Y71253D01*
X770102Y71176D01*
X770136Y71168D01*
X770168Y71155D01*
X770355Y71115D01*
X770540Y71069D01*
X770574Y71067D01*
X770608Y71060D01*
X770707Y71054D01*
X773158Y70039D01*
X774844Y68353D01*
X774852Y68346D01*
X774859Y68338D01*
X775023Y68203D01*
X775189Y68064D01*
X775199Y68058D01*
X775207Y68052D01*
X775394Y67947D01*
X775580Y67840D01*
X775590Y67837D01*
X775600Y67832D01*
X775804Y67761D01*
X776004Y67690D01*
X776015Y67688D01*
X776025Y67684D01*
X776236Y67651D01*
X776449Y67616D01*
X776460Y67616D01*
X776470Y67615D01*
X776683Y67619D01*
X776899Y67622D01*
X776909Y67624D01*
X776920Y67625D01*
X777131Y67667D01*
X777341Y67708D01*
X777351Y67712D01*
X777362Y67714D01*
X777560Y67793D01*
X777761Y67870D01*
X777770Y67876D01*
X777780Y67880D01*
X778050Y68037D01*
X778056Y68041D01*
X778791Y68345D01*
X779572Y68501D01*
X780931Y68501D01*
X780931Y60960D01*
X780931Y53419D01*
X779572Y53419D01*
X778791Y53575D01*
X778056Y53879D01*
X778050Y53883D01*
X778041Y53888D01*
X778032Y53895D01*
X777843Y53996D01*
X777655Y54099D01*
X777645Y54102D01*
X777635Y54108D01*
X777431Y54174D01*
X777228Y54242D01*
X777217Y54243D01*
X777207Y54247D01*
X776995Y54276D01*
X776783Y54307D01*
X776772Y54307D01*
X776761Y54308D01*
X776545Y54299D01*
X776333Y54292D01*
X776322Y54290D01*
X776311Y54290D01*
X776101Y54243D01*
X775892Y54199D01*
X775882Y54194D01*
X775872Y54192D01*
X775674Y54109D01*
X775475Y54028D01*
X775466Y54023D01*
X775456Y54019D01*
X775275Y53902D01*
X775095Y53787D01*
X775087Y53780D01*
X775078Y53774D01*
X774844Y53567D01*
X773024Y51748D01*
X772919Y51622D01*
X772807Y51501D01*
X772775Y51449D01*
X772736Y51403D01*
X772654Y51260D01*
X772566Y51121D01*
X772542Y51064D01*
X772512Y51012D01*
X772457Y50857D01*
X772395Y50704D01*
X772382Y50645D01*
X772361Y50587D01*
X772335Y50425D01*
X772300Y50264D01*
X772295Y50187D01*
X772288Y50143D01*
X772289Y50082D01*
X772288Y50063D01*
X771314Y47713D01*
X769124Y45523D01*
X769019Y45397D01*
X768907Y45276D01*
X768875Y45225D01*
X768836Y45178D01*
X768754Y45035D01*
X768666Y44896D01*
X768642Y44840D01*
X768612Y44787D01*
X768557Y44632D01*
X768495Y44480D01*
X768482Y44420D01*
X768461Y44363D01*
X768435Y44200D01*
X768400Y44040D01*
X768395Y43963D01*
X768388Y43918D01*
X768389Y43857D01*
X768381Y43728D01*
X768381Y37169D01*
X767607Y35302D01*
X766178Y33873D01*
X764311Y33099D01*
X751289Y33099D01*
X750272Y33521D01*
X750115Y33570D01*
X749960Y33627D01*
X749900Y33637D01*
X749842Y33656D01*
X749679Y33676D01*
X749517Y33705D01*
X749456Y33705D01*
X749395Y33712D01*
X749231Y33704D01*
X749067Y33703D01*
X749007Y33692D01*
X748946Y33689D01*
X748786Y33652D01*
X748624Y33622D01*
X748551Y33597D01*
X748507Y33587D01*
X748451Y33563D01*
X748328Y33521D01*
X747311Y33099D01*
X746712Y33099D01*
X746549Y33085D01*
X746384Y33078D01*
X746325Y33065D01*
X746264Y33059D01*
X746105Y33016D01*
X745945Y32980D01*
X745888Y32957D01*
X745829Y32941D01*
X745681Y32870D01*
X745529Y32807D01*
X745478Y32774D01*
X745423Y32747D01*
X745289Y32652D01*
X745151Y32562D01*
X745093Y32511D01*
X745057Y32485D01*
X745014Y32442D01*
X744917Y32356D01*
X730037Y17476D01*
X727703Y16509D01*
X715778Y16509D01*
X715566Y16490D01*
X715355Y16474D01*
X715343Y16471D01*
X715329Y16469D01*
X715124Y16413D01*
X714920Y16360D01*
X714908Y16354D01*
X714895Y16351D01*
X714705Y16261D01*
X714511Y16171D01*
X714500Y16163D01*
X714488Y16157D01*
X714317Y16035D01*
X714142Y15912D01*
X714133Y15903D01*
X714122Y15895D01*
X713974Y15743D01*
X713825Y15593D01*
X713817Y15582D01*
X713808Y15573D01*
X713689Y15396D01*
X713569Y15223D01*
X713562Y15208D01*
X713556Y15200D01*
X713540Y15163D01*
X713432Y14942D01*
X713314Y14658D01*
X709242Y10586D01*
X707746Y9966D01*
X707588Y9884D01*
X707428Y9807D01*
X707389Y9780D01*
X707347Y9757D01*
X707206Y9649D01*
X707062Y9545D01*
X707028Y9511D01*
X706991Y9482D01*
X706872Y9350D01*
X706748Y9223D01*
X706721Y9183D01*
X706689Y9147D01*
X706595Y8997D01*
X706496Y8850D01*
X706476Y8806D01*
X706451Y8765D01*
X706385Y8600D01*
X706313Y8438D01*
X706302Y8391D01*
X706284Y8347D01*
X706249Y8173D01*
X706207Y8000D01*
X706204Y7953D01*
X706194Y7906D01*
X706190Y7728D01*
X706179Y7551D01*
X706185Y7503D01*
X706183Y7456D01*
X706211Y7280D01*
X706231Y7104D01*
X706245Y7058D01*
X706252Y7011D01*
X706310Y6843D01*
X706361Y6673D01*
X706383Y6630D01*
X706399Y6585D01*
X706485Y6430D01*
X706566Y6271D01*
X706595Y6233D01*
X706618Y6192D01*
X706730Y6054D01*
X706838Y5913D01*
X706873Y5880D01*
X706903Y5843D01*
X707038Y5728D01*
X707169Y5607D01*
X707209Y5582D01*
X707246Y5551D01*
X707399Y5461D01*
X707549Y5366D01*
X707593Y5347D01*
X707634Y5323D01*
X707801Y5262D01*
X707965Y5195D01*
X708012Y5185D01*
X708057Y5168D01*
X708232Y5137D01*
X708405Y5100D01*
X708465Y5096D01*
X708500Y5090D01*
X708563Y5090D01*
X708717Y5081D01*
X786130Y5081D01*
X786165Y5084D01*
G37*
G36*
X147581Y228436D02*
X147581Y228436D01*
X147629Y228437D01*
X147804Y228471D01*
X147979Y228498D01*
X148024Y228513D01*
X148071Y228522D01*
X148237Y228586D01*
X148405Y228644D01*
X148446Y228667D01*
X148491Y228684D01*
X148643Y228777D01*
X148798Y228863D01*
X148835Y228893D01*
X148876Y228918D01*
X149009Y229036D01*
X149146Y229149D01*
X149177Y229185D01*
X149213Y229216D01*
X149323Y229356D01*
X149439Y229491D01*
X149463Y229532D01*
X149493Y229569D01*
X149577Y229726D01*
X149666Y229880D01*
X149683Y229924D01*
X149705Y229966D01*
X149760Y230135D01*
X149822Y230302D01*
X149830Y230349D01*
X149844Y230394D01*
X149869Y230570D01*
X149900Y230746D01*
X149899Y230793D01*
X149906Y230840D01*
X149899Y231018D01*
X149898Y231196D01*
X149890Y231243D01*
X149888Y231290D01*
X149849Y231464D01*
X149817Y231639D01*
X149798Y231695D01*
X149790Y231730D01*
X149766Y231788D01*
X149716Y231934D01*
X148081Y235880D01*
X148081Y237752D01*
X148128Y237781D01*
X148156Y237811D01*
X148189Y237834D01*
X148265Y237926D01*
X148346Y238013D01*
X148366Y238048D01*
X148391Y238079D01*
X148442Y238187D01*
X148500Y238291D01*
X148510Y238331D01*
X148527Y238367D01*
X148549Y238484D01*
X148579Y238599D01*
X148583Y238660D01*
X148587Y238680D01*
X148585Y238700D01*
X148589Y238760D01*
X148589Y242866D01*
X150286Y246962D01*
X154258Y250934D01*
X154281Y250961D01*
X154307Y250984D01*
X154425Y251133D01*
X154547Y251280D01*
X154565Y251310D01*
X154586Y251337D01*
X154676Y251505D01*
X154771Y251671D01*
X154782Y251703D01*
X154799Y251734D01*
X154857Y251915D01*
X154922Y252095D01*
X154927Y252129D01*
X154938Y252162D01*
X154964Y252351D01*
X154995Y252539D01*
X154995Y252574D01*
X154999Y252608D01*
X154991Y252799D01*
X154989Y252989D01*
X154982Y253024D01*
X154981Y253058D01*
X154940Y253244D01*
X154903Y253432D01*
X154891Y253464D01*
X154883Y253498D01*
X154810Y253674D01*
X154741Y253852D01*
X154723Y253881D01*
X154710Y253913D01*
X154606Y254073D01*
X154507Y254236D01*
X154484Y254262D01*
X154465Y254291D01*
X154258Y254526D01*
X150286Y258498D01*
X148589Y262594D01*
X148589Y270806D01*
X150286Y274902D01*
X154358Y278974D01*
X159680Y281179D01*
X165440Y281179D01*
X170762Y278974D01*
X173464Y276272D01*
X173491Y276249D01*
X173514Y276223D01*
X173663Y276105D01*
X173810Y275983D01*
X173840Y275965D01*
X173867Y275944D01*
X174035Y275854D01*
X174201Y275759D01*
X174233Y275748D01*
X174264Y275731D01*
X174445Y275672D01*
X174625Y275608D01*
X174659Y275603D01*
X174692Y275592D01*
X174881Y275566D01*
X175069Y275535D01*
X175104Y275535D01*
X175138Y275531D01*
X175329Y275538D01*
X175520Y275541D01*
X175554Y275548D01*
X175588Y275549D01*
X175774Y275590D01*
X175962Y275627D01*
X175994Y275639D01*
X176028Y275647D01*
X176203Y275720D01*
X176382Y275789D01*
X176411Y275807D01*
X176443Y275820D01*
X176603Y275924D01*
X176766Y276023D01*
X176792Y276046D01*
X176821Y276065D01*
X177056Y276272D01*
X179758Y278974D01*
X185080Y281179D01*
X190840Y281179D01*
X196162Y278974D01*
X200234Y274902D01*
X200522Y274208D01*
X200620Y274021D01*
X200716Y273831D01*
X200724Y273821D01*
X200730Y273809D01*
X200860Y273641D01*
X200988Y273473D01*
X200998Y273464D01*
X201006Y273453D01*
X201163Y273311D01*
X201319Y273167D01*
X201330Y273160D01*
X201340Y273152D01*
X201520Y273039D01*
X201699Y272926D01*
X201711Y272921D01*
X201722Y272914D01*
X201920Y272835D01*
X202115Y272755D01*
X202128Y272752D01*
X202141Y272747D01*
X202348Y272705D01*
X202556Y272660D01*
X202571Y272659D01*
X202582Y272657D01*
X202621Y272656D01*
X202868Y272641D01*
X415620Y272641D01*
X415655Y272644D01*
X415689Y272642D01*
X415878Y272664D01*
X416069Y272681D01*
X416102Y272690D01*
X416136Y272694D01*
X416319Y272749D01*
X416503Y272799D01*
X416534Y272814D01*
X416567Y272824D01*
X416738Y272911D01*
X416910Y272993D01*
X416938Y273013D01*
X416969Y273028D01*
X417121Y273144D01*
X417276Y273255D01*
X417300Y273280D01*
X417327Y273300D01*
X417456Y273440D01*
X417590Y273577D01*
X417609Y273606D01*
X417633Y273632D01*
X417735Y273793D01*
X417842Y273950D01*
X417856Y273982D01*
X417874Y274011D01*
X417947Y274188D01*
X418024Y274362D01*
X418032Y274396D01*
X418045Y274428D01*
X418085Y274615D01*
X418131Y274800D01*
X418133Y274834D01*
X418140Y274868D01*
X418159Y275180D01*
X418159Y282551D01*
X418933Y284418D01*
X420362Y285847D01*
X420596Y285944D01*
X420754Y286027D01*
X420914Y286103D01*
X420952Y286130D01*
X420995Y286153D01*
X421135Y286261D01*
X421280Y286365D01*
X421313Y286399D01*
X421351Y286428D01*
X421470Y286560D01*
X421594Y286687D01*
X421620Y286727D01*
X421652Y286762D01*
X421746Y286913D01*
X421846Y287060D01*
X421865Y287104D01*
X421890Y287145D01*
X421956Y287310D01*
X422028Y287472D01*
X422039Y287519D01*
X422057Y287563D01*
X422093Y287737D01*
X422135Y287910D01*
X422138Y287957D01*
X422147Y288004D01*
X422151Y288182D01*
X422162Y288359D01*
X422157Y288407D01*
X422158Y288454D01*
X422131Y288630D01*
X422110Y288806D01*
X422096Y288852D01*
X422089Y288899D01*
X422031Y289067D01*
X421980Y289237D01*
X421958Y289280D01*
X421943Y289325D01*
X421856Y289480D01*
X421776Y289639D01*
X421747Y289677D01*
X421723Y289718D01*
X421611Y289856D01*
X421504Y289997D01*
X421468Y290030D01*
X421438Y290067D01*
X421303Y290182D01*
X421172Y290303D01*
X421132Y290328D01*
X421096Y290359D01*
X420943Y290449D01*
X420793Y290544D01*
X420748Y290563D01*
X420707Y290587D01*
X420541Y290648D01*
X420376Y290715D01*
X420329Y290725D01*
X420285Y290742D01*
X420110Y290773D01*
X419936Y290810D01*
X419877Y290814D01*
X419841Y290820D01*
X419778Y290820D01*
X419624Y290829D01*
X119380Y290829D01*
X119346Y290826D01*
X119311Y290828D01*
X119122Y290806D01*
X118932Y290789D01*
X118898Y290780D01*
X118864Y290776D01*
X118681Y290721D01*
X118497Y290671D01*
X118466Y290656D01*
X118433Y290646D01*
X118262Y290559D01*
X118091Y290477D01*
X118062Y290457D01*
X118031Y290442D01*
X117879Y290326D01*
X117724Y290215D01*
X117700Y290190D01*
X117673Y290170D01*
X117544Y290030D01*
X117410Y289893D01*
X117391Y289864D01*
X117368Y289838D01*
X117265Y289677D01*
X117158Y289520D01*
X117144Y289488D01*
X117126Y289459D01*
X117053Y289282D01*
X116976Y289108D01*
X116968Y289074D01*
X116955Y289042D01*
X116915Y288855D01*
X116869Y288670D01*
X116867Y288636D01*
X116860Y288602D01*
X116841Y288290D01*
X116841Y285749D01*
X53340Y285749D01*
X53222Y285734D01*
X53103Y285727D01*
X53065Y285714D01*
X53024Y285709D01*
X52914Y285666D01*
X52801Y285629D01*
X52766Y285607D01*
X52729Y285592D01*
X52633Y285523D01*
X52532Y285459D01*
X52504Y285429D01*
X52471Y285406D01*
X52396Y285314D01*
X52314Y285227D01*
X52294Y285192D01*
X52269Y285161D01*
X52218Y285053D01*
X52160Y284949D01*
X52150Y284909D01*
X52133Y284873D01*
X52111Y284756D01*
X52081Y284641D01*
X52077Y284581D01*
X52073Y284561D01*
X52075Y284540D01*
X52073Y284533D01*
X52074Y284527D01*
X52071Y284480D01*
X52071Y238760D01*
X52086Y238642D01*
X52093Y238523D01*
X52106Y238485D01*
X52111Y238444D01*
X52154Y238334D01*
X52191Y238221D01*
X52213Y238186D01*
X52228Y238149D01*
X52298Y238053D01*
X52361Y237952D01*
X52391Y237924D01*
X52414Y237891D01*
X52506Y237816D01*
X52593Y237734D01*
X52628Y237714D01*
X52659Y237689D01*
X52767Y237638D01*
X52871Y237580D01*
X52911Y237570D01*
X52947Y237553D01*
X53064Y237531D01*
X53179Y237501D01*
X53240Y237497D01*
X53260Y237493D01*
X53280Y237495D01*
X53340Y237491D01*
X117550Y237491D01*
X117607Y237435D01*
X117757Y237286D01*
X117768Y237279D01*
X117777Y237269D01*
X117954Y237150D01*
X118128Y237030D01*
X118142Y237023D01*
X118150Y237017D01*
X118187Y237001D01*
X118408Y236893D01*
X119098Y236607D01*
X120527Y235178D01*
X121301Y233311D01*
X121301Y232410D01*
X121304Y232375D01*
X121302Y232341D01*
X121324Y232152D01*
X121341Y231961D01*
X121350Y231928D01*
X121354Y231894D01*
X121409Y231711D01*
X121459Y231527D01*
X121474Y231496D01*
X121484Y231463D01*
X121571Y231292D01*
X121653Y231120D01*
X121673Y231092D01*
X121688Y231061D01*
X121804Y230909D01*
X121915Y230754D01*
X121940Y230730D01*
X121960Y230703D01*
X122100Y230574D01*
X122237Y230440D01*
X122266Y230421D01*
X122292Y230397D01*
X122453Y230295D01*
X122610Y230188D01*
X122642Y230174D01*
X122671Y230156D01*
X122848Y230083D01*
X123022Y230006D01*
X123056Y229998D01*
X123088Y229985D01*
X123275Y229945D01*
X123460Y229899D01*
X123494Y229897D01*
X123528Y229890D01*
X123840Y229871D01*
X143503Y229871D01*
X145973Y228848D01*
X146073Y228790D01*
X146224Y228696D01*
X146269Y228679D01*
X146310Y228655D01*
X146477Y228596D01*
X146643Y228530D01*
X146690Y228520D01*
X146734Y228504D01*
X146909Y228475D01*
X147084Y228440D01*
X147132Y228438D01*
X147179Y228431D01*
X147356Y228433D01*
X147534Y228429D01*
X147581Y228436D01*
G37*
G36*
X111878Y31766D02*
X111878Y31766D01*
X111997Y31773D01*
X112035Y31786D01*
X112076Y31791D01*
X112186Y31834D01*
X112299Y31871D01*
X112334Y31893D01*
X112371Y31908D01*
X112467Y31978D01*
X112568Y32041D01*
X112596Y32071D01*
X112629Y32094D01*
X112705Y32186D01*
X112786Y32273D01*
X112806Y32308D01*
X112831Y32339D01*
X112882Y32447D01*
X112940Y32551D01*
X112950Y32591D01*
X112967Y32627D01*
X112989Y32744D01*
X113019Y32859D01*
X113023Y32920D01*
X113027Y32940D01*
X113025Y32960D01*
X113029Y33020D01*
X113029Y36510D01*
X113017Y36609D01*
X113014Y36708D01*
X112997Y36766D01*
X112989Y36826D01*
X112953Y36918D01*
X112925Y37013D01*
X112895Y37065D01*
X112872Y37122D01*
X112814Y37202D01*
X112764Y37287D01*
X112727Y37329D01*
X112727Y49040D01*
X112786Y49103D01*
X112815Y49156D01*
X112852Y49203D01*
X112892Y49294D01*
X112940Y49381D01*
X112955Y49440D01*
X112979Y49495D01*
X112994Y49593D01*
X113019Y49689D01*
X113025Y49789D01*
X113029Y49809D01*
X113027Y49821D01*
X113029Y49850D01*
X113029Y59370D01*
X113017Y59469D01*
X113014Y59568D01*
X112997Y59626D01*
X112989Y59686D01*
X112953Y59778D01*
X112925Y59873D01*
X112895Y59925D01*
X112872Y59982D01*
X112814Y60062D01*
X112764Y60147D01*
X112727Y60189D01*
X112727Y71900D01*
X112786Y71963D01*
X112815Y72016D01*
X112852Y72063D01*
X112892Y72154D01*
X112940Y72241D01*
X112955Y72300D01*
X112979Y72355D01*
X112994Y72453D01*
X113019Y72549D01*
X113025Y72649D01*
X113029Y72669D01*
X113027Y72681D01*
X113029Y72710D01*
X113029Y107951D01*
X150810Y107951D01*
X150908Y107963D01*
X151008Y107966D01*
X151066Y107983D01*
X151126Y107991D01*
X151218Y108027D01*
X151313Y108055D01*
X151365Y108085D01*
X151422Y108108D01*
X151502Y108166D01*
X151587Y108216D01*
X151629Y108253D01*
X163340Y108253D01*
X163403Y108194D01*
X163456Y108165D01*
X163503Y108128D01*
X163594Y108088D01*
X163681Y108040D01*
X163740Y108025D01*
X163795Y108001D01*
X163893Y107986D01*
X163989Y107961D01*
X164089Y107955D01*
X164109Y107951D01*
X164122Y107953D01*
X164150Y107951D01*
X236220Y107951D01*
X236338Y107966D01*
X236457Y107973D01*
X236495Y107986D01*
X236536Y107991D01*
X236646Y108034D01*
X236759Y108071D01*
X236794Y108093D01*
X236831Y108108D01*
X236927Y108178D01*
X237028Y108241D01*
X237056Y108271D01*
X237089Y108294D01*
X237165Y108386D01*
X237246Y108473D01*
X237266Y108508D01*
X237291Y108539D01*
X237342Y108647D01*
X237400Y108751D01*
X237410Y108791D01*
X237427Y108827D01*
X237449Y108944D01*
X237479Y109059D01*
X237483Y109120D01*
X237487Y109140D01*
X237485Y109160D01*
X237489Y109220D01*
X237489Y139700D01*
X237474Y139818D01*
X237467Y139937D01*
X237454Y139975D01*
X237449Y140016D01*
X237406Y140126D01*
X237369Y140239D01*
X237347Y140274D01*
X237332Y140311D01*
X237263Y140407D01*
X237199Y140508D01*
X237169Y140536D01*
X237146Y140569D01*
X237054Y140645D01*
X236967Y140726D01*
X236932Y140746D01*
X236901Y140771D01*
X236793Y140822D01*
X236689Y140880D01*
X236649Y140890D01*
X236613Y140907D01*
X236496Y140929D01*
X236381Y140959D01*
X236321Y140963D01*
X236301Y140967D01*
X236280Y140965D01*
X236220Y140969D01*
X231314Y140969D01*
X231196Y140954D01*
X231077Y140947D01*
X231039Y140934D01*
X230998Y140929D01*
X230888Y140886D01*
X230775Y140849D01*
X230740Y140827D01*
X230703Y140812D01*
X230607Y140743D01*
X230506Y140679D01*
X230478Y140649D01*
X230445Y140626D01*
X230369Y140534D01*
X230288Y140447D01*
X230268Y140412D01*
X230243Y140381D01*
X230192Y140273D01*
X230134Y140169D01*
X230124Y140129D01*
X230107Y140093D01*
X230091Y140011D01*
X225844Y135764D01*
X225784Y135686D01*
X225716Y135614D01*
X225687Y135561D01*
X225650Y135513D01*
X225610Y135422D01*
X225562Y135335D01*
X225547Y135277D01*
X225523Y135221D01*
X225508Y135123D01*
X225483Y135027D01*
X225477Y134927D01*
X225473Y134907D01*
X225475Y134894D01*
X225473Y134866D01*
X225473Y124858D01*
X224282Y123667D01*
X212598Y123667D01*
X211407Y124858D01*
X211407Y126628D01*
X211392Y126746D01*
X211385Y126865D01*
X211372Y126903D01*
X211367Y126944D01*
X211324Y127054D01*
X211287Y127167D01*
X211265Y127202D01*
X211250Y127239D01*
X211181Y127335D01*
X211117Y127436D01*
X211087Y127464D01*
X211064Y127497D01*
X210972Y127573D01*
X210885Y127654D01*
X210850Y127674D01*
X210819Y127699D01*
X210711Y127750D01*
X210607Y127808D01*
X210567Y127818D01*
X210531Y127835D01*
X210414Y127857D01*
X210299Y127887D01*
X210239Y127891D01*
X210219Y127895D01*
X210198Y127893D01*
X210138Y127897D01*
X208778Y127897D01*
X197357Y139319D01*
X197279Y139379D01*
X197207Y139447D01*
X197154Y139476D01*
X197106Y139513D01*
X197015Y139553D01*
X196928Y139601D01*
X196870Y139616D01*
X196814Y139640D01*
X196716Y139655D01*
X196620Y139680D01*
X196520Y139686D01*
X196500Y139690D01*
X196487Y139688D01*
X196459Y139690D01*
X160439Y139690D01*
X159532Y140597D01*
X159454Y140658D01*
X159381Y140726D01*
X159328Y140755D01*
X159280Y140792D01*
X159190Y140832D01*
X159103Y140880D01*
X159044Y140895D01*
X158989Y140919D01*
X158891Y140934D01*
X158795Y140959D01*
X158695Y140965D01*
X158675Y140969D01*
X158662Y140967D01*
X158634Y140969D01*
X93980Y140969D01*
X93862Y140954D01*
X93743Y140947D01*
X93705Y140934D01*
X93664Y140929D01*
X93554Y140886D01*
X93441Y140849D01*
X93406Y140827D01*
X93369Y140812D01*
X93273Y140743D01*
X93172Y140679D01*
X93144Y140649D01*
X93111Y140626D01*
X93036Y140534D01*
X92954Y140447D01*
X92934Y140412D01*
X92909Y140381D01*
X92858Y140273D01*
X92800Y140169D01*
X92790Y140129D01*
X92773Y140093D01*
X92751Y139976D01*
X92721Y139861D01*
X92717Y139801D01*
X92713Y139781D01*
X92715Y139760D01*
X92711Y139700D01*
X92711Y33020D01*
X92726Y32902D01*
X92733Y32783D01*
X92746Y32745D01*
X92751Y32704D01*
X92794Y32594D01*
X92831Y32481D01*
X92853Y32446D01*
X92868Y32409D01*
X92938Y32313D01*
X93001Y32212D01*
X93031Y32184D01*
X93054Y32151D01*
X93146Y32076D01*
X93233Y31994D01*
X93268Y31974D01*
X93299Y31949D01*
X93407Y31898D01*
X93511Y31840D01*
X93551Y31830D01*
X93587Y31813D01*
X93704Y31791D01*
X93819Y31761D01*
X93880Y31757D01*
X93900Y31753D01*
X93920Y31755D01*
X93980Y31751D01*
X111760Y31751D01*
X111878Y31766D01*
G37*
G36*
X458386Y265037D02*
X458386Y265037D01*
X458516Y265042D01*
X458609Y265063D01*
X458704Y265074D01*
X458829Y265112D01*
X458956Y265140D01*
X459044Y265177D01*
X459135Y265204D01*
X459251Y265263D01*
X459371Y265314D01*
X459452Y265365D01*
X459537Y265409D01*
X459640Y265487D01*
X459749Y265558D01*
X459847Y265644D01*
X459895Y265681D01*
X459926Y265714D01*
X459984Y265765D01*
X472393Y278174D01*
X474727Y279141D01*
X476160Y279141D01*
X476195Y279144D01*
X476229Y279142D01*
X476418Y279164D01*
X476609Y279181D01*
X476642Y279190D01*
X476676Y279194D01*
X476859Y279249D01*
X477043Y279299D01*
X477074Y279314D01*
X477107Y279324D01*
X477278Y279411D01*
X477450Y279493D01*
X477478Y279513D01*
X477509Y279528D01*
X477661Y279644D01*
X477816Y279755D01*
X477840Y279780D01*
X477867Y279800D01*
X477996Y279940D01*
X478130Y280077D01*
X478149Y280106D01*
X478173Y280132D01*
X478275Y280293D01*
X478382Y280450D01*
X478396Y280482D01*
X478414Y280511D01*
X478487Y280688D01*
X478564Y280862D01*
X478572Y280896D01*
X478585Y280928D01*
X478625Y281115D01*
X478671Y281300D01*
X478673Y281334D01*
X478680Y281368D01*
X478699Y281680D01*
X478699Y281875D01*
X478872Y282521D01*
X479207Y283100D01*
X479680Y283573D01*
X480259Y283908D01*
X480905Y284081D01*
X486201Y284081D01*
X486201Y282660D01*
X486204Y282625D01*
X486202Y282591D01*
X486224Y282402D01*
X486240Y282211D01*
X486250Y282178D01*
X486254Y282144D01*
X486309Y281961D01*
X486359Y281777D01*
X486374Y281746D01*
X486384Y281713D01*
X486471Y281542D01*
X486552Y281370D01*
X486573Y281342D01*
X486588Y281311D01*
X486703Y281159D01*
X486815Y281004D01*
X486839Y280980D01*
X486860Y280953D01*
X487000Y280824D01*
X487137Y280690D01*
X487166Y280671D01*
X487191Y280647D01*
X487352Y280545D01*
X487510Y280438D01*
X487542Y280424D01*
X487571Y280406D01*
X487748Y280333D01*
X487922Y280256D01*
X487956Y280248D01*
X487988Y280235D01*
X488174Y280195D01*
X488359Y280149D01*
X488394Y280147D01*
X488428Y280140D01*
X488740Y280121D01*
X488775Y280124D01*
X488809Y280122D01*
X488999Y280144D01*
X489189Y280161D01*
X489222Y280170D01*
X489256Y280174D01*
X489439Y280229D01*
X489623Y280279D01*
X489654Y280294D01*
X489687Y280304D01*
X489858Y280391D01*
X490030Y280473D01*
X490058Y280493D01*
X490089Y280508D01*
X490241Y280624D01*
X490396Y280735D01*
X490420Y280760D01*
X490447Y280780D01*
X490577Y280920D01*
X490710Y281057D01*
X490729Y281086D01*
X490753Y281112D01*
X490855Y281273D01*
X490962Y281430D01*
X490976Y281462D01*
X490994Y281491D01*
X491067Y281668D01*
X491144Y281842D01*
X491152Y281876D01*
X491165Y281908D01*
X491206Y282095D01*
X491251Y282280D01*
X491253Y282314D01*
X491260Y282348D01*
X491279Y282660D01*
X491279Y284081D01*
X496575Y284081D01*
X497221Y283908D01*
X497800Y283573D01*
X498273Y283100D01*
X498608Y282521D01*
X498781Y281875D01*
X498781Y280736D01*
X498795Y280573D01*
X498802Y280408D01*
X498815Y280349D01*
X498821Y280288D01*
X498864Y280129D01*
X498900Y279969D01*
X498923Y279912D01*
X498939Y279853D01*
X499010Y279705D01*
X499073Y279553D01*
X499106Y279502D01*
X499133Y279447D01*
X499228Y279313D01*
X499318Y279175D01*
X499369Y279117D01*
X499395Y279081D01*
X499438Y279038D01*
X499524Y278941D01*
X500547Y277918D01*
X501321Y276051D01*
X501321Y275180D01*
X501324Y275145D01*
X501322Y275111D01*
X501344Y274922D01*
X501361Y274731D01*
X501370Y274698D01*
X501374Y274664D01*
X501429Y274481D01*
X501479Y274297D01*
X501494Y274266D01*
X501504Y274233D01*
X501591Y274062D01*
X501673Y273890D01*
X501693Y273862D01*
X501708Y273831D01*
X501824Y273679D01*
X501935Y273524D01*
X501960Y273500D01*
X501980Y273473D01*
X502120Y273344D01*
X502257Y273210D01*
X502286Y273191D01*
X502312Y273167D01*
X502473Y273065D01*
X502630Y272958D01*
X502662Y272944D01*
X502691Y272926D01*
X502868Y272853D01*
X503042Y272776D01*
X503076Y272768D01*
X503108Y272755D01*
X503295Y272715D01*
X503480Y272669D01*
X503514Y272667D01*
X503548Y272660D01*
X503860Y272641D01*
X733713Y272641D01*
X733877Y272655D01*
X734041Y272662D01*
X734101Y272675D01*
X734161Y272681D01*
X734320Y272724D01*
X734481Y272760D01*
X734537Y272783D01*
X734596Y272799D01*
X734744Y272870D01*
X734896Y272933D01*
X734947Y272966D01*
X735002Y272993D01*
X735136Y273088D01*
X735274Y273178D01*
X735332Y273229D01*
X735369Y273255D01*
X735411Y273298D01*
X735508Y273384D01*
X738558Y276434D01*
X743880Y278639D01*
X749640Y278639D01*
X754962Y276434D01*
X757664Y273732D01*
X757691Y273709D01*
X757714Y273683D01*
X757863Y273565D01*
X758010Y273443D01*
X758040Y273425D01*
X758067Y273404D01*
X758235Y273314D01*
X758401Y273219D01*
X758433Y273208D01*
X758464Y273191D01*
X758645Y273132D01*
X758825Y273068D01*
X758859Y273063D01*
X758892Y273052D01*
X759081Y273026D01*
X759269Y272995D01*
X759304Y272995D01*
X759338Y272991D01*
X759529Y272999D01*
X759719Y273001D01*
X759754Y273008D01*
X759788Y273009D01*
X759974Y273050D01*
X760162Y273087D01*
X760194Y273099D01*
X760228Y273107D01*
X760404Y273180D01*
X760582Y273249D01*
X760611Y273267D01*
X760643Y273280D01*
X760804Y273384D01*
X760966Y273483D01*
X760992Y273506D01*
X761021Y273525D01*
X761256Y273732D01*
X763958Y276434D01*
X769280Y278639D01*
X775040Y278639D01*
X780362Y276434D01*
X784334Y272462D01*
X784434Y272378D01*
X784527Y272287D01*
X784607Y272234D01*
X784680Y272173D01*
X784793Y272108D01*
X784900Y272035D01*
X784988Y271997D01*
X785071Y271949D01*
X785193Y271906D01*
X785312Y271853D01*
X785405Y271830D01*
X785495Y271798D01*
X785623Y271777D01*
X785750Y271746D01*
X785845Y271741D01*
X785939Y271725D01*
X786069Y271727D01*
X786199Y271719D01*
X786294Y271730D01*
X786390Y271731D01*
X786517Y271756D01*
X786646Y271771D01*
X786738Y271798D01*
X786832Y271817D01*
X786953Y271863D01*
X787077Y271901D01*
X787162Y271944D01*
X787252Y271979D01*
X787363Y272046D01*
X787479Y272105D01*
X787555Y272163D01*
X787636Y272213D01*
X787734Y272299D01*
X787837Y272377D01*
X787902Y272448D01*
X787974Y272511D01*
X788054Y272613D01*
X788143Y272709D01*
X788194Y272789D01*
X788253Y272864D01*
X788314Y272979D01*
X788384Y273088D01*
X788421Y273177D01*
X788466Y273261D01*
X788506Y273385D01*
X788555Y273505D01*
X788575Y273598D01*
X788605Y273689D01*
X788623Y273818D01*
X788650Y273945D01*
X788658Y274075D01*
X788666Y274135D01*
X788665Y274180D01*
X788669Y274257D01*
X788669Y288290D01*
X788666Y288325D01*
X788668Y288359D01*
X788646Y288548D01*
X788629Y288739D01*
X788620Y288772D01*
X788616Y288806D01*
X788561Y288989D01*
X788511Y289173D01*
X788496Y289204D01*
X788486Y289237D01*
X788399Y289408D01*
X788317Y289580D01*
X788297Y289608D01*
X788282Y289639D01*
X788166Y289791D01*
X788055Y289946D01*
X788030Y289970D01*
X788010Y289997D01*
X787870Y290126D01*
X787733Y290260D01*
X787704Y290279D01*
X787678Y290303D01*
X787517Y290405D01*
X787360Y290512D01*
X787328Y290526D01*
X787299Y290544D01*
X787122Y290617D01*
X786948Y290694D01*
X786914Y290702D01*
X786882Y290715D01*
X786695Y290755D01*
X786510Y290801D01*
X786476Y290803D01*
X786442Y290810D01*
X786130Y290829D01*
X452323Y290829D01*
X452146Y290814D01*
X451969Y290804D01*
X451923Y290794D01*
X451875Y290789D01*
X451703Y290742D01*
X451531Y290702D01*
X451487Y290683D01*
X451440Y290671D01*
X451280Y290595D01*
X451117Y290524D01*
X451077Y290498D01*
X451034Y290477D01*
X450890Y290374D01*
X450741Y290276D01*
X450707Y290243D01*
X450668Y290215D01*
X450544Y290088D01*
X450415Y289965D01*
X450387Y289927D01*
X450354Y289893D01*
X450254Y289745D01*
X450149Y289602D01*
X450128Y289559D01*
X450102Y289520D01*
X450030Y289357D01*
X449952Y289198D01*
X449939Y289151D01*
X449919Y289108D01*
X449877Y288935D01*
X449829Y288764D01*
X449824Y288717D01*
X449813Y288670D01*
X449802Y288494D01*
X449784Y288316D01*
X449788Y288269D01*
X449785Y288221D01*
X449806Y288045D01*
X449820Y287867D01*
X449832Y287821D01*
X449837Y287774D01*
X449889Y287604D01*
X449934Y287432D01*
X449954Y287388D01*
X449967Y287343D01*
X450048Y287184D01*
X450123Y287023D01*
X450150Y286984D01*
X450172Y286941D01*
X450279Y286800D01*
X450381Y286654D01*
X450415Y286621D01*
X450444Y286583D01*
X450574Y286462D01*
X450700Y286337D01*
X450740Y286310D01*
X450775Y286278D01*
X450925Y286182D01*
X451071Y286081D01*
X451124Y286055D01*
X451155Y286036D01*
X451213Y286012D01*
X451352Y285944D01*
X451916Y285710D01*
X454338Y283288D01*
X455649Y280124D01*
X455649Y276700D01*
X454861Y274798D01*
X454812Y274641D01*
X454755Y274486D01*
X454744Y274426D01*
X454726Y274368D01*
X454705Y274205D01*
X454677Y274043D01*
X454677Y273982D01*
X454669Y273921D01*
X454678Y273757D01*
X454678Y273593D01*
X454689Y273533D01*
X454692Y273472D01*
X454730Y273312D01*
X454759Y273150D01*
X454784Y273077D01*
X454795Y273033D01*
X454819Y272977D01*
X454861Y272854D01*
X455649Y270952D01*
X455649Y267560D01*
X455660Y267431D01*
X455662Y267301D01*
X455680Y267207D01*
X455689Y267112D01*
X455723Y266986D01*
X455748Y266859D01*
X455782Y266769D01*
X455807Y266677D01*
X455863Y266560D01*
X455910Y266439D01*
X455960Y266357D01*
X456001Y266271D01*
X456076Y266165D01*
X456144Y266054D01*
X456207Y265982D01*
X456263Y265905D01*
X456356Y265814D01*
X456442Y265717D01*
X456517Y265657D01*
X456585Y265591D01*
X456693Y265518D01*
X456795Y265437D01*
X456879Y265392D01*
X456958Y265339D01*
X457077Y265286D01*
X457192Y265225D01*
X457283Y265195D01*
X457370Y265156D01*
X457497Y265126D01*
X457620Y265085D01*
X457715Y265072D01*
X457808Y265050D01*
X457937Y265042D01*
X458066Y265024D01*
X458162Y265028D01*
X458257Y265022D01*
X458386Y265037D01*
G37*
G36*
X284598Y3826D02*
X284598Y3826D01*
X284717Y3833D01*
X284755Y3846D01*
X284796Y3851D01*
X284906Y3894D01*
X285019Y3931D01*
X285054Y3953D01*
X285091Y3968D01*
X285187Y4038D01*
X285288Y4101D01*
X285316Y4131D01*
X285349Y4154D01*
X285425Y4246D01*
X285506Y4333D01*
X285526Y4368D01*
X285551Y4399D01*
X285602Y4507D01*
X285660Y4611D01*
X285670Y4651D01*
X285687Y4687D01*
X285709Y4804D01*
X285739Y4919D01*
X285743Y4980D01*
X285747Y5000D01*
X285745Y5020D01*
X285749Y5080D01*
X285749Y45720D01*
X285734Y45838D01*
X285727Y45957D01*
X285714Y45995D01*
X285709Y46036D01*
X285666Y46146D01*
X285629Y46259D01*
X285607Y46294D01*
X285592Y46331D01*
X285523Y46427D01*
X285459Y46528D01*
X285429Y46556D01*
X285406Y46589D01*
X285314Y46665D01*
X285227Y46746D01*
X285192Y46766D01*
X285161Y46791D01*
X285053Y46842D01*
X284949Y46900D01*
X284909Y46910D01*
X284873Y46927D01*
X284756Y46949D01*
X284641Y46979D01*
X284581Y46983D01*
X284561Y46987D01*
X284540Y46985D01*
X284480Y46989D01*
X209666Y46989D01*
X209568Y46977D01*
X209469Y46974D01*
X209410Y46957D01*
X209350Y46949D01*
X209258Y46913D01*
X209163Y46885D01*
X209111Y46855D01*
X209055Y46832D01*
X208974Y46774D01*
X208889Y46724D01*
X208814Y46658D01*
X208797Y46646D01*
X208789Y46636D01*
X208768Y46618D01*
X207108Y44957D01*
X202758Y44957D01*
X202660Y44945D01*
X202561Y44942D01*
X202502Y44925D01*
X202442Y44917D01*
X202350Y44881D01*
X202255Y44853D01*
X202203Y44823D01*
X202147Y44800D01*
X202066Y44742D01*
X201981Y44692D01*
X201906Y44626D01*
X201889Y44614D01*
X201881Y44604D01*
X201860Y44586D01*
X201422Y44147D01*
X189738Y44147D01*
X189300Y44586D01*
X189221Y44646D01*
X189149Y44714D01*
X189096Y44743D01*
X189048Y44780D01*
X188958Y44820D01*
X188871Y44868D01*
X188812Y44883D01*
X188757Y44907D01*
X188659Y44922D01*
X188563Y44947D01*
X188463Y44953D01*
X188443Y44957D01*
X188430Y44955D01*
X188402Y44957D01*
X184052Y44957D01*
X182392Y46618D01*
X182313Y46678D01*
X182241Y46746D01*
X182188Y46775D01*
X182140Y46812D01*
X182049Y46852D01*
X181963Y46900D01*
X181904Y46915D01*
X181849Y46939D01*
X181751Y46954D01*
X181655Y46979D01*
X181555Y46985D01*
X181535Y46989D01*
X181522Y46987D01*
X181494Y46989D01*
X167640Y46989D01*
X167522Y46974D01*
X167403Y46967D01*
X167365Y46954D01*
X167324Y46949D01*
X167214Y46906D01*
X167101Y46869D01*
X167066Y46847D01*
X167029Y46832D01*
X166933Y46763D01*
X166832Y46699D01*
X166804Y46669D01*
X166771Y46646D01*
X166696Y46554D01*
X166614Y46467D01*
X166594Y46432D01*
X166569Y46401D01*
X166518Y46293D01*
X166460Y46189D01*
X166450Y46149D01*
X166433Y46113D01*
X166411Y45996D01*
X166381Y45881D01*
X166377Y45821D01*
X166373Y45801D01*
X166374Y45782D01*
X166373Y45777D01*
X166374Y45768D01*
X166371Y45720D01*
X166371Y5080D01*
X166386Y4962D01*
X166393Y4843D01*
X166406Y4805D01*
X166411Y4764D01*
X166454Y4654D01*
X166491Y4541D01*
X166513Y4506D01*
X166528Y4469D01*
X166598Y4373D01*
X166661Y4272D01*
X166691Y4244D01*
X166714Y4211D01*
X166806Y4136D01*
X166893Y4054D01*
X166928Y4034D01*
X166959Y4009D01*
X167067Y3958D01*
X167171Y3900D01*
X167211Y3890D01*
X167247Y3873D01*
X167364Y3851D01*
X167479Y3821D01*
X167540Y3817D01*
X167560Y3813D01*
X167580Y3815D01*
X167640Y3811D01*
X284480Y3811D01*
X284598Y3826D01*
G37*
G36*
X693540Y5096D02*
X693540Y5096D01*
X693717Y5106D01*
X693763Y5116D01*
X693811Y5121D01*
X693983Y5167D01*
X694155Y5208D01*
X694199Y5227D01*
X694245Y5239D01*
X694406Y5315D01*
X694569Y5386D01*
X694609Y5412D01*
X694652Y5433D01*
X694797Y5536D01*
X694945Y5634D01*
X694979Y5667D01*
X695018Y5695D01*
X695142Y5822D01*
X695271Y5945D01*
X695299Y5983D01*
X695332Y6017D01*
X695432Y6165D01*
X695537Y6308D01*
X695558Y6351D01*
X695584Y6390D01*
X695656Y6553D01*
X695734Y6712D01*
X695747Y6758D01*
X695767Y6802D01*
X695809Y6975D01*
X695857Y7146D01*
X695862Y7193D01*
X695873Y7240D01*
X695884Y7417D01*
X695902Y7594D01*
X695898Y7641D01*
X695901Y7689D01*
X695880Y7866D01*
X695866Y8043D01*
X695854Y8089D01*
X695849Y8136D01*
X695797Y8307D01*
X695752Y8478D01*
X695732Y8521D01*
X695719Y8567D01*
X695638Y8726D01*
X695563Y8887D01*
X695536Y8926D01*
X695514Y8969D01*
X695407Y9110D01*
X695305Y9256D01*
X695271Y9289D01*
X695242Y9327D01*
X695112Y9448D01*
X694986Y9573D01*
X694946Y9600D01*
X694911Y9632D01*
X694761Y9728D01*
X694615Y9829D01*
X694562Y9855D01*
X694531Y9874D01*
X694473Y9898D01*
X694334Y9966D01*
X692838Y10586D01*
X688642Y14782D01*
X688617Y14824D01*
X688522Y14931D01*
X688435Y15044D01*
X688373Y15099D01*
X688319Y15161D01*
X688207Y15250D01*
X688100Y15346D01*
X688030Y15389D01*
X687965Y15441D01*
X687840Y15508D01*
X687718Y15584D01*
X687641Y15614D01*
X687569Y15653D01*
X687433Y15697D01*
X687300Y15750D01*
X687219Y15767D01*
X687140Y15792D01*
X686999Y15812D01*
X686859Y15841D01*
X686776Y15843D01*
X686694Y15854D01*
X686551Y15848D01*
X686409Y15852D01*
X686327Y15839D01*
X686244Y15836D01*
X686105Y15805D01*
X685964Y15783D01*
X685886Y15756D01*
X685805Y15738D01*
X685673Y15683D01*
X685538Y15636D01*
X685466Y15596D01*
X685389Y15564D01*
X685269Y15487D01*
X685145Y15417D01*
X685081Y15365D01*
X685011Y15320D01*
X684827Y15157D01*
X684796Y15132D01*
X684789Y15124D01*
X684777Y15113D01*
X683418Y13754D01*
X681897Y12649D01*
X680223Y11796D01*
X678436Y11215D01*
X678179Y11175D01*
X678179Y22860D01*
X678179Y34545D01*
X678436Y34505D01*
X680223Y33924D01*
X681897Y33071D01*
X683418Y31966D01*
X684777Y30607D01*
X684841Y30554D01*
X684898Y30494D01*
X685013Y30410D01*
X685122Y30318D01*
X685194Y30277D01*
X685261Y30228D01*
X685389Y30166D01*
X685513Y30095D01*
X685591Y30067D01*
X685666Y30031D01*
X685803Y29992D01*
X685938Y29944D01*
X686019Y29930D01*
X686099Y29908D01*
X686241Y29894D01*
X686382Y29870D01*
X686465Y29871D01*
X686547Y29863D01*
X686689Y29875D01*
X686832Y29876D01*
X686913Y29892D01*
X686996Y29899D01*
X687134Y29935D01*
X687274Y29962D01*
X687351Y29992D01*
X687431Y30013D01*
X687561Y30073D01*
X687694Y30124D01*
X687765Y30167D01*
X687840Y30202D01*
X687957Y30284D01*
X688079Y30358D01*
X688141Y30413D01*
X688209Y30460D01*
X688309Y30562D01*
X688416Y30656D01*
X688467Y30721D01*
X688526Y30780D01*
X688607Y30898D01*
X688628Y30924D01*
X692838Y35134D01*
X698160Y37339D01*
X703920Y37339D01*
X709242Y35134D01*
X713314Y31062D01*
X713432Y30778D01*
X713530Y30590D01*
X713626Y30401D01*
X713634Y30391D01*
X713640Y30379D01*
X713770Y30211D01*
X713898Y30043D01*
X713908Y30034D01*
X713916Y30023D01*
X714073Y29881D01*
X714229Y29737D01*
X714240Y29730D01*
X714250Y29722D01*
X714430Y29610D01*
X714609Y29496D01*
X714621Y29491D01*
X714633Y29484D01*
X714829Y29406D01*
X715026Y29325D01*
X715039Y29322D01*
X715051Y29317D01*
X715258Y29275D01*
X715466Y29230D01*
X715482Y29229D01*
X715492Y29227D01*
X715531Y29226D01*
X715778Y29211D01*
X722758Y29211D01*
X722921Y29225D01*
X723086Y29232D01*
X723145Y29245D01*
X723206Y29251D01*
X723365Y29294D01*
X723525Y29330D01*
X723582Y29353D01*
X723641Y29369D01*
X723789Y29440D01*
X723941Y29503D01*
X723992Y29536D01*
X724047Y29563D01*
X724181Y29658D01*
X724319Y29748D01*
X724377Y29799D01*
X724413Y29825D01*
X724456Y29868D01*
X724553Y29954D01*
X729476Y34877D01*
X729581Y35003D01*
X729693Y35124D01*
X729725Y35175D01*
X729764Y35222D01*
X729846Y35365D01*
X729934Y35504D01*
X729958Y35560D01*
X729988Y35613D01*
X730043Y35768D01*
X730105Y35920D01*
X730118Y35980D01*
X730139Y36037D01*
X730165Y36199D01*
X730200Y36360D01*
X730205Y36438D01*
X730212Y36482D01*
X730211Y36542D01*
X730219Y36672D01*
X730219Y49191D01*
X730993Y51058D01*
X732422Y52487D01*
X734289Y53261D01*
X747311Y53261D01*
X748328Y52839D01*
X748485Y52790D01*
X748640Y52733D01*
X748700Y52723D01*
X748758Y52704D01*
X748921Y52684D01*
X749083Y52655D01*
X749144Y52655D01*
X749205Y52648D01*
X749369Y52656D01*
X749533Y52657D01*
X749593Y52668D01*
X749654Y52671D01*
X749814Y52708D01*
X749976Y52738D01*
X750049Y52763D01*
X750093Y52773D01*
X750149Y52797D01*
X750272Y52839D01*
X751289Y53261D01*
X753310Y53261D01*
X753345Y53264D01*
X753379Y53262D01*
X753568Y53284D01*
X753759Y53301D01*
X753792Y53310D01*
X753826Y53314D01*
X754009Y53369D01*
X754193Y53419D01*
X754224Y53434D01*
X754257Y53444D01*
X754428Y53531D01*
X754600Y53613D01*
X754628Y53633D01*
X754659Y53648D01*
X754811Y53764D01*
X754966Y53875D01*
X754990Y53900D01*
X755017Y53920D01*
X755146Y54060D01*
X755280Y54197D01*
X755299Y54226D01*
X755323Y54252D01*
X755425Y54413D01*
X755532Y54570D01*
X755546Y54602D01*
X755564Y54631D01*
X755637Y54808D01*
X755714Y54982D01*
X755722Y55016D01*
X755735Y55048D01*
X755775Y55235D01*
X755821Y55420D01*
X755823Y55454D01*
X755830Y55488D01*
X755849Y55800D01*
X755849Y66120D01*
X755846Y66155D01*
X755848Y66189D01*
X755826Y66378D01*
X755809Y66569D01*
X755800Y66602D01*
X755796Y66636D01*
X755741Y66819D01*
X755691Y67003D01*
X755676Y67034D01*
X755666Y67067D01*
X755579Y67238D01*
X755497Y67410D01*
X755477Y67438D01*
X755462Y67469D01*
X755346Y67621D01*
X755235Y67776D01*
X755210Y67800D01*
X755190Y67827D01*
X755050Y67956D01*
X754913Y68090D01*
X754884Y68109D01*
X754858Y68133D01*
X754697Y68235D01*
X754540Y68342D01*
X754508Y68356D01*
X754479Y68374D01*
X754302Y68447D01*
X754128Y68524D01*
X754094Y68532D01*
X754062Y68545D01*
X753875Y68585D01*
X753690Y68631D01*
X753656Y68633D01*
X753622Y68640D01*
X753310Y68659D01*
X751289Y68659D01*
X750272Y69081D01*
X750115Y69130D01*
X749960Y69187D01*
X749900Y69197D01*
X749842Y69216D01*
X749679Y69236D01*
X749517Y69265D01*
X749456Y69265D01*
X749395Y69272D01*
X749231Y69264D01*
X749067Y69263D01*
X749007Y69252D01*
X748946Y69249D01*
X748786Y69212D01*
X748624Y69182D01*
X748551Y69157D01*
X748507Y69147D01*
X748451Y69123D01*
X748328Y69081D01*
X747311Y68659D01*
X734289Y68659D01*
X732422Y69433D01*
X730984Y70871D01*
X730912Y71008D01*
X730815Y71199D01*
X730807Y71209D01*
X730801Y71221D01*
X730671Y71388D01*
X730543Y71557D01*
X730533Y71566D01*
X730525Y71577D01*
X730368Y71719D01*
X730212Y71863D01*
X730201Y71870D01*
X730191Y71878D01*
X730012Y71990D01*
X729832Y72104D01*
X729820Y72109D01*
X729809Y72116D01*
X729612Y72195D01*
X729416Y72275D01*
X729403Y72278D01*
X729390Y72283D01*
X729183Y72325D01*
X728975Y72370D01*
X728960Y72371D01*
X728949Y72373D01*
X728910Y72374D01*
X728663Y72389D01*
X648842Y72389D01*
X648679Y72375D01*
X648514Y72368D01*
X648455Y72355D01*
X648394Y72349D01*
X648235Y72306D01*
X648075Y72270D01*
X648018Y72247D01*
X647959Y72231D01*
X647811Y72160D01*
X647659Y72097D01*
X647608Y72064D01*
X647553Y72037D01*
X647419Y71942D01*
X647281Y71852D01*
X647223Y71801D01*
X647187Y71775D01*
X647144Y71732D01*
X647047Y71646D01*
X611487Y36086D01*
X611403Y35986D01*
X611313Y35893D01*
X611259Y35813D01*
X611198Y35740D01*
X611133Y35627D01*
X611061Y35520D01*
X611022Y35432D01*
X610975Y35349D01*
X610931Y35227D01*
X610878Y35108D01*
X610856Y35015D01*
X610824Y34925D01*
X610802Y34796D01*
X610772Y34670D01*
X610766Y34575D01*
X610750Y34481D01*
X610752Y34350D01*
X610744Y34221D01*
X610755Y34126D01*
X610756Y34030D01*
X610781Y33903D01*
X610796Y33774D01*
X610824Y33682D01*
X610842Y33588D01*
X610889Y33467D01*
X610926Y33343D01*
X610970Y33258D01*
X611004Y33168D01*
X611072Y33057D01*
X611131Y32941D01*
X611188Y32865D01*
X611238Y32784D01*
X611324Y32686D01*
X611403Y32583D01*
X611473Y32518D01*
X611536Y32446D01*
X611638Y32366D01*
X611734Y32277D01*
X611815Y32226D01*
X611889Y32167D01*
X612004Y32106D01*
X612114Y32036D01*
X612202Y31999D01*
X612286Y31954D01*
X612410Y31914D01*
X612530Y31865D01*
X612624Y31845D01*
X612714Y31815D01*
X612843Y31797D01*
X612970Y31770D01*
X613100Y31762D01*
X613161Y31754D01*
X613205Y31755D01*
X613282Y31751D01*
X637603Y31751D01*
X637767Y31765D01*
X637931Y31772D01*
X637991Y31785D01*
X638051Y31791D01*
X638210Y31834D01*
X638371Y31870D01*
X638427Y31893D01*
X638486Y31909D01*
X638634Y31980D01*
X638786Y32043D01*
X638838Y32076D01*
X638892Y32103D01*
X639026Y32198D01*
X639164Y32288D01*
X639222Y32339D01*
X639259Y32365D01*
X639301Y32408D01*
X639398Y32494D01*
X642038Y35134D01*
X647360Y37339D01*
X653120Y37339D01*
X658442Y35134D01*
X662638Y30938D01*
X662663Y30896D01*
X662758Y30789D01*
X662846Y30676D01*
X662907Y30620D01*
X662962Y30559D01*
X663074Y30470D01*
X663180Y30374D01*
X663250Y30330D01*
X663315Y30279D01*
X663441Y30212D01*
X663562Y30136D01*
X663639Y30106D01*
X663712Y30067D01*
X663848Y30022D01*
X663981Y29969D01*
X664061Y29953D01*
X664140Y29927D01*
X664282Y29908D01*
X664422Y29879D01*
X664504Y29877D01*
X664586Y29866D01*
X664729Y29872D01*
X664872Y29869D01*
X664953Y29881D01*
X665036Y29884D01*
X665176Y29916D01*
X665317Y29937D01*
X665395Y29964D01*
X665475Y29982D01*
X665607Y30037D01*
X665743Y30084D01*
X665815Y30124D01*
X665891Y30156D01*
X666011Y30233D01*
X666136Y30303D01*
X666200Y30355D01*
X666269Y30400D01*
X666454Y30563D01*
X666484Y30588D01*
X666491Y30597D01*
X666503Y30607D01*
X667862Y31966D01*
X669383Y33071D01*
X671057Y33924D01*
X672844Y34505D01*
X673101Y34545D01*
X673101Y22860D01*
X673101Y11175D01*
X672844Y11215D01*
X671057Y11796D01*
X669383Y12649D01*
X667862Y13754D01*
X666503Y15113D01*
X666440Y15166D01*
X666383Y15226D01*
X666268Y15310D01*
X666158Y15402D01*
X666086Y15443D01*
X666020Y15491D01*
X665891Y15554D01*
X665767Y15625D01*
X665689Y15653D01*
X665615Y15689D01*
X665478Y15728D01*
X665342Y15776D01*
X665261Y15790D01*
X665182Y15812D01*
X665039Y15826D01*
X664898Y15850D01*
X664816Y15848D01*
X664734Y15857D01*
X664591Y15845D01*
X664448Y15844D01*
X664367Y15828D01*
X664285Y15821D01*
X664147Y15785D01*
X664006Y15758D01*
X663929Y15728D01*
X663849Y15707D01*
X663719Y15647D01*
X663586Y15596D01*
X663516Y15553D01*
X663441Y15518D01*
X663324Y15436D01*
X663201Y15362D01*
X663139Y15307D01*
X663072Y15260D01*
X662971Y15158D01*
X662864Y15064D01*
X662813Y14999D01*
X662755Y14941D01*
X662673Y14823D01*
X662652Y14796D01*
X658442Y10586D01*
X656946Y9966D01*
X656788Y9883D01*
X656628Y9807D01*
X656589Y9780D01*
X656547Y9757D01*
X656406Y9649D01*
X656262Y9545D01*
X656228Y9511D01*
X656191Y9482D01*
X656072Y9350D01*
X655948Y9223D01*
X655921Y9183D01*
X655889Y9147D01*
X655795Y8997D01*
X655696Y8850D01*
X655676Y8806D01*
X655651Y8765D01*
X655585Y8600D01*
X655513Y8438D01*
X655502Y8391D01*
X655484Y8347D01*
X655449Y8173D01*
X655407Y8000D01*
X655404Y7953D01*
X655394Y7906D01*
X655390Y7728D01*
X655379Y7551D01*
X655385Y7503D01*
X655383Y7456D01*
X655411Y7280D01*
X655431Y7104D01*
X655445Y7058D01*
X655452Y7011D01*
X655510Y6843D01*
X655561Y6673D01*
X655583Y6630D01*
X655599Y6585D01*
X655685Y6430D01*
X655766Y6271D01*
X655795Y6233D01*
X655818Y6192D01*
X655931Y6054D01*
X656038Y5913D01*
X656073Y5880D01*
X656103Y5843D01*
X656239Y5728D01*
X656369Y5607D01*
X656409Y5582D01*
X656446Y5551D01*
X656599Y5461D01*
X656749Y5366D01*
X656793Y5347D01*
X656834Y5323D01*
X657001Y5262D01*
X657165Y5195D01*
X657212Y5185D01*
X657257Y5168D01*
X657432Y5137D01*
X657606Y5100D01*
X657665Y5096D01*
X657700Y5090D01*
X657763Y5090D01*
X657917Y5081D01*
X693363Y5081D01*
X693540Y5096D01*
G37*
G36*
X274438Y62246D02*
X274438Y62246D01*
X274557Y62253D01*
X274595Y62266D01*
X274636Y62271D01*
X274746Y62314D01*
X274859Y62351D01*
X274894Y62373D01*
X274931Y62388D01*
X275027Y62458D01*
X275128Y62521D01*
X275156Y62551D01*
X275189Y62574D01*
X275265Y62666D01*
X275346Y62753D01*
X275366Y62788D01*
X275391Y62819D01*
X275442Y62927D01*
X275500Y63031D01*
X275510Y63071D01*
X275527Y63107D01*
X275549Y63224D01*
X275579Y63339D01*
X275583Y63400D01*
X275587Y63420D01*
X275585Y63440D01*
X275589Y63500D01*
X275589Y104140D01*
X275574Y104258D01*
X275567Y104377D01*
X275554Y104415D01*
X275549Y104456D01*
X275506Y104566D01*
X275469Y104679D01*
X275447Y104714D01*
X275432Y104751D01*
X275363Y104847D01*
X275299Y104948D01*
X275269Y104976D01*
X275246Y105009D01*
X275154Y105085D01*
X275067Y105166D01*
X275032Y105186D01*
X275001Y105211D01*
X274893Y105262D01*
X274789Y105320D01*
X274749Y105330D01*
X274713Y105347D01*
X274596Y105369D01*
X274481Y105399D01*
X274421Y105403D01*
X274401Y105407D01*
X274380Y105405D01*
X274320Y105409D01*
X170180Y105409D01*
X170062Y105394D01*
X169943Y105387D01*
X169905Y105374D01*
X169864Y105369D01*
X169754Y105326D01*
X169641Y105289D01*
X169606Y105267D01*
X169569Y105252D01*
X169473Y105183D01*
X169372Y105119D01*
X169344Y105089D01*
X169311Y105066D01*
X169236Y104974D01*
X169154Y104887D01*
X169134Y104852D01*
X169109Y104821D01*
X169058Y104713D01*
X169000Y104609D01*
X168990Y104569D01*
X168973Y104533D01*
X168951Y104416D01*
X168921Y104301D01*
X168917Y104241D01*
X168913Y104221D01*
X168914Y104202D01*
X168913Y104197D01*
X168914Y104188D01*
X168911Y104140D01*
X168911Y63500D01*
X168926Y63382D01*
X168933Y63263D01*
X168946Y63225D01*
X168951Y63184D01*
X168994Y63074D01*
X169031Y62961D01*
X169053Y62926D01*
X169068Y62889D01*
X169138Y62793D01*
X169201Y62692D01*
X169231Y62664D01*
X169254Y62631D01*
X169346Y62556D01*
X169433Y62474D01*
X169468Y62454D01*
X169499Y62429D01*
X169607Y62378D01*
X169711Y62320D01*
X169751Y62310D01*
X169787Y62293D01*
X169904Y62271D01*
X170019Y62241D01*
X170080Y62237D01*
X170100Y62233D01*
X170120Y62235D01*
X170180Y62231D01*
X274320Y62231D01*
X274438Y62246D01*
G37*
G36*
X142358Y176546D02*
X142358Y176546D01*
X142477Y176553D01*
X142515Y176566D01*
X142556Y176571D01*
X142666Y176614D01*
X142779Y176651D01*
X142814Y176673D01*
X142851Y176688D01*
X142947Y176758D01*
X143048Y176821D01*
X143076Y176851D01*
X143109Y176874D01*
X143185Y176966D01*
X143266Y177053D01*
X143286Y177088D01*
X143311Y177119D01*
X143362Y177227D01*
X143420Y177331D01*
X143430Y177371D01*
X143447Y177407D01*
X143469Y177524D01*
X143499Y177639D01*
X143503Y177700D01*
X143507Y177720D01*
X143505Y177740D01*
X143509Y177800D01*
X143509Y223520D01*
X143494Y223638D01*
X143487Y223757D01*
X143474Y223795D01*
X143469Y223836D01*
X143426Y223946D01*
X143389Y224059D01*
X143367Y224094D01*
X143352Y224131D01*
X143283Y224227D01*
X143219Y224328D01*
X143189Y224356D01*
X143166Y224389D01*
X143074Y224465D01*
X142987Y224546D01*
X142952Y224566D01*
X142921Y224591D01*
X142813Y224642D01*
X142709Y224700D01*
X142669Y224710D01*
X142633Y224727D01*
X142516Y224749D01*
X142401Y224779D01*
X142341Y224783D01*
X142321Y224787D01*
X142300Y224785D01*
X142240Y224789D01*
X120030Y224789D01*
X119912Y224774D01*
X119793Y224767D01*
X119755Y224754D01*
X119714Y224749D01*
X119604Y224706D01*
X119491Y224669D01*
X119456Y224647D01*
X119419Y224632D01*
X119323Y224563D01*
X119222Y224499D01*
X119194Y224469D01*
X119161Y224446D01*
X119085Y224354D01*
X119004Y224267D01*
X118984Y224232D01*
X118959Y224201D01*
X118908Y224093D01*
X118850Y223989D01*
X118840Y223949D01*
X118823Y223913D01*
X118801Y223796D01*
X118771Y223681D01*
X118767Y223621D01*
X118763Y223601D01*
X118765Y223580D01*
X118763Y223573D01*
X118764Y223567D01*
X118761Y223520D01*
X118761Y219839D01*
X110490Y219839D01*
X110372Y219824D01*
X110253Y219817D01*
X110215Y219804D01*
X110175Y219799D01*
X110064Y219755D01*
X109951Y219719D01*
X109916Y219697D01*
X109879Y219682D01*
X109783Y219612D01*
X109682Y219549D01*
X109654Y219519D01*
X109622Y219495D01*
X109546Y219404D01*
X109464Y219317D01*
X109445Y219282D01*
X109419Y219250D01*
X109368Y219143D01*
X109311Y219039D01*
X109300Y218999D01*
X109283Y218963D01*
X109261Y218846D01*
X109231Y218731D01*
X109227Y218670D01*
X109223Y218650D01*
X109225Y218630D01*
X109221Y218570D01*
X109221Y217299D01*
X109219Y217299D01*
X109219Y218570D01*
X109204Y218688D01*
X109197Y218807D01*
X109184Y218845D01*
X109179Y218885D01*
X109135Y218996D01*
X109099Y219109D01*
X109077Y219144D01*
X109062Y219181D01*
X108992Y219277D01*
X108929Y219378D01*
X108899Y219406D01*
X108875Y219438D01*
X108784Y219514D01*
X108697Y219596D01*
X108662Y219615D01*
X108630Y219641D01*
X108523Y219692D01*
X108419Y219749D01*
X108379Y219760D01*
X108343Y219777D01*
X108226Y219799D01*
X108111Y219829D01*
X108050Y219833D01*
X108030Y219837D01*
X108010Y219835D01*
X107950Y219839D01*
X99679Y219839D01*
X99679Y223520D01*
X99664Y223638D01*
X99657Y223757D01*
X99644Y223795D01*
X99639Y223836D01*
X99596Y223946D01*
X99559Y224059D01*
X99537Y224094D01*
X99522Y224131D01*
X99453Y224227D01*
X99389Y224328D01*
X99359Y224356D01*
X99336Y224389D01*
X99244Y224465D01*
X99157Y224546D01*
X99122Y224566D01*
X99091Y224591D01*
X98983Y224642D01*
X98879Y224700D01*
X98839Y224710D01*
X98803Y224727D01*
X98686Y224749D01*
X98571Y224779D01*
X98511Y224783D01*
X98491Y224787D01*
X98470Y224785D01*
X98410Y224789D01*
X68580Y224789D01*
X68462Y224774D01*
X68343Y224767D01*
X68305Y224754D01*
X68264Y224749D01*
X68154Y224706D01*
X68041Y224669D01*
X68006Y224647D01*
X67969Y224632D01*
X67873Y224563D01*
X67772Y224499D01*
X67744Y224469D01*
X67711Y224446D01*
X67636Y224354D01*
X67554Y224267D01*
X67534Y224232D01*
X67509Y224201D01*
X67458Y224093D01*
X67400Y223989D01*
X67390Y223949D01*
X67373Y223913D01*
X67351Y223796D01*
X67321Y223681D01*
X67317Y223621D01*
X67313Y223601D01*
X67315Y223580D01*
X67313Y223573D01*
X67314Y223567D01*
X67311Y223520D01*
X67311Y177800D01*
X67326Y177682D01*
X67333Y177563D01*
X67346Y177525D01*
X67351Y177484D01*
X67394Y177374D01*
X67431Y177261D01*
X67453Y177226D01*
X67468Y177189D01*
X67538Y177093D01*
X67601Y176992D01*
X67631Y176964D01*
X67654Y176931D01*
X67746Y176856D01*
X67833Y176774D01*
X67868Y176754D01*
X67899Y176729D01*
X68007Y176678D01*
X68111Y176620D01*
X68151Y176610D01*
X68187Y176593D01*
X68304Y176571D01*
X68419Y176541D01*
X68480Y176537D01*
X68500Y176533D01*
X68520Y176535D01*
X68580Y176531D01*
X142240Y176531D01*
X142358Y176546D01*
G37*
G36*
X438439Y13720D02*
X438439Y13720D01*
X438473Y13718D01*
X438662Y13740D01*
X438853Y13757D01*
X438886Y13766D01*
X438920Y13770D01*
X439103Y13825D01*
X439287Y13875D01*
X439318Y13890D01*
X439351Y13900D01*
X439522Y13987D01*
X439694Y14069D01*
X439722Y14089D01*
X439753Y14104D01*
X439905Y14220D01*
X440060Y14331D01*
X440084Y14356D01*
X440111Y14376D01*
X440240Y14516D01*
X440374Y14653D01*
X440393Y14682D01*
X440417Y14708D01*
X440519Y14869D01*
X440626Y15026D01*
X440640Y15058D01*
X440658Y15087D01*
X440731Y15264D01*
X440808Y15438D01*
X440816Y15472D01*
X440829Y15504D01*
X440869Y15691D01*
X440915Y15876D01*
X440917Y15910D01*
X440924Y15944D01*
X440943Y16256D01*
X440943Y20321D01*
X449580Y20321D01*
X458217Y20321D01*
X458217Y16256D01*
X458220Y16221D01*
X458218Y16187D01*
X458240Y15998D01*
X458257Y15807D01*
X458266Y15774D01*
X458270Y15740D01*
X458325Y15557D01*
X458375Y15373D01*
X458390Y15342D01*
X458400Y15309D01*
X458487Y15138D01*
X458569Y14966D01*
X458589Y14938D01*
X458604Y14907D01*
X458720Y14755D01*
X458831Y14600D01*
X458856Y14576D01*
X458876Y14549D01*
X459016Y14420D01*
X459153Y14286D01*
X459182Y14267D01*
X459208Y14243D01*
X459369Y14141D01*
X459526Y14034D01*
X459558Y14020D01*
X459587Y14002D01*
X459764Y13929D01*
X459938Y13852D01*
X459972Y13844D01*
X460004Y13831D01*
X460191Y13791D01*
X460376Y13745D01*
X460410Y13743D01*
X460444Y13736D01*
X460756Y13717D01*
X476220Y13717D01*
X476255Y13720D01*
X476289Y13718D01*
X476478Y13740D01*
X476669Y13757D01*
X476702Y13766D01*
X476736Y13770D01*
X476919Y13825D01*
X477103Y13875D01*
X477134Y13890D01*
X477167Y13900D01*
X477338Y13987D01*
X477510Y14069D01*
X477538Y14089D01*
X477569Y14104D01*
X477721Y14220D01*
X477876Y14331D01*
X477900Y14356D01*
X477927Y14376D01*
X478056Y14516D01*
X478190Y14653D01*
X478209Y14682D01*
X478233Y14708D01*
X478335Y14869D01*
X478442Y15026D01*
X478456Y15058D01*
X478474Y15087D01*
X478547Y15264D01*
X478624Y15438D01*
X478632Y15472D01*
X478645Y15504D01*
X478685Y15691D01*
X478731Y15876D01*
X478733Y15910D01*
X478740Y15944D01*
X478759Y16256D01*
X478759Y26331D01*
X479533Y28198D01*
X480962Y29627D01*
X483064Y30498D01*
X483252Y30596D01*
X483441Y30692D01*
X483451Y30700D01*
X483463Y30706D01*
X483631Y30836D01*
X483799Y30964D01*
X483808Y30974D01*
X483819Y30982D01*
X483960Y31139D01*
X484105Y31295D01*
X484112Y31307D01*
X484120Y31316D01*
X484232Y31495D01*
X484346Y31675D01*
X484351Y31687D01*
X484358Y31699D01*
X484436Y31895D01*
X484517Y32092D01*
X484520Y32105D01*
X484525Y32117D01*
X484567Y32322D01*
X484612Y32532D01*
X484613Y32548D01*
X484615Y32558D01*
X484616Y32597D01*
X484631Y32844D01*
X484631Y55331D01*
X484617Y55494D01*
X484610Y55659D01*
X484597Y55718D01*
X484591Y55779D01*
X484548Y55938D01*
X484512Y56098D01*
X484489Y56155D01*
X484473Y56213D01*
X484402Y56362D01*
X484339Y56514D01*
X484306Y56565D01*
X484279Y56620D01*
X484184Y56754D01*
X484094Y56892D01*
X484043Y56950D01*
X484017Y56986D01*
X483974Y57029D01*
X483888Y57126D01*
X483608Y57406D01*
X483482Y57511D01*
X483361Y57623D01*
X483310Y57655D01*
X483263Y57694D01*
X483120Y57776D01*
X482981Y57864D01*
X482925Y57888D01*
X482872Y57918D01*
X482717Y57973D01*
X482565Y58035D01*
X482505Y58048D01*
X482447Y58069D01*
X482285Y58095D01*
X482124Y58130D01*
X482048Y58135D01*
X482003Y58142D01*
X481942Y58141D01*
X481813Y58149D01*
X468770Y58149D01*
X468559Y58130D01*
X468348Y58114D01*
X468335Y58111D01*
X468322Y58109D01*
X468117Y58053D01*
X467912Y58000D01*
X467900Y57994D01*
X467887Y57991D01*
X467697Y57900D01*
X467503Y57811D01*
X467493Y57803D01*
X467481Y57797D01*
X467308Y57674D01*
X467135Y57552D01*
X467125Y57543D01*
X467115Y57535D01*
X466966Y57382D01*
X466817Y57233D01*
X466810Y57222D01*
X466801Y57213D01*
X466681Y57036D01*
X466561Y56863D01*
X466555Y56848D01*
X466549Y56840D01*
X466536Y56810D01*
X465078Y55353D01*
X463211Y54579D01*
X451189Y54579D01*
X449322Y55353D01*
X447893Y56782D01*
X447119Y58649D01*
X447119Y70110D01*
X447116Y70145D01*
X447118Y70179D01*
X447096Y70368D01*
X447079Y70559D01*
X447070Y70592D01*
X447066Y70626D01*
X447011Y70809D01*
X446961Y70993D01*
X446946Y71024D01*
X446936Y71057D01*
X446849Y71228D01*
X446767Y71400D01*
X446747Y71428D01*
X446732Y71459D01*
X446616Y71610D01*
X446505Y71766D01*
X446480Y71790D01*
X446460Y71817D01*
X446320Y71946D01*
X446183Y72080D01*
X446154Y72099D01*
X446128Y72123D01*
X445967Y72225D01*
X445810Y72332D01*
X445778Y72346D01*
X445749Y72364D01*
X445572Y72437D01*
X445398Y72514D01*
X445364Y72522D01*
X445332Y72535D01*
X445145Y72575D01*
X444960Y72621D01*
X444926Y72623D01*
X444892Y72630D01*
X444580Y72649D01*
X427708Y72649D01*
X427673Y72646D01*
X427639Y72648D01*
X427450Y72626D01*
X427259Y72609D01*
X427226Y72600D01*
X427192Y72596D01*
X427009Y72541D01*
X426825Y72491D01*
X426794Y72476D01*
X426761Y72466D01*
X426590Y72379D01*
X426418Y72297D01*
X426390Y72277D01*
X426359Y72262D01*
X426207Y72146D01*
X426052Y72035D01*
X426028Y72010D01*
X426001Y71990D01*
X425872Y71850D01*
X425738Y71713D01*
X425719Y71684D01*
X425695Y71658D01*
X425593Y71497D01*
X425486Y71340D01*
X425472Y71308D01*
X425454Y71279D01*
X425381Y71102D01*
X425304Y70928D01*
X425296Y70894D01*
X425283Y70862D01*
X425243Y70675D01*
X425197Y70490D01*
X425195Y70456D01*
X425188Y70422D01*
X425169Y70110D01*
X425169Y69408D01*
X423858Y66244D01*
X421436Y63822D01*
X418272Y62511D01*
X414821Y62511D01*
X414762Y62530D01*
X414595Y62589D01*
X414547Y62597D01*
X414502Y62611D01*
X414326Y62634D01*
X414150Y62663D01*
X414103Y62662D01*
X414055Y62668D01*
X413879Y62659D01*
X413700Y62657D01*
X413653Y62647D01*
X413606Y62645D01*
X413433Y62605D01*
X413258Y62571D01*
X413213Y62554D01*
X413167Y62543D01*
X413004Y62473D01*
X412838Y62409D01*
X412797Y62384D01*
X412754Y62365D01*
X412605Y62267D01*
X412453Y62175D01*
X412418Y62143D01*
X412378Y62117D01*
X412249Y61994D01*
X412116Y61877D01*
X412086Y61839D01*
X412052Y61806D01*
X411947Y61663D01*
X411837Y61524D01*
X411814Y61481D01*
X411786Y61443D01*
X411708Y61283D01*
X411624Y61127D01*
X411609Y61081D01*
X411588Y61038D01*
X411540Y60867D01*
X411485Y60698D01*
X411478Y60651D01*
X411465Y60605D01*
X411448Y60428D01*
X411423Y60252D01*
X411425Y60205D01*
X411421Y60157D01*
X411435Y59980D01*
X411442Y59802D01*
X411452Y59756D01*
X411456Y59708D01*
X411501Y59537D01*
X411539Y59363D01*
X411558Y59319D01*
X411570Y59273D01*
X411644Y59112D01*
X411713Y58947D01*
X411739Y58907D01*
X411759Y58864D01*
X411861Y58719D01*
X411957Y58569D01*
X411996Y58525D01*
X412017Y58495D01*
X412062Y58451D01*
X412164Y58335D01*
X429564Y40935D01*
X430472Y38744D01*
X430526Y38640D01*
X430571Y38533D01*
X430630Y38441D01*
X430680Y38345D01*
X430752Y38253D01*
X430815Y38154D01*
X430917Y38039D01*
X430956Y37989D01*
X430983Y37965D01*
X431022Y37920D01*
X433655Y35287D01*
X435357Y31179D01*
X435357Y16256D01*
X435360Y16221D01*
X435358Y16187D01*
X435380Y15998D01*
X435397Y15807D01*
X435406Y15774D01*
X435410Y15740D01*
X435465Y15557D01*
X435515Y15373D01*
X435530Y15342D01*
X435540Y15309D01*
X435627Y15138D01*
X435709Y14966D01*
X435729Y14938D01*
X435744Y14907D01*
X435860Y14755D01*
X435971Y14600D01*
X435996Y14576D01*
X436016Y14549D01*
X436156Y14420D01*
X436293Y14286D01*
X436322Y14267D01*
X436348Y14243D01*
X436509Y14141D01*
X436666Y14034D01*
X436698Y14020D01*
X436727Y14002D01*
X436904Y13929D01*
X437078Y13852D01*
X437112Y13844D01*
X437144Y13831D01*
X437331Y13791D01*
X437516Y13745D01*
X437550Y13743D01*
X437584Y13736D01*
X437896Y13717D01*
X438404Y13717D01*
X438439Y13720D01*
G37*
G36*
X279577Y142248D02*
X279577Y142248D01*
X279660Y142246D01*
X279801Y142268D01*
X279944Y142281D01*
X280023Y142302D01*
X280105Y142315D01*
X280240Y142362D01*
X280378Y142399D01*
X280452Y142435D01*
X280530Y142461D01*
X280656Y142531D01*
X280785Y142593D01*
X280852Y142640D01*
X280924Y142681D01*
X281034Y142771D01*
X281151Y142855D01*
X281208Y142914D01*
X281272Y142966D01*
X281365Y143075D01*
X281465Y143177D01*
X281511Y143246D01*
X281564Y143308D01*
X281637Y143432D01*
X281717Y143550D01*
X281750Y143626D01*
X281792Y143697D01*
X281841Y143831D01*
X281899Y143962D01*
X281919Y144042D01*
X281947Y144120D01*
X281972Y144261D01*
X282006Y144400D01*
X282011Y144482D01*
X282025Y144563D01*
X282025Y144706D01*
X282034Y144849D01*
X282024Y144931D01*
X282024Y145013D01*
X281998Y145154D01*
X281981Y145296D01*
X281958Y145375D01*
X281943Y145456D01*
X281863Y145689D01*
X281851Y145727D01*
X281846Y145737D01*
X281841Y145752D01*
X281059Y147639D01*
X281059Y157161D01*
X281833Y159028D01*
X282581Y159776D01*
X282665Y159876D01*
X282755Y159969D01*
X282809Y160049D01*
X282870Y160122D01*
X282935Y160235D01*
X283007Y160342D01*
X283046Y160430D01*
X283094Y160513D01*
X283137Y160635D01*
X283190Y160754D01*
X283212Y160847D01*
X283244Y160937D01*
X283266Y161065D01*
X283296Y161192D01*
X283302Y161287D01*
X283318Y161381D01*
X283316Y161511D01*
X283324Y161641D01*
X283313Y161736D01*
X283312Y161831D01*
X283287Y161959D01*
X283272Y162088D01*
X283244Y162180D01*
X283226Y162274D01*
X283179Y162395D01*
X283142Y162519D01*
X283098Y162605D01*
X283064Y162694D01*
X282996Y162805D01*
X282937Y162921D01*
X282880Y162997D01*
X282830Y163078D01*
X282744Y163176D01*
X282665Y163279D01*
X282595Y163344D01*
X282532Y163416D01*
X282430Y163496D01*
X282334Y163585D01*
X282254Y163636D01*
X282179Y163695D01*
X282064Y163756D01*
X281954Y163826D01*
X281866Y163863D01*
X281782Y163908D01*
X281658Y163948D01*
X281538Y163997D01*
X281444Y164017D01*
X281354Y164047D01*
X281225Y164065D01*
X281098Y164092D01*
X280968Y164100D01*
X280908Y164108D01*
X280863Y164107D01*
X280786Y164111D01*
X277688Y164111D01*
X274524Y165422D01*
X272102Y167844D01*
X270791Y171008D01*
X270791Y173121D01*
X270772Y173333D01*
X270756Y173544D01*
X270753Y173556D01*
X270751Y173570D01*
X270695Y173775D01*
X270642Y173979D01*
X270636Y173991D01*
X270633Y174004D01*
X270542Y174194D01*
X270453Y174388D01*
X270445Y174399D01*
X270439Y174411D01*
X270317Y174582D01*
X270194Y174757D01*
X270185Y174766D01*
X270177Y174777D01*
X270025Y174925D01*
X269875Y175074D01*
X269864Y175081D01*
X269855Y175091D01*
X269679Y175210D01*
X269505Y175330D01*
X269490Y175337D01*
X269482Y175343D01*
X269446Y175359D01*
X269224Y175467D01*
X266314Y176672D01*
X263892Y179094D01*
X262582Y182258D01*
X262582Y185683D01*
X263892Y188847D01*
X264351Y189305D01*
X264404Y189368D01*
X264463Y189425D01*
X264548Y189540D01*
X264639Y189650D01*
X264680Y189722D01*
X264729Y189788D01*
X264792Y189917D01*
X264863Y190041D01*
X264890Y190119D01*
X264927Y190193D01*
X264966Y190331D01*
X265014Y190465D01*
X265027Y190547D01*
X265050Y190626D01*
X265064Y190769D01*
X265087Y190910D01*
X265086Y190992D01*
X265094Y191074D01*
X265083Y191217D01*
X265081Y191360D01*
X265065Y191441D01*
X265059Y191523D01*
X265023Y191661D01*
X264995Y191802D01*
X264966Y191879D01*
X264945Y191959D01*
X264885Y192088D01*
X264833Y192222D01*
X264790Y192292D01*
X264756Y192367D01*
X264674Y192485D01*
X264599Y192607D01*
X264545Y192668D01*
X264497Y192736D01*
X264396Y192837D01*
X264301Y192944D01*
X264237Y192995D01*
X264178Y193053D01*
X264060Y193135D01*
X263948Y193223D01*
X263875Y193262D01*
X263808Y193309D01*
X263586Y193418D01*
X263551Y193436D01*
X263541Y193439D01*
X263527Y193446D01*
X261824Y194152D01*
X259402Y196574D01*
X258091Y199738D01*
X258091Y203162D01*
X259402Y206326D01*
X259605Y206530D01*
X259711Y206656D01*
X259823Y206777D01*
X259855Y206829D01*
X259894Y206875D01*
X259976Y207018D01*
X260064Y207157D01*
X260088Y207214D01*
X260118Y207266D01*
X260173Y207421D01*
X260235Y207574D01*
X260248Y207633D01*
X260269Y207691D01*
X260295Y207853D01*
X260330Y208014D01*
X260335Y208091D01*
X260342Y208135D01*
X260341Y208196D01*
X260349Y208326D01*
X260349Y224783D01*
X261316Y227117D01*
X272231Y238032D01*
X272315Y238132D01*
X272405Y238225D01*
X272459Y238305D01*
X272520Y238378D01*
X272585Y238491D01*
X272657Y238598D01*
X272696Y238686D01*
X272743Y238769D01*
X272787Y238891D01*
X272840Y239010D01*
X272862Y239103D01*
X272894Y239193D01*
X272916Y239321D01*
X272946Y239448D01*
X272952Y239543D01*
X272968Y239637D01*
X272966Y239767D01*
X272974Y239897D01*
X272963Y239992D01*
X272962Y240088D01*
X272937Y240215D01*
X272922Y240344D01*
X272894Y240436D01*
X272876Y240530D01*
X272829Y240651D01*
X272792Y240775D01*
X272748Y240860D01*
X272714Y240950D01*
X272646Y241061D01*
X272587Y241177D01*
X272530Y241253D01*
X272480Y241334D01*
X272394Y241432D01*
X272315Y241535D01*
X272245Y241600D01*
X272182Y241672D01*
X272080Y241752D01*
X271984Y241841D01*
X271904Y241892D01*
X271829Y241951D01*
X271714Y242012D01*
X271604Y242082D01*
X271516Y242119D01*
X271432Y242164D01*
X271308Y242204D01*
X271188Y242253D01*
X271094Y242273D01*
X271004Y242303D01*
X270875Y242321D01*
X270748Y242348D01*
X270618Y242356D01*
X270557Y242364D01*
X270513Y242363D01*
X270436Y242367D01*
X257480Y242367D01*
X257317Y242353D01*
X257152Y242346D01*
X257093Y242333D01*
X257032Y242327D01*
X256873Y242284D01*
X256713Y242248D01*
X256656Y242225D01*
X256597Y242209D01*
X256449Y242138D01*
X256297Y242075D01*
X256246Y242042D01*
X256191Y242015D01*
X256057Y241920D01*
X255919Y241830D01*
X255861Y241779D01*
X255825Y241753D01*
X255782Y241710D01*
X255685Y241624D01*
X212737Y198676D01*
X212653Y198576D01*
X212563Y198483D01*
X212509Y198403D01*
X212448Y198330D01*
X212383Y198217D01*
X212311Y198110D01*
X212272Y198022D01*
X212225Y197939D01*
X212181Y197817D01*
X212128Y197698D01*
X212106Y197605D01*
X212074Y197515D01*
X212052Y197386D01*
X212022Y197260D01*
X212016Y197165D01*
X212000Y197071D01*
X212002Y196940D01*
X211994Y196811D01*
X212005Y196716D01*
X212006Y196620D01*
X212031Y196493D01*
X212046Y196364D01*
X212074Y196272D01*
X212092Y196178D01*
X212139Y196057D01*
X212176Y195933D01*
X212220Y195848D01*
X212254Y195758D01*
X212322Y195647D01*
X212381Y195531D01*
X212438Y195455D01*
X212488Y195374D01*
X212574Y195276D01*
X212653Y195173D01*
X212723Y195108D01*
X212786Y195036D01*
X212888Y194956D01*
X212984Y194867D01*
X213065Y194816D01*
X213139Y194757D01*
X213254Y194696D01*
X213364Y194626D01*
X213452Y194589D01*
X213536Y194544D01*
X213660Y194504D01*
X213780Y194455D01*
X213874Y194435D01*
X213964Y194405D01*
X214093Y194387D01*
X214220Y194360D01*
X214350Y194352D01*
X214411Y194344D01*
X214455Y194345D01*
X214532Y194341D01*
X221911Y194341D01*
X223634Y193627D01*
X223667Y193617D01*
X223698Y193601D01*
X223882Y193549D01*
X224064Y193492D01*
X224098Y193488D01*
X224131Y193478D01*
X224321Y193459D01*
X224510Y193435D01*
X224545Y193437D01*
X224579Y193434D01*
X224770Y193449D01*
X224960Y193458D01*
X224994Y193466D01*
X225028Y193469D01*
X225213Y193517D01*
X225399Y193561D01*
X225430Y193574D01*
X225464Y193583D01*
X225637Y193663D01*
X225812Y193738D01*
X225841Y193758D01*
X225873Y193772D01*
X226029Y193882D01*
X226188Y193987D01*
X226213Y194011D01*
X226241Y194030D01*
X226376Y194166D01*
X226514Y194297D01*
X226534Y194325D01*
X226559Y194350D01*
X226667Y194507D01*
X226780Y194661D01*
X226795Y194692D01*
X226815Y194720D01*
X226952Y195001D01*
X227833Y197128D01*
X229262Y198557D01*
X231129Y199331D01*
X250151Y199331D01*
X252018Y198557D01*
X253447Y197128D01*
X254221Y195261D01*
X254221Y185739D01*
X253965Y185122D01*
X253916Y184965D01*
X253859Y184810D01*
X253848Y184750D01*
X253830Y184692D01*
X253809Y184529D01*
X253781Y184367D01*
X253781Y184306D01*
X253773Y184245D01*
X253782Y184081D01*
X253782Y183917D01*
X253793Y183857D01*
X253796Y183796D01*
X253834Y183636D01*
X253863Y183474D01*
X253888Y183401D01*
X253899Y183357D01*
X253923Y183301D01*
X253965Y183178D01*
X254221Y182561D01*
X254221Y173039D01*
X253965Y172422D01*
X253916Y172265D01*
X253859Y172110D01*
X253848Y172050D01*
X253830Y171992D01*
X253809Y171829D01*
X253781Y171667D01*
X253781Y171606D01*
X253773Y171545D01*
X253782Y171381D01*
X253782Y171217D01*
X253793Y171157D01*
X253796Y171096D01*
X253834Y170936D01*
X253863Y170774D01*
X253888Y170701D01*
X253899Y170657D01*
X253923Y170601D01*
X253965Y170478D01*
X254221Y169861D01*
X254221Y160339D01*
X253965Y159722D01*
X253916Y159565D01*
X253859Y159410D01*
X253848Y159350D01*
X253830Y159292D01*
X253809Y159129D01*
X253781Y158967D01*
X253781Y158906D01*
X253773Y158845D01*
X253782Y158681D01*
X253782Y158517D01*
X253793Y158457D01*
X253796Y158396D01*
X253834Y158236D01*
X253863Y158074D01*
X253888Y158001D01*
X253899Y157957D01*
X253923Y157901D01*
X253965Y157778D01*
X254221Y157161D01*
X254221Y147639D01*
X253439Y145752D01*
X253414Y145673D01*
X253381Y145598D01*
X253347Y145459D01*
X253304Y145322D01*
X253294Y145240D01*
X253274Y145160D01*
X253265Y145018D01*
X253247Y144875D01*
X253252Y144793D01*
X253246Y144711D01*
X253263Y144569D01*
X253270Y144426D01*
X253289Y144346D01*
X253299Y144264D01*
X253340Y144126D01*
X253372Y143987D01*
X253405Y143912D01*
X253429Y143833D01*
X253494Y143705D01*
X253550Y143574D01*
X253596Y143505D01*
X253633Y143431D01*
X253720Y143317D01*
X253799Y143198D01*
X253855Y143138D01*
X253905Y143073D01*
X254011Y142976D01*
X254109Y142872D01*
X254176Y142823D01*
X254236Y142768D01*
X254357Y142691D01*
X254473Y142606D01*
X254547Y142570D01*
X254616Y142526D01*
X254749Y142471D01*
X254877Y142408D01*
X254957Y142386D01*
X255033Y142355D01*
X255173Y142325D01*
X255310Y142285D01*
X255392Y142277D01*
X255473Y142260D01*
X255719Y142245D01*
X255758Y142241D01*
X255769Y142242D01*
X255785Y142241D01*
X279495Y142241D01*
X279577Y142248D01*
G37*
G36*
X142358Y13986D02*
X142358Y13986D01*
X142477Y13993D01*
X142515Y14006D01*
X142556Y14011D01*
X142666Y14054D01*
X142779Y14091D01*
X142814Y14113D01*
X142851Y14128D01*
X142947Y14198D01*
X143048Y14261D01*
X143076Y14291D01*
X143109Y14314D01*
X143185Y14406D01*
X143266Y14493D01*
X143286Y14528D01*
X143311Y14559D01*
X143362Y14667D01*
X143420Y14771D01*
X143430Y14811D01*
X143447Y14847D01*
X143469Y14964D01*
X143499Y15079D01*
X143503Y15140D01*
X143507Y15160D01*
X143505Y15180D01*
X143509Y15240D01*
X143509Y52071D01*
X184151Y52071D01*
X184151Y48260D01*
X184166Y48142D01*
X184173Y48023D01*
X184186Y47985D01*
X184191Y47944D01*
X184234Y47834D01*
X184271Y47721D01*
X184293Y47686D01*
X184308Y47649D01*
X184378Y47553D01*
X184441Y47452D01*
X184471Y47424D01*
X184494Y47391D01*
X184586Y47316D01*
X184673Y47234D01*
X184708Y47214D01*
X184739Y47189D01*
X184847Y47138D01*
X184951Y47080D01*
X184991Y47070D01*
X185027Y47053D01*
X185144Y47031D01*
X185259Y47001D01*
X185320Y46997D01*
X185340Y46993D01*
X185360Y46995D01*
X185420Y46991D01*
X205740Y46991D01*
X205858Y47006D01*
X205977Y47013D01*
X206015Y47026D01*
X206056Y47031D01*
X206166Y47074D01*
X206279Y47111D01*
X206314Y47133D01*
X206351Y47148D01*
X206447Y47218D01*
X206548Y47281D01*
X206576Y47311D01*
X206609Y47334D01*
X206685Y47426D01*
X206766Y47513D01*
X206786Y47548D01*
X206811Y47579D01*
X206862Y47687D01*
X206920Y47791D01*
X206930Y47831D01*
X206947Y47867D01*
X206969Y47984D01*
X206999Y48099D01*
X207003Y48160D01*
X207007Y48180D01*
X207005Y48200D01*
X207009Y48260D01*
X207009Y58420D01*
X206994Y58538D01*
X206987Y58657D01*
X206974Y58695D01*
X206969Y58736D01*
X206926Y58846D01*
X206889Y58959D01*
X206867Y58994D01*
X206852Y59031D01*
X206783Y59127D01*
X206719Y59228D01*
X206689Y59256D01*
X206666Y59289D01*
X206574Y59365D01*
X206487Y59446D01*
X206452Y59466D01*
X206421Y59491D01*
X206313Y59542D01*
X206209Y59600D01*
X206169Y59610D01*
X206133Y59627D01*
X206016Y59649D01*
X205901Y59679D01*
X205841Y59683D01*
X205821Y59687D01*
X205800Y59685D01*
X205740Y59689D01*
X166369Y59689D01*
X166369Y104140D01*
X166354Y104258D01*
X166347Y104377D01*
X166334Y104415D01*
X166329Y104456D01*
X166286Y104566D01*
X166249Y104679D01*
X166227Y104714D01*
X166212Y104751D01*
X166143Y104847D01*
X166079Y104948D01*
X166049Y104976D01*
X166026Y105009D01*
X165934Y105085D01*
X165847Y105166D01*
X165812Y105186D01*
X165781Y105211D01*
X165673Y105262D01*
X165569Y105320D01*
X165529Y105330D01*
X165493Y105347D01*
X165376Y105369D01*
X165261Y105399D01*
X165201Y105403D01*
X165181Y105407D01*
X165160Y105405D01*
X165100Y105409D01*
X142240Y105409D01*
X142122Y105394D01*
X142003Y105387D01*
X141965Y105374D01*
X141924Y105369D01*
X141814Y105326D01*
X141701Y105289D01*
X141666Y105267D01*
X141629Y105252D01*
X141533Y105183D01*
X141432Y105119D01*
X141404Y105089D01*
X141371Y105066D01*
X141296Y104974D01*
X141214Y104887D01*
X141194Y104852D01*
X141169Y104821D01*
X141118Y104713D01*
X141060Y104609D01*
X141050Y104569D01*
X141033Y104533D01*
X141011Y104416D01*
X140981Y104301D01*
X140977Y104241D01*
X140973Y104221D01*
X140975Y104200D01*
X140971Y104140D01*
X140971Y83820D01*
X140986Y83702D01*
X140993Y83583D01*
X141006Y83545D01*
X141011Y83504D01*
X141054Y83394D01*
X141091Y83281D01*
X141113Y83246D01*
X141128Y83209D01*
X141198Y83113D01*
X141261Y83012D01*
X141291Y82984D01*
X141314Y82951D01*
X141406Y82876D01*
X141493Y82794D01*
X141528Y82774D01*
X141559Y82749D01*
X141667Y82698D01*
X141771Y82640D01*
X141811Y82630D01*
X141847Y82613D01*
X141964Y82591D01*
X142079Y82561D01*
X142140Y82557D01*
X142160Y82553D01*
X142180Y82555D01*
X142240Y82551D01*
X158751Y82551D01*
X158751Y59689D01*
X134620Y59689D01*
X134502Y59674D01*
X134383Y59667D01*
X134345Y59654D01*
X134304Y59649D01*
X134194Y59606D01*
X134081Y59569D01*
X134046Y59547D01*
X134009Y59532D01*
X133913Y59463D01*
X133812Y59399D01*
X133784Y59369D01*
X133751Y59346D01*
X133676Y59254D01*
X133594Y59167D01*
X133574Y59132D01*
X133549Y59101D01*
X133498Y58993D01*
X133440Y58889D01*
X133430Y58849D01*
X133413Y58813D01*
X133391Y58696D01*
X133361Y58581D01*
X133357Y58521D01*
X133353Y58501D01*
X133355Y58481D01*
X133353Y58475D01*
X133354Y58468D01*
X133351Y58420D01*
X133351Y15240D01*
X133366Y15122D01*
X133373Y15003D01*
X133386Y14965D01*
X133391Y14924D01*
X133434Y14814D01*
X133471Y14701D01*
X133493Y14666D01*
X133508Y14629D01*
X133578Y14533D01*
X133641Y14432D01*
X133671Y14404D01*
X133694Y14371D01*
X133786Y14296D01*
X133873Y14214D01*
X133908Y14194D01*
X133939Y14169D01*
X134047Y14118D01*
X134151Y14060D01*
X134191Y14050D01*
X134227Y14033D01*
X134344Y14011D01*
X134459Y13981D01*
X134520Y13977D01*
X134540Y13973D01*
X134560Y13975D01*
X134620Y13971D01*
X142240Y13971D01*
X142358Y13986D01*
G37*
G36*
X326028Y196865D02*
X326028Y196865D01*
X326192Y196872D01*
X326252Y196885D01*
X326313Y196891D01*
X326472Y196934D01*
X326632Y196970D01*
X326688Y196993D01*
X326747Y197009D01*
X326895Y197080D01*
X327048Y197143D01*
X327099Y197176D01*
X327154Y197203D01*
X327287Y197298D01*
X327426Y197388D01*
X327484Y197439D01*
X327520Y197465D01*
X327562Y197508D01*
X327660Y197594D01*
X327864Y197798D01*
X329109Y198314D01*
X329224Y198374D01*
X329344Y198426D01*
X329423Y198478D01*
X329508Y198523D01*
X329611Y198602D01*
X329719Y198674D01*
X329789Y198740D01*
X329864Y198798D01*
X329951Y198895D01*
X330045Y198985D01*
X330102Y199062D01*
X330166Y199133D01*
X330235Y199243D01*
X330311Y199348D01*
X330353Y199434D01*
X330404Y199515D01*
X330452Y199636D01*
X330509Y199752D01*
X330535Y199844D01*
X330570Y199933D01*
X330596Y200061D01*
X330632Y200186D01*
X330641Y200281D01*
X330660Y200374D01*
X330664Y200504D01*
X330676Y200634D01*
X330669Y200729D01*
X330671Y200824D01*
X330651Y200953D01*
X330641Y201083D01*
X330617Y201175D01*
X330602Y201269D01*
X330560Y201392D01*
X330527Y201518D01*
X330487Y201605D01*
X330456Y201695D01*
X330393Y201809D01*
X330338Y201927D01*
X330283Y202005D01*
X330237Y202088D01*
X330154Y202189D01*
X330080Y202296D01*
X330012Y202363D01*
X329951Y202437D01*
X329853Y202521D01*
X329760Y202613D01*
X329682Y202667D01*
X329609Y202729D01*
X329497Y202795D01*
X329390Y202869D01*
X329273Y202926D01*
X329220Y202957D01*
X329178Y202972D01*
X329109Y203006D01*
X327864Y203522D01*
X325442Y205944D01*
X324131Y209108D01*
X324131Y212556D01*
X324164Y212672D01*
X324222Y212855D01*
X324226Y212889D01*
X324235Y212923D01*
X324254Y213112D01*
X324278Y213301D01*
X324277Y213336D01*
X324280Y213371D01*
X324265Y213561D01*
X324255Y213751D01*
X324247Y213785D01*
X324245Y213819D01*
X324196Y214004D01*
X324153Y214190D01*
X324140Y214221D01*
X324131Y214255D01*
X324051Y214428D01*
X323975Y214603D01*
X323956Y214632D01*
X323942Y214664D01*
X323832Y214820D01*
X323727Y214979D01*
X323703Y215004D01*
X323683Y215032D01*
X323548Y215167D01*
X323416Y215305D01*
X323388Y215325D01*
X323364Y215350D01*
X323207Y215458D01*
X323053Y215571D01*
X323022Y215586D01*
X322993Y215606D01*
X322713Y215743D01*
X321694Y216165D01*
X320265Y217594D01*
X319491Y219461D01*
X319491Y230152D01*
X319488Y230187D01*
X319490Y230221D01*
X319468Y230410D01*
X319451Y230601D01*
X319442Y230634D01*
X319438Y230668D01*
X319383Y230851D01*
X319333Y231035D01*
X319318Y231066D01*
X319308Y231099D01*
X319221Y231270D01*
X319139Y231442D01*
X319119Y231470D01*
X319104Y231501D01*
X318988Y231653D01*
X318877Y231808D01*
X318852Y231832D01*
X318832Y231859D01*
X318692Y231988D01*
X318555Y232122D01*
X318526Y232141D01*
X318500Y232165D01*
X318339Y232267D01*
X318182Y232374D01*
X318150Y232388D01*
X318121Y232406D01*
X317944Y232479D01*
X317770Y232556D01*
X317736Y232564D01*
X317704Y232577D01*
X317518Y232617D01*
X317332Y232663D01*
X317298Y232665D01*
X317264Y232672D01*
X316952Y232691D01*
X313248Y232691D01*
X310084Y234002D01*
X307662Y236424D01*
X306351Y239588D01*
X306351Y239828D01*
X306348Y239863D01*
X306350Y239897D01*
X306328Y240086D01*
X306311Y240277D01*
X306302Y240310D01*
X306298Y240344D01*
X306243Y240527D01*
X306193Y240711D01*
X306178Y240742D01*
X306168Y240775D01*
X306081Y240946D01*
X305999Y241118D01*
X305979Y241146D01*
X305964Y241177D01*
X305848Y241329D01*
X305737Y241484D01*
X305712Y241508D01*
X305692Y241535D01*
X305552Y241664D01*
X305415Y241798D01*
X305386Y241817D01*
X305360Y241841D01*
X305199Y241943D01*
X305042Y242050D01*
X305010Y242064D01*
X304981Y242082D01*
X304804Y242155D01*
X304630Y242232D01*
X304596Y242240D01*
X304564Y242253D01*
X304377Y242293D01*
X304192Y242339D01*
X304158Y242341D01*
X304124Y242348D01*
X303812Y242367D01*
X295628Y242367D01*
X295593Y242364D01*
X295559Y242366D01*
X295370Y242344D01*
X295179Y242327D01*
X295146Y242318D01*
X295112Y242314D01*
X294929Y242259D01*
X294745Y242209D01*
X294714Y242194D01*
X294681Y242184D01*
X294510Y242097D01*
X294338Y242015D01*
X294310Y241995D01*
X294279Y241980D01*
X294127Y241864D01*
X293972Y241753D01*
X293948Y241728D01*
X293921Y241708D01*
X293792Y241568D01*
X293658Y241431D01*
X293639Y241402D01*
X293615Y241376D01*
X293513Y241215D01*
X293406Y241058D01*
X293392Y241026D01*
X293374Y240997D01*
X293301Y240820D01*
X293224Y240646D01*
X293216Y240612D01*
X293203Y240580D01*
X293163Y240393D01*
X293117Y240208D01*
X293115Y240174D01*
X293108Y240140D01*
X293089Y239828D01*
X293089Y239588D01*
X291778Y236424D01*
X289356Y234002D01*
X286192Y232691D01*
X285904Y232691D01*
X285741Y232677D01*
X285576Y232670D01*
X285517Y232657D01*
X285456Y232651D01*
X285297Y232608D01*
X285137Y232572D01*
X285080Y232549D01*
X285021Y232533D01*
X284873Y232462D01*
X284721Y232399D01*
X284670Y232366D01*
X284615Y232339D01*
X284481Y232244D01*
X284343Y232154D01*
X284285Y232103D01*
X284249Y232077D01*
X284206Y232034D01*
X284109Y231948D01*
X273794Y221633D01*
X273689Y221507D01*
X273577Y221386D01*
X273545Y221335D01*
X273506Y221288D01*
X273424Y221145D01*
X273336Y221006D01*
X273312Y220950D01*
X273282Y220897D01*
X273227Y220742D01*
X273165Y220590D01*
X273152Y220530D01*
X273131Y220473D01*
X273105Y220310D01*
X273070Y220150D01*
X273065Y220073D01*
X273058Y220028D01*
X273059Y219967D01*
X273051Y219838D01*
X273051Y208326D01*
X273065Y208162D01*
X273072Y207997D01*
X273085Y207938D01*
X273091Y207877D01*
X273134Y207718D01*
X273170Y207558D01*
X273193Y207501D01*
X273209Y207443D01*
X273280Y207295D01*
X273343Y207142D01*
X273376Y207091D01*
X273403Y207036D01*
X273498Y206903D01*
X273588Y206764D01*
X273639Y206706D01*
X273665Y206670D01*
X273708Y206627D01*
X273795Y206530D01*
X273998Y206326D01*
X275313Y203152D01*
X275320Y203070D01*
X275322Y202941D01*
X275340Y202847D01*
X275349Y202752D01*
X275383Y202626D01*
X275408Y202498D01*
X275442Y202409D01*
X275467Y202317D01*
X275523Y202200D01*
X275570Y202078D01*
X275620Y201997D01*
X275661Y201911D01*
X275736Y201805D01*
X275804Y201694D01*
X275867Y201622D01*
X275923Y201544D01*
X276016Y201454D01*
X276102Y201356D01*
X276177Y201297D01*
X276245Y201230D01*
X276353Y201158D01*
X276455Y201077D01*
X276539Y201032D01*
X276618Y200978D01*
X276737Y200926D01*
X276852Y200864D01*
X276943Y200835D01*
X277030Y200796D01*
X277157Y200765D01*
X277280Y200725D01*
X277375Y200712D01*
X277468Y200689D01*
X277597Y200681D01*
X277726Y200664D01*
X277822Y200668D01*
X277917Y200662D01*
X278046Y200677D01*
X278176Y200682D01*
X278269Y200703D01*
X278364Y200714D01*
X278489Y200752D01*
X278616Y200780D01*
X278704Y200816D01*
X278795Y200844D01*
X278911Y200903D01*
X279031Y200953D01*
X279111Y201005D01*
X279197Y201048D01*
X279300Y201127D01*
X279409Y201198D01*
X279507Y201284D01*
X279555Y201320D01*
X279586Y201353D01*
X279644Y201405D01*
X281175Y202936D01*
X283509Y203903D01*
X305771Y203903D01*
X308105Y202936D01*
X313447Y197594D01*
X313573Y197489D01*
X313694Y197377D01*
X313745Y197345D01*
X313792Y197306D01*
X313935Y197224D01*
X314073Y197136D01*
X314130Y197112D01*
X314183Y197082D01*
X314338Y197027D01*
X314490Y196965D01*
X314550Y196952D01*
X314607Y196931D01*
X314770Y196905D01*
X314930Y196870D01*
X315007Y196865D01*
X315051Y196858D01*
X315112Y196859D01*
X315242Y196851D01*
X325864Y196851D01*
X326028Y196865D01*
G37*
G36*
X127118Y11446D02*
X127118Y11446D01*
X127237Y11453D01*
X127275Y11466D01*
X127316Y11471D01*
X127426Y11514D01*
X127539Y11551D01*
X127574Y11573D01*
X127611Y11588D01*
X127707Y11658D01*
X127808Y11721D01*
X127836Y11751D01*
X127869Y11774D01*
X127945Y11866D01*
X128026Y11953D01*
X128046Y11988D01*
X128071Y12019D01*
X128122Y12127D01*
X128180Y12231D01*
X128190Y12271D01*
X128207Y12307D01*
X128229Y12424D01*
X128259Y12539D01*
X128263Y12600D01*
X128267Y12620D01*
X128265Y12640D01*
X128269Y12700D01*
X128269Y59691D01*
X130694Y59691D01*
X130792Y59703D01*
X130891Y59706D01*
X130950Y59723D01*
X131010Y59731D01*
X131102Y59767D01*
X131197Y59795D01*
X131249Y59825D01*
X131305Y59848D01*
X131385Y59906D01*
X131471Y59956D01*
X131546Y60022D01*
X131563Y60034D01*
X131571Y60044D01*
X131592Y60063D01*
X133252Y61723D01*
X155448Y61723D01*
X155566Y61738D01*
X155685Y61745D01*
X155723Y61758D01*
X155764Y61763D01*
X155874Y61806D01*
X155987Y61843D01*
X156022Y61865D01*
X156059Y61880D01*
X156155Y61949D01*
X156256Y62013D01*
X156284Y62043D01*
X156317Y62066D01*
X156393Y62158D01*
X156474Y62245D01*
X156494Y62280D01*
X156519Y62311D01*
X156570Y62419D01*
X156628Y62523D01*
X156638Y62563D01*
X156655Y62599D01*
X156677Y62716D01*
X156707Y62831D01*
X156711Y62891D01*
X156715Y62911D01*
X156713Y62932D01*
X156717Y62992D01*
X156717Y78740D01*
X156702Y78858D01*
X156695Y78977D01*
X156682Y79015D01*
X156677Y79056D01*
X156634Y79166D01*
X156597Y79279D01*
X156575Y79314D01*
X156560Y79351D01*
X156491Y79447D01*
X156427Y79548D01*
X156397Y79576D01*
X156374Y79609D01*
X156282Y79685D01*
X156195Y79766D01*
X156160Y79786D01*
X156129Y79811D01*
X156021Y79862D01*
X155917Y79920D01*
X155877Y79930D01*
X155841Y79947D01*
X155724Y79969D01*
X155609Y79999D01*
X155549Y80003D01*
X155529Y80007D01*
X155508Y80005D01*
X155448Y80009D01*
X116332Y80009D01*
X116214Y79994D01*
X116095Y79987D01*
X116057Y79974D01*
X116016Y79969D01*
X115906Y79926D01*
X115793Y79889D01*
X115758Y79867D01*
X115721Y79852D01*
X115625Y79783D01*
X115524Y79719D01*
X115496Y79689D01*
X115463Y79666D01*
X115387Y79574D01*
X115306Y79487D01*
X115286Y79452D01*
X115261Y79421D01*
X115210Y79313D01*
X115152Y79209D01*
X115142Y79169D01*
X115125Y79133D01*
X115103Y79016D01*
X115073Y78901D01*
X115069Y78841D01*
X115065Y78821D01*
X115067Y78800D01*
X115065Y78782D01*
X115065Y78781D01*
X115063Y78740D01*
X115063Y31652D01*
X113403Y29992D01*
X113342Y29913D01*
X113274Y29841D01*
X113245Y29788D01*
X113208Y29740D01*
X113168Y29649D01*
X113120Y29563D01*
X113105Y29504D01*
X113081Y29449D01*
X113066Y29351D01*
X113041Y29255D01*
X113035Y29155D01*
X113031Y29135D01*
X113033Y29122D01*
X113031Y29094D01*
X113031Y12700D01*
X113046Y12582D01*
X113053Y12463D01*
X113066Y12425D01*
X113071Y12384D01*
X113114Y12274D01*
X113151Y12161D01*
X113173Y12126D01*
X113188Y12089D01*
X113258Y11993D01*
X113321Y11892D01*
X113351Y11864D01*
X113374Y11831D01*
X113466Y11756D01*
X113553Y11674D01*
X113588Y11654D01*
X113619Y11629D01*
X113727Y11578D01*
X113831Y11520D01*
X113871Y11510D01*
X113907Y11493D01*
X114024Y11471D01*
X114139Y11441D01*
X114200Y11437D01*
X114220Y11433D01*
X114240Y11435D01*
X114300Y11431D01*
X127000Y11431D01*
X127118Y11446D01*
G37*
G36*
X384963Y64976D02*
X384963Y64976D01*
X385046Y64976D01*
X385186Y65002D01*
X385326Y65018D01*
X385407Y65043D01*
X385489Y65058D01*
X385622Y65108D01*
X385757Y65149D01*
X385832Y65187D01*
X385911Y65216D01*
X386032Y65289D01*
X386159Y65353D01*
X386225Y65404D01*
X386298Y65447D01*
X386405Y65540D01*
X386517Y65625D01*
X386574Y65687D01*
X386638Y65742D01*
X386727Y65852D01*
X386823Y65956D01*
X386868Y66027D01*
X386920Y66092D01*
X386988Y66216D01*
X387064Y66336D01*
X387096Y66414D01*
X387137Y66487D01*
X387182Y66621D01*
X387235Y66753D01*
X387253Y66834D01*
X387280Y66914D01*
X387300Y67054D01*
X387330Y67193D01*
X387337Y67303D01*
X387345Y67360D01*
X387344Y67411D01*
X387349Y67505D01*
X387349Y91273D01*
X388316Y93607D01*
X390460Y95751D01*
X392036Y97327D01*
X392141Y97453D01*
X392253Y97574D01*
X392285Y97625D01*
X392324Y97672D01*
X392406Y97815D01*
X392494Y97953D01*
X392518Y98010D01*
X392548Y98063D01*
X392603Y98218D01*
X392665Y98370D01*
X392678Y98430D01*
X392699Y98487D01*
X392725Y98649D01*
X392760Y98810D01*
X392765Y98887D01*
X392772Y98931D01*
X392771Y98992D01*
X392779Y99122D01*
X392779Y121128D01*
X392768Y121257D01*
X392766Y121387D01*
X392748Y121481D01*
X392739Y121576D01*
X392705Y121702D01*
X392680Y121829D01*
X392646Y121918D01*
X392621Y122011D01*
X392565Y122128D01*
X392518Y122249D01*
X392468Y122331D01*
X392427Y122417D01*
X392352Y122523D01*
X392284Y122634D01*
X392221Y122706D01*
X392165Y122783D01*
X392072Y122874D01*
X391986Y122971D01*
X391911Y123031D01*
X391843Y123097D01*
X391735Y123170D01*
X391633Y123251D01*
X391549Y123296D01*
X391470Y123349D01*
X391351Y123402D01*
X391236Y123463D01*
X391145Y123493D01*
X391058Y123532D01*
X390931Y123562D01*
X390808Y123603D01*
X390713Y123616D01*
X390620Y123638D01*
X390491Y123646D01*
X390362Y123664D01*
X390266Y123660D01*
X390171Y123666D01*
X390042Y123651D01*
X389912Y123646D01*
X389819Y123625D01*
X389724Y123614D01*
X389599Y123576D01*
X389472Y123548D01*
X389384Y123511D01*
X389293Y123484D01*
X389177Y123425D01*
X389057Y123374D01*
X388976Y123323D01*
X388891Y123279D01*
X388788Y123201D01*
X388679Y123130D01*
X388581Y123044D01*
X388533Y123007D01*
X388502Y122974D01*
X388444Y122923D01*
X363137Y97616D01*
X360803Y96649D01*
X358536Y96649D01*
X358406Y96638D01*
X358276Y96636D01*
X358182Y96618D01*
X358087Y96609D01*
X357962Y96575D01*
X357834Y96550D01*
X357745Y96516D01*
X357653Y96491D01*
X357535Y96435D01*
X357414Y96388D01*
X357332Y96338D01*
X357246Y96297D01*
X357140Y96222D01*
X357029Y96154D01*
X356958Y96091D01*
X356880Y96035D01*
X356789Y95942D01*
X356692Y95856D01*
X356633Y95781D01*
X356566Y95713D01*
X356493Y95605D01*
X356412Y95503D01*
X356367Y95419D01*
X356314Y95340D01*
X356261Y95221D01*
X356200Y95106D01*
X356170Y95015D01*
X356132Y94928D01*
X356101Y94801D01*
X356061Y94678D01*
X356048Y94583D01*
X356025Y94490D01*
X356017Y94361D01*
X355999Y94232D01*
X356003Y94136D01*
X355997Y94041D01*
X356012Y93912D01*
X356018Y93782D01*
X356038Y93689D01*
X356049Y93594D01*
X356087Y93469D01*
X356115Y93342D01*
X356152Y93254D01*
X356180Y93163D01*
X356239Y93047D01*
X356289Y92927D01*
X356341Y92847D01*
X356384Y92761D01*
X356462Y92658D01*
X356533Y92549D01*
X356619Y92451D01*
X356656Y92403D01*
X356689Y92372D01*
X356740Y92314D01*
X357818Y91236D01*
X359129Y88072D01*
X359129Y86805D01*
X359148Y86594D01*
X359164Y86383D01*
X359167Y86370D01*
X359169Y86357D01*
X359225Y86151D01*
X359278Y85947D01*
X359284Y85935D01*
X359287Y85922D01*
X359378Y85732D01*
X359467Y85538D01*
X359475Y85527D01*
X359481Y85516D01*
X359603Y85344D01*
X359726Y85170D01*
X359735Y85160D01*
X359743Y85150D01*
X359895Y85001D01*
X360045Y84852D01*
X360056Y84845D01*
X360065Y84836D01*
X360241Y84717D01*
X360415Y84596D01*
X360430Y84589D01*
X360438Y84583D01*
X360474Y84567D01*
X360696Y84459D01*
X363016Y83498D01*
X363239Y83275D01*
X363329Y83200D01*
X363412Y83118D01*
X363501Y83056D01*
X363585Y82986D01*
X363686Y82928D01*
X363782Y82862D01*
X363921Y82794D01*
X363976Y82763D01*
X364010Y82751D01*
X364063Y82725D01*
X366817Y81584D01*
X378764Y69637D01*
X379762Y67228D01*
X379771Y67131D01*
X379780Y67098D01*
X379784Y67064D01*
X379839Y66881D01*
X379889Y66697D01*
X379904Y66666D01*
X379914Y66633D01*
X380001Y66462D01*
X380083Y66290D01*
X380103Y66262D01*
X380118Y66231D01*
X380234Y66079D01*
X380345Y65924D01*
X380370Y65900D01*
X380390Y65873D01*
X380530Y65744D01*
X380667Y65610D01*
X380696Y65591D01*
X380722Y65567D01*
X380883Y65465D01*
X381040Y65358D01*
X381072Y65344D01*
X381101Y65326D01*
X381278Y65253D01*
X381452Y65176D01*
X381486Y65168D01*
X381518Y65155D01*
X381705Y65115D01*
X381890Y65069D01*
X381924Y65067D01*
X381958Y65060D01*
X382270Y65041D01*
X384217Y65041D01*
X384292Y65028D01*
X384430Y64994D01*
X384513Y64989D01*
X384596Y64974D01*
X384738Y64975D01*
X384879Y64966D01*
X384963Y64976D01*
G37*
G36*
X202532Y217632D02*
X202532Y217632D01*
X202675Y217629D01*
X202756Y217641D01*
X202838Y217645D01*
X202978Y217676D01*
X203120Y217698D01*
X203198Y217724D01*
X203278Y217742D01*
X203410Y217797D01*
X203546Y217844D01*
X203617Y217884D01*
X203693Y217916D01*
X203814Y217994D01*
X203939Y218063D01*
X204002Y218115D01*
X204072Y218160D01*
X204257Y218324D01*
X204287Y218349D01*
X204294Y218357D01*
X204306Y218367D01*
X235043Y249104D01*
X235127Y249204D01*
X235217Y249297D01*
X235271Y249377D01*
X235332Y249450D01*
X235397Y249563D01*
X235469Y249670D01*
X235508Y249758D01*
X235555Y249841D01*
X235599Y249963D01*
X235652Y250082D01*
X235674Y250175D01*
X235706Y250265D01*
X235728Y250394D01*
X235758Y250520D01*
X235764Y250615D01*
X235780Y250709D01*
X235778Y250840D01*
X235786Y250969D01*
X235775Y251064D01*
X235774Y251160D01*
X235749Y251287D01*
X235734Y251416D01*
X235706Y251508D01*
X235688Y251602D01*
X235641Y251723D01*
X235604Y251847D01*
X235560Y251932D01*
X235526Y252022D01*
X235458Y252133D01*
X235399Y252249D01*
X235342Y252325D01*
X235292Y252406D01*
X235206Y252504D01*
X235127Y252607D01*
X235057Y252672D01*
X234994Y252744D01*
X234892Y252824D01*
X234796Y252913D01*
X234715Y252964D01*
X234641Y253023D01*
X234526Y253084D01*
X234416Y253154D01*
X234328Y253191D01*
X234244Y253236D01*
X234120Y253276D01*
X234000Y253325D01*
X233906Y253345D01*
X233816Y253375D01*
X233687Y253393D01*
X233560Y253420D01*
X233430Y253428D01*
X233369Y253436D01*
X233325Y253435D01*
X233248Y253439D01*
X212672Y253439D01*
X212509Y253425D01*
X212344Y253418D01*
X212285Y253405D01*
X212224Y253399D01*
X212065Y253356D01*
X211905Y253320D01*
X211848Y253297D01*
X211789Y253281D01*
X211641Y253210D01*
X211489Y253147D01*
X211438Y253114D01*
X211383Y253087D01*
X211249Y252992D01*
X211111Y252902D01*
X211053Y252851D01*
X211017Y252825D01*
X210974Y252782D01*
X210877Y252696D01*
X202872Y244691D01*
X202735Y244527D01*
X202598Y244367D01*
X202591Y244355D01*
X202583Y244345D01*
X202478Y244161D01*
X202371Y243978D01*
X202366Y243966D01*
X202360Y243954D01*
X202289Y243756D01*
X202215Y243555D01*
X202213Y243542D01*
X202209Y243530D01*
X202174Y243320D01*
X202137Y243112D01*
X202137Y243099D01*
X202135Y243086D01*
X202138Y242872D01*
X202139Y242662D01*
X202141Y242649D01*
X202141Y242635D01*
X202182Y242426D01*
X202220Y242219D01*
X202225Y242204D01*
X202227Y242193D01*
X202241Y242157D01*
X202321Y241923D01*
X202439Y241640D01*
X202439Y235880D01*
X200234Y230558D01*
X196262Y226586D01*
X196239Y226559D01*
X196213Y226536D01*
X196095Y226387D01*
X195973Y226240D01*
X195955Y226210D01*
X195934Y226183D01*
X195844Y226015D01*
X195749Y225849D01*
X195738Y225817D01*
X195721Y225786D01*
X195662Y225605D01*
X195598Y225425D01*
X195593Y225391D01*
X195582Y225358D01*
X195556Y225169D01*
X195525Y224981D01*
X195525Y224946D01*
X195521Y224912D01*
X195528Y224721D01*
X195531Y224530D01*
X195538Y224496D01*
X195539Y224462D01*
X195580Y224276D01*
X195617Y224088D01*
X195629Y224056D01*
X195637Y224022D01*
X195710Y223847D01*
X195779Y223668D01*
X195797Y223639D01*
X195810Y223607D01*
X195914Y223447D01*
X196013Y223284D01*
X196036Y223258D01*
X196055Y223229D01*
X196262Y222994D01*
X200259Y218997D01*
X200307Y218919D01*
X200373Y218792D01*
X200423Y218727D01*
X200466Y218656D01*
X200561Y218549D01*
X200649Y218436D01*
X200710Y218381D01*
X200764Y218319D01*
X200876Y218230D01*
X200983Y218134D01*
X201053Y218091D01*
X201117Y218040D01*
X201243Y217972D01*
X201365Y217896D01*
X201442Y217866D01*
X201514Y217827D01*
X201650Y217783D01*
X201783Y217730D01*
X201864Y217713D01*
X201942Y217688D01*
X202084Y217668D01*
X202225Y217639D01*
X202307Y217638D01*
X202389Y217626D01*
X202532Y217632D01*
G37*
G36*
X325815Y134584D02*
X325815Y134584D01*
X325849Y134582D01*
X326038Y134604D01*
X326229Y134621D01*
X326262Y134630D01*
X326296Y134634D01*
X326479Y134689D01*
X326663Y134739D01*
X326694Y134754D01*
X326727Y134764D01*
X326898Y134851D01*
X327070Y134933D01*
X327098Y134953D01*
X327129Y134968D01*
X327281Y135084D01*
X327436Y135195D01*
X327460Y135220D01*
X327487Y135240D01*
X327616Y135380D01*
X327750Y135517D01*
X327769Y135546D01*
X327793Y135572D01*
X327895Y135733D01*
X328002Y135890D01*
X328016Y135922D01*
X328034Y135951D01*
X328107Y136128D01*
X328184Y136302D01*
X328192Y136336D01*
X328205Y136368D01*
X328245Y136555D01*
X328291Y136740D01*
X328293Y136774D01*
X328300Y136808D01*
X328319Y137120D01*
X328319Y138961D01*
X331240Y138961D01*
X331275Y138964D01*
X331309Y138962D01*
X331498Y138984D01*
X331689Y139000D01*
X331722Y139010D01*
X331756Y139014D01*
X331939Y139069D01*
X332123Y139119D01*
X332154Y139134D01*
X332187Y139144D01*
X332358Y139231D01*
X332530Y139312D01*
X332558Y139333D01*
X332589Y139348D01*
X332741Y139463D01*
X332896Y139575D01*
X332920Y139599D01*
X332947Y139620D01*
X333076Y139760D01*
X333210Y139897D01*
X333229Y139926D01*
X333253Y139951D01*
X333355Y140112D01*
X333462Y140270D01*
X333476Y140302D01*
X333494Y140331D01*
X333567Y140508D01*
X333644Y140682D01*
X333652Y140716D01*
X333665Y140748D01*
X333705Y140934D01*
X333751Y141119D01*
X333753Y141154D01*
X333760Y141188D01*
X333779Y141500D01*
X333776Y141535D01*
X333778Y141569D01*
X333756Y141759D01*
X333739Y141949D01*
X333730Y141982D01*
X333726Y142016D01*
X333671Y142199D01*
X333621Y142383D01*
X333606Y142414D01*
X333596Y142447D01*
X333509Y142618D01*
X333427Y142790D01*
X333407Y142818D01*
X333392Y142849D01*
X333276Y143001D01*
X333165Y143156D01*
X333140Y143180D01*
X333120Y143207D01*
X332980Y143337D01*
X332843Y143470D01*
X332814Y143489D01*
X332788Y143513D01*
X332627Y143615D01*
X332470Y143722D01*
X332438Y143736D01*
X332409Y143754D01*
X332232Y143827D01*
X332058Y143904D01*
X332024Y143912D01*
X331992Y143925D01*
X331805Y143966D01*
X331620Y144011D01*
X331586Y144013D01*
X331552Y144020D01*
X331240Y144039D01*
X328319Y144039D01*
X328319Y147835D01*
X328492Y148481D01*
X328827Y149060D01*
X329300Y149533D01*
X329879Y149868D01*
X330525Y150041D01*
X333164Y150041D01*
X333327Y150055D01*
X333492Y150062D01*
X333551Y150075D01*
X333612Y150081D01*
X333771Y150124D01*
X333931Y150160D01*
X333988Y150183D01*
X334047Y150199D01*
X334195Y150270D01*
X334347Y150333D01*
X334398Y150366D01*
X334453Y150393D01*
X334587Y150488D01*
X334725Y150578D01*
X334783Y150629D01*
X334819Y150655D01*
X334862Y150698D01*
X334959Y150784D01*
X335982Y151807D01*
X338052Y152665D01*
X338083Y152681D01*
X338116Y152692D01*
X338282Y152785D01*
X338451Y152873D01*
X338479Y152895D01*
X338509Y152911D01*
X338656Y153032D01*
X338807Y153149D01*
X338831Y153175D01*
X338857Y153197D01*
X338981Y153342D01*
X339109Y153483D01*
X339127Y153513D01*
X339150Y153539D01*
X339246Y153704D01*
X339347Y153866D01*
X339360Y153898D01*
X339377Y153928D01*
X339443Y154107D01*
X339514Y154284D01*
X339520Y154318D01*
X339532Y154350D01*
X339566Y154538D01*
X339604Y154725D01*
X339605Y154760D01*
X339611Y154794D01*
X339610Y154984D01*
X339614Y155175D01*
X339609Y155210D01*
X339609Y155244D01*
X339575Y155431D01*
X339546Y155620D01*
X339534Y155653D01*
X339528Y155687D01*
X339499Y155771D01*
X339499Y156464D01*
X339496Y156499D01*
X339498Y156533D01*
X339476Y156722D01*
X339459Y156913D01*
X339450Y156946D01*
X339446Y156980D01*
X339391Y157163D01*
X339341Y157347D01*
X339326Y157378D01*
X339316Y157411D01*
X339229Y157582D01*
X339147Y157754D01*
X339127Y157782D01*
X339112Y157813D01*
X338996Y157965D01*
X338885Y158120D01*
X338860Y158144D01*
X338840Y158171D01*
X338700Y158300D01*
X338563Y158434D01*
X338534Y158453D01*
X338508Y158477D01*
X338347Y158579D01*
X338190Y158686D01*
X338158Y158700D01*
X338129Y158718D01*
X337952Y158791D01*
X337778Y158868D01*
X337744Y158876D01*
X337712Y158889D01*
X337525Y158929D01*
X337340Y158975D01*
X337306Y158977D01*
X337272Y158984D01*
X336960Y159003D01*
X323561Y159003D01*
X321694Y159777D01*
X320265Y161206D01*
X319491Y163073D01*
X319491Y181610D01*
X319488Y181645D01*
X319490Y181679D01*
X319468Y181868D01*
X319451Y182059D01*
X319442Y182092D01*
X319438Y182126D01*
X319383Y182309D01*
X319333Y182493D01*
X319318Y182524D01*
X319308Y182557D01*
X319221Y182728D01*
X319139Y182900D01*
X319119Y182928D01*
X319104Y182959D01*
X318988Y183111D01*
X318877Y183266D01*
X318852Y183290D01*
X318832Y183317D01*
X318692Y183446D01*
X318555Y183580D01*
X318526Y183599D01*
X318500Y183623D01*
X318339Y183725D01*
X318182Y183832D01*
X318150Y183846D01*
X318121Y183864D01*
X317944Y183937D01*
X317770Y184014D01*
X317736Y184022D01*
X317704Y184035D01*
X317517Y184075D01*
X317332Y184121D01*
X317298Y184123D01*
X317264Y184130D01*
X316952Y184149D01*
X316230Y184149D01*
X316195Y184146D01*
X316161Y184148D01*
X315972Y184126D01*
X315781Y184109D01*
X315748Y184100D01*
X315714Y184096D01*
X315531Y184041D01*
X315347Y183991D01*
X315316Y183976D01*
X315283Y183966D01*
X315112Y183879D01*
X314940Y183797D01*
X314912Y183777D01*
X314881Y183762D01*
X314729Y183646D01*
X314574Y183535D01*
X314550Y183510D01*
X314523Y183490D01*
X314394Y183350D01*
X314260Y183213D01*
X314241Y183184D01*
X314217Y183158D01*
X314115Y182997D01*
X314008Y182840D01*
X313994Y182808D01*
X313976Y182779D01*
X313903Y182602D01*
X313826Y182428D01*
X313818Y182394D01*
X313805Y182362D01*
X313765Y182175D01*
X313719Y181990D01*
X313717Y181956D01*
X313710Y181922D01*
X313691Y181610D01*
X313691Y145768D01*
X313694Y145733D01*
X313692Y145699D01*
X313714Y145510D01*
X313731Y145319D01*
X313740Y145286D01*
X313744Y145252D01*
X313799Y145069D01*
X313849Y144885D01*
X313864Y144854D01*
X313874Y144821D01*
X313961Y144650D01*
X314043Y144478D01*
X314063Y144450D01*
X314078Y144419D01*
X314194Y144267D01*
X314305Y144112D01*
X314330Y144088D01*
X314350Y144061D01*
X314490Y143932D01*
X314627Y143798D01*
X314656Y143779D01*
X314682Y143755D01*
X314843Y143653D01*
X315000Y143546D01*
X315032Y143532D01*
X315061Y143514D01*
X315238Y143441D01*
X315412Y143364D01*
X315446Y143356D01*
X315478Y143343D01*
X315665Y143303D01*
X315761Y143279D01*
X319046Y141918D01*
X321468Y139496D01*
X322855Y136148D01*
X322953Y135961D01*
X323049Y135771D01*
X323057Y135761D01*
X323064Y135749D01*
X323193Y135582D01*
X323321Y135413D01*
X323331Y135404D01*
X323339Y135393D01*
X323497Y135251D01*
X323653Y135107D01*
X323664Y135100D01*
X323673Y135092D01*
X323853Y134980D01*
X324032Y134866D01*
X324045Y134861D01*
X324056Y134854D01*
X324253Y134775D01*
X324449Y134695D01*
X324462Y134692D01*
X324474Y134687D01*
X324682Y134645D01*
X324889Y134600D01*
X324905Y134599D01*
X324915Y134597D01*
X324955Y134596D01*
X325201Y134581D01*
X325780Y134581D01*
X325815Y134584D01*
G37*
G36*
X294661Y50327D02*
X294661Y50327D01*
X294709Y50324D01*
X294886Y50345D01*
X295062Y50359D01*
X295109Y50371D01*
X295156Y50376D01*
X295326Y50428D01*
X295498Y50473D01*
X295542Y50493D01*
X295587Y50507D01*
X295746Y50587D01*
X295907Y50662D01*
X295946Y50689D01*
X295989Y50711D01*
X296130Y50819D01*
X296275Y50920D01*
X296309Y50954D01*
X296347Y50983D01*
X296468Y51114D01*
X296593Y51240D01*
X296620Y51279D01*
X296652Y51314D01*
X296748Y51464D01*
X296849Y51610D01*
X296875Y51663D01*
X296894Y51694D01*
X296918Y51752D01*
X296986Y51891D01*
X297502Y53136D01*
X297706Y53340D01*
X297811Y53466D01*
X297923Y53587D01*
X297955Y53639D01*
X297994Y53685D01*
X298076Y53828D01*
X298164Y53967D01*
X298188Y54024D01*
X298218Y54076D01*
X298273Y54231D01*
X298335Y54384D01*
X298348Y54443D01*
X298369Y54501D01*
X298395Y54663D01*
X298430Y54824D01*
X298435Y54901D01*
X298442Y54945D01*
X298441Y55006D01*
X298449Y55136D01*
X298449Y67303D01*
X299416Y69637D01*
X306163Y76384D01*
X306212Y76404D01*
X306400Y76503D01*
X306589Y76599D01*
X306599Y76607D01*
X306611Y76613D01*
X306779Y76743D01*
X306947Y76871D01*
X306956Y76880D01*
X306967Y76888D01*
X307109Y77046D01*
X307253Y77202D01*
X307260Y77213D01*
X307268Y77223D01*
X307380Y77402D01*
X307494Y77582D01*
X307499Y77594D01*
X307506Y77605D01*
X307584Y77801D01*
X307665Y77998D01*
X307668Y78011D01*
X307673Y78023D01*
X307716Y78231D01*
X307760Y78438D01*
X307761Y78454D01*
X307763Y78464D01*
X307764Y78504D01*
X307779Y78750D01*
X307779Y80968D01*
X307765Y81131D01*
X307758Y81296D01*
X307745Y81355D01*
X307739Y81416D01*
X307696Y81575D01*
X307660Y81735D01*
X307637Y81792D01*
X307621Y81851D01*
X307550Y81999D01*
X307487Y82151D01*
X307454Y82202D01*
X307427Y82257D01*
X307332Y82391D01*
X307242Y82529D01*
X307191Y82587D01*
X307165Y82623D01*
X307122Y82666D01*
X307036Y82763D01*
X296436Y93363D01*
X296336Y93447D01*
X296243Y93537D01*
X296163Y93591D01*
X296090Y93652D01*
X295977Y93717D01*
X295870Y93789D01*
X295782Y93828D01*
X295699Y93875D01*
X295577Y93919D01*
X295458Y93972D01*
X295365Y93994D01*
X295275Y94026D01*
X295146Y94048D01*
X295020Y94078D01*
X294925Y94084D01*
X294831Y94100D01*
X294700Y94098D01*
X294571Y94106D01*
X294476Y94095D01*
X294380Y94094D01*
X294253Y94069D01*
X294124Y94054D01*
X294032Y94026D01*
X293938Y94008D01*
X293817Y93961D01*
X293693Y93924D01*
X293608Y93880D01*
X293518Y93846D01*
X293407Y93778D01*
X293291Y93719D01*
X293215Y93662D01*
X293134Y93612D01*
X293036Y93526D01*
X292933Y93447D01*
X292868Y93377D01*
X292796Y93314D01*
X292716Y93212D01*
X292627Y93116D01*
X292576Y93035D01*
X292517Y92961D01*
X292456Y92846D01*
X292386Y92736D01*
X292349Y92648D01*
X292304Y92564D01*
X292264Y92440D01*
X292215Y92320D01*
X292195Y92226D01*
X292165Y92135D01*
X292147Y92007D01*
X292120Y91880D01*
X292112Y91750D01*
X292104Y91689D01*
X292105Y91645D01*
X292101Y91568D01*
X292101Y52863D01*
X292116Y52686D01*
X292126Y52508D01*
X292136Y52462D01*
X292141Y52414D01*
X292187Y52242D01*
X292228Y52070D01*
X292247Y52026D01*
X292259Y51980D01*
X292335Y51820D01*
X292406Y51656D01*
X292432Y51616D01*
X292453Y51573D01*
X292556Y51429D01*
X292654Y51281D01*
X292687Y51246D01*
X292715Y51207D01*
X292842Y51083D01*
X292964Y50955D01*
X293003Y50926D01*
X293037Y50893D01*
X293185Y50793D01*
X293328Y50689D01*
X293371Y50668D01*
X293410Y50641D01*
X293573Y50569D01*
X293732Y50491D01*
X293778Y50478D01*
X293822Y50459D01*
X293995Y50417D01*
X294166Y50368D01*
X294213Y50363D01*
X294260Y50352D01*
X294437Y50341D01*
X294614Y50324D01*
X294661Y50327D01*
G37*
G36*
X302415Y13720D02*
X302415Y13720D01*
X302449Y13718D01*
X302639Y13740D01*
X302829Y13757D01*
X302862Y13766D01*
X302896Y13770D01*
X303079Y13825D01*
X303263Y13875D01*
X303294Y13890D01*
X303327Y13900D01*
X303498Y13987D01*
X303670Y14069D01*
X303698Y14089D01*
X303729Y14104D01*
X303881Y14220D01*
X304036Y14331D01*
X304060Y14356D01*
X304087Y14376D01*
X304217Y14516D01*
X304350Y14653D01*
X304369Y14682D01*
X304393Y14708D01*
X304495Y14869D01*
X304602Y15026D01*
X304616Y15058D01*
X304634Y15087D01*
X304707Y15264D01*
X304784Y15438D01*
X304792Y15472D01*
X304805Y15504D01*
X304846Y15691D01*
X304891Y15876D01*
X304893Y15910D01*
X304900Y15944D01*
X304919Y16256D01*
X304919Y23289D01*
X306278Y23289D01*
X306925Y23160D01*
X306983Y23154D01*
X307040Y23140D01*
X307206Y23130D01*
X307372Y23112D01*
X307431Y23116D01*
X307489Y23112D01*
X307655Y23132D01*
X307821Y23143D01*
X307878Y23158D01*
X307936Y23164D01*
X308097Y23213D01*
X308258Y23254D01*
X308311Y23278D01*
X308367Y23295D01*
X308516Y23371D01*
X308668Y23439D01*
X308716Y23472D01*
X308769Y23499D01*
X308902Y23600D01*
X309039Y23694D01*
X309081Y23736D01*
X309127Y23771D01*
X309241Y23894D01*
X309359Y24011D01*
X309393Y24059D01*
X309433Y24102D01*
X309522Y24243D01*
X309618Y24379D01*
X309643Y24432D01*
X309674Y24482D01*
X309738Y24636D01*
X309808Y24788D01*
X309823Y24844D01*
X309845Y24898D01*
X309880Y25062D01*
X309923Y25223D01*
X309928Y25281D01*
X309940Y25339D01*
X309959Y25651D01*
X309959Y37279D01*
X309952Y37361D01*
X309954Y37443D01*
X309932Y37584D01*
X309919Y37727D01*
X309898Y37807D01*
X309885Y37888D01*
X309838Y38024D01*
X309801Y38162D01*
X309765Y38236D01*
X309739Y38314D01*
X309669Y38439D01*
X309607Y38568D01*
X309559Y38635D01*
X309519Y38707D01*
X309429Y38818D01*
X309345Y38934D01*
X309286Y38992D01*
X309234Y39056D01*
X309125Y39148D01*
X309023Y39248D01*
X308954Y39295D01*
X308892Y39348D01*
X308768Y39420D01*
X308650Y39500D01*
X308574Y39534D01*
X308503Y39575D01*
X308369Y39625D01*
X308238Y39683D01*
X308158Y39702D01*
X308080Y39731D01*
X307939Y39755D01*
X307800Y39789D01*
X307718Y39794D01*
X307637Y39809D01*
X307494Y39808D01*
X307351Y39817D01*
X307269Y39808D01*
X307187Y39807D01*
X307046Y39782D01*
X306904Y39765D01*
X306825Y39741D01*
X306744Y39726D01*
X306525Y39651D01*
X303088Y39651D01*
X299924Y40962D01*
X297502Y43384D01*
X296986Y44629D01*
X296903Y44787D01*
X296827Y44947D01*
X296800Y44986D01*
X296777Y45028D01*
X296669Y45169D01*
X296565Y45313D01*
X296531Y45346D01*
X296502Y45384D01*
X296370Y45503D01*
X296243Y45627D01*
X296203Y45654D01*
X296167Y45686D01*
X296017Y45780D01*
X295870Y45879D01*
X295826Y45898D01*
X295785Y45924D01*
X295620Y45989D01*
X295458Y46061D01*
X295411Y46073D01*
X295367Y46090D01*
X295193Y46126D01*
X295020Y46168D01*
X294973Y46171D01*
X294926Y46180D01*
X294748Y46185D01*
X294571Y46196D01*
X294523Y46190D01*
X294476Y46191D01*
X294301Y46164D01*
X294124Y46144D01*
X294078Y46130D01*
X294031Y46122D01*
X293863Y46065D01*
X293693Y46013D01*
X293650Y45992D01*
X293605Y45976D01*
X293450Y45890D01*
X293291Y45809D01*
X293253Y45780D01*
X293212Y45757D01*
X293074Y45644D01*
X292933Y45537D01*
X292900Y45502D01*
X292863Y45471D01*
X292748Y45337D01*
X292627Y45206D01*
X292602Y45165D01*
X292571Y45129D01*
X292481Y44976D01*
X292386Y44826D01*
X292367Y44782D01*
X292343Y44740D01*
X292282Y44574D01*
X292215Y44409D01*
X292205Y44363D01*
X292188Y44318D01*
X292157Y44143D01*
X292120Y43969D01*
X292116Y43910D01*
X292110Y43874D01*
X292110Y43811D01*
X292101Y43657D01*
X292101Y24314D01*
X292112Y24184D01*
X292114Y24054D01*
X292132Y23960D01*
X292141Y23865D01*
X292175Y23740D01*
X292200Y23612D01*
X292234Y23523D01*
X292259Y23431D01*
X292315Y23313D01*
X292362Y23192D01*
X292412Y23110D01*
X292453Y23024D01*
X292528Y22918D01*
X292596Y22807D01*
X292659Y22736D01*
X292715Y22658D01*
X292808Y22567D01*
X292894Y22470D01*
X292969Y22411D01*
X293037Y22344D01*
X293145Y22271D01*
X293247Y22190D01*
X293331Y22145D01*
X293410Y22092D01*
X293529Y22039D01*
X293644Y21978D01*
X293735Y21948D01*
X293822Y21910D01*
X293949Y21879D01*
X294072Y21839D01*
X294167Y21826D01*
X294260Y21803D01*
X294389Y21795D01*
X294518Y21777D01*
X294614Y21781D01*
X294709Y21775D01*
X294838Y21790D01*
X294968Y21796D01*
X295061Y21816D01*
X295156Y21827D01*
X295281Y21865D01*
X295408Y21893D01*
X295496Y21930D01*
X295587Y21958D01*
X295703Y22017D01*
X295823Y22067D01*
X295904Y22119D01*
X295989Y22162D01*
X296092Y22240D01*
X296201Y22311D01*
X296233Y22339D01*
X296966Y22829D01*
X297701Y23133D01*
X298482Y23289D01*
X299841Y23289D01*
X299841Y16256D01*
X299844Y16221D01*
X299842Y16187D01*
X299864Y15998D01*
X299880Y15807D01*
X299890Y15774D01*
X299894Y15740D01*
X299949Y15557D01*
X299999Y15373D01*
X300014Y15342D01*
X300024Y15309D01*
X300111Y15138D01*
X300192Y14966D01*
X300213Y14938D01*
X300228Y14907D01*
X300343Y14755D01*
X300455Y14600D01*
X300479Y14576D01*
X300500Y14549D01*
X300640Y14420D01*
X300777Y14286D01*
X300806Y14267D01*
X300831Y14243D01*
X300992Y14141D01*
X301150Y14034D01*
X301182Y14020D01*
X301211Y14002D01*
X301388Y13929D01*
X301562Y13852D01*
X301596Y13844D01*
X301628Y13831D01*
X301814Y13791D01*
X301999Y13745D01*
X302034Y13743D01*
X302068Y13736D01*
X302380Y13717D01*
X302415Y13720D01*
G37*
G36*
X171455Y149347D02*
X171455Y149347D01*
X171489Y149345D01*
X171678Y149367D01*
X171869Y149384D01*
X171902Y149393D01*
X171936Y149397D01*
X172119Y149452D01*
X172303Y149502D01*
X172334Y149517D01*
X172367Y149527D01*
X172538Y149614D01*
X172710Y149696D01*
X172738Y149716D01*
X172769Y149731D01*
X172921Y149847D01*
X173076Y149958D01*
X173100Y149983D01*
X173127Y150003D01*
X173256Y150143D01*
X173390Y150280D01*
X173409Y150309D01*
X173433Y150335D01*
X173535Y150496D01*
X173642Y150653D01*
X173656Y150685D01*
X173674Y150714D01*
X173747Y150891D01*
X173824Y151065D01*
X173832Y151099D01*
X173845Y151131D01*
X173885Y151318D01*
X173931Y151503D01*
X173933Y151537D01*
X173940Y151571D01*
X173959Y151883D01*
X173959Y152401D01*
X182000Y152401D01*
X182034Y152404D01*
X182069Y152402D01*
X182258Y152424D01*
X182448Y152440D01*
X182482Y152450D01*
X182516Y152454D01*
X182699Y152509D01*
X182883Y152559D01*
X182914Y152574D01*
X182947Y152584D01*
X183118Y152671D01*
X183289Y152752D01*
X183317Y152773D01*
X183348Y152788D01*
X183500Y152903D01*
X183655Y153015D01*
X183679Y153039D01*
X183707Y153060D01*
X183836Y153200D01*
X183969Y153337D01*
X183989Y153366D01*
X184012Y153391D01*
X184115Y153552D01*
X184221Y153710D01*
X184235Y153742D01*
X184254Y153771D01*
X184326Y153948D01*
X184404Y154122D01*
X184412Y154156D01*
X184425Y154188D01*
X184465Y154374D01*
X184510Y154559D01*
X184512Y154594D01*
X184520Y154628D01*
X184539Y154940D01*
X184536Y154975D01*
X184538Y155009D01*
X184516Y155199D01*
X184499Y155389D01*
X184490Y155422D01*
X184486Y155456D01*
X184431Y155639D01*
X184380Y155823D01*
X184366Y155854D01*
X184356Y155887D01*
X184269Y156058D01*
X184187Y156230D01*
X184167Y156258D01*
X184151Y156289D01*
X184036Y156441D01*
X183925Y156596D01*
X183900Y156620D01*
X183879Y156647D01*
X183739Y156777D01*
X183602Y156910D01*
X183574Y156929D01*
X183548Y156953D01*
X183387Y157055D01*
X183229Y157162D01*
X183198Y157176D01*
X183168Y157194D01*
X182992Y157267D01*
X182817Y157344D01*
X182784Y157352D01*
X182752Y157365D01*
X182565Y157406D01*
X182380Y157451D01*
X182346Y157453D01*
X182312Y157460D01*
X182000Y157479D01*
X173617Y157479D01*
X173607Y157500D01*
X173587Y157528D01*
X173572Y157559D01*
X173456Y157711D01*
X173345Y157866D01*
X173320Y157890D01*
X173300Y157917D01*
X173160Y158046D01*
X173023Y158180D01*
X172994Y158199D01*
X172968Y158223D01*
X172807Y158325D01*
X172650Y158432D01*
X172618Y158446D01*
X172589Y158464D01*
X172412Y158537D01*
X172238Y158614D01*
X172204Y158622D01*
X172172Y158635D01*
X171985Y158675D01*
X171800Y158721D01*
X171766Y158723D01*
X171732Y158730D01*
X171420Y158749D01*
X161162Y158749D01*
X161033Y158738D01*
X160903Y158736D01*
X160809Y158718D01*
X160714Y158709D01*
X160588Y158675D01*
X160461Y158650D01*
X160371Y158616D01*
X160279Y158591D01*
X160162Y158535D01*
X160041Y158488D01*
X159959Y158438D01*
X159873Y158397D01*
X159767Y158322D01*
X159656Y158254D01*
X159584Y158191D01*
X159507Y158135D01*
X159416Y158042D01*
X159319Y157956D01*
X159259Y157881D01*
X159193Y157813D01*
X159120Y157705D01*
X159039Y157603D01*
X158994Y157519D01*
X158941Y157440D01*
X158888Y157321D01*
X158827Y157206D01*
X158797Y157115D01*
X158758Y157028D01*
X158728Y156901D01*
X158687Y156778D01*
X158674Y156683D01*
X158652Y156590D01*
X158644Y156461D01*
X158626Y156332D01*
X158630Y156236D01*
X158624Y156141D01*
X158639Y156012D01*
X158644Y155882D01*
X158665Y155789D01*
X158676Y155694D01*
X158714Y155569D01*
X158742Y155442D01*
X158779Y155354D01*
X158806Y155263D01*
X158865Y155147D01*
X158916Y155027D01*
X158967Y154947D01*
X159011Y154861D01*
X159089Y154758D01*
X159160Y154649D01*
X159246Y154551D01*
X159283Y154503D01*
X159316Y154472D01*
X159367Y154414D01*
X163694Y150087D01*
X163820Y149982D01*
X163941Y149870D01*
X163992Y149838D01*
X164039Y149799D01*
X164182Y149717D01*
X164321Y149629D01*
X164377Y149605D01*
X164430Y149575D01*
X164585Y149520D01*
X164737Y149458D01*
X164797Y149445D01*
X164854Y149424D01*
X165017Y149398D01*
X165177Y149363D01*
X165254Y149358D01*
X165299Y149351D01*
X165360Y149352D01*
X165489Y149344D01*
X171420Y149344D01*
X171455Y149347D01*
G37*
G36*
X393500Y220798D02*
X393500Y220798D01*
X393690Y220801D01*
X393724Y220808D01*
X393759Y220809D01*
X393945Y220850D01*
X394132Y220887D01*
X394164Y220899D01*
X394198Y220907D01*
X394375Y220980D01*
X394552Y221049D01*
X394582Y221067D01*
X394614Y221080D01*
X394775Y221184D01*
X394937Y221283D01*
X394963Y221306D01*
X394992Y221324D01*
X395226Y221531D01*
X395576Y221881D01*
X395681Y222007D01*
X395793Y222128D01*
X395825Y222179D01*
X395864Y222226D01*
X395946Y222369D01*
X396034Y222508D01*
X396058Y222564D01*
X396088Y222617D01*
X396143Y222772D01*
X396205Y222924D01*
X396218Y222984D01*
X396239Y223041D01*
X396265Y223204D01*
X396300Y223364D01*
X396305Y223441D01*
X396312Y223486D01*
X396311Y223547D01*
X396319Y223676D01*
X396319Y226941D01*
X403860Y226941D01*
X403894Y226944D01*
X403929Y226942D01*
X404118Y226964D01*
X404308Y226980D01*
X404342Y226990D01*
X404376Y226994D01*
X404559Y227049D01*
X404743Y227099D01*
X404774Y227114D01*
X404807Y227124D01*
X404978Y227211D01*
X405149Y227292D01*
X405177Y227313D01*
X405208Y227328D01*
X405360Y227443D01*
X405515Y227555D01*
X405539Y227579D01*
X405567Y227600D01*
X405696Y227740D01*
X405829Y227877D01*
X405849Y227906D01*
X405872Y227931D01*
X405975Y228092D01*
X406081Y228250D01*
X406095Y228282D01*
X406114Y228311D01*
X406186Y228488D01*
X406264Y228662D01*
X406272Y228696D01*
X406285Y228728D01*
X406325Y228914D01*
X406370Y229099D01*
X406372Y229134D01*
X406380Y229168D01*
X406399Y229480D01*
X406396Y229515D01*
X406398Y229549D01*
X406376Y229739D01*
X406359Y229929D01*
X406350Y229962D01*
X406346Y229996D01*
X406291Y230179D01*
X406240Y230363D01*
X406226Y230394D01*
X406216Y230427D01*
X406129Y230598D01*
X406047Y230770D01*
X406027Y230798D01*
X406011Y230829D01*
X405896Y230981D01*
X405785Y231136D01*
X405760Y231160D01*
X405739Y231187D01*
X405599Y231317D01*
X405462Y231450D01*
X405434Y231469D01*
X405408Y231493D01*
X405247Y231595D01*
X405089Y231702D01*
X405058Y231716D01*
X405028Y231734D01*
X404852Y231807D01*
X404677Y231884D01*
X404644Y231892D01*
X404612Y231905D01*
X404425Y231946D01*
X404240Y231991D01*
X404206Y231993D01*
X404172Y232000D01*
X403860Y232019D01*
X396319Y232019D01*
X396319Y232410D01*
X396316Y232445D01*
X396318Y232479D01*
X396296Y232668D01*
X396279Y232859D01*
X396270Y232892D01*
X396266Y232926D01*
X396211Y233109D01*
X396161Y233293D01*
X396146Y233324D01*
X396136Y233357D01*
X396049Y233528D01*
X395967Y233700D01*
X395947Y233728D01*
X395932Y233759D01*
X395816Y233911D01*
X395705Y234066D01*
X395680Y234090D01*
X395660Y234117D01*
X395520Y234246D01*
X395383Y234380D01*
X395354Y234399D01*
X395328Y234423D01*
X395167Y234525D01*
X395010Y234632D01*
X394978Y234646D01*
X394949Y234664D01*
X394772Y234737D01*
X394598Y234814D01*
X394564Y234822D01*
X394532Y234835D01*
X394345Y234875D01*
X394160Y234921D01*
X394126Y234923D01*
X394092Y234930D01*
X393780Y234949D01*
X391708Y234949D01*
X391673Y234946D01*
X391639Y234948D01*
X391450Y234926D01*
X391259Y234909D01*
X391226Y234900D01*
X391192Y234896D01*
X391009Y234841D01*
X390825Y234791D01*
X390794Y234776D01*
X390761Y234766D01*
X390590Y234679D01*
X390418Y234597D01*
X390390Y234577D01*
X390359Y234562D01*
X390207Y234446D01*
X390052Y234335D01*
X390028Y234310D01*
X390001Y234290D01*
X389872Y234150D01*
X389738Y234013D01*
X389719Y233984D01*
X389695Y233958D01*
X389593Y233797D01*
X389486Y233640D01*
X389472Y233608D01*
X389454Y233579D01*
X389381Y233402D01*
X389304Y233228D01*
X389296Y233194D01*
X389283Y233162D01*
X389243Y232975D01*
X389197Y232790D01*
X389195Y232756D01*
X389188Y232722D01*
X389169Y232410D01*
X389169Y231393D01*
X387748Y231393D01*
X387714Y231390D01*
X387679Y231392D01*
X387490Y231370D01*
X387300Y231353D01*
X387266Y231344D01*
X387232Y231340D01*
X387049Y231285D01*
X386865Y231235D01*
X386834Y231220D01*
X386801Y231210D01*
X386630Y231123D01*
X386459Y231042D01*
X386430Y231021D01*
X386399Y231006D01*
X386247Y230890D01*
X386092Y230779D01*
X386068Y230755D01*
X386041Y230734D01*
X385912Y230594D01*
X385778Y230457D01*
X385759Y230428D01*
X385736Y230403D01*
X385633Y230242D01*
X385526Y230084D01*
X385512Y230052D01*
X385494Y230023D01*
X385421Y229846D01*
X385344Y229672D01*
X385336Y229638D01*
X385323Y229606D01*
X385283Y229420D01*
X385237Y229234D01*
X385235Y229200D01*
X385228Y229166D01*
X385209Y228854D01*
X385212Y228819D01*
X385210Y228785D01*
X385232Y228595D01*
X385249Y228405D01*
X385258Y228372D01*
X385262Y228338D01*
X385317Y228154D01*
X385367Y227971D01*
X385382Y227940D01*
X385392Y227907D01*
X385479Y227736D01*
X385561Y227564D01*
X385581Y227536D01*
X385596Y227505D01*
X385712Y227353D01*
X385823Y227198D01*
X385848Y227174D01*
X385868Y227146D01*
X386009Y227017D01*
X386145Y226884D01*
X386174Y226865D01*
X386200Y226841D01*
X386361Y226739D01*
X386518Y226632D01*
X386550Y226618D01*
X386579Y226599D01*
X386756Y226527D01*
X386930Y226450D01*
X386964Y226442D01*
X386996Y226429D01*
X387183Y226388D01*
X387368Y226343D01*
X387402Y226341D01*
X387436Y226334D01*
X387748Y226315D01*
X389169Y226315D01*
X389169Y224647D01*
X389188Y224436D01*
X389204Y224225D01*
X389207Y224212D01*
X389209Y224199D01*
X389265Y223993D01*
X389318Y223789D01*
X389324Y223777D01*
X389327Y223764D01*
X389418Y223574D01*
X389507Y223381D01*
X389515Y223370D01*
X389521Y223358D01*
X389643Y223186D01*
X389766Y223012D01*
X389775Y223002D01*
X389783Y222992D01*
X389935Y222843D01*
X390085Y222694D01*
X390096Y222687D01*
X390105Y222678D01*
X390281Y222559D01*
X390455Y222438D01*
X390470Y222432D01*
X390478Y222426D01*
X390514Y222410D01*
X390736Y222301D01*
X390956Y222210D01*
X391635Y221531D01*
X391662Y221509D01*
X391685Y221483D01*
X391834Y221365D01*
X391980Y221243D01*
X392011Y221225D01*
X392038Y221204D01*
X392205Y221114D01*
X392371Y221019D01*
X392404Y221008D01*
X392435Y220991D01*
X392616Y220932D01*
X392796Y220868D01*
X392830Y220863D01*
X392863Y220852D01*
X393052Y220826D01*
X393240Y220795D01*
X393274Y220795D01*
X393309Y220791D01*
X393500Y220798D01*
G37*
G36*
X446011Y241677D02*
X446011Y241677D01*
X446093Y241677D01*
X446234Y241703D01*
X446376Y241719D01*
X446455Y241743D01*
X446536Y241758D01*
X446770Y241838D01*
X446807Y241850D01*
X446817Y241854D01*
X446832Y241860D01*
X447868Y242289D01*
X448156Y242289D01*
X448319Y242303D01*
X448484Y242310D01*
X448543Y242323D01*
X448604Y242329D01*
X448763Y242372D01*
X448923Y242408D01*
X448980Y242431D01*
X449039Y242447D01*
X449187Y242518D01*
X449339Y242581D01*
X449390Y242614D01*
X449445Y242641D01*
X449579Y242736D01*
X449717Y242826D01*
X449775Y242877D01*
X449811Y242903D01*
X449854Y242946D01*
X449951Y243032D01*
X450106Y243187D01*
X450211Y243313D01*
X450323Y243434D01*
X450355Y243485D01*
X450394Y243532D01*
X450476Y243675D01*
X450564Y243814D01*
X450588Y243870D01*
X450618Y243923D01*
X450673Y244078D01*
X450735Y244230D01*
X450748Y244290D01*
X450769Y244347D01*
X450795Y244510D01*
X450830Y244670D01*
X450835Y244747D01*
X450842Y244792D01*
X450841Y244853D01*
X450849Y244982D01*
X450849Y255263D01*
X451622Y257128D01*
X451661Y257253D01*
X451709Y257374D01*
X451728Y257467D01*
X451756Y257557D01*
X451773Y257687D01*
X451799Y257815D01*
X451801Y257910D01*
X451813Y258004D01*
X451806Y258135D01*
X451809Y258265D01*
X451795Y258359D01*
X451790Y258454D01*
X451760Y258581D01*
X451740Y258710D01*
X451709Y258800D01*
X451688Y258892D01*
X451636Y259012D01*
X451594Y259136D01*
X451548Y259219D01*
X451510Y259306D01*
X451438Y259415D01*
X451374Y259529D01*
X451314Y259602D01*
X451262Y259682D01*
X451172Y259776D01*
X451089Y259877D01*
X451017Y259939D01*
X450951Y260008D01*
X450846Y260085D01*
X450746Y260170D01*
X450664Y260217D01*
X450588Y260273D01*
X450470Y260331D01*
X450358Y260397D01*
X450269Y260429D01*
X450183Y260471D01*
X450057Y260507D01*
X449935Y260552D01*
X449841Y260568D01*
X449750Y260594D01*
X449620Y260607D01*
X449491Y260630D01*
X449397Y260629D01*
X449302Y260639D01*
X449208Y260631D01*
X445860Y260631D01*
X445825Y260628D01*
X445791Y260630D01*
X445602Y260608D01*
X445411Y260591D01*
X445378Y260582D01*
X445344Y260578D01*
X445161Y260523D01*
X444977Y260473D01*
X444946Y260458D01*
X444913Y260448D01*
X444742Y260361D01*
X444570Y260279D01*
X444542Y260259D01*
X444511Y260244D01*
X444359Y260128D01*
X444204Y260017D01*
X444180Y259992D01*
X444153Y259972D01*
X444024Y259832D01*
X443890Y259695D01*
X443871Y259666D01*
X443847Y259640D01*
X443745Y259479D01*
X443638Y259322D01*
X443624Y259290D01*
X443606Y259261D01*
X443533Y259084D01*
X443456Y258910D01*
X443448Y258876D01*
X443435Y258844D01*
X443395Y258657D01*
X443349Y258472D01*
X443347Y258438D01*
X443340Y258404D01*
X443321Y258092D01*
X443321Y244206D01*
X443328Y244123D01*
X443326Y244041D01*
X443348Y243900D01*
X443361Y243757D01*
X443382Y243677D01*
X443395Y243596D01*
X443441Y243461D01*
X443479Y243323D01*
X443515Y243248D01*
X443541Y243170D01*
X443611Y243045D01*
X443673Y242916D01*
X443720Y242849D01*
X443761Y242777D01*
X443851Y242666D01*
X443935Y242550D01*
X443994Y242493D01*
X444046Y242429D01*
X444155Y242336D01*
X444257Y242236D01*
X444326Y242190D01*
X444388Y242136D01*
X444512Y242064D01*
X444630Y241984D01*
X444706Y241951D01*
X444777Y241909D01*
X444911Y241860D01*
X445042Y241802D01*
X445122Y241782D01*
X445200Y241754D01*
X445341Y241729D01*
X445480Y241695D01*
X445562Y241690D01*
X445643Y241676D01*
X445786Y241676D01*
X445929Y241667D01*
X446011Y241677D01*
G37*
%LPC*%
G36*
X508879Y160019D02*
X508879Y160019D01*
X508879Y165447D01*
X508981Y165524D01*
X509136Y165635D01*
X509160Y165660D01*
X509187Y165680D01*
X509316Y165820D01*
X509450Y165957D01*
X509469Y165986D01*
X509493Y166012D01*
X509595Y166173D01*
X509702Y166330D01*
X509716Y166362D01*
X509734Y166391D01*
X509807Y166568D01*
X509884Y166742D01*
X509892Y166776D01*
X509905Y166808D01*
X509945Y166995D01*
X509991Y167180D01*
X509993Y167214D01*
X510000Y167248D01*
X510019Y167560D01*
X510019Y183461D01*
X517061Y183461D01*
X517061Y171625D01*
X516888Y170979D01*
X516553Y170400D01*
X516080Y169927D01*
X515501Y169592D01*
X514855Y169419D01*
X514379Y169419D01*
X514367Y169418D01*
X514356Y169419D01*
X514144Y169398D01*
X513930Y169379D01*
X513919Y169376D01*
X513908Y169375D01*
X513703Y169317D01*
X513496Y169261D01*
X513486Y169256D01*
X513474Y169253D01*
X513282Y169159D01*
X513089Y169067D01*
X513080Y169061D01*
X513069Y169056D01*
X512897Y168929D01*
X512723Y168805D01*
X512715Y168797D01*
X512706Y168790D01*
X512559Y168637D01*
X512409Y168483D01*
X512403Y168473D01*
X512395Y168465D01*
X512277Y168287D01*
X512157Y168110D01*
X512152Y168099D01*
X512146Y168089D01*
X512062Y167894D01*
X511975Y167698D01*
X511972Y167686D01*
X511968Y167676D01*
X511919Y167468D01*
X511868Y167260D01*
X511868Y167249D01*
X511865Y167237D01*
X511854Y167023D01*
X511841Y166811D01*
X511842Y166799D01*
X511841Y166788D01*
X511868Y166578D01*
X511893Y166364D01*
X511896Y166352D01*
X511898Y166341D01*
X511961Y166139D01*
X512023Y165933D01*
X512028Y165922D01*
X512032Y165911D01*
X512130Y165722D01*
X512227Y165531D01*
X512234Y165522D01*
X512240Y165512D01*
X512371Y165342D01*
X512499Y165173D01*
X512508Y165165D01*
X512515Y165156D01*
X512673Y165012D01*
X512830Y164868D01*
X512840Y164861D01*
X512849Y164853D01*
X513109Y164681D01*
X513400Y164513D01*
X513873Y164040D01*
X514208Y163461D01*
X514381Y162815D01*
X514381Y160019D01*
X508879Y160019D01*
G37*
%LPD*%
%LPC*%
G36*
X111759Y199759D02*
X111759Y199759D01*
X111759Y214761D01*
X118761Y214761D01*
X118761Y201966D01*
X118588Y201319D01*
X118253Y200740D01*
X117780Y200267D01*
X117201Y199932D01*
X116554Y199759D01*
X111759Y199759D01*
G37*
%LPD*%
%LPC*%
G36*
X99679Y267839D02*
X99679Y267839D01*
X99679Y280634D01*
X99852Y281281D01*
X100187Y281860D01*
X100660Y282333D01*
X101239Y282668D01*
X101886Y282841D01*
X106681Y282841D01*
X106681Y267839D01*
X99679Y267839D01*
G37*
%LPD*%
%LPC*%
G36*
X101886Y199759D02*
X101886Y199759D01*
X101239Y199932D01*
X100660Y200267D01*
X100187Y200740D01*
X99852Y201319D01*
X99679Y201966D01*
X99679Y214761D01*
X106681Y214761D01*
X106681Y199759D01*
X101886Y199759D01*
G37*
%LPD*%
%LPC*%
G36*
X101886Y247759D02*
X101886Y247759D01*
X101239Y247932D01*
X100660Y248267D01*
X100187Y248740D01*
X99852Y249319D01*
X99679Y249966D01*
X99679Y262761D01*
X106681Y262761D01*
X106681Y247759D01*
X101886Y247759D01*
G37*
%LPD*%
%LPC*%
G36*
X111759Y267839D02*
X111759Y267839D01*
X111759Y282841D01*
X116554Y282841D01*
X117201Y282668D01*
X117780Y282333D01*
X118253Y281860D01*
X118588Y281281D01*
X118761Y280634D01*
X118761Y268715D01*
X118681Y268691D01*
X118497Y268641D01*
X118466Y268626D01*
X118433Y268616D01*
X118262Y268529D01*
X118091Y268447D01*
X118062Y268427D01*
X118031Y268412D01*
X117879Y268296D01*
X117724Y268185D01*
X117700Y268160D01*
X117673Y268140D01*
X117544Y268000D01*
X117410Y267863D01*
X117395Y267839D01*
X111759Y267839D01*
G37*
%LPD*%
%LPC*%
G36*
X111759Y247759D02*
X111759Y247759D01*
X111759Y262761D01*
X117400Y262761D01*
X117455Y262684D01*
X117480Y262660D01*
X117500Y262633D01*
X117641Y262504D01*
X117777Y262370D01*
X117806Y262351D01*
X117832Y262327D01*
X117993Y262225D01*
X118150Y262118D01*
X118182Y262104D01*
X118211Y262086D01*
X118388Y262013D01*
X118562Y261936D01*
X118596Y261928D01*
X118628Y261915D01*
X118761Y261886D01*
X118761Y249966D01*
X118588Y249319D01*
X118253Y248740D01*
X117780Y248267D01*
X117201Y247932D01*
X116554Y247759D01*
X111759Y247759D01*
G37*
%LPD*%
%LPC*%
G36*
X510019Y192459D02*
X510019Y192459D01*
X510019Y206501D01*
X514855Y206501D01*
X515501Y206328D01*
X516080Y205993D01*
X516553Y205520D01*
X516888Y204941D01*
X517061Y204295D01*
X517061Y192459D01*
X510019Y192459D01*
G37*
%LPD*%
%LPC*%
G36*
X493979Y192459D02*
X493979Y192459D01*
X493979Y204295D01*
X494152Y204941D01*
X494487Y205520D01*
X494960Y205993D01*
X495539Y206328D01*
X496185Y206501D01*
X501021Y206501D01*
X501021Y192459D01*
X493979Y192459D01*
G37*
%LPD*%
%LPC*%
G36*
X452119Y25399D02*
X452119Y25399D01*
X452119Y37212D01*
X452895Y36960D01*
X454107Y36343D01*
X455206Y35544D01*
X456168Y34582D01*
X456967Y33483D01*
X457584Y32271D01*
X458004Y30979D01*
X458217Y29636D01*
X458217Y25399D01*
X452119Y25399D01*
G37*
%LPD*%
%LPC*%
G36*
X440943Y25399D02*
X440943Y25399D01*
X440943Y29636D01*
X441156Y30979D01*
X441576Y32271D01*
X442193Y33483D01*
X442992Y34582D01*
X443954Y35544D01*
X445053Y36343D01*
X446265Y36960D01*
X447041Y37212D01*
X447041Y25399D01*
X440943Y25399D01*
G37*
%LPD*%
G36*
X389077Y53961D02*
X389077Y53961D01*
X389079Y53961D01*
X389295Y53980D01*
X389523Y54000D01*
X389525Y54001D01*
X389528Y54001D01*
X389738Y54059D01*
X389957Y54119D01*
X389959Y54120D01*
X389962Y54121D01*
X390172Y54221D01*
X390364Y54312D01*
X390366Y54314D01*
X390368Y54315D01*
X390557Y54451D01*
X390730Y54575D01*
X390732Y54576D01*
X390734Y54578D01*
X390889Y54738D01*
X391044Y54897D01*
X391045Y54899D01*
X391047Y54901D01*
X391169Y55082D01*
X391296Y55270D01*
X391297Y55272D01*
X391298Y55274D01*
X391432Y55557D01*
X391451Y55621D01*
X391477Y55678D01*
X391479Y55682D01*
X391516Y55837D01*
X391562Y55988D01*
X391569Y56055D01*
X391585Y56120D01*
X391595Y56278D01*
X391613Y56436D01*
X391609Y56502D01*
X391613Y56569D01*
X391595Y56727D01*
X391585Y56885D01*
X391569Y56950D01*
X391561Y57016D01*
X391515Y57169D01*
X391477Y57322D01*
X391450Y57383D01*
X391431Y57447D01*
X391359Y57589D01*
X391294Y57734D01*
X391256Y57789D01*
X391226Y57849D01*
X391131Y57975D01*
X391041Y58106D01*
X390995Y58154D01*
X390954Y58207D01*
X390837Y58315D01*
X390727Y58428D01*
X390672Y58467D01*
X390623Y58513D01*
X390489Y58598D01*
X390360Y58690D01*
X390300Y58719D01*
X390243Y58754D01*
X390096Y58815D01*
X389953Y58883D01*
X389889Y58900D01*
X389827Y58925D01*
X389671Y58959D01*
X389519Y59000D01*
X389452Y59006D01*
X389387Y59020D01*
X389075Y59039D01*
X383480Y59039D01*
X383445Y59036D01*
X383411Y59038D01*
X383222Y59016D01*
X383031Y58999D01*
X382998Y58990D01*
X382964Y58986D01*
X382781Y58931D01*
X382597Y58881D01*
X382566Y58866D01*
X382533Y58856D01*
X382362Y58769D01*
X382190Y58688D01*
X382162Y58667D01*
X382131Y58652D01*
X381979Y58536D01*
X381824Y58425D01*
X381800Y58401D01*
X381773Y58380D01*
X381644Y58240D01*
X381510Y58103D01*
X381491Y58074D01*
X381467Y58049D01*
X381365Y57888D01*
X381258Y57730D01*
X381244Y57698D01*
X381226Y57669D01*
X381153Y57492D01*
X381076Y57318D01*
X381068Y57284D01*
X381055Y57252D01*
X381015Y57066D01*
X380969Y56880D01*
X380967Y56846D01*
X380960Y56812D01*
X380941Y56500D01*
X380944Y56465D01*
X380942Y56431D01*
X380964Y56241D01*
X380981Y56051D01*
X380990Y56018D01*
X380994Y55984D01*
X381049Y55800D01*
X381099Y55617D01*
X381114Y55586D01*
X381124Y55553D01*
X381211Y55382D01*
X381293Y55210D01*
X381313Y55182D01*
X381328Y55151D01*
X381444Y54999D01*
X381555Y54844D01*
X381580Y54820D01*
X381600Y54792D01*
X381740Y54663D01*
X381877Y54530D01*
X381906Y54511D01*
X381932Y54487D01*
X382093Y54385D01*
X382250Y54278D01*
X382282Y54264D01*
X382311Y54245D01*
X382488Y54173D01*
X382662Y54096D01*
X382696Y54088D01*
X382728Y54075D01*
X382915Y54034D01*
X383100Y53989D01*
X383134Y53987D01*
X383168Y53980D01*
X383480Y53961D01*
X389074Y53961D01*
X389077Y53961D01*
G37*
%LPC*%
G36*
X508879Y22859D02*
X508879Y22859D01*
X508879Y27861D01*
X512175Y27861D01*
X512821Y27688D01*
X513400Y27353D01*
X513873Y26880D01*
X514208Y26301D01*
X514381Y25655D01*
X514381Y22859D01*
X508879Y22859D01*
G37*
%LPD*%
%LPC*%
G36*
X508879Y149939D02*
X508879Y149939D01*
X508879Y154941D01*
X514381Y154941D01*
X514381Y152145D01*
X514208Y151499D01*
X513873Y150920D01*
X513400Y150447D01*
X512821Y150112D01*
X512175Y149939D01*
X508879Y149939D01*
G37*
%LPD*%
%LPC*%
G36*
X109219Y265299D02*
X109219Y265299D01*
X109219Y265301D01*
X109221Y265301D01*
X109221Y265299D01*
X109219Y265299D01*
G37*
%LPD*%
D10*
X182000Y154940D03*
X199000Y154940D03*
X120260Y43180D03*
X103260Y43180D03*
D11*
X157480Y117720D03*
X157480Y100720D03*
X195580Y34680D03*
X195580Y51680D03*
D10*
X453780Y157480D03*
X470780Y157480D03*
X489340Y20320D03*
X506340Y20320D03*
X489340Y157480D03*
X506340Y157480D03*
D12*
X305880Y19248D02*
X305880Y12248D01*
X298880Y12248D01*
X298880Y19248D01*
X305880Y19248D01*
X305880Y15098D02*
X298880Y15098D01*
X298880Y17948D02*
X305880Y17948D01*
X323420Y19248D02*
X323420Y12248D01*
X316420Y12248D01*
X316420Y19248D01*
X323420Y19248D01*
X323420Y15098D02*
X316420Y15098D01*
X316420Y17948D02*
X323420Y17948D01*
X779970Y90480D02*
X779970Y97480D01*
X786970Y97480D01*
X786970Y90480D01*
X779970Y90480D01*
X779970Y93330D02*
X786970Y93330D01*
X786970Y96180D02*
X779970Y96180D01*
X762430Y97480D02*
X762430Y90480D01*
X762430Y97480D02*
X769430Y97480D01*
X769430Y90480D01*
X762430Y90480D01*
X762430Y93330D02*
X769430Y93330D01*
X769430Y96180D02*
X762430Y96180D01*
X779970Y64460D02*
X779970Y57460D01*
X779970Y64460D02*
X786970Y64460D01*
X786970Y57460D01*
X779970Y57460D01*
X779970Y60310D02*
X786970Y60310D01*
X786970Y63160D02*
X779970Y63160D01*
X762430Y64460D02*
X762430Y57460D01*
X762430Y64460D02*
X769430Y64460D01*
X769430Y57460D01*
X762430Y57460D01*
X762430Y60310D02*
X769430Y60310D01*
X769430Y63160D02*
X762430Y63160D01*
X35750Y250500D02*
X35750Y257500D01*
X42750Y257500D01*
X42750Y250500D01*
X35750Y250500D01*
X35750Y253350D02*
X42750Y253350D01*
X42750Y256200D02*
X35750Y256200D01*
X18210Y257500D02*
X18210Y250500D01*
X18210Y257500D02*
X25210Y257500D01*
X25210Y250500D01*
X18210Y250500D01*
X18210Y253350D02*
X25210Y253350D01*
X25210Y256200D02*
X18210Y256200D01*
D13*
X254000Y18260D03*
X254000Y78260D03*
D14*
X187960Y182880D03*
X162560Y182880D03*
X187960Y210820D03*
X162560Y210820D03*
X187960Y238760D03*
X162560Y238760D03*
X187960Y266700D03*
X162560Y266700D03*
X746760Y180340D03*
X772160Y180340D03*
X746760Y208280D03*
X772160Y208280D03*
X746760Y236220D03*
X772160Y236220D03*
X746760Y264160D03*
X772160Y264160D03*
D11*
X457200Y115180D03*
X457200Y98180D03*
X218440Y148200D03*
X218440Y131200D03*
X215900Y183760D03*
X215900Y166760D03*
D10*
X138040Y20320D03*
X121040Y20320D03*
X120260Y66040D03*
X103260Y66040D03*
X433950Y157480D03*
X416950Y157480D03*
D11*
X457200Y65160D03*
X457200Y82160D03*
D10*
X31360Y271780D03*
X14360Y271780D03*
X757800Y43180D03*
X740800Y43180D03*
X757800Y78740D03*
X740800Y78740D03*
D11*
X320040Y32140D03*
X320040Y49140D03*
X403860Y229480D03*
X403860Y212480D03*
D10*
X173600Y20320D03*
X156600Y20320D03*
D15*
X505520Y187960D03*
X449520Y187960D03*
D16*
X449580Y28956D02*
X449580Y16764D01*
X424180Y16764D02*
X424180Y28956D01*
X398780Y28956D02*
X398780Y16764D01*
X373380Y16764D02*
X373380Y28956D01*
X347980Y28956D02*
X347980Y16764D01*
D17*
X430740Y233790D03*
X430740Y240290D03*
X430740Y246790D03*
X430740Y253290D03*
X430740Y259790D03*
X430740Y266290D03*
X430740Y272790D03*
X430740Y279290D03*
X488740Y233790D03*
X488740Y240290D03*
X488740Y246790D03*
X488740Y253290D03*
X488740Y259790D03*
X488740Y266290D03*
X488740Y272790D03*
X488740Y279290D03*
D18*
X172060Y68343D03*
X162560Y68343D03*
X153060Y68343D03*
X153060Y43417D03*
X172060Y43417D03*
D19*
X403860Y127000D03*
X403860Y119000D03*
X403860Y111000D03*
X403860Y103000D03*
X403860Y95000D03*
X403860Y87000D03*
X403860Y79000D03*
X403860Y71000D03*
X318860Y127000D03*
X318860Y119000D03*
X318860Y111000D03*
X318860Y103000D03*
X318860Y95000D03*
X318860Y87000D03*
X318860Y79000D03*
X318860Y71000D03*
D20*
X389360Y141500D03*
X389360Y56500D03*
X381360Y56500D03*
X373360Y56500D03*
X365360Y56500D03*
X357360Y56500D03*
X349360Y56500D03*
X341360Y56500D03*
X333360Y56500D03*
X381360Y141500D03*
X373360Y141500D03*
X365360Y141500D03*
X357360Y141500D03*
X349360Y141500D03*
X341360Y141500D03*
X333360Y141500D03*
D14*
X543560Y27940D03*
X568960Y27940D03*
X594360Y27940D03*
X650240Y22860D03*
X675640Y22860D03*
X701040Y22860D03*
D21*
X32960Y65420D03*
D22*
X32960Y139420D03*
X32960Y159420D03*
X32960Y179420D03*
X32960Y199420D03*
X32960Y229420D03*
D23*
X198120Y93795D03*
X198120Y129725D03*
D24*
X294640Y190500D03*
X294640Y177800D03*
X294640Y165100D03*
X294640Y152400D03*
X240640Y190500D03*
X240640Y177800D03*
X240640Y165100D03*
X240640Y152400D03*
D25*
X326350Y172466D03*
X332850Y172466D03*
X339350Y172466D03*
X345850Y172466D03*
X352350Y172466D03*
X358850Y172466D03*
X365350Y172466D03*
X371850Y172466D03*
X378350Y172466D03*
X384850Y172466D03*
X384850Y228854D03*
X378350Y228854D03*
X371850Y228854D03*
X365350Y228854D03*
X358850Y228854D03*
X352350Y228854D03*
X345850Y228854D03*
X339350Y228854D03*
X332850Y228854D03*
X326350Y228854D03*
D26*
X490982Y64500D03*
X490982Y113300D03*
D27*
X109220Y217300D03*
X109220Y265300D03*
D28*
X147320Y88900D03*
X160020Y88900D03*
X162560Y55880D03*
X205740Y53340D03*
D29*
X55880Y222340D02*
X32960Y199420D01*
X55880Y222340D02*
X55880Y238760D01*
X82420Y265300D01*
X109220Y265300D01*
D28*
X127000Y274320D03*
X139700Y274320D03*
X139700Y261620D03*
X127000Y261620D03*
X139700Y248920D03*
X129540Y248920D03*
D30*
X157480Y91440D02*
X160020Y88900D01*
X157480Y91440D02*
X157480Y100720D01*
X55880Y238760D02*
X40640Y254000D01*
X39250Y254000D01*
X783470Y93980D02*
X783470Y60960D01*
X693420Y5080D02*
X675640Y22860D01*
X693420Y5080D02*
X756920Y5080D01*
X783470Y31630D01*
X783470Y60960D01*
D28*
X566420Y220980D03*
X594360Y231140D03*
X622300Y215900D03*
X599440Y177800D03*
X627380Y152400D03*
X652780Y182880D03*
X678180Y152400D03*
X635000Y119380D03*
X706120Y116840D03*
X698500Y68580D03*
X647700Y48260D03*
X594360Y71120D03*
X530860Y99060D03*
X520700Y33020D03*
X299720Y81280D03*
X165100Y154940D03*
X281940Y137160D03*
X266700Y121920D03*
D29*
X281940Y137160D01*
D30*
X294072Y164532D02*
X294640Y165100D01*
X294072Y164532D02*
X284772Y164532D01*
X281940Y161700D01*
X281940Y137160D01*
D28*
X325120Y154940D03*
X243840Y220980D03*
X213360Y246380D03*
D30*
X208280Y241300D01*
X208280Y228600D01*
D28*
X208280Y228600D03*
X276860Y200660D03*
D30*
X281414Y200660D01*
X282878Y202124D01*
X324589Y202124D01*
D28*
X324589Y202124D03*
X393700Y233680D03*
X535940Y172720D03*
X477520Y190500D03*
X416560Y177800D03*
X388976Y101702D03*
D31*
X381003Y101811D01*
X372635Y101927D01*
X359283Y88900D01*
D28*
X359283Y88900D03*
D30*
X381000Y56860D02*
X381360Y56500D01*
X381000Y56860D02*
X381000Y68580D01*
X388620Y57240D02*
X389360Y56500D01*
X388620Y57240D02*
X388620Y66040D01*
X386080Y68580D01*
X381000Y68580D01*
X488740Y279290D02*
X520810Y279290D01*
X523240Y276860D01*
D28*
X523240Y276860D03*
D30*
X488740Y279290D02*
X469790Y279290D01*
X447040Y256540D01*
D28*
X447040Y256540D03*
D30*
X302380Y37980D02*
X302380Y15748D01*
X302380Y37980D02*
X294640Y45720D01*
X294640Y76200D01*
X299720Y81280D01*
D28*
X263244Y188876D03*
D30*
X265076Y188876D01*
X276860Y200660D01*
X384850Y228854D02*
X388874Y228854D01*
X393700Y233680D01*
D31*
X381000Y101808D02*
X381000Y68580D01*
X381000Y101808D02*
X381003Y101811D01*
D30*
X433950Y182880D02*
X439030Y187960D01*
X440440Y95000D02*
X403860Y95000D01*
X440440Y95000D02*
X447040Y101600D01*
X453780Y157480D02*
X433950Y157480D01*
X447040Y124460D02*
X447040Y101600D01*
X453780Y131200D02*
X453780Y157480D01*
X453780Y131200D02*
X447040Y124460D01*
X424180Y37338D02*
X424180Y22860D01*
X393700Y90010D02*
X398690Y95000D01*
X393700Y90010D02*
X393700Y67818D01*
X398690Y95000D02*
X403860Y95000D01*
X393700Y67818D02*
X424180Y37338D01*
X433950Y157480D02*
X433950Y182880D01*
X439030Y187960D02*
X449520Y187960D01*
D28*
X332740Y68580D03*
D30*
X332740Y71120D02*
X324860Y79000D01*
X318860Y79000D01*
X332740Y71120D02*
X332740Y68580D01*
X318860Y71000D02*
X309760Y71000D01*
X304800Y66040D01*
X304800Y48260D01*
D28*
X304800Y48260D03*
D30*
X403860Y79000D02*
X454040Y79000D01*
X457200Y82160D01*
X446020Y87000D02*
X403860Y87000D01*
X446020Y87000D02*
X457200Y98180D01*
X457200Y115180D02*
X489102Y115180D01*
X490982Y113300D01*
X490982Y155838D01*
X489340Y157480D01*
X332850Y172466D02*
X332850Y190390D01*
X332740Y190500D01*
D28*
X332740Y190500D03*
D30*
X594360Y27940D02*
X645160Y78740D01*
X740800Y78740D01*
X403980Y71120D02*
X403860Y71000D01*
X403980Y71120D02*
X416560Y71120D01*
D28*
X416560Y71120D03*
X424180Y101830D03*
D30*
X423010Y103000D01*
X403860Y103000D01*
D28*
X314170Y134620D03*
D30*
X314170Y131690D01*
X318860Y127000D01*
D28*
X398780Y50800D03*
D30*
X353993Y22860D02*
X347980Y22860D01*
X386334Y38354D02*
X398780Y50800D01*
X369487Y38354D02*
X353993Y22860D01*
X369487Y38354D02*
X386334Y38354D01*
X304508Y197552D02*
X292100Y197552D01*
X284772Y197552D01*
X311560Y190500D02*
X332740Y190500D01*
X311560Y190500D02*
X304508Y197552D01*
D28*
X271191Y183970D03*
D30*
X284772Y197552D01*
D28*
X279400Y172720D03*
D30*
X284480Y177800D01*
X294640Y177800D01*
D28*
X403860Y160020D03*
D30*
X414410Y160020D01*
X416950Y157480D01*
X457860Y64500D02*
X490982Y64500D01*
X457860Y64500D02*
X457200Y65160D01*
X490982Y64500D02*
X490982Y21962D01*
X489340Y20320D01*
X318860Y87000D02*
X311780Y87000D01*
X294640Y104140D02*
X294640Y152400D01*
X294640Y104140D02*
X311780Y87000D01*
X311400Y95000D02*
X318860Y95000D01*
X311400Y95000D02*
X307340Y99060D01*
X307340Y185420D01*
X302260Y190500D01*
X294640Y190500D01*
X43400Y149860D02*
X32960Y139420D01*
X43400Y149860D02*
X154940Y149860D01*
X226742Y160502D02*
X231340Y165100D01*
X218440Y133030D02*
X218440Y131200D01*
X218440Y133030D02*
X226742Y141332D01*
X226742Y160502D01*
X161807Y142993D02*
X154940Y149860D01*
X161807Y142993D02*
X198353Y142993D01*
X210146Y131200D02*
X218440Y131200D01*
X210146Y131200D02*
X198353Y142993D01*
X231340Y165100D02*
X240640Y165100D01*
X123860Y159420D02*
X32960Y159420D01*
X123860Y159420D02*
X129540Y165100D01*
X197240Y165100D02*
X215900Y183760D01*
X197240Y165100D02*
X129540Y165100D01*
X231140Y177800D02*
X240640Y177800D01*
X231140Y177800D02*
X225180Y183760D01*
X215900Y183760D01*
X215900Y166760D02*
X216730Y165930D01*
X218440Y164220D01*
X218440Y148200D01*
X209990Y165930D02*
X199000Y154940D01*
X209990Y165930D02*
X216730Y165930D01*
X384850Y172466D02*
X403860Y191476D01*
X403860Y212480D01*
X384850Y172466D02*
X384850Y166330D01*
X401320Y149860D01*
X393228Y132198D02*
X388738Y132198D01*
X401320Y140290D02*
X401320Y149860D01*
X401320Y140290D02*
X393228Y132198D01*
X359540Y103000D02*
X318860Y103000D01*
X359540Y103000D02*
X388738Y132198D01*
X332850Y210930D02*
X332850Y228854D01*
X332850Y210930D02*
X332740Y210820D01*
D28*
X332740Y210820D03*
X447040Y278412D03*
D30*
X446162Y279290D01*
X430740Y279290D01*
X701040Y22860D02*
X726440Y22860D01*
X740800Y37220D02*
X740800Y43180D01*
X740800Y37220D02*
X726440Y22860D01*
D28*
X609600Y114300D03*
D32*
X609600Y142240D02*
X523240Y228600D01*
D28*
X523240Y228600D03*
D32*
X609600Y142240D02*
X609600Y114300D01*
D30*
X373360Y141500D02*
X373360Y152420D01*
X365350Y160430D02*
X365350Y172466D01*
X365350Y160430D02*
X373360Y152420D01*
X365360Y152800D02*
X365360Y141500D01*
X358850Y159310D02*
X358850Y172466D01*
X358850Y159310D02*
X365360Y152800D01*
X357360Y153180D02*
X357360Y141500D01*
X352350Y158190D02*
X352350Y172466D01*
X352350Y158190D02*
X357360Y153180D01*
X349360Y153560D02*
X349360Y141500D01*
X345850Y157070D02*
X345850Y172466D01*
X345850Y157070D02*
X349360Y153560D01*
X381360Y152040D02*
X381360Y141500D01*
X371850Y161550D02*
X371850Y172466D01*
X371850Y161550D02*
X381360Y152040D01*
X389360Y151660D02*
X389360Y141500D01*
X378350Y162670D02*
X378350Y172466D01*
X378350Y162670D02*
X389360Y151660D01*
X327400Y56500D02*
X320040Y49140D01*
X327400Y56500D02*
X333360Y56500D01*
D28*
X281940Y20320D03*
X281940Y10160D03*
X205740Y20320D03*
X193040Y20320D03*
X193040Y10160D03*
X205740Y10160D03*
X78740Y198120D03*
X93980Y198120D03*
X93980Y185420D03*
X78740Y185420D03*
D29*
X109220Y179420D02*
X32960Y179420D01*
X109220Y179420D02*
X109220Y217300D01*
D30*
X14360Y271780D02*
X5080Y262500D01*
X5080Y207300D02*
X32960Y179420D01*
X5080Y207300D02*
X5080Y262500D01*
D29*
X610833Y22860D02*
X650240Y22860D01*
X610833Y22860D02*
X600673Y12700D01*
X558800Y12700D01*
X543560Y27940D01*
D32*
X293099Y10160D02*
X281940Y10160D01*
X296655Y6604D02*
X522224Y6604D01*
X296655Y6604D02*
X293099Y10160D01*
X522224Y6604D02*
X543560Y27940D01*
D30*
X320040Y15868D02*
X319920Y15748D01*
X320040Y15868D02*
X320040Y32140D01*
X31360Y263650D02*
X21710Y254000D01*
X31360Y263650D02*
X31360Y271780D01*
X757800Y43180D02*
X765930Y51310D01*
X765930Y60960D01*
X757800Y78740D02*
X765930Y86870D01*
X765930Y93980D01*
D28*
X147320Y134620D03*
D30*
X362309Y246790D02*
X430740Y246790D01*
X362309Y246790D02*
X360381Y248718D01*
X253798Y248718D02*
X187960Y182880D01*
X253798Y248718D02*
X360381Y248718D01*
X248210Y253290D02*
X205740Y210820D01*
X248210Y253290D02*
X430740Y253290D01*
X205740Y210820D02*
X187960Y210820D01*
X208990Y259790D02*
X430740Y259790D01*
X208990Y259790D02*
X187960Y238760D01*
X188370Y266290D02*
X430740Y266290D01*
X188370Y266290D02*
X187960Y266700D01*
X488740Y253290D02*
X701750Y253290D01*
X746760Y208280D01*
X723190Y259790D02*
X488740Y259790D01*
X723190Y259790D02*
X746760Y236220D01*
X680310Y246790D02*
X488740Y246790D01*
X680310Y246790D02*
X746760Y180340D01*
X744630Y266290D02*
X488740Y266290D01*
X744630Y266290D02*
X746760Y264160D01*
X365360Y63900D02*
X365360Y56500D01*
X359890Y69370D02*
X355311Y69370D01*
X350520Y74161D01*
X359890Y69370D02*
X365360Y63900D01*
X350520Y74161D02*
X350520Y86360D01*
D28*
X350520Y86360D03*
X358140Y76200D03*
D30*
X363220Y76200D01*
X373380Y66040D01*
X373360Y66020D01*
X373360Y56500D01*
X403860Y127000D02*
X416560Y127000D01*
D28*
X416560Y127000D03*
D30*
X341360Y72660D02*
X341360Y56500D01*
X341360Y72660D02*
X330200Y83820D01*
X330420Y83820D01*
D28*
X330420Y83820D03*
X266700Y201450D03*
D30*
X266700Y223520D01*
X284480Y241300D01*
D28*
X284480Y241300D03*
D30*
X404240Y119380D02*
X403860Y119000D01*
X404240Y119380D02*
X424180Y119380D01*
D28*
X424180Y119380D03*
D30*
X357360Y56500D02*
X357360Y49040D01*
D28*
X363220Y43180D03*
X553720Y43180D03*
D30*
X594360Y43180D01*
X713740Y142240D02*
X716280Y144780D01*
D28*
X716280Y144780D03*
D30*
X363220Y43180D02*
X357360Y49040D01*
X594360Y43180D02*
X693420Y142240D01*
X713740Y142240D01*
X349360Y68855D02*
X349360Y56500D01*
X349360Y68855D02*
X345948Y72267D01*
X345948Y78232D02*
X340360Y83820D01*
X345948Y78232D02*
X345948Y72267D01*
X340360Y83820D02*
X340360Y86360D01*
D28*
X340360Y86360D03*
D30*
X403860Y111000D02*
X404620Y111760D01*
X416560Y111760D01*
D28*
X416560Y111760D03*
D29*
X156600Y20320D02*
X153060Y23860D01*
X153060Y43417D01*
D30*
X350520Y241300D02*
X352350Y239470D01*
D28*
X314960Y241300D03*
X447040Y269240D03*
D30*
X442195Y271545D02*
X440950Y272790D01*
X442195Y271545D02*
X444500Y269240D01*
X440950Y272790D02*
X430740Y272790D01*
X444500Y269240D02*
X447040Y269240D01*
X352350Y239470D02*
X352350Y228854D01*
X350520Y241300D02*
X314960Y241300D01*
X378350Y238650D02*
X378350Y228854D01*
X378350Y238650D02*
X381000Y241300D01*
X421810Y241300D02*
X421872Y241238D01*
X429792Y241238D01*
X430740Y240290D01*
X421810Y241300D02*
X381000Y241300D01*
X421750Y233790D02*
X430740Y233790D01*
X421750Y233790D02*
X416560Y228600D01*
X416560Y226060D01*
D28*
X416560Y226060D03*
X383540Y195580D03*
D30*
X360634Y195580D01*
X345440Y210774D01*
X345440Y228444D01*
X345850Y228854D01*
X475990Y272790D02*
X488740Y272790D01*
X475990Y272790D02*
X457200Y254000D01*
X365760Y228444D02*
X365350Y228854D01*
X365760Y228444D02*
X365760Y215900D01*
X370840Y210820D01*
X373380Y210820D01*
X373860Y210340D01*
X375920Y210340D01*
D28*
X375920Y210340D03*
X449580Y233680D03*
D30*
X457200Y241300D02*
X457200Y254000D01*
X457200Y241300D02*
X449580Y233680D01*
D28*
X469900Y238760D03*
D30*
X471430Y240290D01*
X488740Y240290D01*
X375204Y217170D02*
X371850Y220524D01*
X375204Y217170D02*
X382270Y217170D01*
X371850Y220524D02*
X371850Y228854D01*
X384528Y214912D02*
X386080Y214912D01*
D28*
X386080Y214912D03*
D30*
X384528Y214912D02*
X382270Y217170D01*
X481010Y226060D02*
X488740Y233790D01*
X429598Y223108D02*
X429598Y216238D01*
X411480Y198120D01*
X429598Y223108D02*
X432550Y226060D01*
X481010Y226060D01*
D28*
X411480Y198120D03*
X397030Y196871D03*
D30*
X390701Y203200D01*
X368300Y203200D01*
X358850Y212650D01*
X358850Y228854D01*
M02*
