M48
;GenerationSoftware,Autodesk,EAGLE,9.1.3*%
;CreationDate,2019-04-01T20:10:05Z*%
FMAT,2
ICI,OFF
METRIC,TZ,000.000
T7C0.350
T6C0.630
T5C0.700
T4C0.800
T3C0.813
T2C1.016
T1C3.302
%
G90
M71
T1
X3302Y2794
X76200Y13462
T2
X18796Y18288
X16256Y18288
X18796Y21082
X16256Y21082
X18796Y23876
X16256Y23876
X70104Y2286
X67564Y2286
X65024Y2286
X59436Y2794
X56896Y2794
X54356Y2794
X18796Y26670
X16256Y26670
X74676Y18034
X77216Y18034
X74676Y20828
X77216Y26416
X74676Y26416
X77216Y23622
X74676Y23622
X77216Y20828
T3
X44958Y2286
X42418Y2286
X39878Y2286
X37338Y2286
X34798Y2286
T4
X3296Y13942
X3296Y15942
X3296Y17942
X3296Y19942
X3296Y22942
T5
X3296Y6542
T6
X49098Y6450
X49098Y11330
T7
X41656Y17780
X38898Y10170
X35928Y8890
X52324Y27686
X44704Y25654
X26324Y18888
X33274Y6858
X30480Y4826
X33274Y19050
X41656Y7112
X42418Y10183
X31417Y13462
X39878Y5080
X27119Y18397
X27940Y17272
X40386Y16002
X33274Y21082
X44704Y27841
X60960Y11430
X52324Y22860
X28194Y2032
X28194Y1016
X20574Y2032
X19304Y2032
X19304Y1016
X20574Y1016
X14732Y8890
X9398Y19812
X9398Y18542
X7874Y18542
X14732Y13462
X35052Y8636
X35814Y7620
X41656Y12700
X33042Y8382
X26670Y20145
X28448Y24130
X42418Y11938
X36322Y4318
X55372Y4318
X71628Y14478
X34036Y8636
X41656Y11176
X31496Y24130
X44704Y26924
X41656Y22606
X38354Y19558
X37592Y21034
X44958Y23368
X46990Y23876
X38608Y21491
X41148Y19812
X39703Y19687
X47752Y19050
X53594Y17272
X39370Y23368
X32459Y20212
X27686Y20066
X20828Y22860
X21336Y24638
X24384Y22098
X32512Y15494
X26670Y12192
X28194Y13716
X16510Y15494
X29972Y8128
X52070Y3302
X53086Y9906
X59436Y7112
X64770Y4826
X69850Y6858
X70612Y11684
X63500Y11938
X67818Y15240
X65278Y18288
X62738Y15240
X59944Y17780
X62230Y21590
X59436Y23114
X56642Y22098
X12954Y24892
X13970Y24892
X12700Y26162
X13970Y26162
X13970Y27432
X12700Y27432
X20574Y5334
X16256Y5588
X16002Y8890
X7874Y19812
M30