G04 EAGLE Gerber X2 export*
%TF.Part,Single*%
%TF.FileFunction,Profile,NP*%
%TF.FilePolarity,Positive*%
%TF.GenerationSoftware,Autodesk,EAGLE,9.1.3*%
%TF.CreationDate,2019-04-01T20:10:06Z*%
G75*
%MOMM*%
%FSLAX34Y34*%
%LPD*%
%AMOC8*
5,1,8,0,0,1.08239X$1,22.5*%
G01*
%ADD10C,0.254000*%


D10*
X-2540Y295910D02*
X0Y0D01*
X793750Y0D01*
X793750Y295910D01*
X-2540Y295910D01*
X49530Y27400D02*
X49459Y26321D01*
X49318Y25249D01*
X49107Y24189D01*
X48828Y23145D01*
X48480Y22121D01*
X48066Y21123D01*
X47588Y20153D01*
X47048Y19217D01*
X46447Y18318D01*
X45789Y17461D01*
X45077Y16648D01*
X44312Y15884D01*
X43499Y15171D01*
X42642Y14513D01*
X41743Y13912D01*
X40807Y13372D01*
X39837Y12894D01*
X38839Y12480D01*
X37815Y12132D01*
X36771Y11853D01*
X35711Y11642D01*
X34639Y11501D01*
X33560Y11430D01*
X32480Y11430D01*
X31401Y11501D01*
X30329Y11642D01*
X29269Y11853D01*
X28225Y12132D01*
X27201Y12480D01*
X26203Y12894D01*
X25233Y13372D01*
X24297Y13912D01*
X23398Y14513D01*
X22541Y15171D01*
X21728Y15884D01*
X20964Y16648D01*
X20251Y17461D01*
X19593Y18318D01*
X18992Y19217D01*
X18452Y20153D01*
X17974Y21123D01*
X17560Y22121D01*
X17212Y23145D01*
X16933Y24189D01*
X16722Y25249D01*
X16581Y26321D01*
X16510Y27400D01*
X16510Y28480D01*
X16581Y29559D01*
X16722Y30631D01*
X16933Y31691D01*
X17212Y32735D01*
X17560Y33759D01*
X17974Y34757D01*
X18452Y35727D01*
X18992Y36663D01*
X19593Y37562D01*
X20251Y38419D01*
X20964Y39232D01*
X21728Y39997D01*
X22541Y40709D01*
X23398Y41367D01*
X24297Y41968D01*
X25233Y42508D01*
X26203Y42986D01*
X27201Y43400D01*
X28225Y43748D01*
X29269Y44027D01*
X30329Y44238D01*
X31401Y44379D01*
X32480Y44450D01*
X33560Y44450D01*
X34639Y44379D01*
X35711Y44238D01*
X36771Y44027D01*
X37815Y43748D01*
X38839Y43400D01*
X39837Y42986D01*
X40807Y42508D01*
X41743Y41968D01*
X42642Y41367D01*
X43499Y40709D01*
X44312Y39997D01*
X45077Y39232D01*
X45789Y38419D01*
X46447Y37562D01*
X47048Y36663D01*
X47588Y35727D01*
X48066Y34757D01*
X48480Y33759D01*
X48828Y32735D01*
X49107Y31691D01*
X49318Y30631D01*
X49459Y29559D01*
X49530Y28480D01*
X49530Y27400D01*
X778510Y134080D02*
X778439Y133001D01*
X778298Y131929D01*
X778087Y130869D01*
X777808Y129825D01*
X777460Y128801D01*
X777046Y127803D01*
X776568Y126833D01*
X776028Y125897D01*
X775427Y124998D01*
X774769Y124141D01*
X774057Y123328D01*
X773292Y122564D01*
X772479Y121851D01*
X771622Y121193D01*
X770723Y120592D01*
X769787Y120052D01*
X768817Y119574D01*
X767819Y119160D01*
X766795Y118812D01*
X765751Y118533D01*
X764691Y118322D01*
X763619Y118181D01*
X762540Y118110D01*
X761460Y118110D01*
X760381Y118181D01*
X759309Y118322D01*
X758249Y118533D01*
X757205Y118812D01*
X756181Y119160D01*
X755183Y119574D01*
X754213Y120052D01*
X753277Y120592D01*
X752378Y121193D01*
X751521Y121851D01*
X750708Y122564D01*
X749944Y123328D01*
X749231Y124141D01*
X748573Y124998D01*
X747972Y125897D01*
X747432Y126833D01*
X746954Y127803D01*
X746540Y128801D01*
X746192Y129825D01*
X745913Y130869D01*
X745702Y131929D01*
X745561Y133001D01*
X745490Y134080D01*
X745490Y135160D01*
X745561Y136239D01*
X745702Y137311D01*
X745913Y138371D01*
X746192Y139415D01*
X746540Y140439D01*
X746954Y141437D01*
X747432Y142407D01*
X747972Y143343D01*
X748573Y144242D01*
X749231Y145099D01*
X749944Y145912D01*
X750708Y146677D01*
X751521Y147389D01*
X752378Y148047D01*
X753277Y148648D01*
X754213Y149188D01*
X755183Y149666D01*
X756181Y150080D01*
X757205Y150428D01*
X758249Y150707D01*
X759309Y150918D01*
X760381Y151059D01*
X761460Y151130D01*
X762540Y151130D01*
X763619Y151059D01*
X764691Y150918D01*
X765751Y150707D01*
X766795Y150428D01*
X767819Y150080D01*
X768817Y149666D01*
X769787Y149188D01*
X770723Y148648D01*
X771622Y148047D01*
X772479Y147389D01*
X773292Y146677D01*
X774057Y145912D01*
X774769Y145099D01*
X775427Y144242D01*
X776028Y143343D01*
X776568Y142407D01*
X777046Y141437D01*
X777460Y140439D01*
X777808Y139415D01*
X778087Y138371D01*
X778298Y137311D01*
X778439Y136239D01*
X778510Y135160D01*
X778510Y134080D01*
M02*
