G04 EAGLE Gerber X2 export*
%TF.Part,Single*%
%TF.FileFunction,Paste,Top*%
%TF.FilePolarity,Positive*%
%TF.GenerationSoftware,Autodesk,EAGLE,9.1.3*%
%TF.CreationDate,2019-04-01T20:10:06Z*%
G75*
%MOMM*%
%FSLAX34Y34*%
%LPD*%
%AMOC8*
5,1,8,0,0,1.08239X$1,22.5*%
G01*
%ADD10R,1.100000X1.000000*%
%ADD11R,1.000000X1.100000*%
%ADD12C,0.300000*%
%ADD13R,3.250000X2.500000*%
%ADD14R,1.800000X3.200000*%
%ADD15R,1.500000X0.450000*%
%ADD16R,0.589100X1.319200*%
%ADD17R,1.200000X0.500000*%
%ADD18R,0.500000X1.200000*%
%ADD19R,0.789100X0.977200*%
%ADD20R,1.700000X0.750000*%
%ADD21R,0.355600X1.676400*%
%ADD22R,1.400000X3.000000*%


D10*
X182000Y154940D03*
X199000Y154940D03*
X120260Y43180D03*
X103260Y43180D03*
D11*
X157480Y117720D03*
X157480Y100720D03*
X195580Y34680D03*
X195580Y51680D03*
D10*
X453780Y157480D03*
X470780Y157480D03*
X489340Y20320D03*
X506340Y20320D03*
X489340Y157480D03*
X506340Y157480D03*
D12*
X305880Y19248D02*
X305880Y12248D01*
X298880Y12248D01*
X298880Y19248D01*
X305880Y19248D01*
X305880Y15098D02*
X298880Y15098D01*
X298880Y17948D02*
X305880Y17948D01*
X323420Y19248D02*
X323420Y12248D01*
X316420Y12248D01*
X316420Y19248D01*
X323420Y19248D01*
X323420Y15098D02*
X316420Y15098D01*
X316420Y17948D02*
X323420Y17948D01*
X779970Y90480D02*
X779970Y97480D01*
X786970Y97480D01*
X786970Y90480D01*
X779970Y90480D01*
X779970Y93330D02*
X786970Y93330D01*
X786970Y96180D02*
X779970Y96180D01*
X762430Y97480D02*
X762430Y90480D01*
X762430Y97480D02*
X769430Y97480D01*
X769430Y90480D01*
X762430Y90480D01*
X762430Y93330D02*
X769430Y93330D01*
X769430Y96180D02*
X762430Y96180D01*
X779970Y64460D02*
X779970Y57460D01*
X779970Y64460D02*
X786970Y64460D01*
X786970Y57460D01*
X779970Y57460D01*
X779970Y60310D02*
X786970Y60310D01*
X786970Y63160D02*
X779970Y63160D01*
X762430Y64460D02*
X762430Y57460D01*
X762430Y64460D02*
X769430Y64460D01*
X769430Y57460D01*
X762430Y57460D01*
X762430Y60310D02*
X769430Y60310D01*
X769430Y63160D02*
X762430Y63160D01*
X35750Y250500D02*
X35750Y257500D01*
X42750Y257500D01*
X42750Y250500D01*
X35750Y250500D01*
X35750Y253350D02*
X42750Y253350D01*
X42750Y256200D02*
X35750Y256200D01*
X18210Y257500D02*
X18210Y250500D01*
X18210Y257500D02*
X25210Y257500D01*
X25210Y250500D01*
X18210Y250500D01*
X18210Y253350D02*
X25210Y253350D01*
X25210Y256200D02*
X18210Y256200D01*
D13*
X254000Y18260D03*
X254000Y78260D03*
D11*
X457200Y115180D03*
X457200Y98180D03*
X218440Y148200D03*
X218440Y131200D03*
X215900Y183760D03*
X215900Y166760D03*
D10*
X138040Y20320D03*
X121040Y20320D03*
X120260Y66040D03*
X103260Y66040D03*
X433950Y157480D03*
X416950Y157480D03*
D11*
X457200Y65160D03*
X457200Y82160D03*
D10*
X31360Y271780D03*
X14360Y271780D03*
X757800Y43180D03*
X740800Y43180D03*
X757800Y78740D03*
X740800Y78740D03*
D11*
X320040Y32140D03*
X320040Y49140D03*
X403860Y229480D03*
X403860Y212480D03*
D10*
X173600Y20320D03*
X156600Y20320D03*
D14*
X505520Y187960D03*
X449520Y187960D03*
D15*
X430740Y233790D03*
X430740Y240290D03*
X430740Y246790D03*
X430740Y253290D03*
X430740Y259790D03*
X430740Y266290D03*
X430740Y272790D03*
X430740Y279290D03*
X488740Y233790D03*
X488740Y240290D03*
X488740Y246790D03*
X488740Y253290D03*
X488740Y259790D03*
X488740Y266290D03*
X488740Y272790D03*
X488740Y279290D03*
D16*
X172060Y68343D03*
X162560Y68343D03*
X153060Y68343D03*
X153060Y43417D03*
X172060Y43417D03*
D17*
X403860Y127000D03*
X403860Y119000D03*
X403860Y111000D03*
X403860Y103000D03*
X403860Y95000D03*
X403860Y87000D03*
X403860Y79000D03*
X403860Y71000D03*
X318860Y127000D03*
X318860Y119000D03*
X318860Y111000D03*
X318860Y103000D03*
X318860Y95000D03*
X318860Y87000D03*
X318860Y79000D03*
X318860Y71000D03*
D18*
X389360Y141500D03*
X389360Y56500D03*
X381360Y56500D03*
X373360Y56500D03*
X365360Y56500D03*
X357360Y56500D03*
X349360Y56500D03*
X341360Y56500D03*
X333360Y56500D03*
X381360Y141500D03*
X373360Y141500D03*
X365360Y141500D03*
X357360Y141500D03*
X349360Y141500D03*
X341360Y141500D03*
X333360Y141500D03*
D19*
X198120Y93795D03*
X198120Y129725D03*
D20*
X294640Y190500D03*
X294640Y177800D03*
X294640Y165100D03*
X294640Y152400D03*
X240640Y190500D03*
X240640Y177800D03*
X240640Y165100D03*
X240640Y152400D03*
D21*
X326350Y172466D03*
X332850Y172466D03*
X339350Y172466D03*
X345850Y172466D03*
X352350Y172466D03*
X358850Y172466D03*
X365350Y172466D03*
X371850Y172466D03*
X378350Y172466D03*
X384850Y172466D03*
X384850Y228854D03*
X378350Y228854D03*
X371850Y228854D03*
X365350Y228854D03*
X358850Y228854D03*
X352350Y228854D03*
X345850Y228854D03*
X339350Y228854D03*
X332850Y228854D03*
X326350Y228854D03*
D22*
X109220Y217300D03*
X109220Y265300D03*
M02*
